<!DOCTYPE svg PUBLIC "-//W3C//DTD SVG 1.1//EN" "http://www.w3.org/Graphics/SVG/1.1/DTD/svg11.dtd">
<!-- Uploaded to: SVG Repo, www.svgrepo.com, Transformed by: SVG Repo Mixer Tools -->
<svg width="100px" height="100px" viewBox="-51.2 -51.2 614.40 614.40" data-name="Layer 1" id="Layer_1" xmlns="http://www.w3.org/2000/svg" fill="#ffc800" stroke="#ffc800" transform="rotate(0)">
<g id="SVGRepo_bgCarrier" stroke-width="0"/>
<g id="SVGRepo_tracerCarrier" stroke-linecap="round" stroke-linejoin="round" stroke="#CCCCCC" stroke-width="8.192"/>
<g id="SVGRepo_iconCarrier">
<defs>
<style>.cls-1{fill:#e9a30c;}.cls-2{fill:none;stroke:#e9a30c;stroke-linecap:round;stroke-linejoin:round;stroke-width:17.408;}</style>
</defs>
<title/>
<path class="cls-1" d="M283.87,254.81h0c-3.46-2.72-8.61-4.9-15.32-6.48l-14.72-3.47c-2.37-.55-4.3-1.05-5.91-1.52a23.57,23.57,0,0,1-4.73-1.76,5.17,5.17,0,0,1-3-4.91,6.57,6.57,0,0,1,3.22-5.91,13.82,13.82,0,0,1,4.42-1.82,24.45,24.45,0,0,1,5.54-.57,22,22,0,0,1,9.06,1.66l.45.22a9.6,9.6,0,0,1,4.67,4.74,10.34,10.34,0,0,0,9.36,6.25h.62a10.14,10.14,0,0,0,8.58-4.72,10,10,0,0,0,.64-9.64,25.39,25.39,0,0,0-8-9.76,37,37,0,0,0-13.36-6.21v-2.78a10,10,0,0,0-20,0v2.26c-6.79,1.11-12.32,3.55-16.47,7.28a26.22,26.22,0,0,0-9,20.26c0,8.91,3.15,15.59,9.37,19.85,3.39,2.35,9.17,4.45,17.65,6.41l1.48.34,9.09,2c2,.44,3.75.87,5.25,1.33a25.94,25.94,0,0,1,5.74,2.33,5.15,5.15,0,0,1,2.71,4.69c0,3.86-1.95,6.33-6.12,7.79a18.85,18.85,0,0,1-2.17.59,36.26,36.26,0,0,1-7.45.67,27.54,27.54,0,0,1-7.48-.91,11.74,11.74,0,0,1-5.88-3.54,9.92,9.92,0,0,1-1.54-2.73,10.52,10.52,0,1,0-19.19,8.57,26.27,26.27,0,0,0,7.45,9.08,36.75,36.75,0,0,0,16.54,7v2.46a10,10,0,0,0,20,0v-2.24c7-1.12,12.75-3.6,17.21-7.41a26.17,26.17,0,0,0,9.6-20.66C292.15,265.46,289.37,259.15,283.87,254.81Z"/>
<circle class="cls-2" cx="256" cy="256" r="100.75"/>
</g>
</svg>