<!DOCTYPE svg PUBLIC "-//W3C//DTD SVG 1.1//EN" "http://www.w3.org/Graphics/SVG/1.1/DTD/svg11.dtd">
<!-- Uploaded to: SVG Repo, www.svgrepo.com, Transformed by: SVG Repo Mixer Tools -->
<svg fill="#cf4a4a" height="64px" width="64px" version="1.1" id="Layer_1" xmlns="http://www.w3.org/2000/svg" xmlns:xlink="http://www.w3.org/1999/xlink" viewBox="-201.45 -201.45 906.51 906.51" xml:space="preserve" stroke="#cf4a4a">
<g id="SVGRepo_bgCarrier" stroke-width="0"/>
<g id="SVGRepo_tracerCarrier" stroke-linecap="round" stroke-linejoin="round"/>
<g id="SVGRepo_iconCarrier"> <g> <g> <path d="M477.045,278.145c-2.484-3.466-4.709-7.017-7.009-10.542V92.331c0-4.642-3.752-8.393-8.393-8.393H318.954 c-22.57,0-42.815-9.997-56.664-25.751c9.258-14.378,14.697-31.442,14.697-49.79c0-4.642-3.752-8.393-8.393-8.393 c-4.642,0-8.393,3.752-8.393,8.393c0,12.414-3.064,24.106-8.393,34.447c-5.33-10.341-8.393-22.033-8.393-34.447 c0-4.642-3.752-8.393-8.393-8.393c-4.642,0-8.393,3.752-8.393,8.393c0,18.348,5.439,35.412,14.697,49.79 c-13.849,15.754-34.094,25.751-56.664,25.751H41.971c-4.642,0-8.393,3.752-8.393,8.393v175.263 c-2.3,3.525-4.524,7.076-7.008,10.542C8.976,302.671-0.206,331.662,0.004,361.971C0.566,440.072,66.261,503.61,146.427,503.61 h210.759c80.166,0,145.861-63.538,146.424-141.639C503.82,331.662,494.637,302.671,477.045,278.145z M251.807,71.566 c4.314,4.583,9.065,8.738,14.227,12.372H237.58C242.742,80.304,247.493,76.149,251.807,71.566z M251.807,302.167 c32.39,0,58.754,26.364,58.754,58.754c0,29.537-21.932,53.987-50.361,58.083v17.458c0,4.642-3.752,8.393-8.393,8.393 c-4.642,0-8.393-3.752-8.393-8.393v-17.458c-28.429-4.096-50.361-28.546-50.361-58.083c0-4.642,3.752-8.393,8.393-8.393 c4.642,0,8.393,3.752,8.393,8.393c0,23.141,18.826,41.967,41.967,41.967c23.141,0,41.967-18.826,41.967-41.967 c0-23.141-18.826-41.967-41.967-41.967c-32.39,0-58.754-26.364-58.754-58.754c0-29.537,21.932-53.987,50.361-58.083v-17.458 c0-4.642,3.752-8.393,8.393-8.393c4.642,0,8.393,3.752,8.393,8.393v17.458c28.429,4.096,50.361,28.546,50.361,58.083 c0,4.642-3.752,8.393-8.393,8.393c-4.642,0-8.393-3.752-8.393-8.393c0-23.141-18.826-41.967-41.967-41.967 c-23.141,0-41.967,18.826-41.967,41.967C209.84,283.341,228.666,302.167,251.807,302.167z M453.249,238.142 c-0.235-0.495-0.462-0.982-0.697-1.477c-3.492-7.244-6.606-14.563-9.367-21.949c-0.327-0.881-0.688-1.763-1.016-2.644 c-1.217-3.374-2.308-6.757-3.366-10.139c-0.621-1.981-1.192-3.962-1.763-5.951c-0.865-3.038-1.737-6.077-2.476-9.132 c-1.125-4.684-2.132-9.375-2.971-14.084c-0.361-2.056-0.621-4.104-0.923-6.161c-0.554-3.702-1.041-7.395-1.402-11.105 c-0.193-1.821-0.369-3.643-0.512-5.464c-0.403-5.456-0.688-10.92-0.688-16.376v-7.756c0-4.642-3.752-8.393-8.393-8.393H83.938 c-4.642,0-8.393,3.752-8.393,8.393v7.756c0,5.456-0.285,10.92-0.688,16.376c-0.143,1.821-0.319,3.643-0.504,5.456 c-0.369,3.718-0.856,7.42-1.41,11.13c-0.311,2.048-0.562,4.096-0.923,6.136c-0.839,4.717-1.847,9.409-2.971,14.101 c-0.739,3.047-1.612,6.077-2.476,9.115c-0.571,1.998-1.15,3.978-1.763,5.968c-1.058,3.374-2.149,6.748-3.366,10.106 c-0.327,0.923-0.705,1.83-1.049,2.753c-2.736,7.327-5.825,14.588-9.283,21.773c-0.252,0.52-0.495,1.049-0.747,1.57V100.725 h402.885V238.142z"/> </g> </g> </g>
</svg>