<svg width="226" height="212" viewBox="0 0 226 212" fill="none" xmlns="http://www.w3.org/2000/svg">
<path d="M32.5504 116.496C32.6052 116.708 32.6517 116.888 32.6888 117.033C32.6465 117.101 32.5989 117.178 32.5464 117.264C32.3127 117.646 31.9819 118.196 31.5915 118.868C30.8117 120.212 29.7898 122.055 28.8279 124.044C27.8691 126.026 26.9542 128.185 26.4043 130.154C26.1293 131.14 25.9377 132.104 25.8858 132.993C25.8343 133.873 25.9155 134.747 26.2482 135.503C27.0896 137.414 28.6588 140.861 30.2879 144.24C31.9061 147.595 33.6176 150.957 34.7357 152.651C35.3199 153.536 35.8867 154.378 36.4157 155.162L36.5352 155.34C37.0196 156.058 37.4692 156.725 37.8727 157.336C38.7634 158.685 39.3705 159.674 39.6269 160.284C41.3216 164.315 40.4572 166.28 40.0891 166.862C39.817 167.293 39.659 167.498 39.4568 167.678C39.2407 167.871 38.9288 168.075 38.2893 168.419C37.7856 168.69 37.3583 168.961 36.9899 169.194C36.8589 169.277 36.7353 169.355 36.6183 169.427C36.1626 169.707 35.7282 169.945 35.1291 170.157C33.9997 170.558 33.4056 170.791 32.3224 171.258C31.4026 171.523 30.174 171.584 29.2426 171.407C28.4538 171.257 26.1166 170.411 24.5276 166.631C23.4345 164.031 17.1146 146.286 13.813 136.286C13.6733 135.863 13.6725 135.021 13.9361 133.695C14.1898 132.418 14.6535 130.85 15.2742 129.08C16.5144 125.545 18.3441 121.309 20.2424 117.179C21.967 113.428 23.7386 109.784 25.1616 106.858C25.3034 106.566 25.4418 106.282 25.5763 106.005C26.3166 104.482 26.9433 103.185 27.3849 102.229C27.5606 101.849 27.7107 101.514 27.8283 101.236C28.4274 102.542 29.1475 104.635 29.8605 106.935C30.6216 109.391 31.3549 112.018 31.8987 114.034C32.1705 115.042 32.3944 115.895 32.5504 116.496Z" fill="#C6966B" stroke="#A06F43" stroke-width="2" stroke-linecap="round" stroke-linejoin="round"/>
<path d="M192.481 116.412C192.426 116.624 192.38 116.804 192.342 116.949C192.385 117.017 192.432 117.094 192.485 117.18C192.719 117.562 193.049 118.112 193.44 118.784C194.22 120.128 195.241 121.971 196.203 123.96C197.162 125.942 198.077 128.101 198.627 130.07C198.902 131.056 199.094 132.02 199.145 132.909C199.197 133.789 199.116 134.663 198.783 135.419C197.942 137.33 196.372 140.777 194.743 144.156C193.125 147.512 191.414 150.873 190.296 152.567C189.711 153.452 189.145 154.294 188.616 155.078L188.496 155.256C188.012 155.974 187.562 156.641 187.159 157.252C186.268 158.601 185.661 159.59 185.404 160.2C183.71 164.231 184.574 166.196 184.942 166.778C185.214 167.209 185.372 167.414 185.574 167.594C185.791 167.787 186.102 167.991 186.742 168.335C187.246 168.607 187.673 168.877 188.041 169.11C188.172 169.193 188.296 169.271 188.413 169.343C188.869 169.623 189.303 169.861 189.902 170.073C191.032 170.474 191.626 170.707 192.709 171.174C193.629 171.439 194.857 171.5 195.789 171.323C196.577 171.173 198.915 170.327 200.504 166.547C201.597 163.947 207.917 146.202 211.218 136.202C211.358 135.779 211.359 134.938 211.095 133.611C210.841 132.334 210.378 130.766 209.757 128.996C208.517 125.461 206.687 121.225 204.789 117.095C203.064 113.344 201.293 109.7 199.87 106.774C199.728 106.482 199.589 106.198 199.455 105.921C198.715 104.398 198.088 103.101 197.646 102.145C197.471 101.765 197.321 101.43 197.203 101.152C196.604 102.458 195.884 104.551 195.171 106.851C194.41 109.307 193.676 111.934 193.133 113.95C192.861 114.958 192.637 115.811 192.481 116.412Z" fill="#C6966B" stroke="#A06F43" stroke-width="2" stroke-linecap="round" stroke-linejoin="round"/>
<path d="M82.1414 199.3L84.5414 167L95.2414 169.7V210.6H70.3414C70.3414 210.6 59.8414 210.6 64.2414 202.5C70.3414 195.2 82.1414 199.3 82.1414 199.3Z" fill="#C6966B" stroke="#A06F43" stroke-width="2" stroke-linecap="round"/>
<path d="M140.841 199.4L138.441 167.1L127.741 169.8V210.7H152.641C152.641 210.7 163.141 210.7 158.741 202.6C152.641 195.3 140.841 199.4 140.841 199.4Z" fill="#C6966B" stroke="#A06F43" stroke-width="2" stroke-linecap="round"/>
<circle cx="111.463" cy="91.7002" r="86.5" fill="#C6966B" stroke="#A06F43" stroke-width="2"/>
<ellipse cx="75.3031" cy="74.7919" rx="7.74055" ry="15.5917" fill="black"/>
<ellipse cx="147.621" cy="74.7919" rx="7.74055" ry="15.5917" fill="black"/>
<path d="M97.3633 100.109C102.629 103.507 106.178 103.787 113.176 102.467C121.774 99.7741 125.763 93.7998 125.763 93.7998" stroke="black" stroke-width="2.2" stroke-linecap="round"/>
<g filter="url(#filter0_d_2499_6198)">
<path d="M51.536 20.0357C52.0359 18.8714 53.2052 18.1411 54.4686 18.204L61.6844 18.5631C63.2968 18.6432 64.5629 19.9764 64.5629 21.5937V26.8679C64.5629 27.7668 64.1651 28.6194 63.4768 29.196L57.3902 34.2938C56.749 34.8308 55.9149 35.0785 55.0853 34.9784L49.6316 34.3201C47.6238 34.0777 46.4125 31.9698 47.2116 30.1086L51.536 20.0357Z" fill="#563211"/>
</g>
<g filter="url(#filter1_d_2499_6198)">
<path d="M41.5626 115.622C43.8626 113.322 44.2991 113.159 45.5625 113.222C47.1625 113.222 48.1174 113.869 49.2625 113.522C50.4076 113.175 51.063 113.095 52.2625 113.222C53.8749 113.302 55.7625 115.998 55.7625 117.615V122.89C55.7625 123.789 55.3647 124.641 54.6764 125.218L48.5898 130.316C47.9487 130.853 47.1146 131.1 46.2849 131L40.8312 130.342C38.8235 130.099 37.5625 127.422 37.5625 125.218C37.5625 123.013 39.2625 117.922 41.5626 115.622Z" fill="#563211"/>
</g>
<g filter="url(#filter2_d_2499_6198)">
<path d="M116.466 0.477165C117.727 -0.171482 119.223 -0.158106 120.473 0.512974L128.475 4.81214C130.451 5.87324 131.294 8.2754 130.419 10.3488L127.987 16.1121C127.815 16.5194 127.583 16.8979 127.297 17.2346L120.485 25.2718C119.167 26.8275 116.949 27.2499 115.156 26.2868L107.051 21.9327C105.631 21.1697 104.749 19.6765 104.764 18.0571L104.843 9.07875C104.857 7.45935 105.765 5.98203 107.198 5.2446L116.466 0.477165Z" fill="#B15500"/>
</g>
<g filter="url(#filter3_d_2499_6198)">
<path d="M118.497 162.088C120.039 161.696 121.869 161.704 123.398 162.11L133.186 164.709C135.602 165.35 136.633 166.802 135.563 168.055L132.588 171.539C132.377 171.785 132.094 172.014 131.745 172.218L123.413 177.076C121.8 178.016 119.088 178.272 116.895 177.69L106.982 175.058C105.245 174.596 104.167 173.694 104.185 172.715C103.473 170.751 103.532 169.555 104.282 167.288C104.299 166.309 105.409 165.416 107.162 164.97L118.497 162.088Z" fill="#B15500"/>
</g>
<g filter="url(#filter4_d_2499_6198)">
<path d="M76.2911 133.098C77.2969 133.46 78.0586 134.292 78.3311 135.326L80.0744 141.949C80.5049 143.583 79.614 145.283 78.021 145.866L73.5932 147.487C73.2802 147.601 72.9523 147.668 72.62 147.683L64.687 148.058C63.1517 148.13 61.7789 147.125 61.3884 145.641L59.6226 138.934C59.3132 137.759 59.6835 136.505 60.5837 135.681L65.5745 131.11C66.4747 130.286 67.7557 130.027 68.8991 130.438L76.2911 133.098Z" fill="#B15500"/>
</g>
<g filter="url(#filter5_d_2499_6198)">
<path d="M163.247 41.2337C164.717 40.5282 166.463 40.6923 167.771 41.6587L169.84 43.1879C170.089 43.372 170.317 43.5818 170.521 43.8138L175.104 49.0369C176.235 50.3252 176.484 52.1501 175.74 53.687L174.447 56.3564C173.596 58.1155 171.647 59.088 169.702 58.724L163.43 57.5494C162.649 57.4034 161.925 57.0504 161.335 56.5285L159.612 55.0063C158.632 54.1407 158.102 52.885 158.17 51.5905L158.467 45.9889C158.549 44.4314 159.484 43.0407 160.907 42.3571L163.247 41.2337Z" fill="#563211"/>
</g>
<g filter="url(#filter6_d_2499_6198)">
<path d="M30.377 65.7214C32.5755 65.3604 34.8033 66.2465 36.1472 68.0163L38.2735 70.8166C38.5296 71.1537 38.7484 71.5166 38.9267 71.8991L42.9319 80.5098C43.9202 82.6338 43.5461 85.123 41.9801 86.8531L39.2593 89.8578C37.4673 91.8382 34.5367 92.3649 32.1263 91.1407L24.3507 87.1912C23.3831 86.7 22.5691 85.959 21.9949 85.0476L20.3195 82.3893C19.3665 80.8776 19.1541 79.0272 19.7403 77.3555L22.2813 70.1225C22.9869 68.1112 24.747 66.6461 26.8765 66.2962L30.377 65.7214Z" fill="#563211"/>
</g>
<g filter="url(#filter7_d_2499_6198)">
<path d="M134.83 134.356C135.72 136.589 135.254 139.113 133.624 140.894L131.045 143.712C130.734 144.051 130.01 144.624 130.01 144.624L121.508 150.629C121.508 150.629 116.608 152.238 114.366 150.955C112.123 149.672 110.863 146.9 110.863 146.9C110.863 146.9 108.435 143.518 107.463 141.504C105.877 138.216 110.025 132.514 110.025 132.514C110.025 132.514 110.969 130.386 111.835 129.592L114.361 127.278C115.798 125.961 117.152 124.207 119.551 123.412C123.179 122.211 126.945 123.648 129.184 125.133C131.424 126.617 132.552 128.637 133.414 130.8L134.83 134.356Z" fill="#563211"/>
</g>
<g filter="url(#filter8_d_2499_6198)">
<path d="M166.005 139.662C167.428 140.405 168.328 141.878 168.337 143.479L168.351 146.011C168.353 146.316 168.322 146.619 168.259 146.916L166.843 153.607C166.494 155.258 165.203 156.53 163.553 156.849L160.687 157.404C158.799 157.77 156.883 156.806 156.024 155.059L153.253 149.423C152.908 148.722 152.76 147.943 152.823 147.17L153.007 144.915C153.112 143.632 153.789 142.474 154.85 141.765L159.44 138.698C160.716 137.844 162.363 137.761 163.741 138.48L166.005 139.662Z" fill="#563211"/>
</g>
<g filter="url(#filter9_d_2499_6198)">
<path d="M66.0314 100.368C66.9191 98.7895 68.8645 98.1603 70.502 98.9224L79.5557 103.136C81.886 104.22 82.2724 107.386 80.272 109.004L74.5525 113.63C73.2972 114.646 71.5106 114.657 70.2428 113.657L64.4894 109.12C63.1431 108.058 62.7704 106.168 63.6123 104.67L66.0314 100.368Z" fill="#B15500"/>
</g>
<g filter="url(#filter10_d_2499_6198)">
<path d="M189.621 81.0866C192.578 81.0867 193.804 83.2254 193.804 83.2254C193.804 83.2254 197.227 88.7233 197.227 92.6065C197.227 96.4897 195.805 97.2628 193.584 97.2628C191.363 97.2628 187.963 97.2628 186.268 96.4897C184.573 95.7166 184.463 95.6 183.202 93.4611C181.941 91.3223 182.342 88.0999 182.342 86.1846C182.342 84.2693 184.868 82.4182 184.868 82.4182C184.868 82.4182 186.663 81.0866 189.621 81.0866Z" fill="#B15500"/>
</g>
<g filter="url(#filter11_d_2499_6198)">
<path d="M164.252 101.376C165.641 98.8977 168.686 97.9101 171.249 99.1062C174.064 101.376 173.764 106.4 175.164 106.8C176.564 107.2 179.664 108.429 180.364 113.5C181.664 118.7 177.589 122.192 177.589 122.192C175.624 123.786 172.828 123.804 170.843 122.234L161.838 115.113C159.731 113.446 159.148 110.479 160.465 108.129L164.252 101.376Z" fill="#B15500"/>
</g>
<defs>
<filter id="filter0_d_2499_6198" x="46.9629" y="18.2002" width="20.3996" height="19.5998" filterUnits="userSpaceOnUse" color-interpolation-filters="sRGB">
<feFlood flood-opacity="0" result="BackgroundImageFix"/>
<feColorMatrix in="SourceAlpha" type="matrix" values="0 0 0 0 0 0 0 0 0 0 0 0 0 0 0 0 0 0 127 0" result="hardAlpha"/>
<feOffset dx="2" dy="2"/>
<feGaussianBlur stdDeviation="0.4"/>
<feComposite in2="hardAlpha" operator="out"/>
<feColorMatrix type="matrix" values="0 0 0 0 0 0 0 0 0 0 0 0 0 0 0 0 0 0 0.25 0"/>
<feBlend mode="normal" in2="BackgroundImageFix" result="effect1_dropShadow_2499_6198"/>
<feBlend mode="normal" in="SourceGraphic" in2="effect1_dropShadow_2499_6198" result="shape"/>
</filter>
<filter id="filter1_d_2499_6198" x="37.5625" y="113.165" width="20.9992" height="20.6564" filterUnits="userSpaceOnUse" color-interpolation-filters="sRGB">
<feFlood flood-opacity="0" result="BackgroundImageFix"/>
<feColorMatrix in="SourceAlpha" type="matrix" values="0 0 0 0 0 0 0 0 0 0 0 0 0 0 0 0 0 0 127 0" result="hardAlpha"/>
<feOffset dx="2" dy="2"/>
<feGaussianBlur stdDeviation="0.4"/>
<feComposite in2="hardAlpha" operator="out"/>
<feColorMatrix type="matrix" values="0 0 0 0 0 0 0 0 0 0 0 0 0 0 0 0 0 0 0.25 0"/>
<feBlend mode="normal" in2="BackgroundImageFix" result="effect1_dropShadow_2499_6198"/>
<feBlend mode="normal" in="SourceGraphic" in2="effect1_dropShadow_2499_6198" result="shape"/>
</filter>
<filter id="filter2_d_2499_6198" x="104.764" y="0" width="28.8" height="29.5998" filterUnits="userSpaceOnUse" color-interpolation-filters="sRGB">
<feFlood flood-opacity="0" result="BackgroundImageFix"/>
<feColorMatrix in="SourceAlpha" type="matrix" values="0 0 0 0 0 0 0 0 0 0 0 0 0 0 0 0 0 0 127 0" result="hardAlpha"/>
<feOffset dx="2" dy="2"/>
<feGaussianBlur stdDeviation="0.4"/>
<feComposite in2="hardAlpha" operator="out"/>
<feColorMatrix type="matrix" values="0 0 0 0 0 0 0 0 0 0 0 0 0 0 0 0 0 0 0.25 0"/>
<feBlend mode="normal" in2="BackgroundImageFix" result="effect1_dropShadow_2499_6198"/>
<feBlend mode="normal" in="SourceGraphic" in2="effect1_dropShadow_2499_6198" result="shape"/>
</filter>
<filter id="filter3_d_2499_6198" x="103.684" y="161.8" width="35.1008" height="19.0002" filterUnits="userSpaceOnUse" color-interpolation-filters="sRGB">
<feFlood flood-opacity="0" result="BackgroundImageFix"/>
<feColorMatrix in="SourceAlpha" type="matrix" values="0 0 0 0 0 0 0 0 0 0 0 0 0 0 0 0 0 0 127 0" result="hardAlpha"/>
<feOffset dx="2" dy="2"/>
<feGaussianBlur stdDeviation="0.4"/>
<feComposite in2="hardAlpha" operator="out"/>
<feColorMatrix type="matrix" values="0 0 0 0 0 0 0 0 0 0 0 0 0 0 0 0 0 0 0.25 0"/>
<feBlend mode="normal" in2="BackgroundImageFix" result="effect1_dropShadow_2499_6198"/>
<feBlend mode="normal" in="SourceGraphic" in2="effect1_dropShadow_2499_6198" result="shape"/>
</filter>
<filter id="filter4_d_2499_6198" x="59.5156" y="130.246" width="23.466" height="20.6154" filterUnits="userSpaceOnUse" color-interpolation-filters="sRGB">
<feFlood flood-opacity="0" result="BackgroundImageFix"/>
<feColorMatrix in="SourceAlpha" type="matrix" values="0 0 0 0 0 0 0 0 0 0 0 0 0 0 0 0 0 0 127 0" result="hardAlpha"/>
<feOffset dx="2" dy="2"/>
<feGaussianBlur stdDeviation="0.4"/>
<feComposite in2="hardAlpha" operator="out"/>
<feColorMatrix type="matrix" values="0 0 0 0 0 0 0 0 0 0 0 0 0 0 0 0 0 0 0.25 0"/>
<feBlend mode="normal" in2="BackgroundImageFix" result="effect1_dropShadow_2499_6198"/>
<feBlend mode="normal" in="SourceGraphic" in2="effect1_dropShadow_2499_6198" result="shape"/>
</filter>
<filter id="filter5_d_2499_6198" x="158.164" y="40.7998" width="20.8" height="20.8" filterUnits="userSpaceOnUse" color-interpolation-filters="sRGB">
<feFlood flood-opacity="0" result="BackgroundImageFix"/>
<feColorMatrix in="SourceAlpha" type="matrix" values="0 0 0 0 0 0 0 0 0 0 0 0 0 0 0 0 0 0 127 0" result="hardAlpha"/>
<feOffset dx="2" dy="2"/>
<feGaussianBlur stdDeviation="0.4"/>
<feComposite in2="hardAlpha" operator="out"/>
<feColorMatrix type="matrix" values="0 0 0 0 0 0 0 0 0 0 0 0 0 0 0 0 0 0 0.25 0"/>
<feBlend mode="normal" in2="BackgroundImageFix" result="effect1_dropShadow_2499_6198"/>
<feBlend mode="normal" in="SourceGraphic" in2="effect1_dropShadow_2499_6198" result="shape"/>
</filter>
<filter id="filter6_d_2499_6198" x="19.4141" y="65.6416" width="26.8645" height="28.9543" filterUnits="userSpaceOnUse" color-interpolation-filters="sRGB">
<feFlood flood-opacity="0" result="BackgroundImageFix"/>
<feColorMatrix in="SourceAlpha" type="matrix" values="0 0 0 0 0 0 0 0 0 0 0 0 0 0 0 0 0 0 127 0" result="hardAlpha"/>
<feOffset dx="2" dy="2"/>
<feGaussianBlur stdDeviation="0.4"/>
<feComposite in2="hardAlpha" operator="out"/>
<feColorMatrix type="matrix" values="0 0 0 0 0 0 0 0 0 0 0 0 0 0 0 0 0 0 0.25 0"/>
<feBlend mode="normal" in2="BackgroundImageFix" result="effect1_dropShadow_2499_6198"/>
<feBlend mode="normal" in="SourceGraphic" in2="effect1_dropShadow_2499_6198" result="shape"/>
</filter>
<filter id="filter7_d_2499_6198" x="107.102" y="122.965" width="30.9738" height="31.2863" filterUnits="userSpaceOnUse" color-interpolation-filters="sRGB">
<feFlood flood-opacity="0" result="BackgroundImageFix"/>
<feColorMatrix in="SourceAlpha" type="matrix" values="0 0 0 0 0 0 0 0 0 0 0 0 0 0 0 0 0 0 127 0" result="hardAlpha"/>
<feOffset dx="2" dy="2"/>
<feGaussianBlur stdDeviation="0.4"/>
<feComposite in2="hardAlpha" operator="out"/>
<feColorMatrix type="matrix" values="0 0 0 0 0 0 0 0 0 0 0 0 0 0 0 0 0 0 0.25 0"/>
<feBlend mode="normal" in2="BackgroundImageFix" result="effect1_dropShadow_2499_6198"/>
<feBlend mode="normal" in="SourceGraphic" in2="effect1_dropShadow_2499_6198" result="shape"/>
</filter>
<filter id="filter8_d_2499_6198" x="152.809" y="137.994" width="18.343" height="22.2863" filterUnits="userSpaceOnUse" color-interpolation-filters="sRGB">
<feFlood flood-opacity="0" result="BackgroundImageFix"/>
<feColorMatrix in="SourceAlpha" type="matrix" values="0 0 0 0 0 0 0 0 0 0 0 0 0 0 0 0 0 0 127 0" result="hardAlpha"/>
<feOffset dx="2" dy="2"/>
<feGaussianBlur stdDeviation="0.4"/>
<feComposite in2="hardAlpha" operator="out"/>
<feColorMatrix type="matrix" values="0 0 0 0 0 0 0 0 0 0 0 0 0 0 0 0 0 0 0.25 0"/>
<feBlend mode="normal" in2="BackgroundImageFix" result="effect1_dropShadow_2499_6198"/>
<feBlend mode="normal" in="SourceGraphic" in2="effect1_dropShadow_2499_6198" result="shape"/>
</filter>
<filter id="filter9_d_2499_6198" x="63.1641" y="98.5996" width="21.2004" height="18.5998" filterUnits="userSpaceOnUse" color-interpolation-filters="sRGB">
<feFlood flood-opacity="0" result="BackgroundImageFix"/>
<feColorMatrix in="SourceAlpha" type="matrix" values="0 0 0 0 0 0 0 0 0 0 0 0 0 0 0 0 0 0 127 0" result="hardAlpha"/>
<feOffset dx="2" dy="2"/>
<feGaussianBlur stdDeviation="0.4"/>
<feComposite in2="hardAlpha" operator="out"/>
<feColorMatrix type="matrix" values="0 0 0 0 0 0 0 0 0 0 0 0 0 0 0 0 0 0 0.25 0"/>
<feBlend mode="normal" in2="BackgroundImageFix" result="effect1_dropShadow_2499_6198"/>
<feBlend mode="normal" in="SourceGraphic" in2="effect1_dropShadow_2499_6198" result="shape"/>
</filter>
<filter id="filter10_d_2499_6198" x="182.281" y="81.0869" width="17.7453" height="18.9758" filterUnits="userSpaceOnUse" color-interpolation-filters="sRGB">
<feFlood flood-opacity="0" result="BackgroundImageFix"/>
<feColorMatrix in="SourceAlpha" type="matrix" values="0 0 0 0 0 0 0 0 0 0 0 0 0 0 0 0 0 0 127 0" result="hardAlpha"/>
<feOffset dx="2" dy="2"/>
<feGaussianBlur stdDeviation="0.4"/>
<feComposite in2="hardAlpha" operator="out"/>
<feColorMatrix type="matrix" values="0 0 0 0 0 0 0 0 0 0 0 0 0 0 0 0 0 0 0.25 0"/>
<feBlend mode="normal" in2="BackgroundImageFix" result="effect1_dropShadow_2499_6198"/>
<feBlend mode="normal" in="SourceGraphic" in2="effect1_dropShadow_2499_6198" result="shape"/>
</filter>
<filter id="filter11_d_2499_6198" x="159.764" y="98.5996" width="23.6555" height="27.5998" filterUnits="userSpaceOnUse" color-interpolation-filters="sRGB">
<feFlood flood-opacity="0" result="BackgroundImageFix"/>
<feColorMatrix in="SourceAlpha" type="matrix" values="0 0 0 0 0 0 0 0 0 0 0 0 0 0 0 0 0 0 127 0" result="hardAlpha"/>
<feOffset dx="2" dy="2"/>
<feGaussianBlur stdDeviation="0.4"/>
<feComposite in2="hardAlpha" operator="out"/>
<feColorMatrix type="matrix" values="0 0 0 0 0 0 0 0 0 0 0 0 0 0 0 0 0 0 0.25 0"/>
<feBlend mode="normal" in2="BackgroundImageFix" result="effect1_dropShadow_2499_6198"/>
<feBlend mode="normal" in="SourceGraphic" in2="effect1_dropShadow_2499_6198" result="shape"/>
</filter>
</defs>
</svg>
