<svg width="64" height="81.5" viewBox="0 0 128 163" fill="none" xmlns="http://www.w3.org/2000/svg">
<path d="M7 137.5V81.5L63.5 104L117 71V128.5L63.5 161.5L7 137.5Z" fill="#FBE8A4"/>
<path d="M63.5 161.5L7 137.5V81.5L63.5 104M63.5 161.5V104M63.5 161.5L117 128.5V71L63.5 104" stroke="black"/>
<path d="M1 79.5L18 57.5L55.5 33L100.5 49.5L120.5 68.5L65.5 105L1 79.5Z" fill="#FAB3B3"/>
<path d="M18 57.5L1 79.5L65.5 105M18 57.5L63.5 74.5M18 57.5L55.5 33L100.5 49.5M65.5 105L120.5 68.5L100.5 49.5M65.5 105L63.5 74.5M100.5 49.5L63.5 74.5" stroke="black"/>
<path d="M18 58L1.5 79.5L65.5 104.5L63 74.5L18 58Z" fill="black" fill-opacity="0.3"/>
<path d="M100.5 50L64 74.5L66 104.5L120.5 68.5L100.5 50Z" fill="black" fill-opacity="0.15"/>
<path d="M25 111.5V144.128L41.5 151.189V117.5L25 111.5Z" fill="#6DD9F0" stroke="white"/>
<path d="M73.5 140V122L92 110L108 100V118.5L92 128.5L73.5 140Z" fill="#6DD9F0"/>
<path d="M92 110L108 100V118.5L92 128.5M92 110L73.5 122V140L92 128.5M92 110V128.5" stroke="white"/>
<path d="M116.5 78L64 112L73.5 125L126.5 92L116.5 78Z" fill="white" stroke="#911010"/>
<path d="M77.5 103.5L70.5 108L80 121L87 116.5L77.5 103.5Z" fill="#911010"/>
<path d="M90.5 95L83 99.5L93 113L100 108.5L90.5 95Z" fill="#911010"/>
<path d="M102.5 87.5L95.5 92L105 105L112 100.5L102.5 87.5Z" fill="#911010"/>
<path d="M113.5 80.5L106.5 85L116 98.29L123 94L113.5 80.5Z" fill="#911010"/>
<path d="M45.5212 113.965L23.8339 105.153L20.4827 114.535L42.17 123.347L45.5212 113.965Z" fill="white" stroke="#911010"/>
<path d="M40.2051 122.273L43.5563 112.892L40.5956 111.781L37.2444 121.163L40.2051 122.273Z" fill="#911010"/>
<path d="M35.2833 120.089L38.6344 110.707L35.6737 109.596L32.3225 118.978L35.2833 120.089Z" fill="#911010"/>
<path d="M30.3448 118.404L33.6774 109.522L30.7167 108.411L27.3841 117.293L30.3448 118.404Z" fill="#911010"/>
<path d="M25.4229 116.22L28.7555 107.337L25.7948 106.227L22.4622 115.109L25.4229 116.22Z" fill="#911010"/>
<path d="M7.5 137.5V82.5L63 104.329V161.5L7.5 137.5Z" fill="black" fill-opacity="0.3"/>
<path d="M92 22L60 1V34L92 22Z" fill="#911010"/>
<path d="M60 53V34M60 34V1L92 22L60 34Z" stroke="black"/>
</svg>
