<svg width="135" height="159" viewBox="0 0 135 159" fill="none" xmlns="http://www.w3.org/2000/svg">
<path fill-rule="evenodd" clip-rule="evenodd" d="M43.67 48.0043C42.32 46.9543 40.8232 35.1478 40.07 26.2543C39.4843 17.1238 39.3826 12.1377 40.07 3.75435C40.07 3.75435 39.77 0.304354 43.67 0.00435425C47.57 -0.295646 60.02 15.0043 58.97 15.6043C58.445 15.9044 56.2699 15.8668 54.0949 15.8293C51.9199 15.7918 49.745 15.7543 49.22 16.0543C48.17 16.6543 48.32 19.6543 49.37 20.2543C49.9303 20.5745 53.1389 20.4675 56.1694 20.3665C58.8179 20.2782 61.3303 20.1945 61.82 20.4043C63.17 21.9043 63.62 23.7044 63.17 24.4543C62.9166 24.8767 58.239 24.8709 53.9596 24.8656C50.6399 24.8615 47.5597 24.8577 46.97 25.0543C45.62 25.5042 44.72 27.9043 45.92 28.8043C46.6194 29.3289 52.7705 29.0892 57.9593 28.8869C61.6734 28.7421 64.8945 28.6166 65.27 28.8043C66.17 29.2544 66.62 31.9544 66.32 32.5543C66.17 32.8543 63.4325 32.8543 60.545 32.8543C57.6575 32.8543 54.62 32.8543 53.87 33.1543C52.37 33.7542 52.07 36.0043 53.57 37.3543C54.3241 37.5806 57.4668 37.4656 60.5582 37.3525H60.5583C63.6159 37.2406 66.6233 37.1305 67.22 37.3543C68.42 37.8044 69.77 45.0044 68.87 45.6043C68.3847 45.9278 63.6258 45.7717 59.296 45.6296C55.5954 45.5082 52.2082 45.397 52.07 45.6043C51.9455 45.791 51.9501 46.2615 51.9553 46.7911V46.7912C51.9626 47.5384 51.9711 48.4032 51.62 48.7543C51.02 49.3542 45.02 49.0544 43.67 48.0043ZM85.0015 38.2825C88.3361 31.8986 91.4708 25.8974 92.5617 25.35C92.9696 25.0004 93.4761 24.7018 93.9223 24.4387C94.6248 24.0245 95.1779 23.6984 94.9617 23.4C93.4004 21.2445 86.115 17.0193 80.7117 15.9288C75.8397 14.9456 67.9617 16.5 66.0117 18.9C65.1117 20.25 72.77 54.1543 75.32 54.1543C76.7109 54.1543 81.0001 45.9429 85.0015 38.2825ZM113.12 59.8541C114.32 59.8541 122.12 45.6043 122.72 43.9543C123.312 43.05 123.32 38.5543 122.72 37.3543C120.762 33.9 103.82 26.2543 103.82 26.2543C102.92 25.6543 99.3117 25.2043 97.07 26.2543C95.283 26.85 80.57 52.8038 81.62 54.4541C82.67 56.1043 111.62 60.1541 113.12 59.8541ZM70.22 49.2511C70.4813 49.7526 70.8638 50.7836 70.22 52.1011C69.5762 53.4186 54.47 50.2541 54.62 49.3543C54.77 48.4546 69.9587 48.7497 70.22 49.2511ZM36.17 24.4543C38.6927 26.7545 41.12 46.6543 40.07 48.0043C39.02 49.3543 16.07 46.3543 15.17 45.6043C14.27 44.8543 11.12 34.95 11.12 33.1543C12.9118 29.85 33.6472 22.1542 36.17 24.4543ZM11.12 28.95C10.5118 30.75 9.46999 25.6543 11.12 24.4543C12.77 23.2543 30.47 17.1043 31.82 17.4043C33.17 17.7043 36.47 21.3043 34.6618 20.55C32.8535 19.7956 10.861 27.1672 11.12 28.95ZM9.17 19.3543C7.97 20.5543 8.94493 21.8423 10.07 21.6043C11.1951 21.3664 28.37 15.6043 28.37 15.6043C28.9618 15.15 29.27 13.6543 28.37 13.2043C27.47 12.7543 10.37 18.1543 9.17 19.3543ZM97.07 21.9043C97.07 21.9043 100.37 21.9043 100.07 20.4043C91.0757 9.42331 76.2689 5.21801 62.42 13.2043C61.82 15.6043 64.07 16.2043 64.07 16.2043C76.927 9.63801 84.954 10.856 97.07 21.9043ZM109.97 23.2543C108.92 23.2543 108.02 24.4543 108.32 25.2043C109.07 26.2543 117.02 30.9043 117.02 30.9043C118.07 30.6043 118.97 29.5543 118.82 28.8043C118.362 28.05 109.97 23.2543 109.97 23.2543ZM109.97 19.6543C109.97 18.9043 110.562 16.05 112.97 15.6043C114.762 15.3 122.72 18.3 123.92 20.4043C124.07 21.4543 121.97 25.8043 120.62 26.2543C119.27 26.2543 109.97 20.4043 109.97 19.6543ZM114.92 66.9041C116.286 66.9041 118.818 65.6894 120.885 64.6979C122.449 63.9474 123.747 63.3248 124.07 63.4541C125.27 64.9541 112.82 110.254 112.82 110.254C111.92 113.104 106.52 117.754 103.37 118.654C100.22 119.554 91.6699 120.154 90.47 118.654C90.1699 118.204 103.67 63.4541 104.57 62.7041C106.761 62.5288 109.105 63.9408 111.155 65.1751C112.613 66.0534 113.922 66.8417 114.92 66.9041ZM100.82 61.6541C99.1699 60.3041 15.47 48.0041 10.67 49.2511C9.76998 49.9541 10.52 66.9041 10.52 66.9041C10.52 66.9041 11.12 95.5541 11.87 97.8041C11.9674 98.1478 12.0614 98.504 12.1577 98.8694L12.1579 98.87C12.9432 101.849 13.8874 105.429 18.17 107.704C19.1135 108.412 23.4362 109.367 27.5093 110.266C31.207 111.083 34.699 111.854 35.27 112.354C36.47 113.404 18.17 138.604 18.17 138.604C18.17 138.604 17.094 140.481 15.02 139.654C12.9459 138.827 5.72 131.404 5.72 131.404C5.72 131.404 2.87 129.604 1.22 131.104C-0.429993 132.604 -0.279999 133.654 0.919998 136.054C2.12 138.454 15.62 151.954 17.57 152.854C17.743 152.934 17.8995 153.007 18.0419 153.074C18.8075 153.433 19.1648 153.601 19.4883 153.551C19.7714 153.507 20.0287 153.297 20.5111 152.902L20.57 152.854C21.2276 152.317 24.2299 146.067 26.8811 140.549L26.8814 140.548C29.0667 135.999 31.0135 131.947 31.2118 132C37.0342 123.442 47.42 115.954 47.42 115.954C49.97 115.354 64.82 115.504 65.57 115.954C65.57 115.954 76.07 119.404 79.07 121.954C79.07 121.954 82.37 138.754 83.72 141.304C85.07 143.854 87.62 148.504 91.07 150.904C94.52 153.304 102.62 152.554 103.37 152.104C104.434 152.104 108.582 149.467 112.35 147.072C115.485 145.079 118.357 143.254 118.97 143.254C120.32 143.254 121.07 143.554 121.52 144.154C121.677 144.363 122.434 146.046 123.392 148.176L123.393 148.177L123.393 148.177L123.393 148.177C125.186 152.163 127.683 157.713 128.27 158.104C129.17 158.704 130.97 159.004 132.92 158.104C134.87 157.204 134.12 154.954 134.12 154.954L123.62 135.604C122.42 133.504 120.02 134.254 120.02 134.254C120.02 134.254 107.72 142.504 105.92 143.254C104.12 144.004 97.07 145.054 95.27 144.154C93.4699 143.254 91.52 139.804 90.47 137.254C89.4199 134.704 87.17 123.754 87.02 121.954C86.8699 120.154 86.87 120.004 87.02 118.654C87.0568 118.322 88.0094 114.79 89.4007 109.631L89.4009 109.63L89.401 109.63C93.6688 93.8039 102.064 62.6722 100.82 61.6541ZM40.2118 76.35C42.9118 76.95 43.5303 79.7879 43.37 83.1041C42.6096 86.4862 41.2559 87.6998 38.4118 87.6041C36.0118 87.0041 35.1645 84.6787 35.27 81.3C35.805 77.9796 37.0618 76.05 40.2118 76.35ZM70.97 85.6541C70.2199 90.3041 68.8699 91.3541 65.57 91.2041C62.12 90.4541 61.6023 88.6478 62.12 84.3041C63.2722 80.3381 65.1545 78.8276 67.97 79.6541C70.0041 80.5828 71.1199 81.7541 70.97 85.6541ZM55.4936 84.8848C55.0254 85.1301 54.5977 85.3541 54.17 85.3541C53.6232 85.3541 53.2798 84.9067 52.8856 84.3931C52.5228 83.9204 52.117 83.3916 51.47 83.1041C50.12 82.5041 49.4498 82.7928 48.92 83.8541C48.17 86.8541 50.27 89.8541 52.82 90.4541C55.37 91.0541 57.4713 90.0431 58.97 87.6041C59.57 86.2541 59.1803 85.0428 57.92 84.3041C56.9421 84.1263 56.1749 84.528 55.4936 84.8848Z" fill="#911010"/>
</svg>
