<svg width="1141" height="1364" viewBox="0 0 1141 1364" fill="none" xmlns="http://www.w3.org/2000/svg">
<g opacity="0.5">
<path d="M163.717 1035.73C157.76 982.047 298.893 526.052 298.893 526.052C504.931 708.298 637.902 756.46 870.163 769.862C870.163 769.862 635.523 1151.69 564.989 1207.72C494.454 1263.75 158.309 1112.51 163.717 1035.73Z" fill="#FEC9A2"/>
<g filter="url(#filter0_d_2060_6198)">
<path d="M872.497 765.641C848.372 821.927 700.82 812.694 542.929 745.019C385.038 677.345 276.598 576.856 300.723 520.571C324.847 464.286 472.4 473.519 630.291 541.193C788.182 608.867 896.621 709.356 872.497 765.641Z" fill="#FEC9A2"/>
</g>
<ellipse cx="376.923" cy="690.532" rx="37.1547" ry="74.84" transform="rotate(23.2007 376.923 690.532)" fill="black"/>
<ellipse cx="695.983" cy="827.287" rx="37.1547" ry="74.84" transform="rotate(23.2007 695.983 827.287)" fill="black"/>
<path d="M551.432 889.666C551.432 889.666 527.669 924.393 476.87 905.231C426.071 886.069 427.459 836.53 427.459 836.53M551.432 889.666C551.432 889.666 544.058 877.628 547.084 863.257M551.432 889.666C551.432 889.666 557.545 902.209 572.986 908.827M427.459 836.53C427.459 836.53 416.933 847.685 390.903 836.528M427.459 836.53C427.459 836.53 438.867 829.408 443.406 818.82" stroke="black" stroke-width="10.56" stroke-linecap="round"/>
<g filter="url(#filter1_i_2060_6198)">
<ellipse cx="211.147" cy="990.308" rx="24" ry="24" transform="rotate(23.2007 211.147 990.308)" fill="black"/>
<ellipse cx="295.601" cy="1088.13" rx="24" ry="24" transform="rotate(23.2007 295.601 1088.13)" fill="black"/>
<ellipse cx="313.881" cy="1029.64" rx="28.3201" ry="28.32" transform="rotate(23.2007 313.881 1029.64)" fill="black"/>
<ellipse cx="249.844" cy="1041.36" rx="31.6801" ry="31.68" transform="rotate(23.2007 249.844 1041.36)" fill="black"/>
<ellipse cx="271.53" cy="971.277" rx="31.6801" ry="31.68" transform="rotate(23.2007 271.53 971.277)" fill="black"/>
<ellipse cx="464.514" cy="1027.88" rx="24" ry="24" transform="rotate(23.2007 464.514 1027.88)" fill="black"/>
<ellipse cx="536.362" cy="1181.92" rx="24" ry="24" transform="rotate(23.2007 536.362 1181.92)" fill="black"/>
<ellipse cx="562.203" cy="1127.72" rx="28.3201" ry="28.32" transform="rotate(23.2007 562.203 1127.72)" fill="black"/>
<ellipse cx="476.739" cy="1148.01" rx="31.6801" ry="31.68" transform="rotate(23.2007 476.739 1148.01)" fill="black"/>
<ellipse cx="510.146" cy="1079.82" rx="31.6801" ry="31.68" transform="rotate(23.2007 510.146 1079.82)" fill="black"/>
<ellipse cx="347.542" cy="969.389" rx="24" ry="24" transform="rotate(23.2007 347.542 969.389)" fill="black"/>
<ellipse cx="406.276" cy="1134.52" rx="24" ry="24" transform="rotate(23.2007 406.276 1134.52)" fill="black"/>
<ellipse cx="440.942" cy="1084.1" rx="28.3201" ry="28.32" transform="rotate(23.2007 440.942 1084.1)" fill="black"/>
<ellipse cx="361.023" cy="1089.01" rx="31.6801" ry="31.68" transform="rotate(23.2007 361.023 1089.01)" fill="black"/>
<ellipse cx="398.59" cy="1025.74" rx="31.6801" ry="31.68" transform="rotate(23.2007 398.59 1025.74)" fill="black"/>
</g>
<path d="M319.195 326.385C319.195 326.385 131.995 948.621 125.476 1041.47C118.958 1134.31 487.972 1316.56 573.294 1248.83C658.616 1181.09 994.799 631.377 994.799 631.377M319.195 326.385C337.411 292.414 414.245 280.076 499.39 293.429C630.045 313.918 776.392 374.555 906.666 469.037C993.704 541.332 1014.88 594.276 994.799 631.377M319.195 326.385C301.098 387.041 354.486 436.558 392.994 469.774C522.844 579.833 714.742 649.981 845.712 664.86C892.209 665.018 946.492 678.289 994.799 631.377" stroke="black" stroke-opacity="0.25" stroke-width="9.60001"/>
<path d="M957.67 233.436C979.298 270.857 995.892 283.789 1033.11 292.804L715.3 696.661C715.3 696.661 705.259 712.311 657.884 692.005C633.787 681.677 627.134 663.085 625.803 655.154L957.67 233.436Z" fill="#911010"/>
<path d="M1031.18 289.947C1030.34 291.044 1028.78 291.946 1026.04 292.217C1023.3 292.488 1019.71 292.075 1015.45 290.867C1006.97 288.458 996.52 283.085 986.238 275.223C975.956 267.361 968.033 258.686 963.484 251.127C961.205 247.339 959.866 243.985 959.408 241.264C958.952 238.55 959.412 236.803 960.251 235.706C961.09 234.609 962.655 233.707 965.394 233.436C968.14 233.165 971.727 233.578 975.98 234.786C984.467 237.195 994.915 242.568 1005.2 250.43C1015.48 258.292 1023.4 266.968 1027.95 274.526C1030.23 278.314 1031.57 281.668 1032.03 284.389C1032.48 287.103 1032.02 288.85 1031.18 289.947Z" fill="black" stroke="#911010" stroke-width="6.72"/>
<path fill-rule="evenodd" clip-rule="evenodd" d="M657.967 613.039C691.507 625.337 724.651 635.494 756.262 643.367L749.761 651.628C718.16 643.593 685.118 633.329 651.726 620.971L657.967 613.039Z" fill="black" fill-opacity="0.25"/>
</g>
<defs>
<filter id="filter0_d_2060_6198" x="278.165" y="474.125" width="616.89" height="357.163" filterUnits="userSpaceOnUse" color-interpolation-filters="sRGB">
<feFlood flood-opacity="0" result="BackgroundImageFix"/>
<feColorMatrix in="SourceAlpha" type="matrix" values="0 0 0 0 0 0 0 0 0 0 0 0 0 0 0 0 0 0 127 0" result="hardAlpha"/>
<feOffset dy="9.60001"/>
<feGaussianBlur stdDeviation="9.60001"/>
<feComposite in2="hardAlpha" operator="out"/>
<feColorMatrix type="matrix" values="0 0 0 0 1 0 0 0 0 1 0 0 0 0 1 0 0 0 0.25 0"/>
<feBlend mode="normal" in2="BackgroundImageFix" result="effect1_dropShadow_2060_6198"/>
<feBlend mode="normal" in="SourceGraphic" in2="effect1_dropShadow_2060_6198" result="shape"/>
</filter>
<filter id="filter1_i_2060_6198" x="187.142" y="939.588" width="408.189" height="271.139" filterUnits="userSpaceOnUse" color-interpolation-filters="sRGB">
<feFlood flood-opacity="0" result="BackgroundImageFix"/>
<feBlend mode="normal" in="SourceGraphic" in2="BackgroundImageFix" result="shape"/>
<feColorMatrix in="SourceAlpha" type="matrix" values="0 0 0 0 0 0 0 0 0 0 0 0 0 0 0 0 0 0 127 0" result="hardAlpha"/>
<feOffset dx="4.8" dy="4.8"/>
<feGaussianBlur stdDeviation="4.8"/>
<feComposite in2="hardAlpha" operator="arithmetic" k2="-1" k3="1"/>
<feColorMatrix type="matrix" values="0 0 0 0 1 0 0 0 0 1 0 0 0 0 1 0 0 0 0.5 0"/>
<feBlend mode="normal" in2="shape" result="effect1_innerShadow_2060_6198"/>
</filter>
</defs>
</svg>
