<svg width="443" height="298" viewBox="0 0 443 298" fill="none" xmlns="http://www.w3.org/2000/svg">
<g opacity="0.5">
<path d="M264.077 109.042C304.083 108.056 339.7 110.318 367.678 113.301C405.42 117.325 431.994 149.644 432.929 187.589C433.065 193.09 433.199 198.544 433.335 204.044C434.272 242.081 409.267 275.935 371.83 282.726C342.311 288.08 305.568 293.129 268.637 294.04C232.999 294.918 198.841 291.902 171.373 288.151C134.476 283.112 108.894 251.019 107.977 213.791L107.477 193.52C106.566 156.557 130.315 123.705 166.822 117.846C192.554 113.717 225.551 109.992 264.077 109.042Z" fill="white" stroke="black" stroke-opacity="0.5" stroke-width="3.74999"/>
<path d="M186.855 19.6053C136.418 43.0428 122.355 57.8552 100.043 75.6678C77.7304 93.4804 -2.14435 209.355 2.16814 233.73C6.48063 258.105 37.4179 253.793 48.293 243.48C59.1682 233.168 100.043 194.168 116.355 183.293C132.668 172.418 160.793 166.605 186.855 166.605C212.918 166.605 301.264 160.911 373.042 149.73C373.042 149.73 424.417 138.855 436.042 116.168C447.667 93.4802 437.167 67.2303 409.417 43.4178C381.667 19.6053 320.355 6.29287 300.293 4.23032C280.23 2.16778 237.293 -3.83217 186.855 19.6053Z" fill="#E31616" stroke="#911010" stroke-width="3.74999"/>
<path d="M336.483 12.854C323.51 9.32072 311.29 6.48564 291.296 4.7915C291.296 4.7915 336.198 103.898 345.687 111.522C355.175 119.145 364.325 116.943 368.9 108.134C373.475 99.324 336.483 12.854 336.483 12.854Z" fill="#FAB3B3"/>
<path d="M276.102 115.042C277.977 106.98 242.165 5.16748 242.165 5.16748C224.806 7.20932 217.44 9.39583 200.54 15.6675C200.54 15.6675 240.852 124.792 252.102 128.917C263.352 133.042 274.227 123.105 276.102 115.042Z" fill="#FAB3B3"/>
<path d="M183.102 130.417C181.602 117.292 144.477 43.792 144.477 43.792C130.325 52.7108 123.427 58.5765 110.728 68.917C110.728 68.917 156.852 144.667 165.665 148.604C178.79 150.292 183.102 143.542 183.102 130.417Z" fill="#FAB3B3"/>
<ellipse cx="219.184" cy="172.027" rx="14.5135" ry="29.2344" fill="black"/>
<ellipse cx="354.785" cy="172.027" rx="14.5135" ry="29.2344" fill="black"/>
<path d="M312.668 217.622C302.794 223.992 296.141 224.517 283.019 222.044C266.898 216.994 259.418 205.792 259.418 205.792" stroke="black" stroke-width="4.12499" stroke-linecap="round"/>
</g>
</svg>
