<svg width="171" height="223" viewBox="0 0 171 223" fill="none" xmlns="http://www.w3.org/2000/svg">
<path d="M95.3611 212.8L93.4411 186.96L84.8811 189.12V221.84H104.801C104.801 221.84 113.201 221.84 109.681 215.36C104.801 209.52 95.3611 212.8 95.3611 212.8Z" fill="white" stroke="black" stroke-width="1.6" stroke-linecap="round"/>
<path d="M48.4006 212.88L50.3206 187.04L58.8807 189.2V221.92H38.9606C38.9606 221.92 30.5606 221.92 34.0806 215.44C38.9606 209.6 48.4006 212.88 48.4006 212.88Z" fill="white" stroke="black" stroke-width="1.6" stroke-linecap="round"/>
<rect width="57.7601" height="9.19001" transform="matrix(-0.740336 -0.672237 -0.672238 0.740335 156.001 198.988)" fill="white"/>
<rect x="-1.13006" y="0.0544785" width="56.1601" height="7.59" transform="matrix(-0.740336 -0.672237 -0.672238 0.740335 154.071 198.243)" stroke="black" stroke-opacity="0.5" stroke-width="1.6"/>
<path d="M106.786 36.3444C103.364 43.4302 101.366 46.4474 96.4814 50.0375C100.631 56.477 126.054 73.124 131.467 73.8501C133.481 68.8009 135.215 66.3865 139.111 62.6192C139.111 62.6192 141.232 61.4329 144.463 61.9888C151.114 62.5248 155.92 60.5842 159.62 52.2559C161.885 46.5681 158.706 39.7726 151.433 35.8374C151.433 35.8374 152.88 26.9618 145.795 20.4961C134.439 12.1094 127.212 19.3517 127.212 19.3517C127.212 19.3517 127.018 16.2616 121.402 13.4247C112.635 9.42978 105.796 15.621 105.796 15.621C102.541 18.5437 100.329 22.0569 100.863 26.7254C102.117 31.712 103.111 33.5332 106.786 36.3444Z" fill="white"/>
<path d="M96.4814 50.0375C101.366 46.4474 103.364 43.4302 106.786 36.3444M96.4814 50.0375C100.631 56.477 126.054 73.124 131.467 73.8501C133.481 68.8009 135.215 66.3865 139.111 62.6192C139.111 62.6192 141.232 61.4329 144.463 61.9888C151.114 62.5248 155.92 60.5842 159.62 52.2559C161.885 46.5681 158.706 39.7726 151.433 35.8374C151.433 35.8374 152.88 26.9618 145.795 20.4961C134.439 12.1094 127.212 19.3517 127.212 19.3517C127.212 19.3517 127.018 16.2616 121.402 13.4247C112.635 9.42978 105.796 15.621 105.796 15.621C102.541 18.5437 100.329 22.0569 100.863 26.7254C102.117 31.712 103.111 33.5332 106.786 36.3444M96.4814 50.0375C109.868 53.1623 117.513 59.6281 125.809 67.6984M106.786 36.3444C118.409 37.5588 124.134 41.6761 133.728 51.7244" stroke="black" stroke-width="1.6"/>
<ellipse cx="71.7602" cy="71.7601" rx="71.7602" ry="71.7601" transform="matrix(-1 0 0 1 143.521 47.6797)" fill="#E31616"/>
<path d="M0.800049 119.44C0.800049 158.63 32.57 190.4 71.7603 190.4C110.951 190.4 142.721 158.63 142.721 119.44C142.721 80.2496 110.951 48.4797 71.7603 48.4797C32.57 48.4797 0.800049 80.2496 0.800049 119.44Z" stroke="black" stroke-opacity="0.5" stroke-width="1.6"/>
<ellipse cx="48.0002" cy="48.0001" rx="48.0002" ry="48.0001" transform="matrix(-1 0 0 1 119.841 71.0396)" fill="#FAB3B3"/>
<path d="M58.0827 188.24C60.6428 189.84 77.5229 189.84 79.2028 189.2C79.265 189.164 69.2081 185.064 68.4004 184.4C57.2004 177.84 51.7604 169.84 50.0004 161.36L43.0404 133.68L23.9225 117.84C22.8825 133.28 31.6863 168.465 58.0827 188.24Z" fill="#FAB3B3"/>
<path d="M72.561 100.16C51.0409 98.7201 42.5959 113.28 41.0409 118.8C35.2809 135.52 46.0009 161.52 54.081 171.36L74.801 167.716L98.7211 162.72C98.9611 159.2 91.2274 163.313 87.9211 162.93C65.3341 160.311 56.5367 137.849 63.201 122.561C63.201 122.561 67.041 133.68 75.601 136.4C78.481 137.28 91.6811 137.44 92.8011 122.561C92.8011 104.481 75.761 100.4 72.561 100.16Z" fill="#E31616"/>
<ellipse cx="6.19246" cy="12.4734" rx="6.19246" ry="12.4734" transform="matrix(-1 0 0 1 107.04 105.439)" fill="black"/>
<ellipse cx="6.19246" cy="12.4734" rx="6.19246" ry="12.4734" transform="matrix(-1 0 0 1 39.1045 105.439)" fill="black"/>
<path d="M52.8803 128.8C52.8803 128.8 54.0003 139.6 58.0803 139.6C62.1603 139.6 66.4803 133.12 66.4803 133.12C66.4803 133.12 69.1204 139.6 74.0804 139.6C79.0404 139.6 80.4004 128.8 80.4004 128.8" stroke="black" stroke-width="2.40001" stroke-linecap="round"/>
</svg>
