<svg width="832" height="501" viewBox="0 0 832 501" fill="none" xmlns="http://www.w3.org/2000/svg">
<g filter="url(#filter0_ii_626_284)">
<path d="M413.775 359.672H803.8C809.966 101.525 549.935 18.5039 413.1 18.5039C281.216 18.5038 26.1099 98.0979 23.75 359.672H413.775Z" fill="#C6966B"/>
</g>
<path d="M383.842 303.41C402.579 315.407 415.205 316.395 440.106 311.737C470.697 302.227 484.893 281.131 484.893 281.131" stroke="black" stroke-width="5.5" stroke-linecap="round"/>
<g filter="url(#filter1_i_626_284)">
<path d="M265.012 267.853C282.413 267.853 296.52 239.44 296.52 204.39C296.52 169.341 282.413 140.928 265.012 140.928C247.611 140.928 233.504 169.341 233.504 204.39C233.504 239.44 247.611 267.853 265.012 267.853Z" fill="black"/>
</g>
<g filter="url(#filter2_i_626_284)">
<path d="M559.387 267.853C576.788 267.853 590.895 239.44 590.895 204.39C590.895 169.341 576.788 140.928 559.387 140.928C541.986 140.928 527.879 169.341 527.879 204.39C527.879 239.44 541.986 267.853 559.387 267.853Z" fill="black"/>
</g>
<g filter="url(#filter3_di_626_284)">
<path d="M128.159 107.772C130.759 101.728 136.841 97.9364 143.413 98.2627L180.947 100.127C189.334 100.543 195.919 107.464 195.919 115.861V143.242C195.919 147.909 193.85 152.335 190.27 155.328L158.61 181.794C155.275 184.582 150.936 185.868 146.621 185.348L118.253 181.93C107.809 180.672 101.508 169.728 105.665 160.066L128.159 107.772Z" fill="#563211"/>
</g>
<g filter="url(#filter4_di_626_284)">
<path d="M464.091 6.48326C470.652 3.12749 478.439 3.19669 484.943 6.66851L526.588 28.9102C536.868 34.3998 541.257 46.8273 536.702 57.5539L524.045 87.3705C523.149 89.4774 521.942 91.4357 520.457 93.1776L485.006 134.758C478.146 142.806 466.605 144.992 457.277 140.009L415.098 117.483C407.708 113.536 403.121 105.811 403.196 97.4328L403.609 50.9835C403.683 42.6055 408.406 34.9626 415.865 31.1475L464.091 6.48326Z" fill="#B15500"/>
</g>
<g filter="url(#filter5_di_626_284)">
<path d="M706.359 217.173C713.952 213.471 722.977 214.332 729.733 219.403L740.423 227.427C741.711 228.393 742.89 229.494 743.943 230.711L767.624 258.117C773.466 264.876 774.754 274.452 770.91 282.516L764.23 296.522C759.832 305.753 749.759 310.855 739.712 308.945L707.304 302.782C703.271 302.016 699.53 300.164 696.478 297.426L687.575 289.438C682.511 284.896 679.775 278.308 680.126 271.516L681.661 242.124C682.084 233.952 686.914 226.654 694.268 223.068L706.359 217.173Z" fill="#563211"/>
</g>
<g filter="url(#filter6_di_626_284)">
<path d="M234.786 318.77C239.401 310.603 249.514 307.348 258.027 311.29L305.096 333.086C317.21 338.696 319.219 355.076 308.82 363.448L279.085 387.381C272.559 392.635 263.271 392.692 256.68 387.519L226.769 364.047C219.77 358.554 217.832 348.773 222.209 341.027L234.786 318.77Z" fill="#B15500"/>
</g>
<g filter="url(#filter7_i_626_284)">
<path d="M817 359.5H15C6.71573 359.5 0 366.216 0 374.5V486C0 494.284 6.71574 501 15 501H817C825.284 501 832 494.284 832 486V374.5C832 366.216 825.284 359.5 817 359.5Z" fill="#911010"/>
</g>
<g filter="url(#filter8_di_626_284)">
<path d="M676.832 440.485C676.832 421.344 670.922 361.952 676.832 347.597C689.498 327.894 740.451 322.827 755.931 347.597C761.845 357.73 755.931 420.5 755.931 440.485C755.931 460.469 755.368 470.884 744.952 470.884C733.74 472.901 732.353 452.399 732.254 443.987C731.984 453.029 730.04 476.308 717.086 474.26C705.054 474.494 702.911 451.517 702.529 443.334C702.605 451.193 701.687 472.496 689.498 470.884C677.394 470.884 676.832 459.623 676.832 440.485Z" fill="#C6966B"/>
</g>
<g filter="url(#filter9_di_626_284)">
<path d="M76.3402 440.642C76.3402 421.502 70.4288 362.11 76.3402 347.755C89.0073 328.052 139.957 322.984 155.44 347.755C161.351 357.888 155.44 420.658 155.44 440.642C155.44 460.627 154.877 471.042 144.462 471.042C133.245 473.058 131.861 452.557 131.762 444.145C131.493 453.187 129.549 476.466 116.594 474.418C104.56 474.652 102.419 451.675 102.039 443.492C102.111 451.351 101.193 472.653 89.0073 471.042C76.9033 471.042 76.3402 459.781 76.3402 440.642Z" fill="#C6966B"/>
</g>
<g filter="url(#filter10_d_626_284)">
<path d="M223.464 395.682C215.263 405.218 191.67 423.013 184.937 422.191C178.205 421.369 177.336 416.392 178.357 412.846C179.378 409.3 209.143 390.433 217.074 385.669C225.006 380.905 226.801 383.554 228.709 385.669C230.616 387.785 266.849 409.507 269.524 411.797C272.199 414.088 268.033 421.81 262.276 422C256.52 422.191 232.142 405.504 223.464 395.682ZM202.389 426.005C207.792 424.602 244.444 426.005 244.444 426.005V434.206H202.389C202.389 434.206 199.317 430.428 202.389 426.005ZM218.65 405.27C220.56 402.982 226.294 402.453 228.184 405.27C230.073 408.087 226.992 417.709 226.992 417.709H219.709C219.709 417.709 216.74 407.557 218.65 405.27ZM185.414 464.053C187.4 462.718 222.225 459.823 225.006 460.619C227.787 461.415 230.425 468.317 226.801 470.03C223.178 471.743 194.216 477.727 188.194 475.591C182.173 473.456 183.427 465.388 185.414 464.053ZM226.801 444.886C233.572 456.52 265.9 460.334 267.712 465.579C269.524 470.823 264.465 475.449 260.751 475.591C239.58 472.063 225.562 463.195 217.074 447.556L226.801 444.886ZM254.934 442.979C254.934 442.979 263.319 443.838 263.23 449.845C263.141 455.852 246.637 459.762 239.58 462.813L232.714 456.615C239.771 453.278 249.212 447.461 254.934 442.979ZM202.389 412.179C221.654 411.19 231.671 411.106 251.224 412.179C251.9 426.438 251.871 434.345 251.224 448.319C251.224 448.319 205.938 451.303 202.389 448.319C198.839 445.335 200.428 441.058 202.389 439.451C204.349 437.844 239.042 441.246 240.534 439.451C242.026 437.656 241.955 422 240.534 421.047C239.113 420.093 217.285 421.455 202.389 421.047V412.179ZM195.332 412.179C205.249 396.182 206.68 412.179 206.68 412.179C207.527 415.273 206.68 465.388 206.68 465.388L195.332 466.628C195.332 466.628 190.313 424.479 195.332 412.179Z" fill="#FFC700"/>
</g>
<g filter="url(#filter11_d_626_284)">
<path d="M437.138 464.416C431.915 461.703 431.915 398.408 437.138 394.988C442.362 391.569 479.292 392.099 483.546 394.988C487.801 397.878 485.529 410.706 483.546 409.862C481.564 409.018 453.576 407.525 451.19 410.176C448.804 412.827 447.848 423.169 451.19 424.179C454.531 425.188 478.835 421.448 481.413 424.974C483.991 428.499 483.354 434.645 480.353 436.374C477.351 438.104 453.681 435.295 451.19 437.025C448.698 438.754 448.749 447.33 452.355 449.229C455.962 451.127 480.353 449.365 483.408 449.229C486.463 449.092 486.728 461.703 483.408 464.416C480.088 467.128 442.362 467.128 437.138 464.416ZM510.931 464.416C508.19 467.393 499.812 468.719 493.874 464.416C487.936 460.113 511.107 404.825 511.107 404.825C511.107 404.825 515.17 393.955 526.66 393.955C538.149 393.955 541.861 404.825 541.861 404.825C541.861 404.825 563.779 460.378 556.973 464.416C550.166 468.454 543.427 465.803 541.849 464.416C538.149 463.293 526.66 415.837 526.66 415.837C526.66 415.837 513.672 461.438 510.931 464.416ZM506.6 438.107C521.679 437.004 529.971 437.05 544.777 438.107L544.247 452.812C529.176 454.5 521.397 454.583 506.6 452.812V438.107ZM558.828 409.862C555.295 408.178 554.056 398.869 558.212 394.988C562.367 391.108 614.504 392.771 618.557 394.988C622.61 397.205 621.019 407.648 618.557 409.862C616.094 412.076 597.143 409.287 596.21 410.176C595.278 411.065 600.59 460.501 597.006 464.416C593.422 468.331 585.458 468.018 580.833 464.244C576.208 460.47 580.981 411.065 580.038 410.176C579.095 409.287 562.361 411.546 558.828 409.862ZM647.622 394.988C651.09 399.134 647.286 440.174 644.197 442.719C641.109 445.265 635.459 444.735 632.532 442.719C629.604 440.704 624.48 398.796 628.638 394.988C632.797 391.181 644.154 390.842 647.622 394.988ZM638.128 465.499C635.507 465.499 633.259 464.588 631.383 462.755C629.531 460.903 628.614 458.655 628.638 456.01C628.614 453.433 629.531 451.228 631.383 449.398C633.259 447.568 635.507 446.652 638.128 446.652C640.615 446.652 642.806 447.568 644.706 449.398C646.629 451.228 647.598 453.433 647.622 456.01C647.598 457.772 647.135 459.375 646.233 460.822C645.35 462.244 644.2 463.39 642.772 464.244C641.35 465.084 639.803 465.499 638.128 465.499Z" fill="#FFC700"/>
</g>
<g filter="url(#filter12_d_626_284)">
<path d="M324.267 417.17C322.945 415.958 322.808 414.799 322.144 413.846C321.48 412.868 320.649 412.046 319.653 411.379C318.68 410.688 317.541 410.175 316.237 409.842C314.955 409.484 313.543 409.306 312.001 409.306C308.68 409.306 305.845 410.104 303.496 411.701C301.171 413.298 299.391 415.597 298.158 418.6C296.948 421.603 296.343 425.225 296.343 429.467C296.343 433.756 296.924 437.426 298.086 440.477C299.249 443.527 300.981 445.862 303.282 447.483C305.584 449.104 308.443 449.914 311.859 449.914C314.872 449.914 317.375 449.473 319.368 448.591C321.385 447.709 322.891 446.458 323.888 444.838C324.884 443.217 325.382 441.311 325.382 439.118L328.799 439.476C328.799 439.476 314.526 440.948 312.144 439.476C309.762 438.004 309.238 428.258 312.144 425.32C315.049 422.382 340.84 422.382 342.913 425.32C344.986 428.258 344.458 435.472 344.458 435.472C344.458 442.145 343.046 447.852 340.223 452.595C337.423 457.316 333.556 460.935 328.621 463.461C323.71 465.963 318.075 467.216 311.717 467.216C304.623 467.216 298.395 465.701 293.033 462.676C287.671 459.651 283.483 455.338 280.47 449.735C277.481 444.135 275.986 437.474 275.986 429.753C275.986 423.699 276.9 418.338 278.727 413.667C280.577 408.996 283.139 405.052 286.413 401.835C289.688 398.594 293.472 396.151 297.766 394.506C302.061 392.838 306.663 392.004 311.575 392.004C315.892 392.004 319.902 392.624 323.603 393.863C327.328 395.079 330.614 396.818 333.461 399.082C336.332 401.322 338.645 403.979 340.401 407.053C342.157 410.128 343.47 412.977 341.8 417.17C340.13 421.363 326.493 419.212 324.267 417.17ZM424.291 429.61C424.291 437.76 422.713 444.635 419.557 450.236C416.402 455.811 412.143 460.044 406.781 462.928C401.419 465.786 395.441 467.216 388.845 467.216C382.202 467.216 376.199 465.771 370.837 462.887C365.499 459.983 361.252 455.74 358.097 450.164C354.965 444.564 353.399 437.712 353.399 429.61C353.399 421.46 354.965 414.596 358.097 409.02C361.252 403.42 365.499 399.189 370.837 396.33C376.199 393.446 382.202 392.004 388.845 392.004C395.441 392.004 401.419 393.446 406.781 396.33C412.143 399.189 416.402 403.42 419.557 409.02C422.713 414.596 424.291 421.46 424.291 429.61ZM403.934 429.61C403.934 425.225 403.353 421.531 402.19 418.528C401.052 415.502 399.355 413.214 397.102 411.665C394.871 410.092 392.119 409.306 388.845 409.306C385.571 409.306 382.807 410.092 380.553 411.665C378.323 413.214 376.626 415.502 375.464 418.528C374.325 421.531 373.756 425.225 373.756 429.61C373.756 433.995 374.325 437.701 375.464 440.727C376.626 443.73 378.323 446.017 380.553 447.59C382.807 449.139 385.571 449.914 388.845 449.914C392.119 449.914 394.871 449.139 397.102 447.59C399.355 446.017 401.052 443.73 402.19 440.727C403.353 437.701 403.934 433.995 403.934 429.61Z" fill="#E31616"/>
</g>
<defs>
<filter id="filter0_ii_626_284" x="-1.25" y="18.5039" width="830.157" height="366.168" filterUnits="userSpaceOnUse" color-interpolation-filters="sRGB">
<feFlood flood-opacity="0" result="BackgroundImageFix"/>
<feBlend mode="normal" in="SourceGraphic" in2="BackgroundImageFix" result="shape"/>
<feColorMatrix in="SourceAlpha" type="matrix" values="0 0 0 0 0 0 0 0 0 0 0 0 0 0 0 0 0 0 127 0" result="hardAlpha"/>
<feOffset dx="-25"/>
<feGaussianBlur stdDeviation="25"/>
<feComposite in2="hardAlpha" operator="arithmetic" k2="-1" k3="1"/>
<feColorMatrix type="matrix" values="0 0 0 0 0 0 0 0 0 0 0 0 0 0 0 0 0 0 0.25 0"/>
<feBlend mode="normal" in2="shape" result="effect1_innerShadow_626_284"/>
<feColorMatrix in="SourceAlpha" type="matrix" values="0 0 0 0 0 0 0 0 0 0 0 0 0 0 0 0 0 0 127 0" result="hardAlpha"/>
<feOffset dx="25" dy="25"/>
<feGaussianBlur stdDeviation="25"/>
<feComposite in2="hardAlpha" operator="arithmetic" k2="-1" k3="1"/>
<feColorMatrix type="matrix" values="0 0 0 0 1 0 0 0 0 1 0 0 0 0 1 0 0 0 0.25 0"/>
<feBlend mode="normal" in2="effect1_innerShadow_626_284" result="effect2_innerShadow_626_284"/>
</filter>
<filter id="filter1_i_626_284" x="233.504" y="140.928" width="68.0166" height="131.925" filterUnits="userSpaceOnUse" color-interpolation-filters="sRGB">
<feFlood flood-opacity="0" result="BackgroundImageFix"/>
<feBlend mode="normal" in="SourceGraphic" in2="BackgroundImageFix" result="shape"/>
<feColorMatrix in="SourceAlpha" type="matrix" values="0 0 0 0 0 0 0 0 0 0 0 0 0 0 0 0 0 0 127 0" result="hardAlpha"/>
<feOffset dx="5" dy="10"/>
<feGaussianBlur stdDeviation="2.5"/>
<feComposite in2="hardAlpha" operator="arithmetic" k2="-1" k3="1"/>
<feColorMatrix type="matrix" values="0 0 0 0 1 0 0 0 0 1 0 0 0 0 1 0 0 0 0.25 0"/>
<feBlend mode="normal" in2="shape" result="effect1_innerShadow_626_284"/>
</filter>
<filter id="filter2_i_626_284" x="527.879" y="140.928" width="68.0166" height="131.925" filterUnits="userSpaceOnUse" color-interpolation-filters="sRGB">
<feFlood flood-opacity="0" result="BackgroundImageFix"/>
<feBlend mode="normal" in="SourceGraphic" in2="BackgroundImageFix" result="shape"/>
<feColorMatrix in="SourceAlpha" type="matrix" values="0 0 0 0 0 0 0 0 0 0 0 0 0 0 0 0 0 0 127 0" result="hardAlpha"/>
<feOffset dx="5" dy="10"/>
<feGaussianBlur stdDeviation="2.5"/>
<feComposite in2="hardAlpha" operator="arithmetic" k2="-1" k3="1"/>
<feColorMatrix type="matrix" values="0 0 0 0 1 0 0 0 0 1 0 0 0 0 1 0 0 0 0.25 0"/>
<feBlend mode="normal" in2="shape" result="effect1_innerShadow_626_284"/>
</filter>
<filter id="filter3_di_626_284" x="102.371" y="98.2432" width="103.548" height="97.2178" filterUnits="userSpaceOnUse" color-interpolation-filters="sRGB">
<feFlood flood-opacity="0" result="BackgroundImageFix"/>
<feColorMatrix in="SourceAlpha" type="matrix" values="0 0 0 0 0 0 0 0 0 0 0 0 0 0 0 0 0 0 127 0" result="hardAlpha"/>
<feOffset dy="2"/>
<feGaussianBlur stdDeviation="1"/>
<feComposite in2="hardAlpha" operator="out"/>
<feColorMatrix type="matrix" values="0 0 0 0 0 0 0 0 0 0 0 0 0 0 0 0 0 0 0.25 0"/>
<feBlend mode="normal" in2="BackgroundImageFix" result="effect1_dropShadow_626_284"/>
<feBlend mode="normal" in="SourceGraphic" in2="effect1_dropShadow_626_284" result="shape"/>
<feColorMatrix in="SourceAlpha" type="matrix" values="0 0 0 0 0 0 0 0 0 0 0 0 0 0 0 0 0 0 127 0" result="hardAlpha"/>
<feOffset dx="10" dy="10"/>
<feGaussianBlur stdDeviation="7.5"/>
<feComposite in2="hardAlpha" operator="arithmetic" k2="-1" k3="1"/>
<feColorMatrix type="matrix" values="0 0 0 0 1 0 0 0 0 1 0 0 0 0 1 0 0 0 0.25 0"/>
<feBlend mode="normal" in2="shape" result="effect2_innerShadow_626_284"/>
</filter>
<filter id="filter4_di_626_284" x="401.195" y="4.01465" width="147.301" height="148.649" filterUnits="userSpaceOnUse" color-interpolation-filters="sRGB">
<feFlood flood-opacity="0" result="BackgroundImageFix"/>
<feColorMatrix in="SourceAlpha" type="matrix" values="0 0 0 0 0 0 0 0 0 0 0 0 0 0 0 0 0 0 127 0" result="hardAlpha"/>
<feOffset dy="2"/>
<feGaussianBlur stdDeviation="1"/>
<feComposite in2="hardAlpha" operator="out"/>
<feColorMatrix type="matrix" values="0 0 0 0 0 0 0 0 0 0 0 0 0 0 0 0 0 0 0.25 0"/>
<feBlend mode="normal" in2="BackgroundImageFix" result="effect1_dropShadow_626_284"/>
<feBlend mode="normal" in="SourceGraphic" in2="effect1_dropShadow_626_284" result="shape"/>
<feColorMatrix in="SourceAlpha" type="matrix" values="0 0 0 0 0 0 0 0 0 0 0 0 0 0 0 0 0 0 127 0" result="hardAlpha"/>
<feOffset dx="10" dy="10"/>
<feGaussianBlur stdDeviation="7.5"/>
<feComposite in2="hardAlpha" operator="arithmetic" k2="-1" k3="1"/>
<feColorMatrix type="matrix" values="0 0 0 0 1 0 0 0 0 1 0 0 0 0 1 0 0 0 0.25 0"/>
<feBlend mode="normal" in2="shape" result="effect2_innerShadow_626_284"/>
</filter>
<filter id="filter5_di_626_284" x="678.096" y="214.896" width="105.005" height="104.446" filterUnits="userSpaceOnUse" color-interpolation-filters="sRGB">
<feFlood flood-opacity="0" result="BackgroundImageFix"/>
<feColorMatrix in="SourceAlpha" type="matrix" values="0 0 0 0 0 0 0 0 0 0 0 0 0 0 0 0 0 0 127 0" result="hardAlpha"/>
<feOffset dy="2"/>
<feGaussianBlur stdDeviation="1"/>
<feComposite in2="hardAlpha" operator="out"/>
<feColorMatrix type="matrix" values="0 0 0 0 0 0 0 0 0 0 0 0 0 0 0 0 0 0 0.25 0"/>
<feBlend mode="normal" in2="BackgroundImageFix" result="effect1_dropShadow_626_284"/>
<feBlend mode="normal" in="SourceGraphic" in2="effect1_dropShadow_626_284" result="shape"/>
<feColorMatrix in="SourceAlpha" type="matrix" values="0 0 0 0 0 0 0 0 0 0 0 0 0 0 0 0 0 0 127 0" result="hardAlpha"/>
<feOffset dx="10" dy="10"/>
<feGaussianBlur stdDeviation="7.5"/>
<feComposite in2="hardAlpha" operator="arithmetic" k2="-1" k3="1"/>
<feColorMatrix type="matrix" values="0 0 0 0 1 0 0 0 0 1 0 0 0 0 1 0 0 0 0.25 0"/>
<feBlend mode="normal" in2="shape" result="effect2_innerShadow_626_284"/>
</filter>
<filter id="filter6_di_626_284" x="217.879" y="309.62" width="107.658" height="91.7402" filterUnits="userSpaceOnUse" color-interpolation-filters="sRGB">
<feFlood flood-opacity="0" result="BackgroundImageFix"/>
<feColorMatrix in="SourceAlpha" type="matrix" values="0 0 0 0 0 0 0 0 0 0 0 0 0 0 0 0 0 0 127 0" result="hardAlpha"/>
<feOffset dy="2"/>
<feGaussianBlur stdDeviation="1"/>
<feComposite in2="hardAlpha" operator="out"/>
<feColorMatrix type="matrix" values="0 0 0 0 0 0 0 0 0 0 0 0 0 0 0 0 0 0 0.25 0"/>
<feBlend mode="normal" in2="BackgroundImageFix" result="effect1_dropShadow_626_284"/>
<feBlend mode="normal" in="SourceGraphic" in2="effect1_dropShadow_626_284" result="shape"/>
<feColorMatrix in="SourceAlpha" type="matrix" values="0 0 0 0 0 0 0 0 0 0 0 0 0 0 0 0 0 0 127 0" result="hardAlpha"/>
<feOffset dx="10" dy="10"/>
<feGaussianBlur stdDeviation="7.5"/>
<feComposite in2="hardAlpha" operator="arithmetic" k2="-1" k3="1"/>
<feColorMatrix type="matrix" values="0 0 0 0 1 0 0 0 0 1 0 0 0 0 1 0 0 0 0.25 0"/>
<feBlend mode="normal" in2="shape" result="effect2_innerShadow_626_284"/>
</filter>
<filter id="filter7_i_626_284" x="-25" y="334.5" width="857" height="166.5" filterUnits="userSpaceOnUse" color-interpolation-filters="sRGB">
<feFlood flood-opacity="0" result="BackgroundImageFix"/>
<feBlend mode="normal" in="SourceGraphic" in2="BackgroundImageFix" result="shape"/>
<feColorMatrix in="SourceAlpha" type="matrix" values="0 0 0 0 0 0 0 0 0 0 0 0 0 0 0 0 0 0 127 0" result="hardAlpha"/>
<feOffset dx="-25" dy="-25"/>
<feGaussianBlur stdDeviation="12.5"/>
<feComposite in2="hardAlpha" operator="arithmetic" k2="-1" k3="1"/>
<feColorMatrix type="matrix" values="0 0 0 0 0 0 0 0 0 0 0 0 0 0 0 0 0 0 0.25 0"/>
<feBlend mode="normal" in2="shape" result="effect1_innerShadow_626_284"/>
</filter>
<filter id="filter8_di_626_284" x="649.205" y="300.866" width="111.354" height="177.521" filterUnits="userSpaceOnUse" color-interpolation-filters="sRGB">
<feFlood flood-opacity="0" result="BackgroundImageFix"/>
<feColorMatrix in="SourceAlpha" type="matrix" values="0 0 0 0 0 0 0 0 0 0 0 0 0 0 0 0 0 0 127 0" result="hardAlpha"/>
<feOffset dy="2"/>
<feGaussianBlur stdDeviation="1"/>
<feComposite in2="hardAlpha" operator="out"/>
<feColorMatrix type="matrix" values="0 0 0 0 0 0 0 0 0 0 0 0 0 0 0 0 0 0 0.25 0"/>
<feBlend mode="normal" in2="BackgroundImageFix" result="effect1_dropShadow_626_284"/>
<feBlend mode="normal" in="SourceGraphic" in2="effect1_dropShadow_626_284" result="shape"/>
<feColorMatrix in="SourceAlpha" type="matrix" values="0 0 0 0 0 0 0 0 0 0 0 0 0 0 0 0 0 0 127 0" result="hardAlpha"/>
<feOffset dx="-25" dy="-30"/>
<feGaussianBlur stdDeviation="25"/>
<feComposite in2="hardAlpha" operator="arithmetic" k2="-1" k3="1"/>
<feColorMatrix type="matrix" values="0 0 0 0 0 0 0 0 0 0 0 0 0 0 0 0 0 0 0.25 0"/>
<feBlend mode="normal" in2="shape" result="effect2_innerShadow_626_284"/>
</filter>
<filter id="filter9_di_626_284" x="48.7129" y="301.023" width="111.354" height="177.521" filterUnits="userSpaceOnUse" color-interpolation-filters="sRGB">
<feFlood flood-opacity="0" result="BackgroundImageFix"/>
<feColorMatrix in="SourceAlpha" type="matrix" values="0 0 0 0 0 0 0 0 0 0 0 0 0 0 0 0 0 0 127 0" result="hardAlpha"/>
<feOffset dy="2"/>
<feGaussianBlur stdDeviation="1"/>
<feComposite in2="hardAlpha" operator="out"/>
<feColorMatrix type="matrix" values="0 0 0 0 0 0 0 0 0 0 0 0 0 0 0 0 0 0 0.25 0"/>
<feBlend mode="normal" in2="BackgroundImageFix" result="effect1_dropShadow_626_284"/>
<feBlend mode="normal" in="SourceGraphic" in2="effect1_dropShadow_626_284" result="shape"/>
<feColorMatrix in="SourceAlpha" type="matrix" values="0 0 0 0 0 0 0 0 0 0 0 0 0 0 0 0 0 0 127 0" result="hardAlpha"/>
<feOffset dx="-25" dy="-30"/>
<feGaussianBlur stdDeviation="25"/>
<feComposite in2="hardAlpha" operator="arithmetic" k2="-1" k3="1"/>
<feColorMatrix type="matrix" values="0 0 0 0 0 0 0 0 0 0 0 0 0 0 0 0 0 0 0.25 0"/>
<feBlend mode="normal" in2="shape" result="effect2_innerShadow_626_284"/>
</filter>
<filter id="filter10_d_626_284" x="174" y="383" width="100.354" height="101.046" filterUnits="userSpaceOnUse" color-interpolation-filters="sRGB">
<feFlood flood-opacity="0" result="BackgroundImageFix"/>
<feColorMatrix in="SourceAlpha" type="matrix" values="0 0 0 0 0 0 0 0 0 0 0 0 0 0 0 0 0 0 127 0" result="hardAlpha"/>
<feOffset dy="4"/>
<feGaussianBlur stdDeviation="2"/>
<feComposite in2="hardAlpha" operator="out"/>
<feColorMatrix type="matrix" values="0 0 0 0 0 0 0 0 0 0 0 0 0 0 0 0 0 0 0.25 0"/>
<feBlend mode="normal" in2="BackgroundImageFix" result="effect1_dropShadow_626_284"/>
<feBlend mode="normal" in="SourceGraphic" in2="effect1_dropShadow_626_284" result="shape"/>
</filter>
<filter id="filter11_d_626_284" x="429.221" y="392.004" width="223.779" height="83.2114" filterUnits="userSpaceOnUse" color-interpolation-filters="sRGB">
<feFlood flood-opacity="0" result="BackgroundImageFix"/>
<feColorMatrix in="SourceAlpha" type="matrix" values="0 0 0 0 0 0 0 0 0 0 0 0 0 0 0 0 0 0 127 0" result="hardAlpha"/>
<feOffset dy="4"/>
<feGaussianBlur stdDeviation="2"/>
<feComposite in2="hardAlpha" operator="out"/>
<feColorMatrix type="matrix" values="0 0 0 0 0 0 0 0 0 0 0 0 0 0 0 0 0 0 0.25 0"/>
<feBlend mode="normal" in2="BackgroundImageFix" result="effect1_dropShadow_626_284"/>
<feBlend mode="normal" in="SourceGraphic" in2="effect1_dropShadow_626_284" result="shape"/>
</filter>
<filter id="filter12_d_626_284" x="271.986" y="392.004" width="156.305" height="83.2114" filterUnits="userSpaceOnUse" color-interpolation-filters="sRGB">
<feFlood flood-opacity="0" result="BackgroundImageFix"/>
<feColorMatrix in="SourceAlpha" type="matrix" values="0 0 0 0 0 0 0 0 0 0 0 0 0 0 0 0 0 0 127 0" result="hardAlpha"/>
<feOffset dy="4"/>
<feGaussianBlur stdDeviation="2"/>
<feComposite in2="hardAlpha" operator="out"/>
<feColorMatrix type="matrix" values="0 0 0 0 0 0 0 0 0 0 0 0 0 0 0 0 0 0 0.25 0"/>
<feBlend mode="normal" in2="BackgroundImageFix" result="effect1_dropShadow_626_284"/>
<feBlend mode="normal" in="SourceGraphic" in2="effect1_dropShadow_626_284" result="shape"/>
</filter>
</defs>
</svg>
