<svg width="448" height="529" viewBox="0 0 448 529" fill="none" xmlns="http://www.w3.org/2000/svg">
<path fill-rule="evenodd" clip-rule="evenodd" d="M302.241 160.061C306.741 156.561 311.73 117.206 314.241 87.5609C316.194 57.1256 316.533 40.5053 314.241 12.5609C314.241 12.5609 315.241 1.0609 302.241 0.0609009C289.241 -0.939099 247.741 50.0608 251.241 52.0609C252.991 53.061 260.241 52.9359 267.491 52.8108C274.741 52.6858 281.991 52.5607 283.741 53.5607C287.241 55.5607 286.741 65.5607 283.241 67.5607C281.373 68.6279 270.678 68.2714 260.576 67.9347C251.748 67.6405 243.373 67.3613 241.741 68.0609C237.241 73.0609 235.741 79.0611 237.241 81.5609C238.086 82.9687 253.678 82.9494 267.943 82.9318C279.008 82.9182 289.275 82.9055 291.241 83.5607C295.741 85.0605 298.741 93.0607 294.741 96.0609C292.41 97.8095 271.906 97.0103 254.61 96.3361C242.23 95.8535 231.493 95.435 230.241 96.0609C227.241 97.5611 225.741 106.561 226.741 108.561C227.241 109.561 236.366 109.561 245.991 109.561C255.616 109.561 265.741 109.561 268.241 110.561C273.241 112.56 274.241 120.061 269.241 124.561C266.727 125.315 256.252 124.932 245.947 124.555H245.947H245.947C235.755 124.182 225.73 123.815 223.741 124.561C219.741 126.061 215.241 150.061 218.241 152.061C219.859 153.139 235.722 152.619 250.155 152.145C262.49 151.74 273.78 151.37 274.241 152.061C274.656 152.683 274.641 154.252 274.623 156.017V156.017C274.599 158.508 274.571 161.39 275.741 162.561C277.741 164.56 297.741 163.561 302.241 160.061ZM164.469 127.655L164.469 127.654L164.469 127.654C153.354 106.375 142.905 86.3712 139.269 84.5464C137.909 83.3811 136.221 82.3857 134.733 81.5089C132.392 80.1282 130.548 79.0412 131.269 78.0464C136.473 70.8616 160.758 56.7773 178.769 53.1424C195.009 49.8649 221.269 55.0464 227.769 63.0464C230.769 67.5464 205.241 180.561 196.741 180.561C192.105 180.561 177.807 153.19 164.469 127.655ZM70.7411 199.56C66.7411 199.56 40.7411 152.061 38.7411 146.561C36.7686 143.546 36.7411 128.561 38.7411 124.561C45.2686 113.046 101.741 87.5609 101.741 87.5609C104.741 85.5609 116.769 84.0609 124.241 87.5609C130.198 89.5464 179.241 176.059 175.741 181.56C172.241 187.061 75.7411 200.56 70.7411 199.56ZM213.741 164.217C212.87 165.888 211.595 169.325 213.741 173.717C215.887 178.109 266.241 167.56 265.741 164.561C265.241 161.562 214.612 162.545 213.741 164.217ZM327.241 81.5609C318.832 89.228 310.741 155.561 314.241 160.061C317.741 164.561 394.241 154.561 397.241 152.061C400.241 149.561 410.741 116.546 410.741 110.561C404.769 99.5464 335.65 73.8938 327.241 81.5609ZM410.741 96.5464C412.769 102.546 416.241 85.5609 410.741 81.5609C405.241 77.5609 346.241 57.0609 341.741 58.0609C337.241 59.0609 326.241 71.0609 332.269 68.5464C338.296 66.0319 411.604 90.6038 410.741 96.5464ZM417.241 64.5609C421.241 68.5609 417.991 72.8541 414.241 72.0609C410.491 71.2677 353.241 52.0609 353.241 52.0609C351.269 50.5464 350.241 45.5609 353.241 44.0609C356.241 42.5609 413.241 60.5609 417.241 64.5609ZM124.241 73.0609C124.241 73.0609 113.241 73.0609 114.241 68.0609C144.222 31.4574 193.578 17.4398 239.741 44.0609C241.741 52.0609 234.241 54.0609 234.241 54.0609C191.384 32.1731 164.628 36.2331 124.241 73.0609ZM81.2411 77.5609C84.7411 77.5609 87.7411 81.5609 86.7411 84.0609C84.2411 87.5609 57.7411 103.061 57.7411 103.061C54.2411 102.061 51.2411 98.5609 51.7411 96.0609C53.2686 93.5464 81.2411 77.5609 81.2411 77.5609ZM81.2411 65.5609C81.2411 63.0609 79.2686 53.5464 71.2411 52.0609C65.2686 51.0464 38.7411 61.0464 34.7411 68.0609C34.2411 71.5609 41.2411 86.0609 45.7411 87.5609C50.2411 87.5609 81.2411 68.0609 81.2411 65.5609ZM44.8591 215.706L44.859 215.706C39.6441 213.204 35.3183 211.129 34.2411 211.56C30.2412 216.56 71.7411 367.56 71.7411 367.56C74.7412 377.06 92.7411 392.56 103.241 395.56C113.741 398.56 142.241 400.56 146.241 395.56C147.241 394.06 102.241 211.56 99.2411 209.06C91.938 208.476 84.1227 213.183 77.2912 217.297L77.2911 217.297C72.43 220.225 68.0671 222.852 64.7411 223.06C60.1881 223.06 51.748 219.011 44.8593 215.706L44.8591 215.706ZM111.741 205.56C117.241 201.06 396.241 160.06 412.241 164.217C415.241 166.56 412.741 223.06 412.741 223.06C412.741 223.06 410.741 318.56 408.241 326.06C407.916 327.206 407.603 328.395 407.282 329.613C404.664 339.542 401.517 351.477 387.241 359.06C384.096 361.419 369.687 364.602 356.111 367.601L356.11 367.601L356.109 367.601C343.784 370.323 332.145 372.895 330.241 374.56C326.241 378.06 387.241 462.06 387.241 462.06C387.241 462.06 390.828 468.316 397.741 465.56C404.655 462.804 428.741 438.06 428.741 438.06C428.741 438.06 438.241 432.06 443.741 437.06C449.241 442.06 448.741 445.56 444.741 453.56C440.741 461.56 395.741 506.56 389.241 509.56C388.664 509.826 388.143 510.071 387.668 510.293C385.116 511.491 383.925 512.049 382.847 511.882C381.903 511.736 381.046 511.035 379.438 509.721L379.241 509.56C377.049 507.769 367.041 486.938 358.204 468.542L358.204 468.542L358.203 468.54L358.202 468.539C350.918 453.376 344.43 439.87 343.769 440.046C324.36 411.518 289.741 386.56 289.741 386.56C281.241 384.56 231.741 385.06 229.241 386.56C229.241 386.56 194.241 398.06 184.241 406.56C184.241 406.56 173.241 462.56 168.741 471.06C164.241 479.56 155.741 495.06 144.241 503.06C132.741 511.06 105.741 508.56 103.241 507.06C99.6933 507.06 85.8669 498.271 73.3078 490.288L73.3073 490.288C62.8573 483.645 53.2849 477.56 51.2411 477.56C46.7411 477.56 44.2411 478.56 42.7411 480.56C42.2187 481.257 39.6942 486.867 36.499 493.969L36.4984 493.97C30.5207 507.255 22.1961 525.757 20.2411 527.06C17.2412 529.06 11.2411 530.06 4.74114 527.06C-1.75886 524.06 0.741145 516.56 0.741145 516.56L35.7411 452.06C39.7412 445.06 47.7411 447.56 47.7411 447.56C47.7411 447.56 88.7411 475.06 94.7411 477.56C100.741 480.06 124.241 483.56 130.241 480.56C136.241 477.56 142.741 466.06 146.241 457.56C149.741 449.06 157.241 412.56 157.741 406.56C158.241 400.56 158.241 400.06 157.741 395.56C157.618 394.454 154.443 382.678 149.805 365.48L149.805 365.48L149.804 365.479L149.804 365.478L149.804 365.478C135.578 312.724 107.593 208.954 111.741 205.56ZM313.769 254.546C304.769 256.546 302.707 266.006 303.241 277.06C305.776 288.334 310.288 292.379 319.769 292.06C327.769 290.06 330.593 282.309 330.241 271.046C328.458 259.978 324.269 253.546 313.769 254.546ZM211.241 285.56C213.741 301.06 218.241 304.56 229.241 304.06C240.741 301.56 242.467 295.539 240.741 281.06C236.9 267.84 230.626 262.805 221.241 265.56C214.461 268.656 210.741 272.56 211.241 285.56ZM262.829 282.996C264.39 283.813 265.816 284.56 267.241 284.56C269.064 284.56 270.208 283.069 271.522 281.357C272.732 279.781 274.084 278.019 276.241 277.06C280.741 275.06 282.975 276.022 284.741 279.56C287.241 289.56 280.241 299.56 271.741 301.56C263.241 303.56 256.237 300.19 251.241 292.06C249.241 287.56 250.54 283.522 254.741 281.06C258.001 280.467 260.558 281.807 262.829 282.996Z" fill="#911010"/>
</svg>
