<svg width="449" height="529" viewBox="0 0 449 529" fill="none" xmlns="http://www.w3.org/2000/svg">
<path fill-rule="evenodd" clip-rule="evenodd" d="M302.703 160.061C307.203 156.561 312.192 117.206 314.703 87.5609C316.655 57.1256 316.994 40.5053 314.703 12.5609C314.703 12.5609 315.703 1.0609 302.703 0.0609009C289.703 -0.939099 248.203 50.0608 251.703 52.0609C253.453 53.061 260.703 52.9359 267.953 52.8108C275.203 52.6858 282.453 52.5607 284.203 53.5607C287.703 55.5607 287.203 65.5607 283.703 67.5607C281.835 68.6279 271.14 68.2714 261.038 67.9347C252.21 67.6405 243.835 67.3613 242.203 68.0609C237.703 73.0609 236.203 79.0611 237.703 81.5609C238.548 82.9687 254.14 82.9494 268.404 82.9318C279.47 82.9182 289.737 82.9055 291.703 83.5607C296.203 85.0605 299.203 93.0607 295.203 96.0609C292.872 97.8095 272.368 97.0103 255.072 96.3361C242.692 95.8535 231.955 95.435 230.703 96.0609C227.703 97.5611 226.203 106.561 227.203 108.561C227.703 109.561 236.828 109.561 246.453 109.561C256.078 109.561 266.203 109.561 268.703 110.561C273.703 112.56 274.703 120.061 269.703 124.561C267.189 125.315 256.714 124.932 246.409 124.555H246.409H246.409C236.217 124.182 226.192 123.815 224.203 124.561C220.203 126.061 215.703 150.061 218.703 152.061C220.321 153.139 236.184 152.619 250.616 152.145C262.952 151.74 274.242 151.37 274.703 152.061C275.118 152.683 275.103 154.252 275.085 156.017V156.017C275.061 158.508 275.033 161.39 276.203 162.561C278.203 164.56 298.203 163.561 302.703 160.061ZM164.931 127.655L164.931 127.654L164.931 127.654C153.816 106.375 143.367 86.3712 139.73 84.5464C138.371 83.3811 136.683 82.3857 135.195 81.5089C132.854 80.1282 131.01 79.0412 131.73 78.0464C136.935 70.8616 161.22 56.7773 179.23 53.1424C195.471 49.8649 221.73 55.0464 228.23 63.0464C231.23 67.5464 205.703 180.561 197.203 180.561C192.567 180.561 178.269 153.19 164.931 127.655ZM71.203 199.56C67.203 199.56 41.2031 152.061 39.2031 146.561C37.2305 143.546 37.2031 128.561 39.2031 124.561C45.7305 113.046 102.203 87.5609 102.203 87.5609C105.203 85.5609 117.23 84.0609 124.703 87.5609C130.66 89.5464 179.703 176.059 176.203 181.56C172.703 187.061 76.203 200.56 71.203 199.56ZM214.203 164.217C213.332 165.888 212.057 169.325 214.203 173.717C216.349 178.109 266.703 167.56 266.203 164.561C265.703 161.562 215.074 162.545 214.203 164.217ZM327.703 81.5609C319.294 89.228 311.203 155.561 314.703 160.061C318.203 164.561 394.703 154.561 397.703 152.061C400.703 149.561 411.203 116.546 411.203 110.561C405.23 99.5464 336.112 73.8938 327.703 81.5609ZM411.203 96.5464C413.23 102.546 416.703 85.5609 411.203 81.5609C405.703 77.5609 346.703 57.0609 342.203 58.0609C337.703 59.0609 326.703 71.0609 332.73 68.5464C338.758 66.0319 412.066 90.6038 411.203 96.5464ZM417.703 64.5609C421.703 68.5609 418.453 72.8541 414.703 72.0609C410.953 71.2677 353.703 52.0609 353.703 52.0609C351.73 50.5464 350.703 45.5609 353.703 44.0609C356.703 42.5609 413.703 60.5609 417.703 64.5609ZM124.703 73.0609C124.703 73.0609 113.703 73.0609 114.703 68.0609C144.684 31.4574 194.04 17.4398 240.203 44.0609C242.203 52.0609 234.703 54.0609 234.703 54.0609C191.846 32.1731 165.09 36.2331 124.703 73.0609ZM81.703 77.5609C85.203 77.5609 88.203 81.5609 87.203 84.0609C84.703 87.5609 58.2031 103.061 58.2031 103.061C54.7031 102.061 51.7031 98.5609 52.2031 96.0609C53.7305 93.5464 81.703 77.5609 81.703 77.5609ZM81.703 65.5609C81.703 63.0609 79.7305 53.5464 71.703 52.0609C65.7305 51.0464 39.2031 61.0464 35.2031 68.0609C34.7031 71.5609 41.7031 86.0609 46.2031 87.5609C50.7031 87.5609 81.703 68.0609 81.703 65.5609ZM45.321 215.706L45.3209 215.706C40.106 213.204 35.7802 211.129 34.7031 211.56C30.7031 216.56 72.203 367.56 72.203 367.56C75.2031 377.06 93.203 392.56 103.703 395.56C114.203 398.56 142.703 400.56 146.703 395.56C147.703 394.06 102.703 211.56 99.703 209.06C92.3999 208.476 84.5846 213.183 77.7531 217.297L77.753 217.297C72.8919 220.225 68.529 222.852 65.203 223.06C60.65 223.06 52.2099 219.011 45.3212 215.706L45.321 215.706ZM112.203 205.56C117.703 201.06 396.703 160.06 412.703 164.217C415.703 166.56 413.203 223.06 413.203 223.06C413.203 223.06 411.203 318.56 408.703 326.06C408.378 327.206 408.065 328.395 407.743 329.613C405.126 339.542 401.978 351.477 387.703 359.06C384.558 361.419 370.149 364.602 356.572 367.601L356.572 367.601L356.571 367.601C344.246 370.323 332.606 372.895 330.703 374.56C326.703 378.06 387.703 462.06 387.703 462.06C387.703 462.06 391.29 468.316 398.203 465.56C405.117 462.804 429.203 438.06 429.203 438.06C429.203 438.06 438.703 432.06 444.203 437.06C449.703 442.06 449.203 445.56 445.203 453.56C441.203 461.56 396.203 506.56 389.703 509.56C389.126 509.826 388.605 510.071 388.13 510.293C385.578 511.491 384.387 512.049 383.309 511.882C382.365 511.736 381.507 511.035 379.9 509.721L379.703 509.56C377.511 507.769 367.503 486.938 358.666 468.542L358.666 468.542L358.665 468.54L358.664 468.539C351.38 453.376 344.891 439.87 344.23 440.046C324.822 411.518 290.203 386.56 290.203 386.56C281.703 384.56 232.203 385.06 229.703 386.56C229.703 386.56 194.703 398.06 184.703 406.56C184.703 406.56 173.703 462.56 169.203 471.06C164.703 479.56 156.203 495.06 144.703 503.06C133.203 511.06 106.203 508.56 103.703 507.06C100.155 507.06 86.3288 498.271 73.7697 490.288L73.7692 490.288C63.3193 483.645 53.7468 477.56 51.7031 477.56C47.2031 477.56 44.7031 478.56 43.2031 480.56C42.6806 481.257 40.1561 486.867 36.9609 493.969L36.9603 493.97C30.9827 507.255 22.658 525.757 20.7031 527.06C17.7031 529.06 11.7031 530.06 5.20306 527.06C-1.29694 524.06 1.20306 516.56 1.20306 516.56L36.2031 452.06C40.2031 445.06 48.2031 447.56 48.2031 447.56C48.2031 447.56 89.203 475.06 95.203 477.56C101.203 480.06 124.703 483.56 130.703 480.56C136.703 477.56 143.203 466.06 146.703 457.56C150.203 449.06 157.703 412.56 158.203 406.56C158.703 400.56 158.703 400.06 158.203 395.56C158.08 394.454 154.905 382.678 150.267 365.48L150.267 365.48L150.266 365.479L150.266 365.478L150.266 365.478C136.04 312.724 108.055 208.954 112.203 205.56ZM314.23 254.546C305.23 256.546 303.169 266.006 303.703 277.06C306.238 288.334 310.75 292.379 320.23 292.06C328.23 290.06 331.055 282.309 330.703 271.046C328.92 259.978 324.73 253.546 314.23 254.546ZM211.703 285.56C214.203 301.06 218.703 304.56 229.703 304.06C241.203 301.56 242.929 295.539 241.203 281.06C237.362 267.84 231.088 262.805 221.703 265.56C214.923 268.656 211.203 272.56 211.703 285.56ZM263.291 282.996C264.852 283.813 266.277 284.56 267.703 284.56C269.526 284.56 270.67 283.069 271.984 281.357C273.194 279.781 274.546 278.019 276.703 277.06C281.203 275.06 283.437 276.022 285.203 279.56C287.703 289.56 280.703 299.56 272.203 301.56C263.703 303.56 256.699 300.19 251.703 292.06C249.703 287.56 251.002 283.522 255.203 281.06C258.463 280.467 261.02 281.807 263.291 282.996Z" fill="#FAB3B3"/>
</svg>
