<svg width="165" height="191" viewBox="0 0 165 191" fill="none" xmlns="http://www.w3.org/2000/svg">
<rect x="131.754" y="81.2358" width="0.615612" height="26.4713" transform="rotate(-3.88918 131.754 81.2358)" fill="#D9D9D9"/>
<rect x="112.575" y="92.3325" width="0.615612" height="26.4713" transform="rotate(-51.0484 112.575 92.3325)" fill="#D9D9D9"/>
<rect x="84.0107" y="98.2954" width="0.615612" height="57.2519" transform="rotate(53.7588 84.0107 98.2954)" fill="#D9D9D9"/>
<rect x="82.5107" y="98.5791" width="0.615612" height="52.327" transform="rotate(-78.6954 82.5107 98.5791)" fill="#D9D9D9"/>
<rect x="36.2422" y="109.664" width="0.615612" height="23.3932" transform="rotate(-3.11305 36.2422 109.664)" fill="#D9D9D9"/>
<rect x="55.5908" y="107.207" width="0.615612" height="30.7806" transform="rotate(34.9111 55.5908 107.207)" fill="#D9D9D9"/>
<path d="M44.4682 102.054C37.583 104.631 36.7669 110.936 36.7669 110.936L28.0868 92.0181L71.1537 57.4538L134.604 60.6733L132.137 82.2476C132.137 82.2476 127.716 74.15 122.677 76.2437C113.86 79.9078 113.448 92.8778 113.448 92.8778C113.448 92.8778 103.477 87.7809 97.7563 89.0432C86.1653 91.601 84.3243 99.3774 84.3243 99.3774C84.3243 99.3774 77.1005 95.7502 67.8559 98.3513C58.6113 100.952 55.8129 108.167 55.8129 108.167C55.8129 108.167 51.3534 99.4772 44.4682 102.054Z" fill="black"/>
<rect x="54.6152" y="88.8071" width="0.615612" height="46.1709" transform="rotate(20.8509 54.6152 88.8071)" fill="#D9D9D9"/>
<path d="M36.678 111.184C26.0244 107.417 20.9481 103.397 15.4636 88.6309C7.67971 63.4883 10.6724 37.2829 50.92 19.6275C50.92 19.6275 33.8592 34.1164 36.6339 56.9339C38.9348 75.8549 50.0849 85.6678 53.8259 88.4675C54.6005 88.9668 55.0524 89.3231 55.0524 89.3231C55.0524 89.3231 54.5963 89.044 53.8259 88.4675C50.7687 86.4965 42.6854 82.2967 37.5285 88.9777C32.3262 95.7174 36.678 111.184 36.678 111.184Z" fill="#FFC700"/>
<rect x="104.133" y="74.8853" width="0.615612" height="43.0928" transform="rotate(-40.3434 104.133 74.8853)" fill="#D9D9D9"/>
<path d="M90.2242 38.1791C103.95 60.825 104.568 75.296 104.568 75.296C106.611 71.0761 116.389 64.4615 122.683 65.4668C131.455 66.8679 132.208 82.3879 132.208 82.3879C136.742 75.9457 136.783 72.1317 136.556 64.3134C136.048 54.8954 134.159 49.5435 132.208 44.6565C130.258 39.7694 125.298 31.3482 122.817 29.0087C111.5 17.8997 96.6155 6.00376 51.1816 19.4268C51.1816 19.4268 76.498 15.5333 90.2242 38.1791Z" fill="#FFC700"/>
<path d="M35.9912 53.8534C38.7098 80.108 55.1153 89.4336 55.1153 89.4336C55.1153 89.4336 54.2924 74.3487 72.9045 66.9696C91.5165 59.5905 104.627 75.5028 104.627 75.5028C104.627 75.5028 106.07 57.4463 88.8397 34.5072C71.6098 11.5681 50.9449 19.4929 50.9449 19.4929C50.9449 19.4929 35.3231 30.795 35.9912 53.8534Z" fill="#FBE8A4"/>
<g filter="url(#filter0_d_2178_6234)">
<path d="M51.5936 149.495C51.5936 149.495 44.3301 147.318 41.9425 142.81C39.5548 138.302 38.2079 132.605 38.2079 132.605M131.536 127.003C131.536 127.003 134.488 122.495 134.411 117.56C134.333 112.626 133.137 108.486 133.137 108.486M84.5065 170.1L84.1547 179.76L77.5768 181.611M113.633 161.905L118.674 170.048L126.111 167.955" stroke="black" stroke-width="3.15" stroke-linecap="round"/>
</g>
<g filter="url(#filter1_i_2178_6234)">
<path d="M133.894 145.498C135.255 150.337 134.848 156.959 99.4589 166.532C64.0694 176.106 60.3505 171.412 58.9891 166.573C57.6276 161.734 61.2416 155.146 92.5518 146.189C123.862 137.232 132.533 140.659 133.894 145.498Z" fill="#FF9900"/>
</g>
<path d="M59.3784 166.571C72.2168 166.481 80.9946 164.953 94.1729 161.61M59.4924 166.945C72.3096 166.846 81.1059 165.312 94.2651 161.974C100.947 160.279 109.65 157.005 116.669 154.161C120.182 152.737 123.278 151.42 125.495 150.458C126.604 149.978 127.494 149.586 128.107 149.314C128.413 149.178 128.65 149.072 128.81 149L128.993 148.918L129.039 148.897L129.051 148.892L129.054 148.89L129.055 148.89C129.055 148.89 129.055 148.89 128.901 148.548C128.746 148.207 128.746 148.207 128.746 148.207L128.745 148.207L128.742 148.208L128.731 148.214L128.685 148.234L128.504 148.316C128.344 148.387 128.108 148.493 127.802 148.628C127.192 148.899 126.304 149.29 125.197 149.77C122.983 150.73 119.893 152.045 116.388 153.465C109.371 156.308 100.71 159.565 94.0807 161.247C80.8883 164.593 72.1308 166.114 59.279 166.197C59.0292 165.135 59.0506 163.997 59.5988 162.758C60.1993 161.401 61.4467 159.892 63.7388 158.229C68.3298 154.898 77.0071 151.026 92.655 146.549C108.299 142.074 118.245 140.706 124.433 141.044C130.628 141.383 132.918 143.415 133.533 145.6C133.866 146.784 134.076 148.027 133.703 149.38C133.331 150.732 132.361 152.25 130.225 153.946C125.935 157.351 117.053 161.384 99.361 166.17C81.6671 170.957 71.9502 172.158 66.5027 171.585C63.7884 171.299 62.1744 170.576 61.1593 169.674C60.2817 168.895 59.8173 167.952 59.4924 166.945Z" stroke="#B15500" stroke-width="0.75"/>
<g filter="url(#filter2_i_2178_6234)">
<path d="M56.0858 162.844C55.7403 161.503 60.0282 159.241 60.0282 159.241L128.089 140.091C130.043 139.993 131.087 139.664 133.331 141.11C133.309 142.396 131.412 143.153 130.981 144.234L132.154 145.79C132.154 145.79 131.34 148.354 130.481 148.595C129.622 148.837 125.144 148.786 124.599 148.939C124.053 149.093 122.525 150.397 121.829 151.03C121.829 151.03 120.852 153.351 119.327 155.091C117.802 156.831 113.828 157.821 110.481 158.315C107.135 158.809 104.674 157.903 104.674 157.903C104.674 157.903 102.846 157.202 101.484 157.362C100.122 157.521 94.4216 160.788 94.4216 160.788L87.7847 164.701C87.7847 164.701 84.7967 166.469 81.5623 166.452C78.3279 166.435 78.6741 165.506 76.1989 163.868C73.7236 162.23 67.2464 162.166 67.2464 162.166C67.2464 162.166 66.7596 164.414 62.6123 165.357C58.465 166.3 56.0858 162.844 56.0858 162.844Z" fill="#67E73A"/>
</g>
<path d="M56.0858 162.844C55.7403 161.503 60.0282 159.241 60.0282 159.241L128.089 140.091C130.043 139.993 131.087 139.664 133.331 141.11C133.309 142.396 131.412 143.153 130.981 144.234L132.154 145.79C132.154 145.79 131.34 148.354 130.481 148.595C129.622 148.837 125.144 148.786 124.599 148.939C124.053 149.093 122.525 150.397 121.829 151.03C121.829 151.03 120.852 153.351 119.327 155.091C117.802 156.831 113.828 157.821 110.481 158.315C107.135 158.809 104.674 157.903 104.674 157.903C104.674 157.903 102.846 157.202 101.484 157.362C100.122 157.521 94.4216 160.788 94.4216 160.788L87.7847 164.701C87.7847 164.701 84.7967 166.469 81.5623 166.452C78.3279 166.435 78.6741 165.506 76.1989 163.868C73.7236 162.23 67.2464 162.166 67.2464 162.166C67.2464 162.166 66.7596 164.414 62.6123 165.357C58.465 166.3 56.0858 162.844 56.0858 162.844Z" stroke="#2B870B" stroke-width="0.15"/>
<g filter="url(#filter3_i_2178_6234)">
<path d="M54.6317 136.978C61.2501 127.246 107.251 114.587 121.052 118.29C134.852 121.994 135.388 138.207 128.536 144.891C121.684 151.576 72.0956 166.801 62.1162 163.58C52.1368 160.358 48.0133 146.711 54.6317 136.978Z" fill="#B15500"/>
</g>
<g filter="url(#filter4_i_2178_6234)">
<path d="M54.432 133.444L107.537 108.078C107.537 108.078 126.888 121.052 125.965 125.5C125.153 126.592 116.687 128.179 103.89 131.711C91.9444 135.009 74.869 141.944 72.6895 145.83C71.454 148.033 69.0125 154.808 66.0459 146.196C63.5639 143.058 61.5238 141.489 56.2876 141.971C52.5988 139.345 54.432 133.444 54.432 133.444Z" fill="#FFC700"/>
</g>
<g filter="url(#filter5_d_2178_6234)">
<path d="M88.323 160.937C89.1268 160.839 97.4334 159.109 97.4334 159.109C90.336 163.352 86.6093 165.556 84.9327 166.047C81.3742 166.948 79.4189 167.475 76.8932 164.408C76.8932 164.408 76.5819 162.961 77.3235 161.505C78.0651 160.05 83.1903 159.855 83.1903 159.855C83.1903 159.855 87.5192 161.035 88.323 160.937Z" fill="#2B870B"/>
<path d="M96.1381 159.454C96.4912 159.381 96.7901 159.319 97.0129 159.273C93.6511 161.282 91.0675 162.819 89.1135 163.92C87.0847 165.063 85.7417 165.732 84.9129 165.975C84.8863 165.982 84.8598 165.988 84.8333 165.995C83.0888 166.437 81.748 166.776 80.5339 166.641C79.3137 166.505 78.2128 165.888 76.9631 164.375C76.9611 164.365 76.9584 164.35 76.9552 164.331C76.9484 164.29 76.9393 164.229 76.9307 164.151C76.9134 163.995 76.8979 163.772 76.9052 163.505C76.9199 162.968 77.026 162.255 77.3903 161.539C77.562 161.202 77.997 160.926 78.5798 160.703C79.1579 160.483 79.8625 160.323 80.5474 160.208C81.2317 160.093 81.8933 160.024 82.3841 159.983C82.6294 159.962 82.8319 159.949 82.9729 159.941C83.0434 159.937 83.0986 159.934 83.1361 159.932L83.1787 159.93L83.1818 159.93L83.1831 159.93L83.2195 159.94L83.3585 159.978C83.4785 160.01 83.6509 160.055 83.8603 160.11C84.279 160.219 84.8458 160.364 85.4378 160.505C86.0296 160.647 86.6475 160.785 87.1682 160.883C87.4285 160.931 87.6653 160.97 87.863 160.993C88.0588 161.016 88.222 161.024 88.3321 161.011C88.7379 160.962 91.0202 160.504 93.1946 160.059C94.2833 159.837 95.3468 159.618 96.1381 159.454Z" stroke="#206409" stroke-width="0.15"/>
</g>
<path d="M79.8851 162.245C79.8794 162.183 79.8246 162.137 79.7627 162.143C79.7009 162.149 79.6553 162.204 79.661 162.265L79.8851 162.245ZM84.6792 166.055C84.7171 165.949 84.7171 165.949 84.7171 165.949C84.7171 165.949 84.7171 165.949 84.717 165.949C84.717 165.949 84.717 165.949 84.7169 165.949C84.7167 165.949 84.7165 165.949 84.7161 165.949C84.7155 165.948 84.7145 165.948 84.7132 165.948C84.7106 165.947 84.7068 165.945 84.7016 165.943C84.6913 165.94 84.676 165.934 84.656 165.927C84.6158 165.913 84.5565 165.891 84.4801 165.863C84.3273 165.808 84.1059 165.728 83.8319 165.627C83.284 165.426 82.5256 165.144 81.684 164.821L81.6035 165.031C82.4463 165.354 83.2057 165.637 83.7544 165.838C84.0287 165.939 84.2504 166.02 84.4035 166.075C84.4801 166.103 84.5395 166.124 84.5798 166.139C84.5999 166.146 84.6153 166.151 84.6257 166.155C84.6308 166.157 84.6347 166.158 84.6374 166.159C84.6387 166.16 84.6397 166.16 84.6403 166.16C84.6407 166.161 84.6409 166.161 84.6411 166.161C84.6412 166.161 84.6412 166.161 84.6413 166.161C84.6413 166.161 84.6413 166.161 84.6413 166.161C84.6413 166.161 84.6413 166.161 84.6792 166.055ZM81.684 164.821C80.88 164.513 80.43 163.875 80.1798 163.304C80.0549 163.018 79.981 162.752 79.9384 162.558C79.9171 162.461 79.9037 162.381 79.8956 162.327C79.8916 162.3 79.8889 162.279 79.8873 162.265C79.8864 162.258 79.8859 162.253 79.8855 162.249C79.8853 162.248 79.8852 162.246 79.8852 162.246C79.8851 162.245 79.8851 162.245 79.8851 162.245C79.8851 162.245 79.8851 162.245 79.8851 162.245C79.8851 162.245 79.8851 162.245 79.8851 162.245C79.8851 162.245 79.8851 162.245 79.773 162.255C79.661 162.265 79.661 162.266 79.661 162.266C79.661 162.266 79.661 162.266 79.661 162.266C79.6611 162.266 79.6611 162.266 79.6611 162.266C79.6611 162.267 79.6612 162.267 79.6612 162.268C79.6614 162.269 79.6615 162.271 79.6617 162.273C79.6622 162.277 79.6629 162.283 79.6638 162.291C79.6657 162.307 79.6687 162.33 79.6731 162.36C79.6818 162.419 79.6961 162.503 79.7186 162.606C79.7635 162.811 79.8415 163.092 79.9737 163.394C80.2378 163.997 80.7232 164.694 81.6035 165.031L81.684 164.821Z" fill="#206409"/>
<g filter="url(#filter6_d_2178_6234)">
<path d="M113.427 156.623C112.743 157.263 108.214 158.442 108.214 158.442C112.159 158.236 116.468 157.206 118.228 156.072C119.987 154.938 120.47 153.836 121.338 152.127C121.338 152.127 119.89 152.662 119.561 152.627C119.231 152.592 118.703 152.421 117.959 152.502C117.214 152.584 115.907 152.824 115.264 153.836C114.622 154.848 114.11 155.984 113.427 156.623Z" fill="#2B870B"/>
<path d="M113.427 156.623C112.743 157.263 108.214 158.442 108.214 158.442C112.159 158.236 116.468 157.206 118.228 156.072C119.987 154.938 120.47 153.836 121.338 152.127C121.338 152.127 119.89 152.662 119.561 152.627C119.231 152.592 118.703 152.421 117.959 152.502C117.214 152.584 115.907 152.824 115.264 153.836C114.622 154.848 114.11 155.984 113.427 156.623Z" stroke="#206409" stroke-width="0.15"/>
</g>
<path d="M89.506 142.772C88.7604 140.015 85.4369 137.462 84.0566 135.885L92.7341 133.443L101.411 131.002C101.411 131.002 105.407 132.934 107.061 135.615C108.716 138.296 110.905 142.467 109.521 146.722C108.137 150.977 105.09 153.25 100.769 154.106C96.4477 154.963 94.6583 154.897 91.4427 152.535C88.2271 150.174 90.2517 145.529 89.506 142.772Z" fill="#E31616"/>
<path d="M92.7341 133.443L101.411 131.002C101.411 131.002 105.407 132.934 107.061 135.615C108.716 138.296 110.905 142.467 109.521 146.722C108.137 150.977 105.09 153.25 100.769 154.106C96.4477 154.963 94.6583 154.897 91.4427 152.535C88.2271 150.174 90.2517 145.529 89.506 142.772C88.7604 140.015 85.4369 137.462 84.0566 135.885L92.7341 133.443ZM92.7341 133.443C92.7341 133.443 97.7691 137.151 98.6285 140.205C99.4879 143.26 99.1422 145.125 99.1422 145.125" stroke="#911010" stroke-width="0.675"/>
<g filter="url(#filter7_i_2178_6234)">
<path d="M124.856 113.374C126.395 122.821 111.297 129.499 90.6128 135.319C69.9284 141.139 53.8305 143.238 49.9507 134.449C48.1781 128.149 49.3935 109.057 80.6921 100.059C111.991 91.0613 123.083 107.074 124.856 113.374Z" fill="#FF9900"/>
</g>
<path d="M124.489 113.455C125.204 117.916 122.021 121.82 115.88 125.383C109.756 128.935 100.849 132.049 90.5113 134.958C80.1734 137.867 71.0165 139.835 63.9719 139.988C56.9145 140.14 52.1522 138.472 50.3045 134.322C49.4514 131.258 49.3128 125.033 53.2416 118.458C57.176 111.874 65.2141 104.899 80.7957 100.42C96.375 95.9408 106.869 97.7009 113.67 101.311C120.467 104.918 123.621 110.395 124.489 113.455Z" stroke="#B15500" stroke-width="0.75"/>
<ellipse cx="74.4213" cy="125.643" rx="3.03968" ry="6.12278" transform="rotate(-15.7146 74.4213 125.643)" fill="black"/>
<ellipse cx="101.759" cy="117.951" rx="3.03968" ry="6.12278" transform="rotate(-15.7146 101.759 117.951)" fill="black"/>
<g filter="url(#filter8_d_2178_6234)">
<ellipse cx="65.5437" cy="111.311" rx="1.53903" ry="0.615612" transform="rotate(-46.2004 65.5437 111.311)" fill="#FBE8A4"/>
</g>
<g filter="url(#filter9_d_2178_6234)">
<ellipse cx="91.997" cy="102.141" rx="1.53903" ry="0.615612" transform="rotate(-53.256 91.997 102.141)" fill="#FBE8A4"/>
</g>
<g filter="url(#filter10_d_2178_6234)">
<ellipse cx="93.3392" cy="107.047" rx="1.53903" ry="0.615612" transform="rotate(-85.5286 93.3392 107.047)" fill="#FBE8A4"/>
</g>
<g filter="url(#filter11_d_2178_6234)">
<ellipse cx="77.2927" cy="106.023" rx="1.53903" ry="0.615612" transform="rotate(5.09995 77.2927 106.023)" fill="#FBE8A4"/>
</g>
<g filter="url(#filter12_d_2178_6234)">
<ellipse cx="85.9569" cy="106.749" rx="1.53903" ry="0.615612" transform="rotate(34.736 85.9569 106.749)" fill="#FBE8A4"/>
</g>
<g filter="url(#filter13_d_2178_6234)">
<ellipse cx="99.987" cy="103.3" rx="1.53903" ry="0.615612" transform="rotate(-136.764 99.987 103.3)" fill="#FBE8A4"/>
</g>
<g filter="url(#filter14_d_2178_6234)">
<ellipse cx="72.269" cy="111.774" rx="1.53903" ry="0.615612" transform="rotate(-69.8614 72.269 111.774)" fill="#FBE8A4"/>
</g>
<path d="M58.2274 152.136L62.4611 153.886M70.9118 156.305L73.9637 155.446M78.665 148.176L81.0875 150.308M118.659 136.444L118.283 132.265M124.377 138.128L126.995 135.729M114.482 142.735L117.34 144.713M81.7581 143.373L85.6649 144.416M111.472 132.039L109.601 134.708M126.113 129.07L128.722 130.159M60.4937 146.894L63.6345 146.01M84.8199 156.868L88.5494 154.668" stroke="#CF731E" stroke-width="3.15" stroke-linecap="round"/>
<defs>
<filter id="filter0_d_2178_6234" x="36.3328" y="106.911" width="99.9545" height="76.8754" filterUnits="userSpaceOnUse" color-interpolation-filters="sRGB">
<feFlood flood-opacity="0" result="BackgroundImageFix"/>
<feColorMatrix in="SourceAlpha" type="matrix" values="0 0 0 0 0 0 0 0 0 0 0 0 0 0 0 0 0 0 127 0" result="hardAlpha"/>
<feOffset dy="0.3"/>
<feGaussianBlur stdDeviation="0.15"/>
<feComposite in2="hardAlpha" operator="out"/>
<feColorMatrix type="matrix" values="0 0 0 0 0 0 0 0 0 0 0 0 0 0 0 0 0 0 0.25 0"/>
<feBlend mode="normal" in2="BackgroundImageFix" result="effect1_dropShadow_2178_6234"/>
<feBlend mode="normal" in="SourceGraphic" in2="effect1_dropShadow_2178_6234" result="shape"/>
</filter>
<filter id="filter1_i_2178_6234" x="58.751" y="139.12" width="75.5254" height="32.9717" filterUnits="userSpaceOnUse" color-interpolation-filters="sRGB">
<feFlood flood-opacity="0" result="BackgroundImageFix"/>
<feBlend mode="normal" in="SourceGraphic" in2="BackgroundImageFix" result="shape"/>
<feColorMatrix in="SourceAlpha" type="matrix" values="0 0 0 0 0 0 0 0 0 0 0 0 0 0 0 0 0 0 127 0" result="hardAlpha"/>
<feOffset dy="-3.75"/>
<feGaussianBlur stdDeviation="0.75"/>
<feComposite in2="hardAlpha" operator="arithmetic" k2="-1" k3="1"/>
<feColorMatrix type="matrix" values="0 0 0 0 1 0 0 0 0 1 0 0 0 0 1 0 0 0 0.2 0"/>
<feBlend mode="normal" in2="shape" result="effect1_innerShadow_2178_6234"/>
</filter>
<filter id="filter2_i_2178_6234" x="55.9912" y="138.414" width="77.416" height="28.1133" filterUnits="userSpaceOnUse" color-interpolation-filters="sRGB">
<feFlood flood-opacity="0" result="BackgroundImageFix"/>
<feBlend mode="normal" in="SourceGraphic" in2="BackgroundImageFix" result="shape"/>
<feColorMatrix in="SourceAlpha" type="matrix" values="0 0 0 0 0 0 0 0 0 0 0 0 0 0 0 0 0 0 127 0" result="hardAlpha"/>
<feOffset dy="-1.5"/>
<feGaussianBlur stdDeviation="1.875"/>
<feComposite in2="hardAlpha" operator="arithmetic" k2="-1" k3="1"/>
<feColorMatrix type="matrix" values="0 0 0 0 0 0 0 0 0 0 0 0 0 0 0 0 0 0 0.25 0"/>
<feBlend mode="normal" in2="shape" result="effect1_innerShadow_2178_6234"/>
</filter>
<filter id="filter3_i_2178_6234" x="51.4131" y="116.13" width="85.1729" height="47.8911" filterUnits="userSpaceOnUse" color-interpolation-filters="sRGB">
<feFlood flood-opacity="0" result="BackgroundImageFix"/>
<feBlend mode="normal" in="SourceGraphic" in2="BackgroundImageFix" result="shape"/>
<feColorMatrix in="SourceAlpha" type="matrix" values="0 0 0 0 0 0 0 0 0 0 0 0 0 0 0 0 0 0 127 0" result="hardAlpha"/>
<feOffset dx="3.75" dy="-1.5"/>
<feGaussianBlur stdDeviation="1.875"/>
<feComposite in2="hardAlpha" operator="arithmetic" k2="-1" k3="1"/>
<feColorMatrix type="matrix" values="0 0 0 0 0 0 0 0 0 0 0 0 0 0 0 0 0 0 0.25 0"/>
<feBlend mode="normal" in2="shape" result="effect1_innerShadow_2178_6234"/>
</filter>
<filter id="filter4_i_2178_6234" x="53.9766" y="107.329" width="72.7705" height="43.1187" filterUnits="userSpaceOnUse" color-interpolation-filters="sRGB">
<feFlood flood-opacity="0" result="BackgroundImageFix"/>
<feBlend mode="normal" in="SourceGraphic" in2="BackgroundImageFix" result="shape"/>
<feColorMatrix in="SourceAlpha" type="matrix" values="0 0 0 0 0 0 0 0 0 0 0 0 0 0 0 0 0 0 127 0" result="hardAlpha"/>
<feOffset dx="0.75" dy="-0.75"/>
<feGaussianBlur stdDeviation="1.875"/>
<feComposite in2="hardAlpha" operator="arithmetic" k2="-1" k3="1"/>
<feColorMatrix type="matrix" values="0 0 0 0 1 0 0 0 0 1 0 0 0 0 1 0 0 0 0.4 0"/>
<feBlend mode="normal" in2="shape" result="effect1_innerShadow_2178_6234"/>
</filter>
<filter id="filter5_d_2178_6234" x="75.3281" y="158.359" width="23.6055" height="10.6372" filterUnits="userSpaceOnUse" color-interpolation-filters="sRGB">
<feFlood flood-opacity="0" result="BackgroundImageFix"/>
<feColorMatrix in="SourceAlpha" type="matrix" values="0 0 0 0 0 0 0 0 0 0 0 0 0 0 0 0 0 0 127 0" result="hardAlpha"/>
<feOffset dy="0.75"/>
<feGaussianBlur stdDeviation="0.75"/>
<feComposite in2="hardAlpha" operator="out"/>
<feColorMatrix type="matrix" values="0 0 0 0 0 0 0 0 0 0 0 0 0 0 0 0 0 0 0.25 0"/>
<feBlend mode="normal" in2="BackgroundImageFix" result="effect1_dropShadow_2178_6234"/>
<feBlend mode="normal" in="SourceGraphic" in2="effect1_dropShadow_2178_6234" result="shape"/>
</filter>
<filter id="filter6_d_2178_6234" x="106.695" y="150.79" width="16.2969" height="9.52637" filterUnits="userSpaceOnUse" color-interpolation-filters="sRGB">
<feFlood flood-opacity="0" result="BackgroundImageFix"/>
<feColorMatrix in="SourceAlpha" type="matrix" values="0 0 0 0 0 0 0 0 0 0 0 0 0 0 0 0 0 0 127 0" result="hardAlpha"/>
<feOffset dy="0.3"/>
<feGaussianBlur stdDeviation="0.75"/>
<feComposite in2="hardAlpha" operator="out"/>
<feColorMatrix type="matrix" values="0 0 0 0 0 0 0 0 0 0 0 0 0 0 0 0 0 0 0.25 0"/>
<feBlend mode="normal" in2="BackgroundImageFix" result="effect1_dropShadow_2178_6234"/>
<feBlend mode="normal" in="SourceGraphic" in2="effect1_dropShadow_2178_6234" result="shape"/>
</filter>
<filter id="filter7_i_2178_6234" x="49.4385" y="95.8779" width="75.5254" height="44.4941" filterUnits="userSpaceOnUse" color-interpolation-filters="sRGB">
<feFlood flood-opacity="0" result="BackgroundImageFix"/>
<feBlend mode="normal" in="SourceGraphic" in2="BackgroundImageFix" result="shape"/>
<feColorMatrix in="SourceAlpha" type="matrix" values="0 0 0 0 0 0 0 0 0 0 0 0 0 0 0 0 0 0 127 0" result="hardAlpha"/>
<feOffset dy="-3.75"/>
<feGaussianBlur stdDeviation="0.75"/>
<feComposite in2="hardAlpha" operator="arithmetic" k2="-1" k3="1"/>
<feColorMatrix type="matrix" values="0 0 0 0 1 0 0 0 0 1 0 0 0 0 1 0 0 0 0.2 0"/>
<feBlend mode="normal" in2="shape" result="effect1_innerShadow_2178_6234"/>
</filter>
<filter id="filter8_d_2178_6234" x="62.8896" y="108.921" width="5.30859" height="5.38037" filterUnits="userSpaceOnUse" color-interpolation-filters="sRGB">
<feFlood flood-opacity="0" result="BackgroundImageFix"/>
<feColorMatrix in="SourceAlpha" type="matrix" values="0 0 0 0 0 0 0 0 0 0 0 0 0 0 0 0 0 0 127 0" result="hardAlpha"/>
<feOffset dy="0.3"/>
<feGaussianBlur stdDeviation="0.75"/>
<feComposite in2="hardAlpha" operator="out"/>
<feColorMatrix type="matrix" values="0 0 0 0 0 0 0 0 0 0 0 0 0 0 0 0 0 0 0.25 0"/>
<feBlend mode="normal" in2="BackgroundImageFix" result="effect1_dropShadow_2178_6234"/>
<feBlend mode="normal" in="SourceGraphic" in2="effect1_dropShadow_2178_6234" result="shape"/>
</filter>
<filter id="filter9_d_2178_6234" x="89.4521" y="99.654" width="5.08984" height="5.57471" filterUnits="userSpaceOnUse" color-interpolation-filters="sRGB">
<feFlood flood-opacity="0" result="BackgroundImageFix"/>
<feColorMatrix in="SourceAlpha" type="matrix" values="0 0 0 0 0 0 0 0 0 0 0 0 0 0 0 0 0 0 127 0" result="hardAlpha"/>
<feOffset dy="0.3"/>
<feGaussianBlur stdDeviation="0.75"/>
<feComposite in2="hardAlpha" operator="out"/>
<feColorMatrix type="matrix" values="0 0 0 0 0 0 0 0 0 0 0 0 0 0 0 0 0 0 0.25 0"/>
<feBlend mode="normal" in2="BackgroundImageFix" result="effect1_dropShadow_2178_6234"/>
<feBlend mode="normal" in="SourceGraphic" in2="effect1_dropShadow_2178_6234" result="shape"/>
</filter>
<filter id="filter10_d_2178_6234" x="91.2139" y="104.312" width="4.25098" height="6.07031" filterUnits="userSpaceOnUse" color-interpolation-filters="sRGB">
<feFlood flood-opacity="0" result="BackgroundImageFix"/>
<feColorMatrix in="SourceAlpha" type="matrix" values="0 0 0 0 0 0 0 0 0 0 0 0 0 0 0 0 0 0 127 0" result="hardAlpha"/>
<feOffset dy="0.3"/>
<feGaussianBlur stdDeviation="0.75"/>
<feComposite in2="hardAlpha" operator="out"/>
<feColorMatrix type="matrix" values="0 0 0 0 0 0 0 0 0 0 0 0 0 0 0 0 0 0 0.25 0"/>
<feBlend mode="normal" in2="BackgroundImageFix" result="effect1_dropShadow_2178_6234"/>
<feBlend mode="normal" in="SourceGraphic" in2="effect1_dropShadow_2178_6234" result="shape"/>
</filter>
<filter id="filter11_d_2178_6234" x="74.2588" y="104.195" width="6.06738" height="4.25684" filterUnits="userSpaceOnUse" color-interpolation-filters="sRGB">
<feFlood flood-opacity="0" result="BackgroundImageFix"/>
<feColorMatrix in="SourceAlpha" type="matrix" values="0 0 0 0 0 0 0 0 0 0 0 0 0 0 0 0 0 0 127 0" result="hardAlpha"/>
<feOffset dy="0.3"/>
<feGaussianBlur stdDeviation="0.75"/>
<feComposite in2="hardAlpha" operator="out"/>
<feColorMatrix type="matrix" values="0 0 0 0 0 0 0 0 0 0 0 0 0 0 0 0 0 0 0.25 0"/>
<feBlend mode="normal" in2="BackgroundImageFix" result="effect1_dropShadow_2178_6234"/>
<feBlend mode="normal" in="SourceGraphic" in2="effect1_dropShadow_2178_6234" result="shape"/>
</filter>
<filter id="filter12_d_2178_6234" x="83.1445" y="104.536" width="5.625" height="5.02539" filterUnits="userSpaceOnUse" color-interpolation-filters="sRGB">
<feFlood flood-opacity="0" result="BackgroundImageFix"/>
<feColorMatrix in="SourceAlpha" type="matrix" values="0 0 0 0 0 0 0 0 0 0 0 0 0 0 0 0 0 0 127 0" result="hardAlpha"/>
<feOffset dy="0.3"/>
<feGaussianBlur stdDeviation="0.75"/>
<feComposite in2="hardAlpha" operator="out"/>
<feColorMatrix type="matrix" values="0 0 0 0 0 0 0 0 0 0 0 0 0 0 0 0 0 0 0.25 0"/>
<feBlend mode="normal" in2="BackgroundImageFix" result="effect1_dropShadow_2178_6234"/>
<feBlend mode="normal" in="SourceGraphic" in2="effect1_dropShadow_2178_6234" result="shape"/>
</filter>
<filter id="filter13_d_2178_6234" x="97.2891" y="100.954" width="5.39648" height="5.29199" filterUnits="userSpaceOnUse" color-interpolation-filters="sRGB">
<feFlood flood-opacity="0" result="BackgroundImageFix"/>
<feColorMatrix in="SourceAlpha" type="matrix" values="0 0 0 0 0 0 0 0 0 0 0 0 0 0 0 0 0 0 127 0" result="hardAlpha"/>
<feOffset dy="0.3"/>
<feGaussianBlur stdDeviation="0.75"/>
<feComposite in2="hardAlpha" operator="out"/>
<feColorMatrix type="matrix" values="0 0 0 0 0 0 0 0 0 0 0 0 0 0 0 0 0 0 0.25 0"/>
<feBlend mode="normal" in2="BackgroundImageFix" result="effect1_dropShadow_2178_6234"/>
<feBlend mode="normal" in="SourceGraphic" in2="effect1_dropShadow_2178_6234" result="shape"/>
</filter>
<filter id="filter14_d_2178_6234" x="69.9854" y="109.113" width="4.56738" height="5.9209" filterUnits="userSpaceOnUse" color-interpolation-filters="sRGB">
<feFlood flood-opacity="0" result="BackgroundImageFix"/>
<feColorMatrix in="SourceAlpha" type="matrix" values="0 0 0 0 0 0 0 0 0 0 0 0 0 0 0 0 0 0 127 0" result="hardAlpha"/>
<feOffset dy="0.3"/>
<feGaussianBlur stdDeviation="0.75"/>
<feComposite in2="hardAlpha" operator="out"/>
<feColorMatrix type="matrix" values="0 0 0 0 0 0 0 0 0 0 0 0 0 0 0 0 0 0 0.25 0"/>
<feBlend mode="normal" in2="BackgroundImageFix" result="effect1_dropShadow_2178_6234"/>
<feBlend mode="normal" in="SourceGraphic" in2="effect1_dropShadow_2178_6234" result="shape"/>
</filter>
</defs>
</svg>
