<svg width="167" height="101" viewBox="0 0 167 101" fill="none" xmlns="http://www.w3.org/2000/svg">
<path d="M11.7514 26.4999C18.0943 26.8456 26.7514 30.9999 26.7514 30.9999L29.7514 72.9999C29.7514 72.9999 24.4078 79.6101 19.7514 79.4999C15.2572 79.3936 13.251 79.4999 10.251 74.9999C7.25098 70.4999 11.7514 64.4999 11.7514 64.4999C11.7514 64.4999 8.26705 63.8763 6.75098 63.4999C4.05755 62.8312 3.05262 62.0988 1.25097 58.9999C-1.29695 54.6174 0.134307 48.5931 4.75132 46.4999C7.2411 45.3711 12.251 44.4999 12.251 44.4999C12.251 44.4999 7.25132 41.9999 4.75132 37.4999C2.25132 32.9999 5.40846 26.1542 11.7514 26.4999Z" fill="#FAB3B3"/>
<path d="M24.7508 78.5C15.7507 59 15.0069 48.2573 23.2501 28.5L31.2501 30V74L24.7508 78.5Z" fill="white" stroke="#FAB3B3"/>
<path d="M72.251 0.5L166.751 0.500022V100.5H72.251C44.6367 100.5 22.251 78.1142 22.251 50.5C22.251 22.8857 44.6367 0.5 72.251 0.5Z" fill="#FAB3B3"/>
<path d="M90.251 47.5L74.751 3H93.251L107.751 42.5C108.751 46 107.251 51.5 102.251 53C97.251 54.5 91.751 51.5 90.251 47.5Z" fill="white"/>
<path d="M137.961 48L122.461 3.5H140.961L155.461 43C156.461 46.5 154.961 52 149.961 53.5C144.961 55 139.461 52 137.961 48Z" fill="white"/>
</svg>
