<svg width="168" height="101" viewBox="0 0 168 101" fill="none" xmlns="http://www.w3.org/2000/svg">
<path d="M155.251 26.4999C148.908 26.8456 140.251 30.9999 140.251 30.9999L137.251 72.9999C137.251 72.9999 142.594 79.6101 147.251 79.4999C151.745 79.3936 153.751 79.4999 156.751 74.9999C159.751 70.4999 155.251 64.4999 155.251 64.4999C155.251 64.4999 158.735 63.8763 160.251 63.4999C162.944 62.8312 163.949 62.0988 165.751 58.9999C168.299 54.6174 166.868 48.5931 162.251 46.4999C159.761 45.3711 154.751 44.4999 154.751 44.4999C154.751 44.4999 159.751 41.9999 162.251 37.4999C164.751 32.9999 161.593 26.1542 155.251 26.4999Z" fill="#FAB3B3"/>
<path d="M142.251 78.5C151.251 59 151.995 48.2573 143.752 28.5L135.752 30V74L142.251 78.5Z" fill="white" stroke="#FAB3B3"/>
<path d="M94.751 0.5L0.250977 0.500022V100.5H94.751C122.365 100.5 144.751 78.1142 144.751 50.5C144.751 22.8857 122.365 0.5 94.751 0.5Z" fill="#FAB3B3"/>
<path d="M74.459 47.5L58.959 3H77.459L91.959 42.5C92.959 46 91.459 51.5 86.459 53C81.459 54.5 75.959 51.5 74.459 47.5Z" fill="white"/>
<path d="M26.751 48L11.251 3.5H29.751L44.251 43C45.251 46.5 43.751 52 38.751 53.5C33.751 55 28.251 52 26.751 48Z" fill="white"/>
</svg>
