<svg width="343" height="322" viewBox="0 0 343 322" fill="none" xmlns="http://www.w3.org/2000/svg">
<path d="M266.636 106.193C268.778 109.576 268.737 112.034 267.81 115.984C267.559 117.053 267.263 118.132 266.907 119.431L266.85 119.639C266.487 120.961 266.065 122.512 265.705 124.126C264.975 127.393 264.386 131.376 264.904 135.843C265.394 140.068 267.079 143.583 268.577 146.212C269.379 147.62 270.624 149.555 271.626 151.112C272.145 151.919 272.599 152.624 272.891 153.101C275.274 156.986 276.244 159.648 275.718 163.045C275.383 165.207 274.884 165.965 274.664 166.268C274.294 166.776 273.76 167.283 271.896 168.728L271.765 168.829C267.729 171.957 262.006 176.391 257.468 187.011C253.766 195.674 252.901 200.942 252.32 204.475C252.26 204.838 252.203 205.183 252.147 205.512C251.897 206.966 251.755 207.366 251.59 207.715C251.402 208.114 250.899 209.007 249.29 210.774C247.116 213.163 243.513 215.046 236.588 217.755C235.63 218.13 234.618 218.518 233.561 218.923C227.586 221.212 220.152 224.06 212.579 228.375C203.073 233.793 198.536 239.471 195.233 243.604C195.12 243.746 195.008 243.885 194.898 244.023C192.09 247.53 190.875 248.859 187.218 249.956C184.98 250.627 184 250.674 183.561 250.666C183.051 250.658 182.554 250.581 180.696 250.123L180.676 250.118C176.496 249.088 170.741 247.67 159.032 248.026C146.905 248.394 139.979 250.979 134.885 253.103C130.266 255.029 129.984 255.107 128.205 254.732C126.848 254.446 125.845 253.831 122.332 249.65C122.152 249.436 121.967 249.215 121.777 248.988C118.499 245.07 113.76 239.405 105.761 234.861C98.4286 230.696 92.5573 229.819 89.0728 229.299C88.4989 229.213 87.9897 229.137 87.5494 229.058C86.2123 228.816 85.888 228.638 85.6513 228.488C85.3361 228.288 84.4134 227.608 82.8487 225.337C80.2615 221.583 79.7396 218.422 79.7928 214.428C79.8138 212.857 79.9107 211.451 80.0268 209.764C80.0885 208.869 80.1556 207.895 80.2197 206.775C80.3881 203.833 80.4872 200.371 80.0502 196.603C79.5213 192.042 77.8583 188.237 76.1915 185.176C75.1869 183.33 73.8258 181.175 72.7026 179.396C72.1951 178.592 71.7362 177.866 71.3806 177.279C68.6955 172.85 67.1387 169.226 67.6133 164.068C68.086 158.929 70.0416 156.183 73.1763 153.182C74.3716 152.038 75.3098 151.235 76.4093 150.293C77.2939 149.535 78.2831 148.688 79.5947 147.502C82.0533 145.279 84.846 142.506 87.2409 138.902C92.0151 131.718 92.0304 124.235 92.0393 119.912C92.0405 119.324 92.0416 118.794 92.0545 118.331C92.1166 116.113 92.2994 114.684 92.7439 113.393C93.1533 112.203 93.956 110.648 95.9234 108.652C99.5835 104.94 103.018 103.995 107.51 103.414C108.083 103.34 108.861 103.256 109.746 103.16C111.702 102.949 114.178 102.682 116.09 102.342C119.413 101.752 123.323 100.671 127.133 98.1561C133.285 94.095 137.781 89.465 141.171 85.9741C141.873 85.2513 142.528 84.5773 143.14 83.9673C146.777 80.342 149.534 78.1807 153.858 76.9271C157.983 75.7311 162.255 75.6178 167.394 75.9574C168.756 76.0473 170.327 76.1884 172.021 76.3406C175.981 76.6961 180.614 77.1122 184.827 77.0783C188.943 77.0453 192.636 75.9354 195.621 74.797C197.698 74.0049 199.973 72.9695 201.944 72.0725C202.65 71.7511 203.318 71.4474 203.923 71.179C209.067 68.8982 213.26 67.5013 217.988 67.8623C221.461 68.1275 225.364 70.5162 230.458 75.6293C232.254 77.4326 233.892 79.2443 235.629 81.166C236.29 81.8973 236.965 82.6444 237.669 83.4131C239.981 85.937 242.787 88.9043 245.8 91.0991C248.337 92.9467 250.84 94.2096 252.882 95.182C253.496 95.4749 254.047 95.7321 254.555 95.9697C255.896 96.5959 256.944 97.0855 258.105 97.7304C260.682 99.1611 263.474 101.199 266.636 106.193Z" stroke="#D5AEA7" stroke-width="20"/>
<path d="M203.586 201.359C203.586 201.359 142.467 236.002 121.536 198.262C121.536 198.262 103.386 161.628 146.118 133.282C188.85 104.936 213.965 111.875 221.242 132.123C228.519 152.37 218.535 160.505 202.881 169.377C191.292 175.945 173.78 184.256 159.315 171.727" stroke="#D5AEA7" stroke-width="20" stroke-linecap="round"/>
</svg>
