<svg width="28" height="28" viewBox="0 0 28 28" fill="none" xmlns="http://www.w3.org/2000/svg">
<path d="M27.1507 13.755C27.1507 20.9209 21.3416 26.73 14.1758 26.73C7.00987 26.73 1.20078 20.9209 1.20078 13.755C1.20078 6.58911 7.00987 0.780005 14.1758 0.780005C21.3416 0.780005 27.1507 6.58911 27.1507 13.755Z" fill="#C6966B" stroke="#A06F43" stroke-width="0.3"/>
<g filter="url(#filter0_d_2166_6198)">
<path d="M5.18597 3.0053C5.26095 2.83067 5.43635 2.72112 5.62585 2.73054L6.70822 2.78441C6.95008 2.79644 7.13999 2.99641 7.13999 3.23901V4.03014C7.13999 4.16497 7.08032 4.29287 6.97708 4.37935L6.06409 5.14403C5.96792 5.22458 5.8428 5.26173 5.71836 5.24671L4.90031 5.14797C4.59914 5.11161 4.41745 4.79542 4.53731 4.51623L5.18597 3.0053Z" fill="#563211"/>
</g>
<g filter="url(#filter1_d_2166_6198)">
<path d="M3.68985 17.3433C4.03486 16.9983 4.10033 16.9739 4.28984 16.9833C4.52984 16.9833 4.67307 17.0804 4.84484 17.0283C5.01661 16.9762 5.11492 16.9642 5.29484 16.9833C5.5367 16.9953 5.81984 17.3997 5.81984 17.6423V18.4334C5.81984 18.5683 5.76017 18.6962 5.65693 18.7826L4.74393 19.5473C4.64776 19.6279 4.52265 19.665 4.39821 19.65L3.58015 19.5513C3.27899 19.5149 3.08984 19.1133 3.08984 18.7826C3.08984 18.452 3.34484 17.6883 3.68985 17.3433Z" fill="#563211"/>
</g>
<g filter="url(#filter2_d_2166_6198)">
<path d="M14.9252 0.0715747C15.1143 -0.0257223 15.3388 -0.0237159 15.5263 0.076946L16.7267 0.721821C17.023 0.880986 17.1495 1.24131 17.0182 1.55231L16.6534 2.41682C16.6275 2.4779 16.5928 2.53468 16.55 2.58519L15.5281 3.79078C15.3304 4.02412 14.9977 4.08748 14.7288 3.94302L13.513 3.28991C13.3 3.17546 13.1678 2.95147 13.1699 2.70856L13.1818 1.36181C13.184 1.1189 13.3201 0.897304 13.5351 0.786689L14.9252 0.0715747Z" fill="#B15500"/>
</g>
<g filter="url(#filter3_d_2166_6198)">
<path d="M15.2298 24.3133C15.4611 24.2545 15.7356 24.2557 15.9649 24.3165L17.4331 24.7063C17.7956 24.8026 17.9503 25.0204 17.7897 25.2084L17.3435 25.7309C17.3119 25.7679 17.2694 25.8022 17.217 25.8327L15.9672 26.5615C15.7253 26.7025 15.3185 26.7408 14.9896 26.6535L13.5026 26.2587C13.242 26.1895 13.0803 26.0541 13.083 25.9073C12.9762 25.6128 12.9851 25.4333 13.0975 25.0932C13.1002 24.9464 13.2666 24.8124 13.5296 24.7456L15.2298 24.3133Z" fill="#B15500"/>
</g>
<g filter="url(#filter4_d_2166_6198)">
<path d="M8.89894 19.9646C9.0498 20.0189 9.16407 20.1437 9.20494 20.2988L9.46644 21.2922C9.53101 21.5374 9.39738 21.7923 9.15842 21.8798L8.49425 22.1229C8.4473 22.1401 8.39812 22.1501 8.34827 22.1524L7.15833 22.2086C6.92804 22.2195 6.72211 22.0686 6.66353 21.8461L6.39867 20.84C6.35226 20.6637 6.4078 20.4757 6.54283 20.352L7.29145 19.6664C7.42648 19.5428 7.61862 19.5039 7.79013 19.5657L8.89894 19.9646Z" fill="#B15500"/>
</g>
<g filter="url(#filter5_d_2166_6198)">
<path d="M21.9421 6.18508C22.1626 6.07925 22.4246 6.10386 22.6207 6.24884L22.931 6.47822C22.9684 6.50583 23.0026 6.5373 23.0332 6.57209L23.7207 7.35555C23.8903 7.5488 23.9277 7.82253 23.8161 8.05307L23.6222 8.45348C23.4945 8.71736 23.2021 8.86323 22.9104 8.80862L21.9696 8.63243C21.8525 8.61053 21.7439 8.55759 21.6553 8.4793L21.3968 8.25097C21.2498 8.12113 21.1704 7.93278 21.1806 7.7386L21.2251 6.89836C21.2374 6.66474 21.3776 6.45612 21.5911 6.35359L21.9421 6.18508Z" fill="#563211"/>
</g>
<g filter="url(#filter6_d_2166_6198)">
<path d="M2.01211 9.85816C2.34188 9.80402 2.67606 9.93692 2.87764 10.2024L3.19659 10.6224C3.235 10.673 3.26782 10.7274 3.29456 10.7848L3.89534 12.0764C4.04359 12.395 3.98747 12.7684 3.75257 13.0279L3.34445 13.4786C3.07566 13.7757 2.63607 13.8547 2.27451 13.6711L1.10818 13.0786C0.963025 13.0049 0.840935 12.8938 0.754799 12.7571L0.50349 12.3583C0.360545 12.1316 0.328676 11.854 0.416618 11.6033L0.797762 10.5183C0.903598 10.2166 1.16762 9.99686 1.48704 9.94438L2.01211 9.85816Z" fill="#563211"/>
</g>
<g filter="url(#filter7_d_2166_6198)">
<path d="M17.6799 20.1533C17.8134 20.4883 17.7435 20.8669 17.499 21.1341L17.1121 21.5568C17.0655 21.6077 16.9568 21.6936 16.9568 21.6936L15.6815 22.5943C15.6815 22.5943 14.9466 22.8357 14.6102 22.6432C14.2739 22.4508 14.0849 22.035 14.0849 22.035C14.0849 22.035 13.7206 21.5276 13.5749 21.2256C13.3369 20.7324 13.9591 19.8771 13.9591 19.8771C13.9591 19.8771 14.1008 19.5578 14.2307 19.4388L14.6096 19.0916C14.825 18.8941 15.0281 18.631 15.388 18.5118C15.9322 18.3316 16.4971 18.5472 16.833 18.7699C17.169 18.9926 17.3382 19.2955 17.4675 19.62L17.6799 20.1533Z" fill="#563211"/>
</g>
<g filter="url(#filter8_d_2166_6198)">
<path d="M22.3561 20.9492C22.5694 21.0606 22.7044 21.2816 22.7058 21.5217L22.7079 21.9015C22.7082 21.9472 22.7035 21.9927 22.6941 22.0374L22.4818 23.041C22.4294 23.2886 22.2357 23.4794 21.9882 23.5273L21.5583 23.6104C21.2751 23.6653 20.9878 23.5208 20.8589 23.2587L20.4433 22.4133C20.3915 22.3081 20.3692 22.1913 20.3787 22.0754L20.4064 21.7371C20.4221 21.5447 20.5237 21.371 20.6827 21.2646L21.3713 20.8045C21.5627 20.6765 21.8097 20.6641 22.0164 20.7719L22.3561 20.9492Z" fill="#563211"/>
</g>
<g filter="url(#filter9_d_2166_6198)">
<path d="M7.35979 15.0553C7.49294 14.8185 7.78475 14.7241 8.03037 14.8384L9.38843 15.4704C9.73797 15.6331 9.79593 16.108 9.49588 16.3507L8.63795 17.0446C8.44965 17.197 8.18166 17.1986 7.99149 17.0486L7.12849 16.3681C6.92655 16.2088 6.87064 15.9252 6.99693 15.7006L7.35979 15.0553Z" fill="#B15500"/>
</g>
<g filter="url(#filter10_d_2166_6198)">
<path d="M25.8988 12.1629C26.3424 12.163 26.5263 12.4838 26.5263 12.4838C26.5263 12.4838 27.0397 13.3084 27.0397 13.8909C27.0397 14.4734 26.8264 14.5894 26.4932 14.5894C26.1601 14.5894 25.6501 14.5894 25.3959 14.4734C25.1417 14.3574 25.1251 14.34 24.936 14.0191C24.7468 13.6983 24.807 13.2149 24.807 12.9276C24.807 12.6404 25.1859 12.3627 25.1859 12.3627C25.1859 12.3627 25.4551 12.1629 25.8988 12.1629Z" fill="#B15500"/>
</g>
<g filter="url(#filter11_d_2166_6198)">
<path d="M22.0931 15.2064C22.3015 14.8347 22.7583 14.6866 23.1427 14.866C23.5649 15.2064 23.5199 15.96 23.7299 16.02C23.9399 16.08 24.4049 16.2643 24.5099 17.025C24.7049 17.805 24.0937 18.3289 24.0937 18.3289C23.799 18.568 23.3795 18.5706 23.0819 18.3352L21.7311 17.2669C21.415 17.017 21.3275 16.5718 21.5252 16.2193L22.0931 15.2064Z" fill="#B15500"/>
</g>
<defs>
<filter id="filter0_d_2166_6198" x="4.5" y="2.72998" width="3.05965" height="2.93999" filterUnits="userSpaceOnUse" color-interpolation-filters="sRGB">
<feFlood flood-opacity="0" result="BackgroundImageFix"/>
<feColorMatrix in="SourceAlpha" type="matrix" values="0 0 0 0 0 0 0 0 0 0 0 0 0 0 0 0 0 0 127 0" result="hardAlpha"/>
<feOffset dx="0.3" dy="0.3"/>
<feGaussianBlur stdDeviation="0.0599999"/>
<feComposite in2="hardAlpha" operator="out"/>
<feColorMatrix type="matrix" values="0 0 0 0 0 0 0 0 0 0 0 0 0 0 0 0 0 0 0.25 0"/>
<feBlend mode="normal" in2="BackgroundImageFix" result="effect1_dropShadow_2166_6198"/>
<feBlend mode="normal" in="SourceGraphic" in2="effect1_dropShadow_2166_6198" result="shape"/>
</filter>
<filter id="filter1_d_2166_6198" x="3.08984" y="16.9747" width="3.15047" height="3.09853" filterUnits="userSpaceOnUse" color-interpolation-filters="sRGB">
<feFlood flood-opacity="0" result="BackgroundImageFix"/>
<feColorMatrix in="SourceAlpha" type="matrix" values="0 0 0 0 0 0 0 0 0 0 0 0 0 0 0 0 0 0 127 0" result="hardAlpha"/>
<feOffset dx="0.3" dy="0.3"/>
<feGaussianBlur stdDeviation="0.0599999"/>
<feComposite in2="hardAlpha" operator="out"/>
<feColorMatrix type="matrix" values="0 0 0 0 0 0 0 0 0 0 0 0 0 0 0 0 0 0 0.25 0"/>
<feBlend mode="normal" in2="BackgroundImageFix" result="effect1_dropShadow_2166_6198"/>
<feBlend mode="normal" in="SourceGraphic" in2="effect1_dropShadow_2166_6198" result="shape"/>
</filter>
<filter id="filter2_d_2166_6198" x="13.1699" y="0" width="4.32039" height="4.43999" filterUnits="userSpaceOnUse" color-interpolation-filters="sRGB">
<feFlood flood-opacity="0" result="BackgroundImageFix"/>
<feColorMatrix in="SourceAlpha" type="matrix" values="0 0 0 0 0 0 0 0 0 0 0 0 0 0 0 0 0 0 127 0" result="hardAlpha"/>
<feOffset dx="0.3" dy="0.3"/>
<feGaussianBlur stdDeviation="0.0599999"/>
<feComposite in2="hardAlpha" operator="out"/>
<feColorMatrix type="matrix" values="0 0 0 0 0 0 0 0 0 0 0 0 0 0 0 0 0 0 0.25 0"/>
<feBlend mode="normal" in2="BackgroundImageFix" result="effect1_dropShadow_2166_6198"/>
<feBlend mode="normal" in="SourceGraphic" in2="effect1_dropShadow_2166_6198" result="shape"/>
</filter>
<filter id="filter3_d_2166_6198" x="13.0078" y="24.27" width="5.26473" height="2.84999" filterUnits="userSpaceOnUse" color-interpolation-filters="sRGB">
<feFlood flood-opacity="0" result="BackgroundImageFix"/>
<feColorMatrix in="SourceAlpha" type="matrix" values="0 0 0 0 0 0 0 0 0 0 0 0 0 0 0 0 0 0 127 0" result="hardAlpha"/>
<feOffset dx="0.3" dy="0.3"/>
<feGaussianBlur stdDeviation="0.0599999"/>
<feComposite in2="hardAlpha" operator="out"/>
<feColorMatrix type="matrix" values="0 0 0 0 0 0 0 0 0 0 0 0 0 0 0 0 0 0 0.25 0"/>
<feBlend mode="normal" in2="BackgroundImageFix" result="effect1_dropShadow_2166_6198"/>
<feBlend mode="normal" in="SourceGraphic" in2="effect1_dropShadow_2166_6198" result="shape"/>
</filter>
<filter id="filter4_d_2166_6198" x="6.38281" y="19.5368" width="3.51961" height="3.09233" filterUnits="userSpaceOnUse" color-interpolation-filters="sRGB">
<feFlood flood-opacity="0" result="BackgroundImageFix"/>
<feColorMatrix in="SourceAlpha" type="matrix" values="0 0 0 0 0 0 0 0 0 0 0 0 0 0 0 0 0 0 127 0" result="hardAlpha"/>
<feOffset dx="0.3" dy="0.3"/>
<feGaussianBlur stdDeviation="0.0599999"/>
<feComposite in2="hardAlpha" operator="out"/>
<feColorMatrix type="matrix" values="0 0 0 0 0 0 0 0 0 0 0 0 0 0 0 0 0 0 0.25 0"/>
<feBlend mode="normal" in2="BackgroundImageFix" result="effect1_dropShadow_2166_6198"/>
<feBlend mode="normal" in="SourceGraphic" in2="effect1_dropShadow_2166_6198" result="shape"/>
</filter>
<filter id="filter5_d_2166_6198" x="21.1797" y="6.12" width="3.12019" height="3.12001" filterUnits="userSpaceOnUse" color-interpolation-filters="sRGB">
<feFlood flood-opacity="0" result="BackgroundImageFix"/>
<feColorMatrix in="SourceAlpha" type="matrix" values="0 0 0 0 0 0 0 0 0 0 0 0 0 0 0 0 0 0 127 0" result="hardAlpha"/>
<feOffset dx="0.3" dy="0.3"/>
<feGaussianBlur stdDeviation="0.0599999"/>
<feComposite in2="hardAlpha" operator="out"/>
<feColorMatrix type="matrix" values="0 0 0 0 0 0 0 0 0 0 0 0 0 0 0 0 0 0 0.25 0"/>
<feBlend mode="normal" in2="BackgroundImageFix" result="effect1_dropShadow_2166_6198"/>
<feBlend mode="normal" in="SourceGraphic" in2="effect1_dropShadow_2166_6198" result="shape"/>
</filter>
<filter id="filter6_d_2166_6198" x="0.368164" y="9.84622" width="4.02937" height="4.34313" filterUnits="userSpaceOnUse" color-interpolation-filters="sRGB">
<feFlood flood-opacity="0" result="BackgroundImageFix"/>
<feColorMatrix in="SourceAlpha" type="matrix" values="0 0 0 0 0 0 0 0 0 0 0 0 0 0 0 0 0 0 127 0" result="hardAlpha"/>
<feOffset dx="0.3" dy="0.3"/>
<feGaussianBlur stdDeviation="0.0599999"/>
<feComposite in2="hardAlpha" operator="out"/>
<feColorMatrix type="matrix" values="0 0 0 0 0 0 0 0 0 0 0 0 0 0 0 0 0 0 0.25 0"/>
<feBlend mode="normal" in2="BackgroundImageFix" result="effect1_dropShadow_2166_6198"/>
<feBlend mode="normal" in="SourceGraphic" in2="effect1_dropShadow_2166_6198" result="shape"/>
</filter>
<filter id="filter7_d_2166_6198" x="13.5205" y="18.4447" width="4.64656" height="4.69298" filterUnits="userSpaceOnUse" color-interpolation-filters="sRGB">
<feFlood flood-opacity="0" result="BackgroundImageFix"/>
<feColorMatrix in="SourceAlpha" type="matrix" values="0 0 0 0 0 0 0 0 0 0 0 0 0 0 0 0 0 0 127 0" result="hardAlpha"/>
<feOffset dx="0.3" dy="0.3"/>
<feGaussianBlur stdDeviation="0.0599999"/>
<feComposite in2="hardAlpha" operator="out"/>
<feColorMatrix type="matrix" values="0 0 0 0 0 0 0 0 0 0 0 0 0 0 0 0 0 0 0.25 0"/>
<feBlend mode="normal" in2="BackgroundImageFix" result="effect1_dropShadow_2166_6198"/>
<feBlend mode="normal" in="SourceGraphic" in2="effect1_dropShadow_2166_6198" result="shape"/>
</filter>
<filter id="filter8_d_2166_6198" x="20.377" y="20.6989" width="2.75105" height="3.34303" filterUnits="userSpaceOnUse" color-interpolation-filters="sRGB">
<feFlood flood-opacity="0" result="BackgroundImageFix"/>
<feColorMatrix in="SourceAlpha" type="matrix" values="0 0 0 0 0 0 0 0 0 0 0 0 0 0 0 0 0 0 127 0" result="hardAlpha"/>
<feOffset dx="0.3" dy="0.3"/>
<feGaussianBlur stdDeviation="0.0599999"/>
<feComposite in2="hardAlpha" operator="out"/>
<feColorMatrix type="matrix" values="0 0 0 0 0 0 0 0 0 0 0 0 0 0 0 0 0 0 0.25 0"/>
<feBlend mode="normal" in2="BackgroundImageFix" result="effect1_dropShadow_2166_6198"/>
<feBlend mode="normal" in="SourceGraphic" in2="effect1_dropShadow_2166_6198" result="shape"/>
</filter>
<filter id="filter9_d_2166_6198" x="6.92969" y="14.79" width="3.17977" height="2.78999" filterUnits="userSpaceOnUse" color-interpolation-filters="sRGB">
<feFlood flood-opacity="0" result="BackgroundImageFix"/>
<feColorMatrix in="SourceAlpha" type="matrix" values="0 0 0 0 0 0 0 0 0 0 0 0 0 0 0 0 0 0 127 0" result="hardAlpha"/>
<feOffset dx="0.3" dy="0.3"/>
<feGaussianBlur stdDeviation="0.0599999"/>
<feComposite in2="hardAlpha" operator="out"/>
<feColorMatrix type="matrix" values="0 0 0 0 0 0 0 0 0 0 0 0 0 0 0 0 0 0 0.25 0"/>
<feBlend mode="normal" in2="BackgroundImageFix" result="effect1_dropShadow_2166_6198"/>
<feBlend mode="normal" in="SourceGraphic" in2="effect1_dropShadow_2166_6198" result="shape"/>
</filter>
<filter id="filter10_d_2166_6198" x="24.7979" y="12.1629" width="2.66219" height="2.84642" filterUnits="userSpaceOnUse" color-interpolation-filters="sRGB">
<feFlood flood-opacity="0" result="BackgroundImageFix"/>
<feColorMatrix in="SourceAlpha" type="matrix" values="0 0 0 0 0 0 0 0 0 0 0 0 0 0 0 0 0 0 127 0" result="hardAlpha"/>
<feOffset dx="0.3" dy="0.3"/>
<feGaussianBlur stdDeviation="0.0599999"/>
<feComposite in2="hardAlpha" operator="out"/>
<feColorMatrix type="matrix" values="0 0 0 0 0 0 0 0 0 0 0 0 0 0 0 0 0 0 0.25 0"/>
<feBlend mode="normal" in2="BackgroundImageFix" result="effect1_dropShadow_2166_6198"/>
<feBlend mode="normal" in="SourceGraphic" in2="effect1_dropShadow_2166_6198" result="shape"/>
</filter>
<filter id="filter11_d_2166_6198" x="21.4199" y="14.79" width="3.54793" height="4.14" filterUnits="userSpaceOnUse" color-interpolation-filters="sRGB">
<feFlood flood-opacity="0" result="BackgroundImageFix"/>
<feColorMatrix in="SourceAlpha" type="matrix" values="0 0 0 0 0 0 0 0 0 0 0 0 0 0 0 0 0 0 127 0" result="hardAlpha"/>
<feOffset dx="0.3" dy="0.3"/>
<feGaussianBlur stdDeviation="0.0599999"/>
<feComposite in2="hardAlpha" operator="out"/>
<feColorMatrix type="matrix" values="0 0 0 0 0 0 0 0 0 0 0 0 0 0 0 0 0 0 0.25 0"/>
<feBlend mode="normal" in2="BackgroundImageFix" result="effect1_dropShadow_2166_6198"/>
<feBlend mode="normal" in="SourceGraphic" in2="effect1_dropShadow_2166_6198" result="shape"/>
</filter>
</defs>
</svg>
