<svg width="390" height="401" viewBox="0 0 390 401" fill="none" xmlns="http://www.w3.org/2000/svg">
<path fill-rule="evenodd" clip-rule="evenodd" d="M1.06491 92.5585C-4.94185 105.43 32.1192 197.403 74.9949 192.321C96.1052 189.818 106.476 182.384 118.109 174.045C130.104 165.447 143.44 155.887 171.274 149.778C205.304 142.309 240.628 154.142 255.137 178.922C277.276 211.969 266.573 299.223 266.573 299.223C266.573 299.223 222.742 346.833 226.94 361.331C231.137 375.829 241.54 373.166 241.54 373.166C241.54 373.166 255.089 374.132 261.456 376.827C263.869 377.849 265.597 379.621 267.527 381.6C270.691 384.844 274.398 388.647 282.56 390.621C289.937 391.977 295.227 391.2 295.227 391.2C295.227 391.2 302.417 390.458 307.58 391.408C309.09 391.685 311.052 393.051 313.356 394.654C318.93 398.534 326.502 403.805 334.506 398.421C345.818 390.812 326.034 320.068 326.034 320.068C326.034 320.068 397.448 221.334 389.253 158.06C389.253 158.06 377.186 62.5728 269.541 17.6177C269.541 17.6177 214.35 -10.1227 142.849 5.4857C136.671 6.445 118.124 11.7687 118.124 11.7687C118.124 11.7687 101.555 16.1769 95.4831 19.1827C21.8326 50.6321 7.07166 79.6867 1.06491 92.5585ZM220.666 22.1346C223.925 22.7337 226.081 25.8615 225.482 29.1206L211.514 105.097C210.915 108.356 207.787 110.513 204.528 109.914C201.269 109.314 199.112 106.187 199.712 102.927L213.68 26.9508C214.279 23.6917 217.407 21.5354 220.666 22.1346ZM334.096 74.4807C336.499 76.7621 336.598 80.5598 334.317 82.9631L279.464 140.747C277.183 143.151 273.385 143.25 270.982 140.968C268.579 138.687 268.48 134.889 270.761 132.486L325.614 74.7015C327.895 72.2982 331.693 72.1993 334.096 74.4807ZM85.6853 35.1785C88.6374 33.6733 92.2508 34.8464 93.7559 37.7985L128.505 105.955C130.01 108.907 128.837 112.521 125.885 114.026C122.933 115.531 119.319 114.358 117.814 111.406L83.0652 43.2491C81.56 40.2969 82.7331 36.6836 85.6853 35.1785ZM382.544 176.216C383.198 179.465 381.095 182.629 377.847 183.283L302.618 198.43C299.369 199.084 296.206 196.981 295.551 193.732C294.897 190.484 297.001 187.32 300.249 186.666L375.478 171.519C378.727 170.865 381.89 172.968 382.544 176.216ZM281.72 298.926C279.134 296.853 275.358 297.269 273.285 299.854C271.213 302.44 271.628 306.216 274.214 308.288L279.1 312.205L261.73 347.545C260.268 350.519 261.494 354.115 264.468 355.576C267.442 357.038 271.038 355.812 272.499 352.838L289.422 318.408C293.803 320.272 297.66 321.601 300.682 322.519C301.475 322.76 302.211 322.973 302.885 323.16L303.806 371.119C303.87 374.432 306.607 377.066 309.92 377.003C313.234 376.939 315.868 374.202 315.804 370.889L314.929 325.298C317.358 324.9 319.389 323.02 319.86 320.46C320.459 317.201 318.303 314.073 315.044 313.474L309.889 312.526L309.888 312.526L309.842 312.517C309.793 312.507 309.709 312.491 309.591 312.466C309.355 312.416 308.984 312.335 308.491 312.218C307.504 311.983 306.03 311.602 304.17 311.037C300.571 309.944 295.55 308.166 289.828 305.426L281.72 298.926Z" fill="#D5AEA7"/>
</svg>
