<svg width="717" height="165" viewBox="0 0 717 165" fill="none" xmlns="http://www.w3.org/2000/svg">
<path d="M5.48 9.148H64.52V18.292H5.48V9.148ZM8.648 20.668H61.856V29.38H8.648V20.668ZM2.528 31.756H67.4V41.044H2.528V31.756ZM2.096 44.212H68.264V53.284H2.096V44.212ZM29.456 15.052H40.256V39.388H29.456V15.052ZM13.904 4.324L23.264 0.723997C25.28 3.028 27.224 6.196 28.088 8.572L18.296 12.748C17.648 10.372 15.776 6.844 13.904 4.324ZM45.224 0.651998L56.528 3.316C54.368 6.628 52.28 9.364 50.696 11.308L41.048 8.716C42.56 6.412 44.288 3.1 45.224 0.651998ZM28.088 39.46H39.176C37.664 55.084 33.92 64.732 5.84 69.268C5.048 66.46 2.6 62.14 0.584 59.836C25.28 56.812 26.936 50.692 28.088 39.46ZM41.48 46.948C45.728 55.228 54.512 58.972 70.064 59.764C67.832 62.068 65.096 66.532 63.8 69.484C46.16 67.468 37.664 61.492 31.832 48.604L41.48 46.948ZM106.712 9.796C100.52 16.708 89.36 24.124 78.2 28.732C76.976 26.284 74.24 22.252 72.152 20.092C83.888 15.844 95.336 7.708 100.952 0.651998H111.608C119.744 9.652 130.688 16.132 141.992 19.372C139.544 21.964 137.168 25.636 135.368 28.66C125.288 24.484 113.048 16.78 106.712 9.796ZM91.52 31.18H121.688V38.524H91.52V31.18ZM101.456 16.132H112.256V25.852H101.456V16.132ZM77.84 59.044C85.976 58.54 97.856 57.604 108.8 56.668L108.944 65.884C98.648 66.964 87.488 67.9 79.208 68.62L77.84 59.044ZM110.312 46.228C115.352 54.22 125.576 58.756 140.408 60.268C138.176 62.428 135.44 66.604 134.144 69.412C118.016 66.82 108.08 60.34 101.528 48.532L110.312 46.228ZM129.824 44.572L137.384 50.908C131.84 54.436 125.216 57.964 120.176 60.052L114.056 54.364C119.024 52.06 125.72 47.884 129.824 44.572ZM91.52 20.74H128.744V49.108H91.52V41.116H118.16V28.732H91.52V20.74ZM84.968 20.74H95.336V60.268L84.968 61.348V20.74ZM144.296 36.364C149.768 35.284 157.688 33.34 165.248 31.468L166.616 40.828C159.848 42.772 152.504 44.788 146.456 46.372L144.296 36.364ZM145.448 14.116H165.248V23.692H145.448V14.116ZM151.856 0.939999H160.784V59.188C160.784 63.436 160.064 65.956 157.76 67.468C155.456 68.98 152.216 69.34 147.68 69.34C147.392 66.892 146.312 62.86 145.16 60.268C147.464 60.34 149.912 60.34 150.704 60.34C151.568 60.34 151.856 60.052 151.856 59.116V0.939999ZM166.688 20.812H186.488V30.604H166.688V20.812ZM173.024 7.42H181.88V69.34H173.024V7.42ZM183.032 1.516L189.296 9.292C182.744 11.74 174.464 13.18 167.48 13.972C167.12 11.884 165.896 8.5 164.816 6.412C171.296 5.332 178.352 3.532 183.032 1.516ZM171.656 25.276L177.848 27.22C175.832 38.668 172.016 52.636 166.688 60.268C165.752 57.388 163.448 53.356 161.936 50.764C166.472 44.356 170.144 33.844 171.656 25.276ZM182.024 32.548C183.32 34.132 188.72 41.692 189.656 43.204L185.264 52.348C183.824 48.1 180.368 40.828 178.64 37.444L182.024 32.548ZM187.856 16.852L194.624 17.572C194.768 25.636 194.12 34.348 191.528 39.82L185.408 34.996C187.424 30.748 187.928 23.332 187.856 16.852ZM205.64 16.708L213.992 18.148C212.768 25.276 211.328 33.484 210.032 38.668L203.192 37.228C204.272 31.684 205.352 22.972 205.64 16.708ZM195.344 2.164H204.056V22.252C204.056 37.3 202.688 55.804 190.736 69.772C189.512 67.396 186.632 63.58 184.832 61.996C194.264 50.476 195.344 34.564 195.344 22.252V2.164ZM203.408 27.004C204.488 41.404 206.792 54.868 214.28 60.988C212.336 62.716 209.312 66.532 208.016 69.124C199.592 60.772 197.504 45.436 196.352 27.652L203.408 27.004ZM231.272 13.756H270.224V19.228H231.272V13.756ZM230.264 43.42H271.16V48.82H230.264V43.42ZM236.384 50.908L242.936 47.884C244.592 49.684 246.536 52.276 247.4 54.004L240.488 57.316C239.768 55.588 237.968 52.852 236.384 50.908ZM240.632 30.1V31.756H260.504V30.1H240.632ZM240.632 24.772V26.356H260.504V24.772H240.632ZM232.784 20.812H268.712V35.716H232.784V20.812ZM253.952 41.62H262.448V52.132C262.448 55.3 261.8 56.308 259.568 56.956C257.408 57.676 254.456 57.676 250.568 57.676C250.208 55.876 249.344 54.004 248.624 52.564C250.136 52.636 252.368 52.636 253.016 52.636C253.664 52.636 253.952 52.42 253.952 51.772V41.62ZM231.488 37.3C240.272 37.372 253.376 37.372 266.12 37.3L265.904 41.62C253.664 42.052 241.064 42.412 231.776 42.556L231.488 37.3ZM258.704 37.228L263.816 33.844C266.552 35.716 269.648 38.596 271.232 40.54L265.904 44.428C264.32 42.34 261.224 39.172 258.704 37.228ZM246.464 11.596H254.888V39.1L246.464 39.388V11.596ZM220.04 2.812H282.248V69.34H272.312V10.588H229.472V69.34H220.04V2.812ZM224.648 58.18H276.2V65.956H224.648V58.18ZM320.264 6.268H357.272V16.276H320.264V6.268ZM334.88 10.3H345.536V57.316C345.536 62.932 344.528 65.74 341.072 67.396C337.688 69.052 332.792 69.34 326.312 69.268C325.952 66.316 324.296 61.564 322.856 58.612C326.888 58.828 331.568 58.828 333.008 58.828C334.376 58.828 334.88 58.396 334.88 57.172V10.3ZM292.4 23.188H316.088V30.964H292.4V23.188ZM292.832 3.028H316.232V10.804H292.832V3.028ZM292.4 33.124H316.088V40.9H292.4V33.124ZM288.8 12.892H318.968V21.028H288.8V12.892ZM297.152 43.276H315.872V65.668H297.152V57.532H306.728V51.412H297.152V43.276ZM292.112 43.276H301.112V68.26H292.112V43.276ZM400.4 1.948H410.984V19.156H400.4V1.948ZM384.416 13.324H428.192V23.188H384.416V13.324ZM388.88 27.292L398.312 25.636C400.616 34.492 402.632 45.796 402.992 52.852L392.696 55.012C392.552 48.028 390.968 36.364 388.88 27.292ZM412.064 25.276L423.44 27.076C421.28 38.884 418.112 51.484 415.376 59.692L405.944 57.748C408.536 49.036 411.056 35.716 412.064 25.276ZM383.12 56.596H429.488V66.46H383.12V56.596ZM376.424 1.084L386.216 4.324C381.32 16.492 373.256 29.74 364.976 37.876C364.112 35.356 361.304 29.524 359.576 26.86C366.2 20.74 372.68 10.948 376.424 1.084ZM369.8 21.748L379.736 11.812V11.884V69.124H369.8V21.748ZM433.52 28.732H500.624V40.18H433.52V28.732ZM532.808 1.3L543.68 3.244C540.944 16.204 535.976 28.444 530.072 36.004C527.84 34.348 522.872 31.612 520.136 30.388C526.328 23.908 530.72 12.748 532.808 1.3ZM546.92 22.972H552.392V29.884C552.392 38.596 557.144 52.42 573.92 59.764C571.904 62.284 568.808 66.676 567.152 69.34C555.488 64.012 548.36 52.492 546.848 46.156C544.904 52.42 537.056 63.58 524.024 69.34C522.8 66.892 519.488 62.356 517.688 60.484C535.832 53.212 541.232 38.884 541.232 29.956V22.972H546.92ZM504.584 50.26C508.544 46.372 514.952 39.676 520.856 33.052L526.832 42.052C522.08 47.956 516.248 54.292 511.28 59.332L504.584 50.26ZM506.528 12.964L513.944 5.188C518.12 7.924 523.952 12.1 526.688 15.196L518.768 23.836C516.392 20.668 510.776 16.06 506.528 12.964ZM537.56 13.108H565.496V23.548H532.304L537.56 13.108ZM562.04 13.108H563.552L565.568 12.532L573.344 17.14C571.184 24.628 567.728 32.044 564.776 37.372C562.616 36.22 558.368 34.06 555.92 33.124C558.152 28.732 561.032 21.1 562.04 15.34V13.108ZM600.632 7.924H644.12V16.276H600.632V7.924ZM617.12 0.939999H627.272V12.316H617.12V0.939999ZM615.752 24.844V27.724H629.144V24.844H615.752ZM606.464 18.22H638.936V34.42H606.464V18.22ZM600.992 36.004H636.416V43.708H610.856V69.268H600.992V36.004ZM617.624 45.436H632.312V60.052H617.624V54.004H624.608V51.484H617.624V45.436ZM613.016 45.436H620.432V62.932H613.016V45.436ZM634.328 36.004H644.048V60.484C644.048 64.66 643.184 66.748 640.376 68.044C637.64 69.268 633.824 69.268 628.928 69.268C628.568 66.892 627.56 63.58 626.48 61.348C628.856 61.492 632.24 61.492 633.032 61.492C633.968 61.42 634.328 61.204 634.328 60.34V36.004ZM576.224 36.508C582.056 35.356 590.696 33.268 598.832 31.18L600.128 40.54C592.784 42.7 584.864 44.788 578.384 46.516L576.224 36.508ZM577.448 14.116H599.552V23.692H577.448V14.116ZM584.216 1.012H593.792V58.612C593.792 63.148 593.072 65.812 590.624 67.396C588.176 69.052 584.864 69.412 580.112 69.412C579.896 66.82 578.744 62.5 577.52 59.692C579.824 59.836 582.2 59.836 583.064 59.764C583.928 59.764 584.216 59.548 584.216 58.612V1.012ZM663.56 22.54H702.152V32.476H663.56V22.54ZM683 39.82H707.336V49.612H683V39.82ZM677.528 28.516H688.472V62.356L677.528 61.06V28.516ZM660.248 35.284L671.192 36.364C669.392 51.124 665 62.788 656.72 69.844C654.992 67.972 650.528 64.228 648.08 62.644C655.784 57.172 659.168 47.308 660.248 35.284ZM669.248 44.14C673.496 56.524 683 58.252 694.736 58.324C699.272 58.324 711.008 58.324 716.624 58.108C715.112 60.556 713.456 65.596 712.952 68.764H694.16C677.816 68.764 666.872 65.38 660.68 46.876L669.248 44.14ZM677.312 1.084H688.544V15.052H677.312V1.084ZM651.608 7.78H714.464V27.22H703.664V17.644H661.904V27.22H651.608V7.78ZM64.8477 149.5V97.1364H102.586V108.591H79.0636V117.591H100.643V129.045H79.0636V138.045H102.484V149.5H64.8477ZM123.955 127.409V149.5H109.841V110.227H123.239V117.693H123.648C124.5 115.205 126 113.253 128.148 111.838C130.313 110.423 132.836 109.716 135.716 109.716C138.495 109.716 140.907 110.355 142.952 111.634C145.015 112.895 146.608 114.634 147.733 116.849C148.875 119.065 149.438 121.597 149.421 124.443V149.5H135.307V127.409C135.324 125.466 134.83 123.94 133.824 122.832C132.836 121.724 131.455 121.17 129.682 121.17C128.523 121.17 127.509 121.426 126.64 121.938C125.787 122.432 125.131 123.148 124.671 124.085C124.211 125.006 123.972 126.114 123.955 127.409ZM156.388 110.227H170.502V150.83C170.502 154.273 169.777 156.966 168.328 158.909C166.897 160.852 164.885 162.224 162.294 163.026C159.703 163.827 156.678 164.227 153.218 164.227C152.706 164.227 152.238 164.219 151.811 164.202C151.368 164.185 150.882 164.159 150.354 164.125V153.693C150.695 153.727 150.993 153.753 151.249 153.77C151.488 153.787 151.735 153.795 151.99 153.795C153.678 153.795 154.828 153.531 155.442 153.003C156.073 152.491 156.388 151.665 156.388 150.523V110.227ZM163.445 106.136C161.536 106.136 159.9 105.506 158.536 104.244C157.172 102.983 156.49 101.466 156.49 99.6932C156.49 97.9205 157.172 96.4034 158.536 95.142C159.9 93.8807 161.536 93.25 163.445 93.25C165.371 93.25 167.007 93.8807 168.354 95.142C169.718 96.4034 170.4 97.9205 170.4 99.6932C170.4 101.466 169.718 102.983 168.354 104.244C167.007 105.506 165.371 106.136 163.445 106.136ZM196.613 150.216C192.352 150.216 188.704 149.372 185.67 147.685C182.636 145.98 180.309 143.611 178.69 140.577C177.071 137.526 176.261 133.989 176.261 129.966C176.261 125.943 177.071 122.415 178.69 119.381C180.309 116.33 182.636 113.96 185.67 112.273C188.704 110.568 192.352 109.716 196.613 109.716C200.875 109.716 204.522 110.568 207.556 112.273C210.591 113.96 212.917 116.33 214.537 119.381C216.156 122.415 216.966 125.943 216.966 129.966C216.966 133.989 216.156 137.526 214.537 140.577C212.917 143.611 210.591 145.98 207.556 147.685C204.522 149.372 200.875 150.216 196.613 150.216ZM196.716 139.784C197.909 139.784 198.94 139.384 199.809 138.582C200.679 137.781 201.352 136.639 201.829 135.156C202.306 133.673 202.545 131.909 202.545 129.864C202.545 127.801 202.306 126.037 201.829 124.571C201.352 123.088 200.679 121.946 199.809 121.145C198.94 120.344 197.909 119.943 196.716 119.943C195.454 119.943 194.372 120.344 193.468 121.145C192.565 121.946 191.875 123.088 191.397 124.571C190.92 126.037 190.681 127.801 190.681 129.864C190.681 131.909 190.92 133.673 191.397 135.156C191.875 136.639 192.565 137.781 193.468 138.582C194.372 139.384 195.454 139.784 196.716 139.784ZM230.088 164.227C228.469 164.227 226.926 164.099 225.461 163.844C223.995 163.605 222.708 163.273 221.6 162.847L224.668 152.824C225.827 153.233 226.884 153.497 227.838 153.616C228.81 153.736 229.637 153.668 230.319 153.412C231.017 153.156 231.52 152.67 231.827 151.955L232.134 151.239L218.327 110.227H233.054L239.395 137.432H239.804L246.248 110.227H261.077L246.759 152.773C246.043 154.938 245.003 156.881 243.64 158.602C242.293 160.341 240.52 161.713 238.321 162.719C236.123 163.724 233.378 164.227 230.088 164.227ZM288.026 164.227C286.407 164.227 284.864 164.099 283.398 163.844C281.932 163.605 280.645 163.273 279.537 162.847L282.605 152.824C283.765 153.233 284.821 153.497 285.776 153.616C286.748 153.736 287.574 153.668 288.256 153.412C288.955 153.156 289.458 152.67 289.765 151.955L290.071 151.239L276.265 110.227H290.992L297.333 137.432H297.742L304.185 110.227H319.015L304.696 152.773C303.98 154.938 302.941 156.881 301.577 158.602C300.23 160.341 298.458 161.713 296.259 162.719C294.06 163.724 291.316 164.227 288.026 164.227ZM340.754 150.216C336.493 150.216 332.845 149.372 329.811 147.685C326.777 145.98 324.45 143.611 322.831 140.577C321.211 137.526 320.402 133.989 320.402 129.966C320.402 125.943 321.211 122.415 322.831 119.381C324.45 116.33 326.777 113.96 329.811 112.273C332.845 110.568 336.493 109.716 340.754 109.716C345.015 109.716 348.663 110.568 351.697 112.273C354.731 113.96 357.058 116.33 358.677 119.381C360.297 122.415 361.106 125.943 361.106 129.966C361.106 133.989 360.297 137.526 358.677 140.577C357.058 143.611 354.731 145.98 351.697 147.685C348.663 149.372 345.015 150.216 340.754 150.216ZM340.856 139.784C342.049 139.784 343.081 139.384 343.95 138.582C344.819 137.781 345.493 136.639 345.97 135.156C346.447 133.673 346.686 131.909 346.686 129.864C346.686 127.801 346.447 126.037 345.97 124.571C345.493 123.088 344.819 121.946 343.95 121.145C343.081 120.344 342.049 119.943 340.856 119.943C339.595 119.943 338.512 120.344 337.609 121.145C336.706 121.946 336.015 123.088 335.538 124.571C335.061 126.037 334.822 127.801 334.822 129.864C334.822 131.909 335.061 133.673 335.538 135.156C336.015 136.639 336.706 137.781 337.609 138.582C338.512 139.384 339.595 139.784 340.856 139.784ZM392.299 132.318V110.227H406.413V149.5H393.015V142.034H392.606C391.754 144.54 390.262 146.5 388.132 147.915C386.001 149.312 383.47 150.011 380.538 150.011C377.794 150.011 375.39 149.381 373.328 148.119C371.282 146.858 369.689 145.119 368.547 142.903C367.422 140.687 366.85 138.148 366.833 135.284V110.227H380.947V132.318C380.964 134.261 381.458 135.787 382.43 136.895C383.419 138.003 384.799 138.557 386.572 138.557C387.748 138.557 388.762 138.31 389.615 137.815C390.484 137.304 391.149 136.588 391.609 135.668C392.086 134.73 392.316 133.614 392.299 132.318ZM413.591 149.5V110.227H427.296V117.693H427.705C428.421 114.932 429.554 112.912 431.105 111.634C432.674 110.355 434.506 109.716 436.603 109.716C437.216 109.716 437.821 109.767 438.418 109.869C439.032 109.955 439.62 110.082 440.182 110.253V122.295C439.483 122.057 438.623 121.878 437.6 121.759C436.577 121.639 435.699 121.58 434.966 121.58C433.586 121.58 432.341 121.895 431.233 122.526C430.142 123.139 429.282 124.009 428.651 125.134C428.02 126.241 427.705 127.545 427.705 129.045V149.5H413.591ZM459.154 149.5V110.227H472.551V117.693H472.961C473.779 115.239 475.176 113.295 477.154 111.864C479.131 110.432 481.483 109.716 484.211 109.716C486.972 109.716 489.35 110.449 491.344 111.915C493.338 113.364 494.54 115.29 494.949 117.693H495.358C496.023 115.29 497.438 113.364 499.603 111.915C501.767 110.449 504.307 109.716 507.222 109.716C510.989 109.716 514.04 110.926 516.375 113.347C518.728 115.767 519.904 118.989 519.904 123.011V149.5H505.79V126.591C505.79 124.869 505.355 123.523 504.486 122.551C503.617 121.562 502.449 121.068 500.983 121.068C499.534 121.068 498.384 121.562 497.532 122.551C496.696 123.523 496.279 124.869 496.279 126.591V149.5H482.779V126.591C482.779 124.869 482.344 123.523 481.475 122.551C480.605 121.562 479.438 121.068 477.972 121.068C477 121.068 476.165 121.29 475.466 121.733C474.767 122.176 474.222 122.815 473.83 123.651C473.455 124.469 473.267 125.449 473.267 126.591V149.5H459.154ZM545.683 150.216C541.49 150.216 537.876 149.415 534.842 147.812C531.825 146.193 529.498 143.875 527.862 140.858C526.243 137.824 525.433 134.193 525.433 129.966C525.433 125.909 526.251 122.364 527.887 119.33C529.524 116.295 531.833 113.935 534.816 112.247C537.799 110.56 541.319 109.716 545.376 109.716C548.342 109.716 551.027 110.176 553.43 111.097C555.833 112.017 557.887 113.355 559.592 115.111C561.297 116.849 562.609 118.963 563.529 121.452C564.45 123.94 564.91 126.744 564.91 129.864V133.136H529.831V125.364H551.922C551.904 124.239 551.615 123.25 551.052 122.398C550.507 121.528 549.765 120.855 548.828 120.378C547.907 119.884 546.859 119.636 545.683 119.636C544.541 119.636 543.493 119.884 542.538 120.378C541.583 120.855 540.816 121.52 540.237 122.372C539.674 123.224 539.376 124.222 539.342 125.364V133.75C539.342 135.011 539.606 136.136 540.135 137.125C540.663 138.114 541.422 138.889 542.41 139.452C543.399 140.014 544.592 140.295 545.99 140.295C546.961 140.295 547.848 140.159 548.649 139.886C549.467 139.614 550.166 139.222 550.745 138.71C551.325 138.182 551.751 137.551 552.024 136.818H564.91C564.467 139.545 563.419 141.915 561.765 143.926C560.112 145.92 557.922 147.472 555.194 148.58C552.484 149.67 549.314 150.216 545.683 150.216ZM581.613 150.114C579.107 150.114 576.891 149.705 574.965 148.886C573.056 148.051 571.556 146.79 570.465 145.102C569.374 143.415 568.828 141.267 568.828 138.659C568.828 136.511 569.195 134.679 569.928 133.162C570.661 131.628 571.684 130.375 572.996 129.403C574.309 128.432 575.834 127.69 577.573 127.179C579.328 126.668 581.221 126.335 583.249 126.182C585.448 126.011 587.212 125.807 588.542 125.568C589.888 125.312 590.86 124.963 591.456 124.52C592.053 124.06 592.351 123.455 592.351 122.705V122.602C592.351 121.58 591.959 120.795 591.175 120.25C590.391 119.705 589.385 119.432 588.158 119.432C586.811 119.432 585.712 119.73 584.86 120.327C584.025 120.906 583.522 121.801 583.351 123.011H570.363C570.533 120.625 571.292 118.426 572.638 116.415C574.002 114.386 575.988 112.767 578.596 111.557C581.203 110.33 584.459 109.716 588.363 109.716C591.175 109.716 593.698 110.048 595.931 110.713C598.164 111.361 600.064 112.273 601.632 113.449C603.201 114.608 604.394 115.972 605.212 117.54C606.047 119.091 606.465 120.778 606.465 122.602V149.5H593.272V143.977H592.965C592.181 145.443 591.226 146.628 590.101 147.531C588.993 148.435 587.723 149.091 586.292 149.5C584.877 149.909 583.317 150.114 581.613 150.114ZM586.215 141.216C587.289 141.216 588.294 140.994 589.232 140.551C590.186 140.108 590.962 139.469 591.559 138.634C592.155 137.798 592.453 136.784 592.453 135.591V132.318C592.078 132.472 591.678 132.616 591.252 132.753C590.843 132.889 590.4 133.017 589.922 133.136C589.462 133.256 588.968 133.366 588.439 133.469C587.928 133.571 587.391 133.665 586.828 133.75C585.738 133.92 584.843 134.202 584.144 134.594C583.462 134.969 582.951 135.438 582.61 136C582.286 136.545 582.124 137.159 582.124 137.841C582.124 138.932 582.507 139.767 583.275 140.347C584.042 140.926 585.022 141.216 586.215 141.216ZM627.322 97.1364V149.5H613.208V97.1364H627.322ZM650.877 97.1364L649.547 133.136H637.888L636.559 97.1364H650.877ZM643.718 150.318C641.74 150.318 640.044 149.628 638.63 148.247C637.232 146.849 636.542 145.153 636.559 143.159C636.542 141.216 637.232 139.554 638.63 138.173C640.044 136.793 641.74 136.102 643.718 136.102C645.593 136.102 647.246 136.793 648.678 138.173C650.127 139.554 650.86 141.216 650.877 143.159C650.86 144.489 650.51 145.699 649.828 146.79C649.164 147.864 648.294 148.724 647.221 149.372C646.147 150.003 644.979 150.318 643.718 150.318Z" fill="black"/>
</svg>
