<svg width="450" height="531" viewBox="0 0 450 531" fill="none" xmlns="http://www.w3.org/2000/svg">
<path d="M413.473 224.014C413.473 224.014 415.973 167.514 412.973 165.17C409.848 164.359 396.691 165.269 377.5 167.294M413.473 224.014C413.473 224.014 413.458 224.714 413.43 226M413.473 224.014L413.451 225.007L413.43 226M413.43 226C413.126 239.727 411.258 320.156 408.973 327.014C406 337.5 404 351.5 387.973 360.014C381.973 364.514 334.973 372.014 330.973 375.514C326.973 379.014 387.973 463.014 387.973 463.014C387.973 463.014 391.559 469.27 398.473 466.514C405.386 463.757 429.473 439.014 429.473 439.014C429.473 439.014 438.973 433.014 444.473 438.014C449.973 443.014 449.473 446.514 445.473 454.514C441.473 462.514 396.473 507.514 389.973 510.514C383.473 513.514 383.971 513.78 379.973 510.514C375.974 507.247 345.963 440.61 344.5 441C325.092 412.472 290.473 387.514 290.473 387.514C281.973 385.514 232.473 386.014 229.973 387.514C229.973 387.514 194.973 399.014 184.973 407.514C184.973 407.514 173.973 463.514 169.473 472.014C164.973 480.514 156.473 496.014 144.973 504.014C133.473 512.014 106.473 509.514 103.973 508.014C97.4727 508.014 56.4726 478.514 51.9726 478.514C47.4726 478.514 44.9726 479.514 43.4726 481.514C41.9726 483.514 23.9725 526.014 20.9726 528.014C17.9727 530.014 11.9726 531.014 5.47259 528.014C-1.02741 525.014 1.47259 517.514 1.47259 517.514L36.4726 453.014C40.4727 446.014 48.4726 448.514 48.4726 448.514C48.4726 448.514 89.4725 476.014 95.4726 478.514C101.473 481.014 124.973 484.514 130.973 481.514C136.973 478.514 143.473 467.014 146.973 458.514C150.473 450.014 157.973 413.514 158.473 407.514C158.973 401.514 158.973 401.014 158.473 396.514C157.973 392.014 106.973 211.014 112.473 206.514C116.816 202.96 291.759 176.638 373 167.777M71.4726 200.514C67.4726 200.514 41.4726 153.015 39.4726 147.515C37.5 144.5 37.4726 129.515 39.4726 125.515C46 114 102.473 88.5145 102.473 88.5145C105.473 86.5145 117.5 85.0145 124.973 88.5145C130.929 90.5 179.973 177.013 176.473 182.514C172.973 188.015 76.4726 201.514 71.4726 200.514ZM197.473 181.515C188.973 181.515 148 89.5145 140 85.5C136.5 82.5 130.822 80.6266 132 79C137.205 71.8152 161.489 57.7309 179.5 54.0961C195.74 50.8185 222 56 228.5 64C231.5 68.5 205.973 181.515 197.473 181.515ZM214.473 174.67C212.327 170.279 213.602 166.842 214.473 165.17C215.344 163.499 265.973 162.515 266.473 165.515C266.973 168.514 216.619 179.062 214.473 174.67ZM302.973 161.015C307.473 157.514 312.462 118.159 314.973 88.5145C316.925 58.0792 317.264 41.4589 314.973 13.5145C314.973 13.5145 315.973 2.01451 302.973 1.01451C289.973 0.0145142 248.473 51.0144 251.973 53.0145C255.473 55.0146 280.973 52.5143 284.473 54.5143C287.973 56.5143 287.473 66.5143 283.973 68.5143C280.473 70.5143 245.973 67.5145 242.473 69.0145C237.973 74.0145 236.473 80.0147 237.973 82.5145C239.473 85.0143 287.473 83.0145 291.973 84.5143C296.473 86.0141 299.473 94.0143 295.473 97.0145C291.473 100.015 233.973 95.5143 230.973 97.0145C227.973 98.5147 226.473 107.515 227.473 109.515C228.473 111.514 263.973 109.515 268.973 111.514C273.973 113.514 274.973 121.014 269.973 125.515C264.973 127.015 228.473 124.014 224.473 125.515C220.473 127.015 215.973 151.015 218.973 153.015C221.973 155.014 273.973 151.515 274.973 153.015C275.973 154.514 274.473 161.515 276.473 163.514C278.473 165.514 298.473 164.515 302.973 161.015ZM314.973 161.015C311.473 156.515 319.563 90.1816 327.973 82.5145C336.382 74.8474 405.5 100.5 411.473 111.514C411.473 117.5 400.973 150.515 397.973 153.015C394.973 155.515 318.473 165.515 314.973 161.015ZM411.473 97.5C413.5 103.5 416.973 86.5145 411.473 82.5145C405.973 78.5145 346.973 58.0145 342.473 59.0145C337.973 60.0145 326.973 72.0145 333 69.5C339.027 66.9855 412.336 91.5574 411.473 97.5ZM414.973 73.0145C418.723 73.8077 421.973 69.5145 417.973 65.5145C413.973 61.5145 356.973 43.5145 353.973 45.0145C350.973 46.5145 352 51.5 353.973 53.0145C353.973 53.0145 411.222 72.2213 414.973 73.0145ZM124.973 74.0145C124.973 74.0145 113.973 74.0145 114.973 69.0145C144.954 32.411 194.309 18.3934 240.473 45.0145C242.473 53.0145 234.973 55.0145 234.973 55.0145C192.116 33.1267 165.359 37.1867 124.973 74.0145ZM87.4726 85.0145C88.4726 82.5145 85.4726 78.5145 81.9726 78.5145C81.9726 78.5145 54 94.5 52.4726 97.0145C51.9726 99.5145 54.9726 103.015 58.4726 104.015C58.4726 104.015 84.9726 88.5145 87.4726 85.0145ZM81.9726 66.5145C81.9726 64.0145 80 54.5 71.9726 53.0145C66 52 39.4726 62 35.4726 69.0145C34.9726 72.5145 41.9726 87.0145 46.4726 88.5145C50.9726 88.5145 81.9726 69.0145 81.9726 66.5145ZM34.9726 212.514C37.4727 211.514 57.4727 224.014 65.4726 224.014C73.4727 223.514 87.4727 209.014 99.9726 210.014C102.973 212.514 147.973 395.014 146.973 396.514C142.973 401.514 114.473 399.514 103.973 396.514C93.4725 393.514 75.4727 378.014 72.4726 368.514C72.4726 368.514 30.9727 217.514 34.9726 212.514ZM229.973 305.014C218.973 305.514 214.473 302.014 211.973 286.514C211.473 273.514 215.192 269.61 221.973 266.514C231.357 263.759 237.632 268.794 241.473 282.014C243.198 296.493 241.473 302.514 229.973 305.014ZM303.973 278.014C303.438 266.96 305.5 257.5 314.5 255.5C325 254.5 329.189 260.932 330.973 272C331.324 283.262 328.5 291.014 320.5 293.014C311.019 293.333 306.507 289.287 303.973 278.014ZM255.473 282.014C260.973 281.014 264.473 285.514 267.973 285.514C271.473 285.514 272.473 280.014 276.973 278.014C281.473 276.014 283.706 276.976 285.473 280.514C287.973 290.514 280.973 300.514 272.473 302.514C263.973 304.514 256.968 301.144 251.973 293.014C249.973 288.514 251.272 284.476 255.473 282.014Z" stroke="black"/>
</svg>
