<svg width="300" height="300" viewBox="0 0 300 300" fill="none" xmlns="http://www.w3.org/2000/svg">
<circle cx="150" cy="150" r="145" fill="#F5D3D3" stroke="#A8A8A8" stroke-width="10"/>
<path d="M134.705 246.905L136.745 219.45L145.84 221.745V256.51H124.675C124.675 256.51 115.75 256.51 119.49 249.625C124.675 243.42 134.705 246.905 134.705 246.905Z" fill="white" stroke="black" stroke-width="1.7" stroke-linecap="round"/>
<path d="M184.6 246.99L182.56 219.535L173.465 221.83V256.595H194.63C194.63 256.595 203.555 256.595 199.815 249.71C194.63 243.505 184.6 246.99 184.6 246.99Z" fill="white" stroke="black" stroke-width="1.7" stroke-linecap="round"/>
<rect x="70.2744" y="232.23" width="61.3701" height="9.76438" transform="rotate(-42.24 70.2744 232.23)" fill="white"/>
<rect x="71.4751" y="232.288" width="59.6701" height="8.06438" transform="rotate(-42.24 71.4751 232.288)" stroke="black" stroke-opacity="0.5" stroke-width="1.7"/>
<path d="M122.565 59.4207C126.201 66.9493 128.324 70.1551 133.513 73.9696C129.105 80.8116 102.092 98.4991 96.3411 99.2705C94.2011 93.9058 92.3593 91.3404 88.2192 87.3377C88.2192 87.3377 85.9664 86.0772 82.5332 86.6679C75.4667 87.2373 70.3597 85.1754 66.4289 76.3267C64.0219 70.2834 67.3997 63.0631 75.1272 58.882C75.1272 58.882 73.59 49.4517 81.1177 42.5819C93.1836 33.6709 100.862 41.3659 100.862 41.3659C100.862 41.3659 101.068 38.0827 107.036 35.0684C116.35 30.8239 123.617 37.4021 123.617 37.4021C127.075 40.5074 129.426 44.2402 128.858 49.2005C127.525 54.4987 126.469 56.4338 122.565 59.4207Z" fill="white"/>
<path d="M133.513 73.9696C128.324 70.1551 126.201 66.9493 122.565 59.4207M133.513 73.9696C129.105 80.8116 102.092 98.4991 96.3411 99.2705C94.2011 93.9058 92.3593 91.3404 88.2192 87.3377C88.2192 87.3377 85.9664 86.0772 82.5332 86.6679C75.4667 87.2373 70.3597 85.1754 66.4289 76.3267C64.0219 70.2834 67.3997 63.0631 75.1272 58.882C75.1272 58.882 73.59 49.4517 81.1177 42.5819C93.1836 33.6709 100.862 41.3659 100.862 41.3659C100.862 41.3659 101.068 38.0827 107.036 35.0684C116.35 30.8239 123.617 37.4021 123.617 37.4021C127.075 40.5074 129.426 44.2402 128.858 49.2005C127.525 54.4987 126.469 56.4338 122.565 59.4207M133.513 73.9696C119.29 77.2897 111.167 84.1597 102.353 92.7343M122.565 59.4207C110.216 60.7109 104.133 65.0856 93.9385 75.7619" stroke="black" stroke-width="1.7"/>
<ellipse cx="159.779" cy="147.71" rx="76.2451" ry="76.2452" fill="#E31616"/>
<path d="M235.174 147.71C235.174 189.35 201.419 223.105 159.779 223.105C118.14 223.105 84.3842 189.35 84.3842 147.71C84.3842 106.07 118.14 72.3148 159.779 72.3148C201.419 72.3148 235.174 106.07 235.174 147.71Z" stroke="black" stroke-opacity="0.5" stroke-width="1.7"/>
<ellipse cx="159.695" cy="147.285" rx="51.0001" ry="51.0001" fill="#FAB3B3"/>
<path d="M174.313 220.81C171.592 222.51 153.657 222.51 151.872 221.83C151.806 221.792 162.492 217.436 163.35 216.73C175.25 209.76 181.03 201.26 182.9 192.25L190.295 162.84L210.608 146.01C211.713 162.415 202.359 199.799 174.313 220.81Z" fill="#FAB3B3"/>
<path d="M158.93 127.226C181.795 125.696 190.768 141.166 192.42 147.031C198.54 164.796 187.15 192.421 178.565 202.876L156.55 199.004L131.135 193.696C130.88 189.956 139.097 194.326 142.61 193.919C166.608 191.136 175.956 167.27 168.875 151.026C168.875 151.026 164.795 162.84 155.7 165.731C152.64 166.666 138.615 166.836 137.425 151.026C137.425 131.816 155.53 127.481 158.93 127.226Z" fill="#E31616"/>
<ellipse cx="128.874" cy="146.088" rx="6.57948" ry="13.253" fill="black"/>
<ellipse cx="201.056" cy="146.088" rx="6.57948" ry="13.253" fill="black"/>
<path d="M179.84 157.655C179.84 157.655 178.65 169.13 174.315 169.13C169.98 169.13 165.39 162.245 165.39 162.245C165.39 162.245 162.585 169.13 157.315 169.13C152.045 169.13 150.6 157.655 150.6 157.655" stroke="black" stroke-width="2.55" stroke-linecap="round"/>
</svg>
