<svg width="300" height="300" viewBox="0 0 300 300" fill="none" xmlns="http://www.w3.org/2000/svg">
<circle cx="150" cy="150" r="145" fill="#C0ADD2" stroke="#9478AF" stroke-width="10"/>
<path d="M115.745 242.087L133.716 221.23L125.662 216.422L101.079 241.005L116.045 255.971C116.045 255.971 122.356 262.282 124.58 254.769C125.301 246.715 115.745 242.087 115.745 242.087Z" fill="white" stroke="black" stroke-opacity="0.5" stroke-width="1.7" stroke-linecap="round"/>
<path d="M175.552 243.284L166.476 217.293L158.285 221.864L167.283 255.444L187.726 249.966C187.726 249.966 196.347 247.656 190.953 241.974C184.338 237.322 175.552 243.284 175.552 243.284Z" fill="white" stroke="black" stroke-opacity="0.5" stroke-width="1.7" stroke-linecap="round"/>
<path d="M78.3847 55.1692C92.4947 50.4092 205.545 51.5139 214.385 55.1692C225.649 121.558 224.694 158.781 214.385 225.169C202.337 232.08 86.8369 231.375 78.3847 225.169C69.6223 164.224 68.3291 127.883 75.8992 72.1692C76.6419 66.7029 77.47 61.0501 78.3847 55.1692Z" fill="#FFC700"/>
<path d="M76.3447 73.4444H95.6397M216.765 73.4444H195.6M95.6397 73.4444L99.9747 53.0443M95.6397 73.4444H126.835M126.835 73.4444L128.195 52.1943M126.835 73.4444H161.685M161.685 73.4444L158.71 52.1943M161.685 73.4444H195.6M195.6 73.4444L189.055 52.7893" stroke="#C6966B" stroke-opacity="0.6" stroke-width="1.7"/>
<path d="M76.4297 208.679H95.7247M216.85 208.679H195.685M95.7247 208.679L99.7197 228.059M95.7247 208.679H126.92M126.92 208.679L128.28 229.929M126.92 208.679H161.77M161.77 208.679L158.795 229.929M161.77 208.679H195.685M195.685 208.679L192.752 218.666L189.82 228.654" stroke="#C6966B" stroke-opacity="0.6" stroke-width="1.7"/>
<g filter="url(#filter0_d_2562_6492)">
<path d="M184.717 178.812C184.282 181.226 183.21 184.878 181.773 188.287C181.055 189.991 180.249 191.628 179.39 193.015C178.529 194.407 177.627 195.528 176.724 196.222C174.322 198.066 172.145 199.118 169.736 199.565C167.319 200.013 164.642 199.858 161.226 199.241C158.197 198.694 156.437 198.365 155.009 197.657C153.598 196.958 152.49 195.876 150.822 193.748C149.107 191.562 147.982 189.68 147.404 187.663C146.827 185.649 146.786 183.471 147.29 180.679C147.785 177.937 149.427 175.247 151.561 172.867C153.691 170.491 156.289 168.448 158.652 167.003C159.848 166.272 160.785 165.384 161.606 164.493C161.963 164.105 162.301 163.714 162.628 163.337C162.676 163.281 162.724 163.226 162.771 163.171C163.144 162.741 163.504 162.33 163.872 161.952C164.609 161.195 165.366 160.582 166.287 160.217C167.203 159.855 168.31 159.728 169.763 159.99C175.844 161.088 180.058 163.085 182.513 166.128C184.959 169.16 185.713 173.299 184.717 178.812Z" fill="#C6966B" stroke="#AD7543" stroke-width="0.68"/>
<path d="M172.548 183.204C169.484 183.605 168.559 183.84 166.625 185.429C164.691 187.017 164.247 189.112 164.031 190.676M168.485 166.002C168.485 166.002 170.653 167.943 172.894 166.798C175.135 165.652 174.843 164.05 174.843 164.05M162.322 167.408C163.757 169.404 163.862 170.447 163.104 172.199" stroke="#AD7543" stroke-opacity="0.6" stroke-width="0.85" stroke-linecap="round"/>
</g>
<g filter="url(#filter1_di_2562_6492)">
<path d="M129.511 176.619C131.656 169.472 136.855 166.819 139.234 174.423C142.084 186.991 159.49 190.223 157.959 193.098C155.474 197.891 145.535 197.374 139.234 195.419C132.933 193.464 126.291 184.935 129.511 176.619Z" fill="#FBE8A4"/>
<path d="M129.67 176.68L129.67 176.68L129.674 176.668C130.206 174.895 130.926 173.408 131.738 172.291C132.553 171.173 133.451 170.439 134.337 170.151C135.213 169.866 136.093 170.011 136.905 170.684C137.724 171.363 138.48 172.586 139.07 174.468C140.513 180.82 145.63 184.799 150.151 187.541C151.283 188.227 152.381 188.837 153.376 189.388C153.433 189.419 153.489 189.45 153.544 189.481C154.473 189.995 155.305 190.455 155.991 190.879C156.72 191.33 157.266 191.73 157.582 192.097C157.74 192.279 157.832 192.443 157.867 192.592C157.902 192.736 157.886 192.875 157.809 193.018L157.809 193.018L157.808 193.02C156.611 195.33 153.591 196.395 150.017 196.619C146.458 196.843 142.419 196.229 139.285 195.257C136.179 194.293 132.975 191.703 130.948 188.317C128.923 184.935 128.083 180.779 129.67 176.68Z" stroke="#AD7543" stroke-opacity="0.6" stroke-width="0.34"/>
</g>
<g filter="url(#filter2_d_2562_6492)">
<g filter="url(#filter3_i_2562_6492)">
<path d="M146.269 191.466C149.505 198.189 147.455 203.655 140.571 199.644C129.991 192.285 114.959 201.637 114.15 198.482C112.753 193.267 118.571 187.176 127.146 184.879C135.721 182.581 144.534 187.666 146.269 191.466Z" fill="#FBE8A4"/>
</g>
<path d="M146.115 191.537L146.115 191.537L146.116 191.54C146.919 193.207 147.391 194.791 147.543 196.163C147.696 197.538 147.528 198.686 147.067 199.496C146.613 200.297 145.865 200.783 144.812 200.834C143.75 200.885 142.366 200.492 140.662 199.5C135.313 195.783 128.851 196.295 123.664 197.32C122.365 197.577 121.143 197.866 120.036 198.131C119.974 198.146 119.912 198.161 119.85 198.175C118.817 198.422 117.892 198.644 117.101 198.793C116.258 198.952 115.585 199.024 115.104 198.967C114.865 198.939 114.686 198.879 114.56 198.793C114.437 198.71 114.355 198.597 114.315 198.44L114.315 198.44L114.315 198.438C113.637 195.91 114.702 193.142 117.032 190.704C119.359 188.268 122.928 186.185 127.19 185.043C131.434 183.906 135.741 184.595 139.207 186.043C140.939 186.766 142.457 187.678 143.648 188.643C144.841 189.609 145.696 190.619 146.115 191.537Z" stroke="#AD7543" stroke-opacity="0.6" stroke-width="0.34"/>
<path d="M114.851 198.469C129.01 191.624 136.228 192.144 145.072 200.579" stroke="#AD7543" stroke-opacity="0.6" stroke-width="0.34" stroke-linecap="round"/>
</g>
<ellipse cx="115.82" cy="89.1611" rx="6.57947" ry="13.2529" fill="black"/>
<ellipse cx="177.291" cy="89.1611" rx="6.57947" ry="13.2529" fill="black"/>
<path d="M158.71 99.8025C154.234 102.69 151.218 102.928 145.269 101.807C137.961 99.5176 134.57 94.4395 134.57 94.4395" stroke="black" stroke-width="1.87" stroke-linecap="round"/>
<path d="M265.598 128.358C263.489 129.576 249.169 136.81 241.09 140.658C236.632 142.782 209.867 132.343 208.787 132.488C204.166 132.267 222.504 125.1 222.504 125.1C222.504 125.1 234.754 130.887 238.302 128.759C241.331 126.942 249.226 122.017 251.742 119.858C254.465 117.522 256.65 115.485 257.787 114.829C261.205 112.856 263.248 113.32 264.071 113.705C264.893 114.09 265.178 114.311 265.907 115.333C266.636 116.355 267.218 116.816 267.776 117.924C268.234 118.832 268.485 119.292 269.002 120.168C269.392 121.043 269.606 122.234 269.547 123.19C269.487 124.146 268.871 126.468 265.598 128.358Z" fill="white"/>
<path d="M222.04 126.198C222.212 126.129 222.359 126.071 222.477 126.024C222.54 126.053 222.61 126.084 222.688 126.12C223.035 126.276 223.533 126.496 224.142 126.754C225.358 127.268 227.021 127.934 228.801 128.533C230.575 129.13 232.493 129.672 234.213 129.926C235.073 130.053 235.907 130.112 236.662 130.061C237.41 130.01 238.137 129.849 238.739 129.488C240.262 128.574 243.001 126.884 245.677 125.15C248.334 123.428 250.987 121.627 252.296 120.503C252.98 119.916 253.63 119.349 254.235 118.819L254.372 118.699C254.926 118.214 255.441 117.764 255.913 117.359C256.955 116.464 257.725 115.846 258.212 115.565C261.431 113.707 263.18 114.226 263.71 114.475C264.102 114.658 264.292 114.77 264.465 114.921C264.651 115.083 264.856 115.324 265.215 115.826C265.497 116.222 265.771 116.554 266.007 116.84C266.091 116.941 266.17 117.037 266.243 117.128C266.528 117.483 266.774 117.824 267.017 118.306C267.475 119.216 267.735 119.692 268.244 120.556C268.566 121.303 268.748 122.333 268.698 123.137C268.656 123.818 268.192 125.879 265.173 127.622C263.097 128.821 248.806 136.041 240.725 139.891C240.383 140.054 239.673 140.144 238.526 140.063C237.423 139.985 236.051 139.761 234.493 139.426C231.379 138.757 227.612 137.665 223.927 136.505C220.58 135.45 217.319 134.344 214.699 133.456C214.438 133.367 214.183 133.281 213.936 133.197C212.572 132.735 211.412 132.345 210.559 132.074C210.219 131.967 209.921 131.876 209.674 131.806C210.712 131.162 212.4 130.331 214.264 129.485C216.254 128.582 218.391 127.683 220.033 127.01C220.854 126.673 221.549 126.394 222.04 126.198Z" stroke="black" stroke-opacity="0.5" stroke-width="1.7" stroke-linecap="round" stroke-linejoin="round"/>
<path d="M72.2657 104.47H221.016C222.449 124.016 222.761 135.119 222.036 155.3L71.2457 156.32C70.644 135.565 70.8495 124.205 72.2657 104.47Z" fill="#E31616"/>
<path d="M67.7664 181.424C66.8225 179.178 58.1572 164.817 55.3517 156.319C53.8032 151.63 70.7984 125.633 70.7905 124.543C71.5888 119.986 76.4004 139.078 76.4004 139.078C76.4004 139.078 66.0997 152.532 67.7664 156.319C69.1894 159.552 76.1094 165.976 77.9363 168.743C79.9127 171.736 81.6594 174.16 82.168 175.37C83.6975 179.009 82.9811 180.977 82.4958 181.745C82.0105 182.513 81.7555 182.768 80.6505 183.363C79.5455 183.958 79.015 184.478 77.8455 184.893C76.8871 185.233 76.399 185.424 75.4655 185.828C74.5482 186.104 73.3405 186.168 72.3993 185.989C71.4581 185.81 69.2311 184.908 67.7664 181.424Z" fill="white"/>
<path d="M75.3694 138.48C75.4106 138.639 75.4463 138.777 75.4758 138.892C75.4188 138.968 75.3527 139.057 75.2784 139.157C74.9972 139.536 74.598 140.081 74.1244 140.746C73.1782 142.076 71.9314 143.893 70.735 145.832C69.5422 147.766 68.3826 149.849 67.6252 151.707C67.2468 152.635 66.9569 153.535 66.8205 154.351C66.6867 155.151 66.6832 155.968 66.9884 156.662C67.3914 157.577 68.1506 158.657 69.0343 159.765C69.9294 160.888 70.9999 162.096 72.0702 163.277C72.4867 163.736 72.9012 164.189 73.3064 164.632C73.9515 165.336 74.5732 166.016 75.1419 166.654C76.072 167.698 76.8083 168.577 77.2269 169.211C77.7235 169.963 78.2052 170.679 78.6549 171.346L78.7566 171.497C79.1683 172.108 79.5504 172.675 79.8933 173.194C80.6504 174.34 81.1665 175.181 81.3844 175.699C82.8249 179.126 82.0902 180.796 81.7773 181.291C81.546 181.657 81.4117 181.831 81.2398 181.984C81.0562 182.148 80.791 182.322 80.2475 182.614C79.8193 182.845 79.4561 183.075 79.143 183.273C79.0316 183.343 78.9265 183.41 78.8271 183.471C78.4398 183.709 78.0705 183.911 77.5612 184.092C76.6013 184.432 76.0963 184.63 75.1756 185.027C74.3938 185.253 73.3495 185.304 72.5577 185.154C71.8873 185.027 69.9007 184.308 68.55 181.094C68.2916 180.48 67.5415 179.107 66.5674 177.339C66.4345 177.097 66.2968 176.848 66.1549 176.59C65.239 174.93 64.1448 172.946 63.0069 170.815C60.3699 165.879 57.5358 160.223 56.1588 156.053C56.1127 155.913 56.0824 155.666 56.1167 155.276C56.1502 154.895 56.2408 154.427 56.3909 153.876C56.6914 152.773 57.2092 151.412 57.8894 149.873C59.248 146.797 61.2109 143.102 63.2346 139.497C65.0158 136.325 66.8343 133.239 68.3154 130.725C68.5155 130.386 68.7094 130.057 68.8963 129.739C69.6794 128.409 70.3415 127.278 70.8078 126.444C71.0236 126.058 71.2029 125.726 71.3345 125.462C71.8479 126.569 72.4685 128.37 73.0829 130.353C73.7299 132.44 74.3532 134.673 74.8155 136.387C75.0464 137.243 75.2368 137.969 75.3694 138.48Z" stroke="black" stroke-opacity="0.5" stroke-width="1.7" stroke-linecap="round" stroke-linejoin="round"/>
<path d="M115.591 135.624C115.591 136.476 115.378 137.401 114.952 138.399C114.538 139.386 113.88 140.36 112.979 141.321C112.078 142.271 110.928 143.044 109.528 143.641C108.128 144.237 106.496 144.535 104.634 144.535C103.221 144.535 101.937 144.401 100.78 144.134C99.6239 143.866 98.5708 143.452 97.6212 142.892C96.6838 142.32 95.8194 141.571 95.028 140.646C94.3219 139.806 93.7193 138.868 93.2201 137.833C92.721 136.786 92.3436 135.672 92.0879 134.491C91.8444 133.31 91.7227 132.057 91.7227 130.73C91.7227 128.575 92.0331 126.645 92.654 124.941C93.2871 123.236 94.188 121.781 95.3567 120.576C96.5255 119.359 97.8951 118.433 99.4656 117.8C101.036 117.167 102.71 116.851 104.488 116.851C106.655 116.851 108.584 117.283 110.277 118.147C111.969 119.012 113.265 120.083 114.166 121.361C115.067 122.627 115.518 123.827 115.518 124.959C115.518 125.58 115.299 126.128 114.86 126.602C114.422 127.077 113.892 127.315 113.271 127.315C112.578 127.315 112.054 127.15 111.701 126.821C111.36 126.493 110.977 125.927 110.55 125.123C109.844 123.796 109.01 122.804 108.049 122.146C107.099 121.489 105.924 121.16 104.524 121.16C102.296 121.16 100.519 122.006 99.1917 123.699C97.8769 125.391 97.2194 127.795 97.2194 130.912C97.2194 132.994 97.5116 134.729 98.096 136.117C98.6804 137.492 99.5082 138.521 100.58 139.203C101.651 139.885 102.905 140.226 104.342 140.226C105.9 140.226 107.215 139.842 108.286 139.075C109.37 138.296 110.185 137.158 110.733 135.66C110.964 134.954 111.251 134.382 111.591 133.944C111.932 133.493 112.48 133.268 113.235 133.268C113.88 133.268 114.434 133.493 114.897 133.944C115.359 134.394 115.591 134.954 115.591 135.624Z" fill="white"/>
<path d="M125.927 120.138V127.808H137.633V120.138C137.633 119.042 137.876 118.22 138.363 117.672C138.862 117.125 139.514 116.851 140.317 116.851C141.133 116.851 141.79 117.125 142.289 117.672C142.801 118.208 143.056 119.03 143.056 120.138V141.23C143.056 142.338 142.801 143.166 142.289 143.714C141.778 144.261 141.121 144.535 140.317 144.535C139.501 144.535 138.85 144.261 138.363 143.714C137.876 143.154 137.633 142.326 137.633 141.23V132.227H125.927V141.23C125.927 142.338 125.671 143.166 125.16 143.714C124.649 144.261 123.991 144.535 123.188 144.535C122.372 144.535 121.721 144.261 121.234 143.714C120.747 143.154 120.503 142.326 120.503 141.23V120.138C120.503 119.042 120.741 118.22 121.215 117.672C121.702 117.125 122.36 116.851 123.188 116.851C124.003 116.851 124.661 117.125 125.16 117.672C125.671 118.208 125.927 119.03 125.927 120.138Z" fill="white"/>
<path d="M149.101 141.23V120.138C149.101 119.042 149.351 118.22 149.85 117.672C150.349 117.125 150.994 116.851 151.785 116.851C152.601 116.851 153.259 117.125 153.758 117.672C154.269 118.208 154.525 119.03 154.525 120.138V141.23C154.525 142.338 154.269 143.166 153.758 143.714C153.259 144.261 152.601 144.535 151.785 144.535C151.006 144.535 150.361 144.261 149.85 143.714C149.351 143.154 149.101 142.326 149.101 141.23Z" fill="white"/>
<path d="M170.997 133.651H166.03V141.23C166.03 142.314 165.774 143.135 165.263 143.695C164.751 144.255 164.106 144.535 163.327 144.535C162.511 144.535 161.854 144.261 161.355 143.714C160.855 143.154 160.606 142.338 160.606 141.267V120.631C160.606 119.438 160.88 118.585 161.428 118.074C161.975 117.563 162.846 117.307 164.039 117.307H170.997C173.054 117.307 174.637 117.465 175.745 117.782C176.841 118.086 177.784 118.592 178.575 119.298C179.379 120.004 179.988 120.868 180.402 121.891C180.815 122.913 181.022 124.064 181.022 125.342C181.022 128.069 180.182 130.139 178.502 131.551C176.822 132.951 174.32 133.651 170.997 133.651ZM169.682 121.379H166.03V129.561H169.682C170.96 129.561 172.026 129.427 172.878 129.159C173.742 128.891 174.4 128.453 174.85 127.844C175.3 127.235 175.526 126.438 175.526 125.452C175.526 124.271 175.179 123.309 174.485 122.567C173.706 121.775 172.105 121.379 169.682 121.379Z" fill="white"/>
<path d="M205.895 136.044C205.895 137.663 205.475 139.118 204.635 140.408C203.807 141.699 202.59 142.709 200.983 143.44C199.375 144.17 197.47 144.535 195.267 144.535C192.625 144.535 190.446 144.036 188.729 143.038C187.511 142.32 186.519 141.364 185.752 140.171C184.997 138.966 184.62 137.797 184.62 136.665C184.62 136.007 184.845 135.447 185.296 134.984C185.758 134.51 186.343 134.272 187.049 134.272C187.621 134.272 188.102 134.455 188.492 134.82C188.893 135.185 189.234 135.727 189.514 136.445C189.855 137.298 190.22 138.01 190.61 138.582C191.012 139.154 191.572 139.629 192.29 140.006C193.008 140.372 193.952 140.554 195.121 140.554C196.728 140.554 198.03 140.183 199.029 139.44C200.039 138.686 200.544 137.748 200.544 136.628C200.544 135.739 200.27 135.021 199.722 134.473C199.187 133.913 198.487 133.487 197.622 133.195C196.77 132.903 195.626 132.592 194.189 132.263C192.266 131.813 190.652 131.29 189.35 130.693C188.059 130.084 187.031 129.262 186.264 128.228C185.509 127.181 185.131 125.884 185.131 124.338C185.131 122.865 185.533 121.556 186.337 120.412C187.14 119.267 188.303 118.391 189.825 117.782C191.346 117.161 193.136 116.851 195.194 116.851C196.837 116.851 198.255 117.058 199.449 117.471C200.654 117.873 201.652 118.415 202.443 119.097C203.235 119.766 203.813 120.472 204.178 121.215C204.544 121.958 204.726 122.682 204.726 123.388C204.726 124.034 204.495 124.618 204.032 125.141C203.582 125.653 203.016 125.908 202.334 125.908C201.713 125.908 201.238 125.756 200.909 125.452C200.593 125.135 200.246 124.624 199.869 123.918C199.382 122.907 198.797 122.122 198.115 121.562C197.434 120.99 196.338 120.704 194.828 120.704C193.428 120.704 192.296 121.014 191.432 121.635C190.579 122.244 190.153 122.98 190.153 123.845C190.153 124.381 190.299 124.843 190.592 125.233C190.884 125.622 191.286 125.957 191.797 126.237C192.308 126.517 192.826 126.736 193.349 126.895C193.873 127.053 194.737 127.284 195.942 127.588C197.452 127.942 198.815 128.331 200.033 128.757C201.263 129.183 202.303 129.701 203.156 130.309C204.02 130.918 204.69 131.691 205.164 132.629C205.651 133.554 205.895 134.692 205.895 136.044Z" fill="white"/>
<defs>
<filter id="filter0_d_2562_6492" x="146.6" y="159.511" width="41.2638" height="43.0314" filterUnits="userSpaceOnUse" color-interpolation-filters="sRGB">
<feFlood flood-opacity="0" result="BackgroundImageFix"/>
<feColorMatrix in="SourceAlpha" type="matrix" values="0 0 0 0 0 0 0 0 0 0 0 0 0 0 0 0 0 0 127 0" result="hardAlpha"/>
<feOffset dx="1.7" dy="1.7"/>
<feGaussianBlur stdDeviation="0.34"/>
<feComposite in2="hardAlpha" operator="out"/>
<feColorMatrix type="matrix" values="0 0 0 0 0 0 0 0 0 0 0 0 0 0 0 0 0 0 0.25 0"/>
<feBlend mode="normal" in2="BackgroundImageFix" result="effect1_dropShadow_2562_6492"/>
<feBlend mode="normal" in="SourceGraphic" in2="effect1_dropShadow_2562_6492" result="shape"/>
</filter>
<filter id="filter1_di_2562_6492" x="128.672" y="169.163" width="31.7628" height="30.0532" filterUnits="userSpaceOnUse" color-interpolation-filters="sRGB">
<feFlood flood-opacity="0" result="BackgroundImageFix"/>
<feColorMatrix in="SourceAlpha" type="matrix" values="0 0 0 0 0 0 0 0 0 0 0 0 0 0 0 0 0 0 127 0" result="hardAlpha"/>
<feOffset dx="1.7" dy="1.7"/>
<feGaussianBlur stdDeviation="0.34"/>
<feComposite in2="hardAlpha" operator="out"/>
<feColorMatrix type="matrix" values="0 0 0 0 0 0 0 0 0 0 0 0 0 0 0 0 0 0 0.25 0"/>
<feBlend mode="normal" in2="BackgroundImageFix" result="effect1_dropShadow_2562_6492"/>
<feBlend mode="normal" in="SourceGraphic" in2="effect1_dropShadow_2562_6492" result="shape"/>
<feColorMatrix in="SourceAlpha" type="matrix" values="0 0 0 0 0 0 0 0 0 0 0 0 0 0 0 0 0 0 127 0" result="hardAlpha"/>
<feOffset dy="-0.68"/>
<feGaussianBlur stdDeviation="0.85"/>
<feComposite in2="hardAlpha" operator="arithmetic" k2="-1" k3="1"/>
<feColorMatrix type="matrix" values="0 0 0 0 0 0 0 0 0 0 0 0 0 0 0 0 0 0 0.25 0"/>
<feBlend mode="normal" in2="shape" result="effect2_innerShadow_2562_6492"/>
</filter>
<filter id="filter2_d_2562_6492" x="113.943" y="184.305" width="36.2052" height="19.0831" filterUnits="userSpaceOnUse" color-interpolation-filters="sRGB">
<feFlood flood-opacity="0" result="BackgroundImageFix"/>
<feColorMatrix in="SourceAlpha" type="matrix" values="0 0 0 0 0 0 0 0 0 0 0 0 0 0 0 0 0 0 127 0" result="hardAlpha"/>
<feOffset dx="1.7" dy="1.7"/>
<feGaussianBlur stdDeviation="0.34"/>
<feComposite in2="hardAlpha" operator="out"/>
<feColorMatrix type="matrix" values="0 0 0 0 0 0 0 0 0 0 0 0 0 0 0 0 0 0 0.25 0"/>
<feBlend mode="normal" in2="BackgroundImageFix" result="effect1_dropShadow_2562_6492"/>
<feBlend mode="normal" in="SourceGraphic" in2="effect1_dropShadow_2562_6492" result="shape"/>
</filter>
<filter id="filter3_i_2562_6492" x="113.943" y="183.625" width="33.8252" height="17.3831" filterUnits="userSpaceOnUse" color-interpolation-filters="sRGB">
<feFlood flood-opacity="0" result="BackgroundImageFix"/>
<feBlend mode="normal" in="SourceGraphic" in2="BackgroundImageFix" result="shape"/>
<feColorMatrix in="SourceAlpha" type="matrix" values="0 0 0 0 0 0 0 0 0 0 0 0 0 0 0 0 0 0 127 0" result="hardAlpha"/>
<feOffset dy="-0.68"/>
<feGaussianBlur stdDeviation="0.85"/>
<feComposite in2="hardAlpha" operator="arithmetic" k2="-1" k3="1"/>
<feColorMatrix type="matrix" values="0 0 0 0 0 0 0 0 0 0 0 0 0 0 0 0 0 0 0.25 0"/>
<feBlend mode="normal" in2="shape" result="effect1_innerShadow_2562_6492"/>
</filter>
</defs>
</svg>
