<svg width="300" height="300" viewBox="0 0 300 300" fill="none" xmlns="http://www.w3.org/2000/svg">
<circle cx="150" cy="150" r="145" fill="#FBE8A4" stroke="#FFBA33" stroke-width="10"/>
<g filter="url(#filter0_d_2562_6487)">
<path d="M51.3091 151.754C51.3091 151.754 35.7091 141.854 33.0841 129.704C30.4591 117.554 31.0591 103.304 31.0591 103.304M253.659 151.754C253.659 151.754 263.559 143.129 266.634 131.504C269.709 119.879 269.634 109.379 269.634 109.379M114.909 221.804L107.709 244.229H91.059M188.634 221.804L195.084 244.229H213.909" stroke="black" stroke-width="6.3" stroke-linecap="round"/>
</g>
<g filter="url(#filter1_i_2562_6487)">
<path d="M246.984 196.692C246.984 208.94 241.659 224.204 152.334 223.304C63.0088 222.404 57.3838 208.94 57.3838 196.692C57.3838 184.444 70.2088 171.374 149.559 171.029C228.909 170.683 246.984 184.444 246.984 196.692Z" fill="#FF9900"/>
</g>
<path d="M246.234 196.692C246.234 199.702 245.904 202.79 244.114 205.756C242.325 208.72 239.016 211.66 232.866 214.237C220.523 219.406 196.998 223.004 152.341 222.554C107.681 222.104 84.0692 218.509 71.6395 213.557C65.4422 211.087 62.1003 208.309 60.2897 205.486C58.4811 202.665 58.1338 199.699 58.1338 196.692C58.1338 193.775 58.8917 190.839 61.2055 188.041C63.5342 185.226 67.4849 182.495 73.9746 180.101C86.9696 175.307 109.902 171.952 149.562 171.779C189.213 171.606 213.468 174.961 227.785 179.848C242.114 184.739 246.234 191.055 246.234 196.692Z" stroke="#B15500" stroke-width="1.5"/>
<g filter="url(#filter2_i_2562_6487)">
<path d="M53.0342 186.029C53.1092 182.654 64.6592 180.179 64.6592 180.179H236.934C241.583 181.237 244.251 181.154 248.559 186.029C247.659 189.029 242.709 189.554 240.984 191.804L242.709 196.229C242.709 196.229 239.109 201.704 236.934 201.704C234.759 201.704 224.289 198.629 222.909 198.629C221.529 198.629 217.084 200.679 215.034 201.704C215.034 201.704 211.209 206.504 206.484 209.579C201.759 212.654 191.784 212.354 183.609 211.304C175.434 210.254 170.259 206.504 170.259 206.504C170.259 206.504 166.434 203.654 163.134 203.129C159.834 202.604 144.309 206.504 144.309 206.504L126.159 211.304C126.159 211.304 117.984 213.479 110.409 211.304C102.834 209.129 104.259 207.179 99.5342 201.704C94.8092 196.229 79.6592 191.804 79.6592 191.804C79.6592 191.804 77.0342 196.754 66.6842 196.229C56.3342 195.704 53.0342 186.029 53.0342 186.029Z" fill="#67E73A"/>
</g>
<path d="M53.0342 186.029C53.1092 182.654 64.6592 180.179 64.6592 180.179H236.934C241.583 181.237 244.251 181.154 248.559 186.029C247.659 189.029 242.709 189.554 240.984 191.804L242.709 196.229C242.709 196.229 239.109 201.704 236.934 201.704C234.759 201.704 224.289 198.629 222.909 198.629C221.529 198.629 217.084 200.679 215.034 201.704C215.034 201.704 211.209 206.504 206.484 209.579C201.759 212.654 191.784 212.354 183.609 211.304C175.434 210.254 170.259 206.504 170.259 206.504C170.259 206.504 166.434 203.654 163.134 203.129C159.834 202.604 144.309 206.504 144.309 206.504L126.159 211.304C126.159 211.304 117.984 213.479 110.409 211.304C102.834 209.129 104.259 207.179 99.5342 201.704C94.8092 196.229 79.6592 191.804 79.6592 191.804C79.6592 191.804 77.0342 196.754 66.6842 196.229C56.3342 195.704 53.0342 186.029 53.0342 186.029Z" stroke="#2B870B" stroke-width="0.3"/>
<g filter="url(#filter3_i_2562_6487)">
<path d="M66.6955 124.401C88.6419 105.941 204.892 106.605 234.818 124.401C264.744 142.196 255.3 180.577 234.818 191.734C214.336 202.89 87.9761 205.877 66.6955 191.734C45.4148 177.59 44.7491 142.861 66.6955 124.401Z" fill="#B15500"/>
</g>
<g filter="url(#filter4_i_2562_6487)">
<path d="M68.5594 115.978L209.859 91.5285C209.859 91.5285 246.684 134.728 241.584 144.554C238.959 146.578 218.055 144.713 185.709 144.554C155.513 144.405 110.886 149.402 103.209 157.079C98.8572 161.43 88.6593 175.711 87.3843 153.553C83.6341 144.554 79.8841 139.529 67.2842 137.204C60.3654 128.609 68.5594 115.978 68.5594 115.978Z" fill="#FFC700"/>
</g>
<g filter="url(#filter5_d_2562_6487)">
<path d="M129.909 202.828C131.859 203.129 152.484 204.553 152.484 204.553C133.036 209.822 122.841 212.532 118.584 212.578C109.643 212.342 104.709 212.288 100.809 203.428C100.809 203.428 101.034 199.828 103.734 196.903C106.434 193.979 118.584 196.903 118.584 196.903C118.584 196.903 127.959 202.528 129.909 202.828Z" fill="#2B870B"/>
<path d="M129.886 202.977C130.869 203.128 136.522 203.56 141.916 203.953C144.617 204.15 147.256 204.338 149.22 204.476C150.202 204.545 151.015 204.602 151.583 204.641L151.585 204.641C142.282 207.161 135.148 209.077 129.802 210.379C124.289 211.721 120.694 212.405 118.585 212.428C118.516 212.427 118.448 212.425 118.379 212.423C114 212.307 110.626 212.218 107.862 211.098C105.078 209.97 102.897 207.786 100.961 203.402L100.961 203.399C100.963 203.374 100.967 203.335 100.973 203.284C100.984 203.182 101.003 203.033 101.034 202.844C101.096 202.467 101.207 201.932 101.402 201.307C101.791 200.056 102.513 198.447 103.844 197.005C104.478 196.318 105.692 195.956 107.206 195.819C108.711 195.683 110.472 195.773 112.155 195.956C113.837 196.138 115.436 196.411 116.614 196.639C117.204 196.753 117.688 196.856 118.024 196.93C118.192 196.967 118.324 196.997 118.413 197.017L118.514 197.041L118.526 197.044L118.534 197.048L118.612 197.095C118.682 197.137 118.783 197.197 118.914 197.275C119.174 197.429 119.548 197.65 120.003 197.916C120.913 198.449 122.147 199.162 123.442 199.884C124.736 200.607 126.094 201.339 127.25 201.91C127.828 202.196 128.358 202.442 128.805 202.626C129.249 202.809 129.623 202.936 129.886 202.977Z" stroke="#206409" stroke-width="0.3"/>
</g>
<path d="M109.206 200.319C109.228 200.197 109.148 200.08 109.026 200.057C108.903 200.034 108.786 200.115 108.763 200.237L109.206 200.319ZM117.985 212.428C118.115 212.245 118.115 212.245 118.115 212.245C118.115 212.245 118.115 212.245 118.115 212.245C118.115 212.245 118.115 212.245 118.114 212.245C118.114 212.244 118.114 212.244 118.113 212.243C118.112 212.242 118.11 212.241 118.107 212.239C118.101 212.235 118.093 212.229 118.082 212.222C118.061 212.206 118.028 212.183 117.986 212.153C117.901 212.093 117.776 212.003 117.615 211.888C117.293 211.657 116.827 211.322 116.251 210.905C115.098 210.071 113.506 208.91 111.744 207.598L111.475 207.959C113.239 209.272 114.833 210.435 115.987 211.27C116.564 211.687 117.031 212.023 117.353 212.254C117.515 212.369 117.64 212.459 117.725 212.519C117.767 212.55 117.8 212.573 117.821 212.588C117.832 212.596 117.84 212.602 117.846 212.606C117.849 212.608 117.851 212.609 117.852 212.61C117.853 212.611 117.853 212.611 117.854 212.611C117.854 212.611 117.854 212.612 117.854 212.612C117.854 212.612 117.854 212.612 117.854 212.612C117.854 212.612 117.854 212.612 117.985 212.428ZM111.744 207.598C110.047 206.334 109.409 204.526 109.198 203.013C109.093 202.257 109.095 201.581 109.124 201.094C109.138 200.851 109.159 200.655 109.176 200.521C109.185 200.455 109.192 200.403 109.198 200.369C109.2 200.352 109.203 200.339 109.204 200.33C109.205 200.326 109.205 200.323 109.206 200.321C109.206 200.32 109.206 200.32 109.206 200.319C109.206 200.319 109.206 200.319 109.206 200.319C109.206 200.319 109.206 200.319 109.206 200.319C109.206 200.319 109.206 200.319 108.985 200.278C108.763 200.237 108.763 200.238 108.763 200.238C108.763 200.238 108.763 200.238 108.763 200.238C108.763 200.238 108.763 200.239 108.763 200.239C108.763 200.24 108.763 200.241 108.763 200.242C108.762 200.245 108.761 200.249 108.76 200.254C108.759 200.265 108.756 200.279 108.753 200.299C108.747 200.337 108.739 200.393 108.73 200.464C108.711 200.607 108.689 200.813 108.675 201.068C108.645 201.577 108.642 202.284 108.752 203.075C108.973 204.656 109.647 206.597 111.475 207.959L111.744 207.598Z" fill="#206409"/>
<g filter="url(#filter6_d_2562_6487)">
<path d="M191.634 209.278C189.609 210.328 178.209 210.103 178.209 210.103C187.596 212.222 198.384 212.653 203.259 211.153C208.134 209.653 209.993 207.388 213.159 203.953C213.159 203.953 209.409 204.253 208.659 203.953C207.909 203.653 206.784 202.903 204.984 202.603C203.184 202.303 199.959 202.003 197.784 203.953C195.609 205.903 193.659 208.228 191.634 209.278Z" fill="#2B870B"/>
<path d="M191.634 209.278C189.609 210.328 178.209 210.103 178.209 210.103C187.596 212.222 198.384 212.653 203.259 211.153C208.134 209.653 209.993 207.388 213.159 203.953C213.159 203.953 209.409 204.253 208.659 203.953C207.909 203.653 206.784 202.903 204.984 202.603C203.184 202.303 199.959 202.003 197.784 203.953C195.609 205.903 193.659 208.228 191.634 209.278Z" stroke="#206409" stroke-width="0.3"/>
</g>
<path d="M144.67 161.003C144.741 154.045 138.63 145.864 136.434 141.253H158.398H180.362C180.362 141.253 188.458 148.422 190.57 155.802C192.682 163.182 195.063 174.411 189.009 183.478C182.954 192.545 174.308 195.865 163.607 195.021C152.907 194.178 148.753 192.842 142.769 185.181C136.786 177.52 144.6 167.961 144.67 161.003Z" fill="#E31616"/>
<path d="M158.398 141.253H180.362C180.362 141.253 188.458 148.422 190.57 155.802C192.682 163.182 195.063 174.411 189.009 183.478C182.954 192.545 174.308 195.865 163.607 195.021C152.907 194.178 148.753 192.842 142.769 185.181C136.786 177.52 144.6 167.961 144.67 161.003C144.741 154.045 138.63 145.864 136.434 141.253H158.398ZM158.398 141.253C158.398 141.253 167.761 153.272 167.761 161.003C167.761 168.735 165.719 172.881 165.719 172.881" stroke="#911010" stroke-width="1.35"/>
<g filter="url(#filter7_i_2562_6487)">
<path d="M246.984 115.378C244.359 138.553 204.54 144.253 152.184 144.253C99.8272 144.253 60.6838 138.553 57.3838 115.378C57.3838 99.431 72.8338 55.4533 152.184 55.0034C231.534 54.5534 246.984 99.431 246.984 115.378Z" fill="#FF9900"/>
</g>
<path d="M246.234 115.336C244.958 126.387 234.816 133.473 218.047 137.78C201.317 142.077 178.353 143.503 152.184 143.503C126.015 143.503 103.22 142.077 86.575 137.78C69.9046 133.477 59.7386 126.392 58.1339 115.325C58.1511 107.535 61.9482 92.7917 75.5431 79.924C89.154 67.0411 112.654 55.9775 152.188 55.7533C191.717 55.5292 215.213 66.5922 228.822 79.5843C242.423 92.569 246.22 107.545 246.234 115.336Z" stroke="#B15500" stroke-width="1.5"/>
<ellipse cx="120.591" cy="110.872" rx="7.40648" ry="14.9188" fill="black"/>
<ellipse cx="189.788" cy="110.872" rx="7.40648" ry="14.9188" fill="black"/>
<g filter="url(#filter8_d_2562_6487)">
<ellipse cx="109.227" cy="71.398" rx="3.75" ry="1.5" transform="rotate(-30.4858 109.227 71.398)" fill="#FBE8A4"/>
</g>
<g filter="url(#filter9_d_2562_6487)">
<ellipse cx="177.327" cy="67.3487" rx="3.75" ry="1.5" transform="rotate(-37.5414 177.327 67.3487)" fill="#FBE8A4"/>
</g>
<g filter="url(#filter10_d_2562_6487)">
<ellipse cx="177.236" cy="79.7401" rx="3.75" ry="1.5" transform="rotate(-69.814 177.236 79.7401)" fill="#FBE8A4"/>
</g>
<g filter="url(#filter11_d_2562_6487)">
<ellipse cx="140.277" cy="66.7483" rx="3.75" ry="1.5" transform="rotate(20.8145 140.277 66.7483)" fill="#FBE8A4"/>
</g>
<g filter="url(#filter12_d_2562_6487)">
<ellipse cx="160.12" cy="74.1679" rx="3.75" ry="1.5" transform="rotate(50.4505 160.12 74.1679)" fill="#FBE8A4"/>
</g>
<g filter="url(#filter13_d_2562_6487)">
<ellipse cx="195.303" cy="75.3398" rx="3.75" ry="1.5" transform="rotate(-121.05 195.303 75.3398)" fill="#FBE8A4"/>
</g>
<g filter="url(#filter14_d_2562_6487)">
<ellipse cx="124.696" cy="76.9211" rx="3.75" ry="1.5" transform="rotate(-54.1468 124.696 76.9211)" fill="#FBE8A4"/>
</g>
<path d="M65.125 162.325L73.9 169.225M92.125 180.475H99.85M115.675 166.525L119.95 173.125M217.225 165.4L219.1 155.35M229.525 173.125L237.25 169.225M203.275 177.4L208.675 183.925M126.1 157.3L134.575 162.325M203.275 150.325L197.125 155.35M239.575 153.025L244.975 157.3M73.9 151.525H81.85M124.375 190.975L134.575 188.275" stroke="#CF731E" stroke-width="6.3" stroke-linecap="round"/>
<defs>
<filter id="filter0_d_2562_6487" x="27.2496" y="100.153" width="246.135" height="148.426" filterUnits="userSpaceOnUse" color-interpolation-filters="sRGB">
<feFlood flood-opacity="0" result="BackgroundImageFix"/>
<feColorMatrix in="SourceAlpha" type="matrix" values="0 0 0 0 0 0 0 0 0 0 0 0 0 0 0 0 0 0 127 0" result="hardAlpha"/>
<feOffset dy="0.6"/>
<feGaussianBlur stdDeviation="0.3"/>
<feComposite in2="hardAlpha" operator="out"/>
<feColorMatrix type="matrix" values="0 0 0 0 0 0 0 0 0 0 0 0 0 0 0 0 0 0 0.25 0"/>
<feBlend mode="normal" in2="BackgroundImageFix" result="effect1_dropShadow_2562_6487"/>
<feBlend mode="normal" in="SourceGraphic" in2="effect1_dropShadow_2562_6487" result="shape"/>
</filter>
<filter id="filter1_i_2562_6487" x="57.3838" y="168.022" width="189.6" height="55.3193" filterUnits="userSpaceOnUse" color-interpolation-filters="sRGB">
<feFlood flood-opacity="0" result="BackgroundImageFix"/>
<feBlend mode="normal" in="SourceGraphic" in2="BackgroundImageFix" result="shape"/>
<feColorMatrix in="SourceAlpha" type="matrix" values="0 0 0 0 0 0 0 0 0 0 0 0 0 0 0 0 0 0 127 0" result="hardAlpha"/>
<feOffset dy="-7.5"/>
<feGaussianBlur stdDeviation="1.5"/>
<feComposite in2="hardAlpha" operator="arithmetic" k2="-1" k3="1"/>
<feColorMatrix type="matrix" values="0 0 0 0 1 0 0 0 0 1 0 0 0 0 1 0 0 0 0.2 0"/>
<feBlend mode="normal" in2="shape" result="effect1_innerShadow_2562_6487"/>
</filter>
<filter id="filter2_i_2562_6487" x="52.8838" y="177.028" width="195.843" height="35.3916" filterUnits="userSpaceOnUse" color-interpolation-filters="sRGB">
<feFlood flood-opacity="0" result="BackgroundImageFix"/>
<feBlend mode="normal" in="SourceGraphic" in2="BackgroundImageFix" result="shape"/>
<feColorMatrix in="SourceAlpha" type="matrix" values="0 0 0 0 0 0 0 0 0 0 0 0 0 0 0 0 0 0 127 0" result="hardAlpha"/>
<feOffset dy="-3"/>
<feGaussianBlur stdDeviation="3.75"/>
<feComposite in2="hardAlpha" operator="arithmetic" k2="-1" k3="1"/>
<feColorMatrix type="matrix" values="0 0 0 0 0 0 0 0 0 0 0 0 0 0 0 0 0 0 0.25 0"/>
<feBlend mode="normal" in2="shape" result="effect1_innerShadow_2562_6487"/>
</filter>
<filter id="filter3_i_2562_6487" x="50.4844" y="107.804" width="210.9" height="93.4502" filterUnits="userSpaceOnUse" color-interpolation-filters="sRGB">
<feFlood flood-opacity="0" result="BackgroundImageFix"/>
<feBlend mode="normal" in="SourceGraphic" in2="BackgroundImageFix" result="shape"/>
<feColorMatrix in="SourceAlpha" type="matrix" values="0 0 0 0 0 0 0 0 0 0 0 0 0 0 0 0 0 0 127 0" result="hardAlpha"/>
<feOffset dx="7.5" dy="-3"/>
<feGaussianBlur stdDeviation="3.75"/>
<feComposite in2="hardAlpha" operator="arithmetic" k2="-1" k3="1"/>
<feColorMatrix type="matrix" values="0 0 0 0 0 0 0 0 0 0 0 0 0 0 0 0 0 0 0.25 0"/>
<feBlend mode="normal" in2="shape" result="effect1_innerShadow_2562_6487"/>
</filter>
<filter id="filter4_i_2562_6487" x="64.5078" y="90.0283" width="179.061" height="75.5986" filterUnits="userSpaceOnUse" color-interpolation-filters="sRGB">
<feFlood flood-opacity="0" result="BackgroundImageFix"/>
<feBlend mode="normal" in="SourceGraphic" in2="BackgroundImageFix" result="shape"/>
<feColorMatrix in="SourceAlpha" type="matrix" values="0 0 0 0 0 0 0 0 0 0 0 0 0 0 0 0 0 0 127 0" result="hardAlpha"/>
<feOffset dx="1.5" dy="-1.5"/>
<feGaussianBlur stdDeviation="3.75"/>
<feComposite in2="hardAlpha" operator="arithmetic" k2="-1" k3="1"/>
<feColorMatrix type="matrix" values="0 0 0 0 1 0 0 0 0 1 0 0 0 0 1 0 0 0 0.4 0"/>
<feBlend mode="normal" in2="shape" result="effect1_innerShadow_2562_6487"/>
</filter>
<filter id="filter5_d_2562_6487" x="97.8086" y="194.104" width="57.6748" height="22.9746" filterUnits="userSpaceOnUse" color-interpolation-filters="sRGB">
<feFlood flood-opacity="0" result="BackgroundImageFix"/>
<feColorMatrix in="SourceAlpha" type="matrix" values="0 0 0 0 0 0 0 0 0 0 0 0 0 0 0 0 0 0 127 0" result="hardAlpha"/>
<feOffset dy="1.5"/>
<feGaussianBlur stdDeviation="1.5"/>
<feComposite in2="hardAlpha" operator="out"/>
<feColorMatrix type="matrix" values="0 0 0 0 0 0 0 0 0 0 0 0 0 0 0 0 0 0 0.25 0"/>
<feBlend mode="normal" in2="BackgroundImageFix" result="effect1_dropShadow_2562_6487"/>
<feBlend mode="normal" in="SourceGraphic" in2="effect1_dropShadow_2562_6487" result="shape"/>
</filter>
<filter id="filter6_d_2562_6487" x="175.176" y="199.833" width="41.3535" height="15.958" filterUnits="userSpaceOnUse" color-interpolation-filters="sRGB">
<feFlood flood-opacity="0" result="BackgroundImageFix"/>
<feColorMatrix in="SourceAlpha" type="matrix" values="0 0 0 0 0 0 0 0 0 0 0 0 0 0 0 0 0 0 127 0" result="hardAlpha"/>
<feOffset dy="0.6"/>
<feGaussianBlur stdDeviation="1.5"/>
<feComposite in2="hardAlpha" operator="out"/>
<feColorMatrix type="matrix" values="0 0 0 0 0 0 0 0 0 0 0 0 0 0 0 0 0 0 0.25 0"/>
<feBlend mode="normal" in2="BackgroundImageFix" result="effect1_dropShadow_2562_6487"/>
<feBlend mode="normal" in="SourceGraphic" in2="effect1_dropShadow_2562_6487" result="shape"/>
</filter>
<filter id="filter7_i_2562_6487" x="57.3838" y="52" width="189.6" height="92.2529" filterUnits="userSpaceOnUse" color-interpolation-filters="sRGB">
<feFlood flood-opacity="0" result="BackgroundImageFix"/>
<feBlend mode="normal" in="SourceGraphic" in2="BackgroundImageFix" result="shape"/>
<feColorMatrix in="SourceAlpha" type="matrix" values="0 0 0 0 0 0 0 0 0 0 0 0 0 0 0 0 0 0 127 0" result="hardAlpha"/>
<feOffset dy="-7.5"/>
<feGaussianBlur stdDeviation="1.5"/>
<feComposite in2="hardAlpha" operator="arithmetic" k2="-1" k3="1"/>
<feColorMatrix type="matrix" values="0 0 0 0 1 0 0 0 0 1 0 0 0 0 1 0 0 0 0.2 0"/>
<feBlend mode="normal" in2="shape" result="effect1_innerShadow_2562_6487"/>
</filter>
<filter id="filter8_d_2562_6487" x="102.906" y="66.6977" width="12.6416" height="10.6006" filterUnits="userSpaceOnUse" color-interpolation-filters="sRGB">
<feFlood flood-opacity="0" result="BackgroundImageFix"/>
<feColorMatrix in="SourceAlpha" type="matrix" values="0 0 0 0 0 0 0 0 0 0 0 0 0 0 0 0 0 0 127 0" result="hardAlpha"/>
<feOffset dy="0.6"/>
<feGaussianBlur stdDeviation="1.5"/>
<feComposite in2="hardAlpha" operator="out"/>
<feColorMatrix type="matrix" values="0 0 0 0 0 0 0 0 0 0 0 0 0 0 0 0 0 0 0.25 0"/>
<feBlend mode="normal" in2="BackgroundImageFix" result="effect1_dropShadow_2562_6487"/>
<feBlend mode="normal" in="SourceGraphic" in2="effect1_dropShadow_2562_6487" result="shape"/>
</filter>
<filter id="filter9_d_2562_6487" x="171.215" y="62.3725" width="12.2236" height="11.1523" filterUnits="userSpaceOnUse" color-interpolation-filters="sRGB">
<feFlood flood-opacity="0" result="BackgroundImageFix"/>
<feColorMatrix in="SourceAlpha" type="matrix" values="0 0 0 0 0 0 0 0 0 0 0 0 0 0 0 0 0 0 127 0" result="hardAlpha"/>
<feOffset dy="0.6"/>
<feGaussianBlur stdDeviation="1.5"/>
<feComposite in2="hardAlpha" operator="out"/>
<feColorMatrix type="matrix" values="0 0 0 0 0 0 0 0 0 0 0 0 0 0 0 0 0 0 0.25 0"/>
<feBlend mode="normal" in2="BackgroundImageFix" result="effect1_dropShadow_2562_6487"/>
<feBlend mode="normal" in="SourceGraphic" in2="effect1_dropShadow_2562_6487" result="shape"/>
</filter>
<filter id="filter10_d_2562_6487" x="172.324" y="73.7826" width="9.82422" height="13.1152" filterUnits="userSpaceOnUse" color-interpolation-filters="sRGB">
<feFlood flood-opacity="0" result="BackgroundImageFix"/>
<feColorMatrix in="SourceAlpha" type="matrix" values="0 0 0 0 0 0 0 0 0 0 0 0 0 0 0 0 0 0 127 0" result="hardAlpha"/>
<feOffset dy="0.6"/>
<feGaussianBlur stdDeviation="1.5"/>
<feComposite in2="hardAlpha" operator="out"/>
<feColorMatrix type="matrix" values="0 0 0 0 0 0 0 0 0 0 0 0 0 0 0 0 0 0 0.25 0"/>
<feBlend mode="normal" in2="BackgroundImageFix" result="effect1_dropShadow_2562_6487"/>
<feBlend mode="normal" in="SourceGraphic" in2="effect1_dropShadow_2562_6487" result="shape"/>
</filter>
<filter id="filter11_d_2562_6487" x="133.73" y="62.4145" width="13.0928" height="9.86816" filterUnits="userSpaceOnUse" color-interpolation-filters="sRGB">
<feFlood flood-opacity="0" result="BackgroundImageFix"/>
<feColorMatrix in="SourceAlpha" type="matrix" values="0 0 0 0 0 0 0 0 0 0 0 0 0 0 0 0 0 0 127 0" result="hardAlpha"/>
<feOffset dy="0.6"/>
<feGaussianBlur stdDeviation="1.5"/>
<feComposite in2="hardAlpha" operator="out"/>
<feColorMatrix type="matrix" values="0 0 0 0 0 0 0 0 0 0 0 0 0 0 0 0 0 0 0.25 0"/>
<feBlend mode="normal" in2="BackgroundImageFix" result="effect1_dropShadow_2562_6487"/>
<feBlend mode="normal" in="SourceGraphic" in2="effect1_dropShadow_2562_6487" result="shape"/>
</filter>
<filter id="filter12_d_2562_6487" x="154.466" y="68.7221" width="11.3076" height="12.0918" filterUnits="userSpaceOnUse" color-interpolation-filters="sRGB">
<feFlood flood-opacity="0" result="BackgroundImageFix"/>
<feColorMatrix in="SourceAlpha" type="matrix" values="0 0 0 0 0 0 0 0 0 0 0 0 0 0 0 0 0 0 127 0" result="hardAlpha"/>
<feOffset dy="0.6"/>
<feGaussianBlur stdDeviation="1.5"/>
<feComposite in2="hardAlpha" operator="out"/>
<feColorMatrix type="matrix" values="0 0 0 0 0 0 0 0 0 0 0 0 0 0 0 0 0 0 0.25 0"/>
<feBlend mode="normal" in2="BackgroundImageFix" result="effect1_dropShadow_2562_6487"/>
<feBlend mode="normal" in="SourceGraphic" in2="effect1_dropShadow_2562_6487" result="shape"/>
</filter>
<filter id="filter13_d_2562_6487" x="189.98" y="69.6342" width="10.6445" height="12.6113" filterUnits="userSpaceOnUse" color-interpolation-filters="sRGB">
<feFlood flood-opacity="0" result="BackgroundImageFix"/>
<feColorMatrix in="SourceAlpha" type="matrix" values="0 0 0 0 0 0 0 0 0 0 0 0 0 0 0 0 0 0 127 0" result="hardAlpha"/>
<feOffset dy="0.6"/>
<feGaussianBlur stdDeviation="1.5"/>
<feComposite in2="hardAlpha" operator="out"/>
<feColorMatrix type="matrix" values="0 0 0 0 0 0 0 0 0 0 0 0 0 0 0 0 0 0 0.25 0"/>
<feBlend mode="normal" in2="BackgroundImageFix" result="effect1_dropShadow_2562_6487"/>
<feBlend mode="normal" in="SourceGraphic" in2="effect1_dropShadow_2562_6487" result="shape"/>
</filter>
<filter id="filter14_d_2562_6487" x="119.186" y="71.3568" width="11.0215" height="12.3291" filterUnits="userSpaceOnUse" color-interpolation-filters="sRGB">
<feFlood flood-opacity="0" result="BackgroundImageFix"/>
<feColorMatrix in="SourceAlpha" type="matrix" values="0 0 0 0 0 0 0 0 0 0 0 0 0 0 0 0 0 0 127 0" result="hardAlpha"/>
<feOffset dy="0.6"/>
<feGaussianBlur stdDeviation="1.5"/>
<feComposite in2="hardAlpha" operator="out"/>
<feColorMatrix type="matrix" values="0 0 0 0 0 0 0 0 0 0 0 0 0 0 0 0 0 0 0.25 0"/>
<feBlend mode="normal" in2="BackgroundImageFix" result="effect1_dropShadow_2562_6487"/>
<feBlend mode="normal" in="SourceGraphic" in2="effect1_dropShadow_2562_6487" result="shape"/>
</filter>
</defs>
</svg>
