<svg width="300" height="300" viewBox="0 0 300 300" fill="none" xmlns="http://www.w3.org/2000/svg">
<circle cx="150" cy="150" r="145" fill="#A8CCCE" stroke="#499CA1" stroke-width="10"/>
<path d="M167.776 126.089C189.112 125.563 208.108 126.769 223.029 128.36C243.159 130.506 257.331 147.743 257.83 167.981C257.902 170.915 257.974 173.823 258.046 176.757C258.547 197.043 245.21 215.098 225.244 218.72C209.5 221.576 189.904 224.269 170.208 224.754C151.201 225.223 132.983 223.614 118.333 221.614C98.6547 218.926 85.0113 201.81 84.5219 181.955L84.2554 171.144C83.7695 151.43 96.4356 133.909 115.906 130.784C129.63 128.582 147.229 126.596 167.776 126.089Z" fill="white" stroke="black" stroke-opacity="0.5" stroke-width="2"/>
<path d="M126.59 78.3895C99.6897 90.8895 92.1897 98.7895 80.2897 108.29C68.3896 117.79 25.7897 179.589 28.0897 192.589C30.3897 205.59 46.8896 203.29 52.6897 197.789C58.4898 192.289 80.2897 171.49 88.9896 165.69C97.6895 159.89 112.69 156.79 126.59 156.79C140.49 156.79 187.608 153.753 225.89 147.79C225.89 147.79 253.29 141.99 259.49 129.89C265.69 117.789 260.09 103.789 245.29 91.0895C230.49 78.3895 197.79 71.2895 187.09 70.1895C176.39 69.0895 153.49 65.8895 126.59 78.3895Z" fill="#E31616" stroke="#911010" stroke-width="2"/>
<path d="M206.39 74.7893C199.471 72.9048 192.954 71.3928 182.29 70.4893C182.29 70.4893 206.238 123.346 211.298 127.412C216.359 131.478 221.239 130.303 223.679 125.605C226.119 120.907 206.39 74.7893 206.39 74.7893Z" fill="#FAB3B3"/>
<path d="M174.19 129.289C175.19 124.989 156.09 70.6895 156.09 70.6895C146.831 71.7784 142.903 72.9446 133.89 76.2895C133.89 76.2895 155.39 134.489 161.39 136.689C167.39 138.889 173.19 133.589 174.19 129.289Z" fill="#FAB3B3"/>
<path d="M124.589 137.489C123.789 130.489 103.989 91.2891 103.989 91.2891C96.4411 96.0458 92.7621 99.1742 85.9893 104.689C85.9893 104.689 110.589 145.089 115.289 147.189C122.289 148.089 124.589 144.489 124.589 137.489Z" fill="#FAB3B3"/>
<ellipse cx="143.83" cy="159.682" rx="7.74055" ry="15.5917" fill="black"/>
<ellipse cx="216.15" cy="159.682" rx="7.74055" ry="15.5917" fill="black"/>
<path d="M193.689 183.999C188.424 187.396 184.875 187.676 177.877 186.357C169.279 183.664 165.289 177.689 165.289 177.689" stroke="black" stroke-width="2.2" stroke-linecap="round"/>
</svg>
