<svg width="1920" height="470" viewBox="0 0 1920 470" fill="none" xmlns="http://www.w3.org/2000/svg">
<g clip-path="url(#clip0_1582_7169)">
<path d="M-58 173H2142L2042 321H-158L-58 173Z" fill="#D9D9D9"/>
<path d="M-40 171H60L-40 321H-140L-40 171Z" fill="#A8A8A8"/>
<path d="M1610 171H1710L1610 321H1510L1610 171Z" fill="#A8A8A8"/>
<path d="M400 171H500L400 321H300L400 171Z" fill="#A8A8A8"/>
<path d="M840 171H940L840 321H740L840 171Z" fill="#A8A8A8"/>
<path d="M1280 171H1380L1280 321H1180L1280 171Z" fill="#A8A8A8"/>
<path d="M180 171H280L180 321H80L180 171Z" fill="#A8A8A8"/>
<path d="M1830 171H1930L1830 321H1730L1830 171Z" fill="#A8A8A8"/>
<path d="M1940 171H2040L1940 321H1840L1940 171Z" fill="#A8A8A8"/>
<path d="M620 171H720L620 321H520L620 171Z" fill="#A8A8A8"/>
<path d="M1060 171H1160L1060 321H960L1060 171Z" fill="#A8A8A8"/>
<path d="M1500 171H1600L1500 321H1400L1500 171Z" fill="#A8A8A8"/>
<path d="M70 171H170L70 321H-30L70 171Z" fill="#A8A8A8"/>
<path d="M1720 171H1820L1720 321H1620L1720 171Z" fill="#A8A8A8"/>
<path d="M510 171H610L510 321H410L510 171Z" fill="#A8A8A8"/>
<path d="M950 171H1050L950 321H850L950 171Z" fill="#A8A8A8"/>
<path d="M1390 171H1490L1390 321H1290L1390 171Z" fill="#A8A8A8"/>
<path d="M290 171H390L290 321H190L290 171Z" fill="#A8A8A8"/>
<path d="M730 171H830L730 321H630L730 171Z" fill="#A8A8A8"/>
<path d="M1170 171H1270L1170 321H1070L1170 171Z" fill="#A8A8A8"/>
</g>
<defs>
<clipPath id="clip0_1582_7169">
<rect width="1920" height="470" fill="white"/>
</clipPath>
</defs>
</svg>
