<svg width="972" height="205" viewBox="0 0 972 205" fill="none" xmlns="http://www.w3.org/2000/svg">
<g filter="url(#filter0_d_1352_7311)">
<path d="M101.064 25.6805C84.4566 44.9904 36.681 81.0266 23.0477 79.3619C9.41433 77.6973 7.65604 67.6197 9.72312 60.4383C11.7902 53.2568 72.065 15.0519 88.1257 5.40516C104.186 -4.24156 107.823 1.12125 111.685 5.40516C115.547 9.68907 188.918 53.6763 194.336 58.3142C199.754 62.9521 191.316 78.5895 179.66 78.9757C168.003 79.3619 118.637 45.5697 101.064 25.6805ZM58.3868 87.0859C69.3282 84.2442 143.548 87.0859 143.548 87.0859V103.692H58.3868C58.3868 103.692 52.1672 96.0424 58.3868 87.0859ZM91.3156 45.0959C95.1834 40.464 106.795 39.3915 110.622 45.0959C114.449 50.8003 108.209 70.2863 108.209 70.2863H93.4607C93.4607 70.2863 87.4478 49.7277 91.3156 45.0959ZM24.0132 164.132C28.0359 161.429 98.5547 155.567 104.186 157.178C109.818 158.79 115.161 172.767 107.823 176.235C100.485 179.703 41.8372 191.822 29.6436 187.497C17.45 183.172 19.9906 166.836 24.0132 164.132ZM107.823 125.319C121.534 148.877 186.998 156.601 190.667 167.222C194.336 177.842 184.092 187.21 176.57 187.497C133.7 180.353 105.312 162.394 88.1257 130.726L107.823 125.319ZM164.79 121.457C164.79 121.457 181.771 123.196 181.591 135.361C181.41 147.525 147.99 155.443 133.7 161.622L119.796 149.071C134.086 142.312 153.204 130.533 164.79 121.457ZM58.3868 59.0866C97.4002 57.0844 117.683 56.9153 157.278 59.0866C158.647 87.9622 158.589 103.974 157.278 132.271C157.278 132.271 65.5741 138.314 58.3868 132.271C51.1994 126.228 54.4171 117.567 58.3868 114.313C62.3565 111.058 132.609 117.948 135.631 114.313C138.652 110.678 138.508 78.9757 135.631 77.0447C132.753 75.1137 88.5523 77.8714 58.3868 77.0447V59.0866ZM44.0967 59.0866C64.1801 26.6943 67.0767 59.0866 67.0767 59.0866C68.7919 65.3526 67.0767 166.836 67.0767 166.836L44.0967 169.346C44.0967 169.346 33.9338 83.9953 44.0967 59.0866Z" fill="#FFC700"/>
</g>
<g filter="url(#filter1_d_1352_7311)">
<path d="M308.633 69.0188C305.956 66.5636 305.68 64.2174 304.334 62.287C302.99 60.3077 301.307 58.6434 299.29 57.2919C297.32 55.8925 295.014 54.855 292.372 54.1792C289.777 53.4556 286.918 53.0938 283.796 53.0938C277.07 53.0938 271.328 54.7102 266.572 57.9432C261.863 61.1771 258.26 65.8338 255.762 71.9144C253.312 77.995 252.087 85.3302 252.087 93.9201C252.087 102.606 253.264 110.038 255.618 116.215C257.972 122.392 261.479 127.121 266.139 130.403C270.8 133.684 276.59 135.325 283.508 135.325C289.609 135.325 294.677 134.432 298.714 132.647C302.797 130.861 305.848 128.327 307.865 125.046C309.884 121.765 310.892 117.904 310.892 113.464L317.811 114.188C317.811 114.188 288.908 117.169 284.084 114.188C279.26 111.207 278.2 91.4725 284.084 85.5228C289.968 79.5732 342.194 79.5732 346.392 85.5228C350.59 91.4725 349.52 106.08 349.52 106.08C349.52 119.593 346.661 131.151 340.944 140.754C335.275 150.314 327.444 157.642 317.45 162.758C307.505 167.824 296.095 170.362 283.22 170.362C268.854 170.362 256.242 167.294 245.385 161.168C234.527 155.043 226.047 146.308 219.946 134.963C213.892 123.623 210.865 110.135 210.865 94.499C210.865 82.241 212.715 71.3834 216.415 61.9252C220.162 52.4659 225.35 44.4795 231.98 37.9647C238.611 31.402 246.274 26.4548 254.97 23.1251C263.666 19.7474 272.985 18.0586 282.931 18.0586C291.675 18.0586 299.794 19.3132 307.289 21.8225C314.832 24.2839 321.486 27.8063 327.252 32.3907C333.065 36.9272 337.749 42.3075 341.304 48.5328C344.86 54.7581 347.519 60.5272 344.138 69.0188C340.756 77.5105 313.141 73.1547 308.633 69.0188ZM511.181 94.2095C511.181 110.714 507.987 124.636 501.597 135.977C495.207 147.266 486.583 155.838 475.725 161.678C464.867 167.467 452.761 170.362 439.404 170.362C425.952 170.362 413.797 167.436 402.938 161.596C392.129 155.716 383.529 147.124 377.139 135.832C370.797 124.491 367.626 110.617 367.626 94.2095C367.626 77.7055 370.797 63.8067 377.139 52.5149C383.529 41.1742 392.129 32.6077 402.938 26.8176C413.797 20.9776 425.952 18.0586 439.404 18.0586C452.761 18.0586 464.867 20.9776 475.725 26.8176C486.583 32.6077 495.207 41.1742 501.597 52.5149C507.987 63.8067 511.181 77.7055 511.181 94.2095ZM469.96 94.2095C469.96 85.3302 468.783 77.8502 466.428 71.7696C464.122 65.6401 460.687 61.0079 456.123 57.8708C451.607 54.6858 446.034 53.0938 439.404 53.0938C432.774 53.0938 427.176 54.6858 422.612 57.8708C418.097 61.0079 414.661 65.6401 412.307 71.7696C410.001 77.8502 408.848 85.3302 408.848 94.2095C408.848 103.089 410.001 110.593 412.307 116.722C414.661 122.802 418.097 127.435 422.612 130.62C427.176 133.757 432.774 135.325 439.404 135.325C446.034 135.325 451.607 133.757 456.123 130.62C460.687 127.435 464.122 122.802 466.428 116.722C468.783 110.593 469.96 103.089 469.96 94.2095Z" fill="#E31616"/>
</g>
<g filter="url(#filter2_d_1352_7311)">
<path d="M533.964 164.691C523.387 159.199 523.387 31.0257 533.964 24.1011C544.542 17.1764 619.326 18.2502 627.941 24.1011C636.555 29.952 631.955 55.9296 627.941 54.2203C623.927 52.511 567.25 49.4872 562.418 54.8559C557.586 60.2246 555.652 81.1672 562.418 83.2111C569.185 85.255 618.401 77.6828 623.621 84.8217C628.842 91.9607 627.552 104.405 621.474 107.907C615.395 111.409 567.463 105.722 562.418 109.225C557.374 112.727 557.475 130.092 564.779 133.937C572.082 137.782 621.474 134.214 627.66 133.937C633.847 133.661 634.384 159.199 627.66 164.691C620.937 170.184 544.542 170.184 533.964 164.691ZM683.395 164.691C677.845 170.72 660.878 173.405 648.854 164.691C636.83 155.978 683.75 44.0198 683.75 44.0198C683.75 44.0198 691.979 22.0083 715.245 22.0083C738.511 22.0083 746.027 44.0198 746.027 44.0198C746.027 44.0198 790.411 156.515 776.629 164.691C762.846 172.868 749.199 167.501 746.003 164.691C738.511 162.418 715.245 66.319 715.245 66.319C715.245 66.319 688.946 158.662 683.395 164.691ZM674.624 111.416C705.158 109.183 721.951 109.275 751.933 111.416L750.859 141.193C720.34 144.613 704.587 144.78 674.624 141.193V111.416ZM780.387 54.2203C773.233 50.81 770.723 31.9597 779.138 24.1011C787.553 16.2425 893.129 19.6117 901.337 24.1011C909.545 28.5904 906.324 49.7363 901.337 54.2203C896.35 58.7043 857.974 53.0562 856.085 54.8559C854.196 56.6556 864.953 156.764 857.696 164.691C850.438 172.619 834.312 171.985 824.947 164.343C815.581 156.702 825.245 56.6556 823.336 54.8559C821.427 53.0562 787.541 57.6306 780.387 54.2203ZM960.194 24.1011C967.217 32.4965 959.512 115.602 953.258 120.756C947.004 125.911 935.564 124.837 929.636 120.756C923.708 116.675 913.33 31.8116 921.752 24.1011C930.173 16.3905 953.171 15.7056 960.194 24.1011ZM940.968 166.885C935.661 166.885 931.108 165.039 927.31 161.328C923.559 157.577 921.703 153.025 921.752 147.67C921.703 142.451 923.559 137.985 927.31 134.281C931.108 130.574 935.661 128.72 940.968 128.72C946.004 128.72 950.441 130.574 954.288 134.281C958.183 137.985 960.145 142.451 960.194 147.67C960.145 151.237 959.208 154.484 957.381 157.413C955.593 160.293 953.263 162.613 950.373 164.343C947.492 166.044 944.361 166.885 940.968 166.885Z" fill="#FFC700"/>
</g>
<defs>
<filter id="filter0_d_1352_7311" x="0.90001" y="0" width="203.215" height="204.618" filterUnits="userSpaceOnUse" color-interpolation-filters="sRGB">
<feFlood flood-opacity="0" result="BackgroundImageFix"/>
<feColorMatrix in="SourceAlpha" type="matrix" values="0 0 0 0 0 0 0 0 0 0 0 0 0 0 0 0 0 0 127 0" result="hardAlpha"/>
<feOffset dy="8.09999"/>
<feGaussianBlur stdDeviation="4.04999"/>
<feComposite in2="hardAlpha" operator="out"/>
<feColorMatrix type="matrix" values="0 0 0 0 0 0 0 0 0 0 0 0 0 0 0 0 0 0 0.25 0"/>
<feBlend mode="normal" in2="BackgroundImageFix" result="effect1_dropShadow_1352_7311"/>
<feBlend mode="normal" in="SourceGraphic" in2="effect1_dropShadow_1352_7311" result="shape"/>
</filter>
<filter id="filter1_d_1352_7311" x="202.765" y="18.0586" width="316.516" height="168.503" filterUnits="userSpaceOnUse" color-interpolation-filters="sRGB">
<feFlood flood-opacity="0" result="BackgroundImageFix"/>
<feColorMatrix in="SourceAlpha" type="matrix" values="0 0 0 0 0 0 0 0 0 0 0 0 0 0 0 0 0 0 127 0" result="hardAlpha"/>
<feOffset dy="8.09999"/>
<feGaussianBlur stdDeviation="4.04999"/>
<feComposite in2="hardAlpha" operator="out"/>
<feColorMatrix type="matrix" values="0 0 0 0 0 0 0 0 0 0 0 0 0 0 0 0 0 0 0.25 0"/>
<feBlend mode="normal" in2="BackgroundImageFix" result="effect1_dropShadow_1352_7311"/>
<feBlend mode="normal" in="SourceGraphic" in2="effect1_dropShadow_1352_7311" result="shape"/>
</filter>
<filter id="filter2_d_1352_7311" x="517.931" y="18.0586" width="453.153" height="168.503" filterUnits="userSpaceOnUse" color-interpolation-filters="sRGB">
<feFlood flood-opacity="0" result="BackgroundImageFix"/>
<feColorMatrix in="SourceAlpha" type="matrix" values="0 0 0 0 0 0 0 0 0 0 0 0 0 0 0 0 0 0 127 0" result="hardAlpha"/>
<feOffset dy="8.09999"/>
<feGaussianBlur stdDeviation="4.04999"/>
<feComposite in2="hardAlpha" operator="out"/>
<feColorMatrix type="matrix" values="0 0 0 0 0 0 0 0 0 0 0 0 0 0 0 0 0 0 0.25 0"/>
<feBlend mode="normal" in2="BackgroundImageFix" result="effect1_dropShadow_1352_7311"/>
<feBlend mode="normal" in="SourceGraphic" in2="effect1_dropShadow_1352_7311" result="shape"/>
</filter>
</defs>
</svg>
