<svg width="75" height="98" viewBox="0 0 75 98" fill="none" xmlns="http://www.w3.org/2000/svg">
<path d="M33.0542 93.2542L33.8942 81.9492L37.6392 82.8942V97.2092H28.9242C28.9242 97.2092 25.2492 97.2092 26.7892 94.3742C28.9242 91.8192 33.0542 93.2542 33.0542 93.2542Z" fill="white" stroke="black" stroke-width="0.699999" stroke-linecap="round"/>
<path d="M53.6001 93.2893L52.7601 81.9844L49.0151 82.9294V97.2443H57.7301C57.7301 97.2443 61.4051 97.2443 59.8651 94.4093C57.7301 91.8543 53.6001 93.2893 53.6001 93.2893Z" fill="white" stroke="black" stroke-width="0.699999" stroke-linecap="round"/>
<rect width="25.27" height="4.02061" transform="matrix(0.740338 -0.672235 0.67224 0.740333 6.52539 87.2109)" fill="white"/>
<rect x="0.494402" y="0.0238343" width="24.57" height="3.32061" transform="matrix(0.740338 -0.672235 0.67224 0.740333 6.63775 87.5495)" stroke="black" stroke-opacity="0.5" stroke-width="0.699999"/>
<path d="M28.0559 16.0554C29.5532 19.1554 30.4272 20.4754 32.5641 22.0461C30.7488 24.8634 19.626 32.1464 17.2579 32.4641C16.3767 30.2551 15.6183 29.1987 13.9135 27.5506C13.9135 27.5506 12.9859 27.0315 11.5723 27.2748C8.66255 27.5093 6.55965 26.6602 4.94109 23.0167C3.94998 20.5282 5.34084 17.5552 8.52274 15.8336C8.52274 15.8336 7.88977 11.9505 10.9894 9.12183C15.9577 5.45263 19.1194 8.62115 19.1194 8.62115C19.1194 8.62115 19.2042 7.26923 21.6615 6.02807C25.497 4.28032 28.4892 6.98898 28.4892 6.98898C29.9132 8.26763 30.8809 9.80466 30.6473 11.8471C30.0984 14.0287 29.6636 14.8255 28.0559 16.0554Z" fill="white"/>
<path d="M32.5641 22.0461C30.4272 20.4754 29.5532 19.1554 28.0559 16.0554M32.5641 22.0461C30.7488 24.8634 19.626 32.1464 17.2579 32.4641C16.3767 30.2551 15.6183 29.1987 13.9135 27.5506C13.9135 27.5506 12.9859 27.0315 11.5723 27.2748C8.66255 27.5093 6.55965 26.6602 4.94109 23.0167C3.94998 20.5282 5.34084 17.5552 8.52274 15.8336C8.52274 15.8336 7.88977 11.9505 10.9894 9.12183C15.9577 5.45263 19.1194 8.62115 19.1194 8.62115C19.1194 8.62115 19.2042 7.26923 21.6615 6.02807C25.497 4.28032 28.4892 6.98898 28.4892 6.98898C29.9132 8.26763 30.8809 9.80466 30.6473 11.8471C30.0984 14.0287 29.6636 14.8255 28.0559 16.0554M32.5641 22.0461C26.7076 23.4132 23.3627 26.242 19.7332 29.7727M28.0559 16.0554C22.971 16.5867 20.4663 18.388 16.2686 22.7841" stroke="black" stroke-width="0.699999"/>
<ellipse cx="43.3794" cy="52.4085" rx="31.3951" ry="31.3949" fill="#E31616"/>
<path d="M74.4245 52.4085C74.4245 69.5541 60.5251 83.4534 43.3794 83.4534C26.2337 83.4534 12.3344 69.5541 12.3344 52.4085C12.3344 35.2629 26.2337 21.3637 43.3794 21.3637C60.5251 21.3637 74.4245 35.2629 74.4245 52.4085Z" stroke="black" stroke-opacity="0.5" stroke-width="0.699999"/>
<ellipse cx="43.3438" cy="52.2343" rx="21" ry="20.9999" fill="#FAB3B3"/>
<path d="M49.3632 82.5089C48.2432 83.2089 40.8582 83.2089 40.1232 82.9289C40.096 82.9131 44.4959 81.1196 44.8492 80.8289C49.7492 77.9589 52.1292 74.4589 52.8992 70.7489L55.9442 58.639L64.3083 51.709C64.7633 58.464 60.9116 73.8572 49.3632 82.5089Z" fill="#FAB3B3"/>
<path d="M43.0294 43.9752C52.4445 43.3452 56.1392 49.7152 56.8195 52.1301C59.3395 59.4451 54.6495 70.8201 51.1145 75.125L42.0494 73.5308L31.5844 71.345C31.4794 69.805 34.8629 71.6046 36.3094 71.4369C46.1912 70.2909 50.0401 60.464 47.1244 53.7753C47.1244 53.7753 45.4444 58.6399 41.6994 59.8301C40.4394 60.2151 34.6644 60.2851 34.1744 53.7753C34.1744 45.8654 41.6294 44.0802 43.0294 43.9752Z" fill="#E31616"/>
<ellipse cx="30.6526" cy="51.7422" rx="2.7092" ry="5.45707" fill="black"/>
<ellipse cx="60.3733" cy="51.7422" rx="2.7092" ry="5.45707" fill="black"/>
<path d="M51.6396 56.5039C51.6396 56.5039 51.1496 61.2289 49.3646 61.2289C47.5796 61.2289 45.6896 58.3939 45.6896 58.3939C45.6896 58.3939 44.5346 61.2289 42.3646 61.2289C40.1946 61.2289 39.5996 56.5039 39.5996 56.5039" stroke="black" stroke-width="1.05" stroke-linecap="round"/>
</svg>
