<svg width="266" height="246" viewBox="0 0 266 246" fill="none" xmlns="http://www.w3.org/2000/svg">
<path d="M209.6 130.028C209.3 127.528 208.4 122.928 212.1 118.928C215.8 114.928 229.399 100.728 233.699 99.5278C237.999 98.3278 247.099 99.028 249.499 102.428C251.199 106.228 262.9 147.128 261.6 151.928C260.3 156.728 247.9 168.228 241.7 170.728C235.499 173.228 224.299 169.128 218.2 165.228C212.1 161.328 209.6 130.028 209.6 130.028Z" fill="#AD7543" fill-opacity="0.8"/>
<path d="M209.6 130.028C209.3 127.528 208.4 122.928 212.1 118.928C215.8 114.928 229.399 100.728 233.699 99.5278C237.999 98.3278 247.099 99.028 249.499 102.428M209.6 130.028C209.9 132.528 214.5 134.528 222.5 131.128C230.5 127.728 231.928 123.326 238.8 117.528C245.672 111.73 250.554 105.428 249.499 102.428M209.6 130.028C209.6 130.028 212.1 161.328 218.2 165.228C224.299 169.128 235.499 173.228 241.7 170.728C247.9 168.228 260.3 156.728 261.6 151.928C262.9 147.128 251.199 106.228 249.499 102.428" stroke="#AD7543" stroke-width="3" stroke-linecap="round"/>
<path d="M82.053 223.631L103.195 199.094L93.7203 193.437L64.7996 222.358L82.4066 239.965C82.4066 239.965 89.8312 247.389 92.4475 238.55C93.296 229.075 82.053 223.631 82.053 223.631Z" fill="white" stroke="black" stroke-opacity="0.5" stroke-width="2" stroke-linecap="round"/>
<path d="M152.414 225.039L141.736 194.461L132.099 199.838L142.685 239.344L166.737 232.9C166.737 232.9 176.879 230.182 170.532 223.497C162.751 218.024 152.414 225.039 152.414 225.039Z" fill="white" stroke="black" stroke-opacity="0.5" stroke-width="2" stroke-linecap="round"/>
<path d="M38.0996 3.72851C54.6996 -1.87149 187.7 -0.5719 198.1 3.72851C211.352 81.833 210.228 125.624 198.1 203.729C183.925 211.859 48.0434 211.03 38.0996 203.729C27.7909 132.029 26.2695 89.2736 35.1755 23.7285C36.0493 17.2975 37.0235 10.6471 38.0996 3.72851Z" fill="#FFC700"/>
<path d="M35.7002 25.2285H58.4002M200.9 25.2285H176M58.4002 25.2285L63.5002 1.22852M58.4002 25.2285H95.1002M95.1002 25.2285L96.7002 0.228516M95.1002 25.2285H136.1M136.1 25.2285L132.6 0.228516M136.1 25.2285H176M176 25.2285L168.3 0.928516" stroke="#C6966B" stroke-opacity="0.6" stroke-width="2"/>
<path d="M35.7998 184.328H58.4998M201 184.328H176.1M58.4998 184.328L63.1998 207.128M58.4998 184.328H95.1998M95.1998 184.328L96.7998 209.328M95.1998 184.328H136.2M136.2 184.328L132.7 209.328M136.2 184.328H176.1M176.1 184.328L172.65 196.078L169.2 207.828" stroke="#C6966B" stroke-opacity="0.6" stroke-width="2"/>
<g filter="url(#filter0_d_1564_6189)">
<path d="M145.604 127.047C152.758 128.338 157.715 130.688 160.603 134.268C163.481 137.835 164.368 142.705 163.197 149.191C162.684 152.031 161.423 156.326 159.733 160.338C158.888 162.343 157.94 164.268 156.93 165.9C155.917 167.538 154.856 168.857 153.793 169.672C150.967 171.842 148.406 173.08 145.572 173.606C142.729 174.133 139.578 173.95 135.56 173.225C131.997 172.581 129.926 172.194 128.246 171.361C126.586 170.539 125.282 169.266 123.32 166.763C121.303 164.19 119.979 161.977 119.299 159.603C118.62 157.234 118.572 154.671 119.165 151.386C119.747 148.162 121.679 144.997 124.189 142.196C126.695 139.401 129.752 136.998 132.532 135.298C133.939 134.438 135.041 133.393 136.007 132.344C136.428 131.888 136.825 131.429 137.21 130.984C137.266 130.919 137.322 130.854 137.378 130.789C137.816 130.283 138.24 129.8 138.673 129.355C139.541 128.464 140.431 127.743 141.514 127.315C142.592 126.888 143.894 126.738 145.604 127.047Z" fill="#C6966B" stroke="#AD7543" stroke-width="0.8"/>
<path d="M148.881 154.357C145.276 154.829 144.187 155.105 141.912 156.974C139.637 158.843 139.115 161.307 138.86 163.148M144.1 134.119C144.1 134.119 146.651 136.403 149.288 135.056C151.924 133.708 151.581 131.823 151.581 131.823M136.849 135.774C138.538 138.121 138.662 139.348 137.769 141.41" stroke="#AD7543" stroke-opacity="0.6" stroke-linecap="round"/>
</g>
<g filter="url(#filter1_di_1564_6189)">
<path d="M98.2483 146.61C100.771 138.202 106.888 135.081 109.687 144.027C113.039 158.812 133.517 162.614 131.716 165.997C128.793 171.636 117.1 171.028 109.687 168.728C102.274 166.428 94.4597 156.394 98.2483 146.61Z" fill="#FBE8A4"/>
<path d="M98.4348 146.682L98.4376 146.675L98.4398 146.667C99.0655 144.582 99.9119 142.832 100.868 141.519C101.826 140.203 102.883 139.339 103.926 139.001C104.956 138.666 105.991 138.837 106.946 139.628C107.91 140.427 108.8 141.865 109.494 144.079C111.191 151.552 117.211 156.234 122.53 159.459C123.862 160.267 125.154 160.985 126.325 161.633C126.391 161.669 126.457 161.706 126.522 161.742C127.615 162.346 128.594 162.888 129.4 163.387C130.258 163.917 130.901 164.388 131.273 164.819C131.458 165.034 131.566 165.227 131.608 165.402C131.649 165.571 131.63 165.734 131.54 165.903L131.54 165.903L131.539 165.905C130.13 168.623 126.578 169.875 122.373 170.14C118.185 170.404 113.433 169.681 109.746 168.537C106.093 167.404 102.324 164.356 99.9386 160.373C97.5559 156.394 96.5677 151.504 98.4348 146.682Z" stroke="#AD7543" stroke-opacity="0.6" stroke-width="0.4"/>
</g>
<g filter="url(#filter2_d_1564_6189)">
<g filter="url(#filter3_i_1564_6189)">
<path d="M117.964 164.078C121.771 171.988 119.359 178.417 111.26 173.699C98.8136 165.042 81.1285 176.044 80.177 172.332C78.533 166.196 85.3783 159.031 95.4663 156.328C105.554 153.625 115.922 159.607 117.964 164.078Z" fill="#FBE8A4"/>
</g>
<path d="M117.782 164.161L117.782 164.161L117.784 164.165C118.728 166.126 119.283 167.989 119.463 169.604C119.643 171.222 119.444 172.572 118.903 173.525C118.368 174.467 117.489 175.039 116.25 175.099C115 175.159 113.372 174.697 111.367 173.53C105.074 169.157 97.4717 169.759 91.3691 170.965C89.8408 171.267 88.4032 171.607 87.1017 171.919C87.028 171.936 86.9548 171.954 86.882 171.971C85.6672 172.262 84.5792 172.522 83.6478 172.698C82.6562 172.884 81.865 172.97 81.2989 172.903C81.0176 172.869 80.8074 172.799 80.6584 172.698C80.5145 172.601 80.4182 172.468 80.3707 172.282L80.3707 172.282L80.3701 172.28C79.5731 169.306 80.8263 166.05 83.5667 163.181C86.3043 160.316 90.5035 157.865 95.5181 156.521C100.51 155.184 105.578 155.994 109.655 157.697C111.693 158.549 113.479 159.622 114.88 160.756C116.283 161.893 117.289 163.082 117.782 164.161Z" stroke="#AD7543" stroke-opacity="0.6" stroke-width="0.4"/>
<path d="M81.0015 172.316C97.6586 164.263 106.15 164.875 116.555 174.799" stroke="#AD7543" stroke-opacity="0.6" stroke-width="0.4" stroke-linecap="round"/>
</g>
<ellipse cx="82.1409" cy="43.7196" rx="7.74055" ry="15.5917" fill="black"/>
<ellipse cx="154.46" cy="43.7196" rx="7.74055" ry="15.5917" fill="black"/>
<path d="M132.6 56.2372C127.334 59.6345 123.785 59.9145 116.787 58.5953C108.189 55.9021 104.2 49.9277 104.2 49.9277" stroke="black" stroke-width="2.2" stroke-linecap="round"/>
<path d="M238.2 170.228C230.512 157.694 227.11 149.533 223.1 132.428" stroke="#AD7543" stroke-width="3" stroke-linecap="round"/>
<path d="M233.499 100.628C241.171 100.077 245.899 100.928 247.999 102.928C248.68 103.828 246.799 107.328 244.199 110.228C242.699 112.228 235.599 118.428 235.599 118.428C232.099 121.628 227.799 127.428 222.799 129.328C219.1 131.228 212.7 132.528 211.1 130.028C210.8 127.728 210.5 125.328 211.4 122.728C211.906 121.659 212.3 120.728 214.129 118.928C217.2 115.628 221.569 111.48 222 110.846C227 106.028 232.243 101.595 233.499 100.628Z" fill="black" fill-opacity="0.25"/>
<path d="M258.351 89.8346C255.869 91.2674 239.023 99.7772 229.519 104.305C224.273 106.804 192.786 94.5226 191.514 94.6926C186.078 94.4328 207.652 86.0014 207.652 86.0014C207.652 86.0014 222.064 92.8094 226.238 90.3057C229.802 88.168 239.09 82.3746 242.05 79.8343C245.253 77.086 247.824 74.6899 249.162 73.9178C253.183 71.596 255.587 72.1419 256.554 72.5951C257.522 73.0484 257.857 73.3084 258.715 74.5104C259.572 75.7124 260.257 76.2548 260.914 77.5588C261.452 78.6273 261.748 79.1687 262.356 80.1988C262.814 81.2287 263.066 82.629 262.997 83.7539C262.927 84.8788 262.202 87.6111 258.351 89.8346Z" fill="white"/>
<path d="M257.306 74.3171L250.196 79.6498C249.755 79.9812 249.665 80.608 249.997 81.0498C250.328 81.4916 250.955 81.5811 251.397 81.2497L258.522 75.9048C258.63 76.0383 258.734 76.1641 258.832 76.2832C258.931 76.4028 259.024 76.5156 259.11 76.6227C259.445 77.0397 259.735 77.4409 260.021 78.0087C260.389 78.7401 260.649 79.2333 260.967 79.7967L255.964 82.4121L253.651 83.6214L252.969 83.9781L252.785 84.074L252.738 84.0989L252.726 84.1052L252.723 84.1068L252.722 84.1072L252.722 84.1073L253.172 84.9696L252.722 84.1073C252.232 84.3632 252.043 84.9674 252.299 85.4568C252.555 85.9462 253.159 86.1356 253.648 85.8797L253.197 85.0162L253.648 85.8797L253.648 85.8796L253.649 85.8794L253.649 85.8792L253.652 85.8776L253.664 85.8713L253.712 85.8464L253.895 85.7505L254.578 85.3939L256.891 84.1845L261.785 81.6258C261.956 82.3146 262.038 83.0621 261.999 83.6921C261.949 84.4934 261.403 86.9182 257.851 88.9685C255.408 90.379 238.596 98.8731 229.089 103.402C228.686 103.594 227.852 103.7 226.502 103.605C225.204 103.513 223.59 103.25 221.757 102.856C218.094 102.068 213.662 100.784 209.327 99.4183C205.388 98.1775 201.552 96.8766 198.47 95.8316C198.163 95.7274 197.863 95.6258 197.572 95.5271C195.968 94.9836 194.603 94.5242 193.599 94.2061C193.2 94.0794 192.849 93.9725 192.558 93.8906C193.779 93.1325 195.765 92.1558 197.958 91.1601C200.299 90.0972 202.813 89.0404 204.745 88.2481C205.711 87.8522 206.529 87.5231 207.106 87.293C207.309 87.2121 207.482 87.1434 207.621 87.0884C207.694 87.1218 207.777 87.1594 207.869 87.2007C208.277 87.3847 208.863 87.644 209.58 87.947C211.01 88.5523 212.967 89.3351 215.061 90.0401C217.148 90.7429 219.404 91.38 221.427 91.6787C222.439 91.8281 223.42 91.8971 224.308 91.8373C225.188 91.778 226.044 91.588 226.753 91.1632C228.544 90.0888 231.767 88.0999 234.914 86.0602C238.041 84.0342 241.161 81.9148 242.702 80.5932C243.506 79.9027 244.271 79.2349 244.983 78.6116L245.144 78.4711C245.796 77.9003 246.401 77.3706 246.957 76.8937C248.183 75.841 249.089 75.1147 249.662 74.7838C253.449 72.5972 255.506 73.2085 256.13 73.5007C256.591 73.7167 256.814 73.8478 257.019 74.0258C257.107 74.1028 257.199 74.1952 257.306 74.3171Z" stroke="black" stroke-opacity="0.5" stroke-width="2" stroke-linecap="round" stroke-linejoin="round"/>
<path d="M227.761 127.049C227.993 127.844 228.826 128.3 229.621 128.068C230.416 127.836 230.873 127.003 230.64 126.208L227.761 127.049ZM223.611 83.4927L223.166 84.9252L223.166 84.9252L223.611 83.4927ZM227.147 88.351L227.97 89.6051L230.478 87.9591L229.655 86.705L227.147 88.351ZM229.2 126.628C230.64 126.208 230.64 126.208 230.64 126.207C230.64 126.207 230.64 126.207 230.64 126.206C230.639 126.205 230.639 126.203 230.638 126.2C230.637 126.195 230.634 126.187 230.631 126.176C230.625 126.155 230.616 126.123 230.603 126.08C230.579 125.995 230.542 125.869 230.495 125.704C230.4 125.373 230.262 124.888 230.088 124.271C229.741 123.036 229.253 121.273 228.692 119.166C227.569 114.947 226.155 109.358 224.981 103.85C223.803 98.319 222.887 92.9573 222.73 89.1606C222.65 87.2204 222.78 85.8952 223.045 85.1773C223.173 84.8304 223.264 84.8135 223.193 84.8579C223.065 84.9368 222.994 84.8718 223.166 84.9252L224.056 82.0602C223.264 81.8144 222.393 81.8245 221.613 82.3073C220.889 82.7556 220.476 83.4714 220.23 84.1403C219.746 85.454 219.65 87.293 219.733 89.2846C219.901 93.3513 220.864 98.9231 222.047 104.475C223.235 110.051 224.664 115.694 225.793 119.937C226.359 122.061 226.85 123.837 227.2 125.082C227.375 125.705 227.515 126.196 227.611 126.531C227.659 126.699 227.696 126.828 227.722 126.915C227.734 126.959 227.744 126.992 227.751 127.014C227.754 127.025 227.756 127.034 227.758 127.04C227.759 127.043 227.759 127.045 227.76 127.046C227.76 127.047 227.76 127.048 227.76 127.048C227.761 127.049 227.761 127.049 229.2 126.628ZM223.166 84.9252C224.144 85.229 225.126 86.0156 225.928 86.8581C226.313 87.2622 226.624 87.6447 226.838 87.925C226.945 88.0645 227.026 88.1769 227.078 88.2517C227.105 88.2891 227.124 88.3169 227.135 88.334C227.141 88.3425 227.145 88.3483 227.147 88.3512C227.148 88.3526 227.148 88.3533 227.148 88.3533C227.148 88.3533 227.148 88.3531 227.148 88.3527C227.148 88.3525 227.148 88.3523 227.148 88.352C227.147 88.3519 227.147 88.3516 227.147 88.3516C227.147 88.3513 227.147 88.351 228.401 87.528C229.655 86.705 229.655 86.7047 229.655 86.7044C229.655 86.7043 229.654 86.704 229.654 86.7037C229.654 86.7032 229.653 86.7027 229.653 86.7021C229.652 86.701 229.651 86.6996 229.65 86.6981C229.648 86.695 229.646 86.6911 229.643 86.6865C229.637 86.6772 229.628 86.6649 229.618 86.6498C229.597 86.6195 229.569 86.5778 229.532 86.5261C229.46 86.4226 229.356 86.2785 229.223 86.105C228.959 85.7592 228.577 85.2895 228.101 84.7892C227.181 83.8229 225.768 82.5919 224.056 82.0602L223.166 84.9252Z" fill="#AD7543"/>
<path d="M214.503 114.829C214.559 115.656 215.274 116.281 216.1 116.225C216.927 116.17 217.552 115.455 217.496 114.628L214.503 114.829ZM220.3 83.4297L220.3 81.9297L220.288 81.9297L220.276 81.9299L220.3 83.4297ZM221.309 89.3577L221.138 90.8479L224.119 91.19L224.29 89.6997L221.309 89.3577ZM216 114.729C217.496 114.628 217.496 114.628 217.496 114.628C217.496 114.628 217.496 114.628 217.496 114.627C217.496 114.626 217.496 114.625 217.496 114.623C217.496 114.62 217.495 114.615 217.495 114.608C217.494 114.594 217.493 114.572 217.491 114.543C217.487 114.486 217.482 114.4 217.475 114.288C217.461 114.063 217.442 113.732 217.42 113.309C217.375 112.464 217.319 111.255 217.271 109.803C217.174 106.895 217.113 103.029 217.249 99.1695C217.385 95.2886 217.719 91.5006 218.387 88.7114C218.723 87.3058 219.118 86.2691 219.539 85.6149C219.957 84.9644 220.231 84.9309 220.323 84.9295L220.276 81.9299C218.768 81.9534 217.707 82.9169 217.016 83.9916C216.327 85.0628 215.836 86.4799 215.469 88.0133C214.73 91.102 214.389 95.1325 214.251 99.0639C214.111 103.016 214.175 106.956 214.272 109.902C214.321 111.376 214.379 112.605 214.424 113.467C214.447 113.898 214.466 114.237 214.48 114.469C214.487 114.585 214.493 114.674 214.497 114.735C214.499 114.765 214.5 114.789 214.501 114.804C214.502 114.812 214.502 114.818 214.503 114.823C214.503 114.825 214.503 114.826 214.503 114.827C214.503 114.828 214.503 114.829 214.503 114.829C214.503 114.829 214.503 114.829 216 114.729ZM220.3 84.9297C220.52 84.9297 220.642 84.9908 220.795 85.2195C220.998 85.5207 221.166 86.0263 221.266 86.6982C221.361 87.3441 221.374 88.0125 221.36 88.5348C221.352 88.792 221.339 89.0051 221.328 89.151C221.322 89.2239 221.317 89.2795 221.314 89.315C221.312 89.3327 221.311 89.3454 221.31 89.3526C221.31 89.3563 221.309 89.3585 221.309 89.3594C221.309 89.3598 221.309 89.3599 221.309 89.3596C221.309 89.3595 221.309 89.3592 221.309 89.3589C221.309 89.3587 221.309 89.3584 221.309 89.3584C221.309 89.358 221.309 89.3577 222.8 89.5287C224.29 89.6997 224.29 89.6993 224.29 89.6989C224.29 89.6987 224.29 89.6983 224.29 89.698C224.29 89.6973 224.29 89.6965 224.29 89.6956C224.29 89.6938 224.291 89.6917 224.291 89.6892C224.292 89.6842 224.292 89.6777 224.293 89.6698C224.295 89.654 224.297 89.6324 224.3 89.6055C224.305 89.5516 224.312 89.4762 224.319 89.3822C224.333 89.1947 224.35 88.9313 224.358 88.6167C224.375 87.9954 224.363 87.1391 224.234 86.2602C224.108 85.4074 223.851 84.3882 223.285 83.5458C222.67 82.631 221.679 81.9297 220.3 81.9297L220.3 84.9297Z" fill="#AD7543"/>
<path d="M239.045 114.071L239.688 115.426L242.398 114.14L241.755 112.785L239.045 114.071ZM233.445 102.271L239.045 114.071L241.755 112.785L236.155 100.985L233.445 102.271Z" fill="#AD7543"/>
<path d="M30.9003 61.7285H205.9C207.587 84.724 207.953 97.7861 207.1 121.529L29.7003 122.729C28.9924 98.3115 29.2341 84.9461 30.9003 61.7285Z" fill="#E31616"/>
<path d="M25.6075 152.263C24.497 149.621 14.3026 132.725 11.002 122.729C9.18029 117.211 29.1746 86.6269 29.1653 85.3441C30.1045 79.9831 35.7652 102.444 35.7652 102.444C35.7652 102.444 23.6467 118.273 25.6075 122.729C27.2816 126.532 35.4228 134.089 37.5721 137.344C39.8973 140.866 41.9522 143.717 42.5506 145.141C44.35 149.422 43.5072 151.738 42.9362 152.641C42.3652 153.544 42.0652 153.844 40.7652 154.544C39.4652 155.244 38.8412 155.856 37.4652 156.344C36.3377 156.744 35.7635 156.97 34.6652 157.444C33.5861 157.769 32.1652 157.844 31.0579 157.634C29.9506 157.424 27.3307 156.362 25.6075 152.263Z" fill="white"/>
<path d="M41.1336 153.171L36.7341 145.449C36.4607 144.969 35.8501 144.802 35.3702 145.075C34.8903 145.349 34.723 145.959 34.9964 146.439L39.406 154.179C39.26 154.269 39.1222 154.356 38.9918 154.439C38.8607 154.522 38.7371 154.6 38.6201 154.672C38.1644 154.952 37.73 155.189 37.1309 155.402C36.359 155.676 35.8372 155.871 35.2383 156.116L33.2706 150.825L32.3608 148.379L32.0925 147.657L32.0203 147.463L32.0016 147.413L31.9968 147.4L31.9956 147.397L31.9953 147.396L31.9953 147.396L31.0834 147.735L31.9952 147.396C31.8027 146.878 31.227 146.614 30.7094 146.807C30.1917 146.999 29.9282 147.575 30.1207 148.093L31.0338 147.753L30.1207 148.093L30.1208 148.093L30.1211 148.094L30.1223 148.097L30.127 148.11L30.1457 148.16L30.2179 148.354L30.4862 149.076L31.396 151.522L33.3211 156.699C32.6164 156.782 31.8645 156.769 31.2444 156.652C30.4556 156.502 28.1184 155.656 26.5294 151.876C26.2254 151.152 25.343 149.537 24.1969 147.457C24.0406 147.173 23.8786 146.88 23.7116 146.577C22.6341 144.623 21.3468 142.289 20.0081 139.783C16.9058 133.975 13.5715 127.321 11.9515 122.415C11.8973 122.251 11.8616 121.96 11.902 121.501C11.9415 121.052 12.0479 120.502 12.2246 119.854C12.5781 118.556 13.1873 116.955 13.9875 115.144C15.5858 111.526 17.8951 107.179 20.276 102.938C22.3715 99.2052 24.511 95.5748 26.2535 92.618C26.4889 92.2186 26.717 91.8314 26.9368 91.458C27.8581 89.8928 28.637 88.5617 29.1856 87.5805C29.4395 87.1264 29.6505 86.7359 29.8053 86.4263C30.4093 87.7286 31.1394 89.8473 31.8623 92.1798C32.6234 94.6357 33.3567 97.2625 33.9006 99.2788C34.1723 100.286 34.3962 101.139 34.5522 101.741C34.6007 101.928 34.6427 102.09 34.6774 102.226C34.6103 102.315 34.5326 102.419 34.4452 102.537C34.1143 102.983 33.6447 103.624 33.0876 104.407C31.9744 105.972 30.5075 108.109 29.1 110.391C27.6967 112.666 26.3325 115.116 25.4414 117.302C24.9963 118.394 24.6552 119.453 24.4947 120.413C24.3373 121.354 24.3332 122.316 24.6922 123.131C25.1663 124.209 26.0595 125.479 27.0992 126.783C28.1522 128.103 29.4117 129.525 30.6708 130.914C31.1608 131.454 31.6485 131.987 32.1252 132.508C32.8842 133.337 33.6155 134.136 34.2846 134.887C35.3789 136.116 36.245 137.149 36.7376 137.895C37.3217 138.78 37.8885 139.622 38.4175 140.407L38.5374 140.585C39.0217 141.303 39.4712 141.97 39.8745 142.581C40.7652 143.929 41.3723 144.918 41.6288 145.528C43.3234 149.56 42.459 151.524 42.0909 152.107C41.8188 152.537 41.6609 152.742 41.4586 152.922C41.3711 153 41.2679 153.08 41.1336 153.171Z" stroke="black" stroke-opacity="0.5" stroke-width="2" stroke-linecap="round" stroke-linejoin="round"/>
<path d="M81.8711 98.3809C81.8711 99.3835 81.6204 100.472 81.1191 101.646C80.6322 102.807 79.8587 103.952 78.7988 105.084C77.7389 106.201 76.3854 107.111 74.7383 107.813C73.0911 108.514 71.1719 108.865 68.9805 108.865C67.319 108.865 65.8079 108.708 64.4473 108.393C63.0866 108.077 61.8477 107.59 60.7305 106.932C59.6276 106.258 58.6107 105.378 57.6797 104.289C56.849 103.301 56.14 102.198 55.5527 100.98C54.9655 99.7487 54.5215 98.4382 54.2207 97.0488C53.9342 95.6595 53.791 94.1842 53.791 92.623C53.791 90.0879 54.1563 87.8177 54.8867 85.8125C55.6315 83.8073 56.6914 82.0957 58.0664 80.6777C59.4414 79.2454 61.0527 78.1569 62.9004 77.4121C64.748 76.6673 66.7174 76.2949 68.8086 76.2949C71.3581 76.2949 73.6283 76.8034 75.6191 77.8203C77.61 78.8372 79.1354 80.0977 80.1953 81.6016C81.2552 83.0911 81.7852 84.502 81.7852 85.834C81.7852 86.5645 81.5273 87.209 81.0117 87.7676C80.4961 88.3262 79.873 88.6055 79.1426 88.6055C78.3262 88.6055 77.7103 88.4121 77.2949 88.0254C76.8939 87.6387 76.4427 86.9727 75.9414 86.0273C75.1107 84.4661 74.1296 83.2988 72.998 82.5254C71.8809 81.752 70.4987 81.3652 68.8516 81.3652C66.2305 81.3652 64.1393 82.3607 62.5781 84.3516C61.0313 86.3424 60.2578 89.1712 60.2578 92.8379C60.2578 95.2871 60.6016 97.3281 61.2891 98.9609C61.9766 100.579 62.9505 101.79 64.2109 102.592C65.4714 103.394 66.9466 103.795 68.6367 103.795C70.4701 103.795 72.0169 103.344 73.2773 102.441C74.5521 101.525 75.5117 100.186 76.1563 98.4238C76.4284 97.5931 76.765 96.9199 77.166 96.4043C77.5671 95.8743 78.2116 95.6094 79.0996 95.6094C79.8587 95.6094 80.5104 95.8743 81.0547 96.4043C81.599 96.9342 81.8711 97.5931 81.8711 98.3809Z" fill="white"/>
<path d="M94.0313 80.1621V89.1855H107.803V80.1621C107.803 78.873 108.089 77.9063 108.662 77.2617C109.249 76.6172 110.016 76.2949 110.961 76.2949C111.921 76.2949 112.694 76.6172 113.281 77.2617C113.883 77.8919 114.184 78.8587 114.184 80.1621V104.977C114.184 106.28 113.883 107.254 113.281 107.898C112.68 108.543 111.906 108.865 110.961 108.865C110.001 108.865 109.235 108.543 108.662 107.898C108.089 107.24 107.803 106.266 107.803 104.977V94.3848H94.0313V104.977C94.0313 106.28 93.7305 107.254 93.1289 107.898C92.5273 108.543 91.7539 108.865 90.8086 108.865C89.849 108.865 89.0827 108.543 88.5098 107.898C87.9368 107.24 87.6504 106.266 87.6504 104.977V80.1621C87.6504 78.873 87.9297 77.9063 88.4883 77.2617C89.0612 76.6172 89.8346 76.2949 90.8086 76.2949C91.7682 76.2949 92.5417 76.6172 93.1289 77.2617C93.7305 77.8919 94.0313 78.8587 94.0313 80.1621Z" fill="white"/>
<path d="M121.295 104.977V80.1621C121.295 78.873 121.589 77.9063 122.176 77.2617C122.763 76.6172 123.522 76.2949 124.453 76.2949C125.413 76.2949 126.186 76.6172 126.773 77.2617C127.375 77.8919 127.676 78.8587 127.676 80.1621V104.977C127.676 106.28 127.375 107.254 126.773 107.898C126.186 108.543 125.413 108.865 124.453 108.865C123.536 108.865 122.777 108.543 122.176 107.898C121.589 107.24 121.295 106.266 121.295 104.977Z" fill="white"/>
<path d="M147.055 96.0605H141.211V104.977C141.211 106.251 140.91 107.218 140.309 107.877C139.707 108.536 138.948 108.865 138.031 108.865C137.072 108.865 136.298 108.543 135.711 107.898C135.124 107.24 134.83 106.28 134.83 105.02V80.7422C134.83 79.3385 135.152 78.3359 135.797 77.7344C136.441 77.1328 137.465 76.832 138.869 76.832H147.055C149.475 76.832 151.337 77.0182 152.641 77.3906C153.93 77.7487 155.04 78.3431 155.971 79.1738C156.916 80.0046 157.632 81.0215 158.119 82.2246C158.606 83.4277 158.85 84.7813 158.85 86.2852C158.85 89.4935 157.861 91.9284 155.885 93.5898C153.908 95.237 150.965 96.0605 147.055 96.0605ZM145.508 81.623H141.211V91.248H145.508C147.012 91.248 148.265 91.0905 149.268 90.7754C150.285 90.4603 151.058 89.9447 151.588 89.2285C152.118 88.5124 152.383 87.5742 152.383 86.4141C152.383 85.0247 151.975 83.8932 151.158 83.0195C150.242 82.0885 148.358 81.623 145.508 81.623Z" fill="white"/>
<path d="M188.111 98.875C188.111 100.78 187.617 102.492 186.629 104.01C185.655 105.528 184.223 106.717 182.332 107.576C180.441 108.436 178.2 108.865 175.607 108.865C172.499 108.865 169.936 108.278 167.916 107.104C166.484 106.258 165.316 105.134 164.414 103.73C163.526 102.313 163.082 100.938 163.082 99.6055C163.082 98.832 163.347 98.1732 163.877 97.6289C164.421 97.0703 165.109 96.791 165.939 96.791C166.613 96.791 167.178 97.0059 167.637 97.4355C168.109 97.8652 168.51 98.5026 168.84 99.3477C169.241 100.35 169.671 101.188 170.129 101.861C170.602 102.535 171.26 103.093 172.105 103.537C172.951 103.967 174.061 104.182 175.436 104.182C177.326 104.182 178.859 103.745 180.033 102.871C181.222 101.983 181.816 100.88 181.816 99.5625C181.816 98.5169 181.494 97.6719 180.85 97.0273C180.219 96.3685 179.396 95.8672 178.379 95.5234C177.376 95.1797 176.03 94.8145 174.34 94.4277C172.077 93.8978 170.179 93.2819 168.646 92.5801C167.128 91.8639 165.918 90.8971 165.016 89.6797C164.128 88.4479 163.684 86.9225 163.684 85.1035C163.684 83.3704 164.156 81.8307 165.102 80.4844C166.047 79.138 167.415 78.1068 169.205 77.3906C170.995 76.6602 173.101 76.2949 175.521 76.2949C177.455 76.2949 179.124 76.5384 180.527 77.0254C181.945 77.498 183.12 78.1354 184.051 78.9375C184.982 79.7253 185.662 80.556 186.092 81.4297C186.521 82.3034 186.736 83.1556 186.736 83.9863C186.736 84.7454 186.464 85.4329 185.92 86.0488C185.39 86.6504 184.724 86.9512 183.922 86.9512C183.191 86.9512 182.633 86.7721 182.246 86.4141C181.874 86.0417 181.465 85.4401 181.021 84.6094C180.449 83.4206 179.761 82.4967 178.959 81.8379C178.157 81.1647 176.868 80.8281 175.092 80.8281C173.445 80.8281 172.113 81.1934 171.096 81.9238C170.093 82.64 169.592 83.5065 169.592 84.5234C169.592 85.1536 169.764 85.6979 170.107 86.1563C170.451 86.6146 170.924 87.0085 171.525 87.3379C172.127 87.6673 172.736 87.9251 173.352 88.1113C173.967 88.2975 174.984 88.5697 176.402 88.9277C178.178 89.3431 179.783 89.8014 181.215 90.3027C182.661 90.804 183.886 91.4128 184.889 92.1289C185.906 92.8451 186.693 93.7546 187.252 94.8574C187.825 95.946 188.111 97.2852 188.111 98.875Z" fill="white"/>
<defs>
<filter id="filter0_d_1564_6189" x="118.353" y="126.483" width="48.5451" height="50.6252" filterUnits="userSpaceOnUse" color-interpolation-filters="sRGB">
<feFlood flood-opacity="0" result="BackgroundImageFix"/>
<feColorMatrix in="SourceAlpha" type="matrix" values="0 0 0 0 0 0 0 0 0 0 0 0 0 0 0 0 0 0 127 0" result="hardAlpha"/>
<feOffset dx="2" dy="2"/>
<feGaussianBlur stdDeviation="0.4"/>
<feComposite in2="hardAlpha" operator="out"/>
<feColorMatrix type="matrix" values="0 0 0 0 0 0 0 0 0 0 0 0 0 0 0 0 0 0 0.25 0"/>
<feBlend mode="normal" in2="BackgroundImageFix" result="effect1_dropShadow_1564_6189"/>
<feBlend mode="normal" in="SourceGraphic" in2="effect1_dropShadow_1564_6189" result="shape"/>
</filter>
<filter id="filter1_di_1564_6189" x="97.2598" y="137.839" width="37.3684" height="35.3559" filterUnits="userSpaceOnUse" color-interpolation-filters="sRGB">
<feFlood flood-opacity="0" result="BackgroundImageFix"/>
<feColorMatrix in="SourceAlpha" type="matrix" values="0 0 0 0 0 0 0 0 0 0 0 0 0 0 0 0 0 0 127 0" result="hardAlpha"/>
<feOffset dx="2" dy="2"/>
<feGaussianBlur stdDeviation="0.4"/>
<feComposite in2="hardAlpha" operator="out"/>
<feColorMatrix type="matrix" values="0 0 0 0 0 0 0 0 0 0 0 0 0 0 0 0 0 0 0.25 0"/>
<feBlend mode="normal" in2="BackgroundImageFix" result="effect1_dropShadow_1564_6189"/>
<feBlend mode="normal" in="SourceGraphic" in2="effect1_dropShadow_1564_6189" result="shape"/>
<feColorMatrix in="SourceAlpha" type="matrix" values="0 0 0 0 0 0 0 0 0 0 0 0 0 0 0 0 0 0 127 0" result="hardAlpha"/>
<feOffset dy="-0.8"/>
<feGaussianBlur stdDeviation="1"/>
<feComposite in2="hardAlpha" operator="arithmetic" k2="-1" k3="1"/>
<feColorMatrix type="matrix" values="0 0 0 0 0 0 0 0 0 0 0 0 0 0 0 0 0 0 0.25 0"/>
<feBlend mode="normal" in2="shape" result="effect2_innerShadow_1564_6189"/>
</filter>
<filter id="filter2_d_1564_6189" x="79.9336" y="155.652" width="42.5939" height="22.4514" filterUnits="userSpaceOnUse" color-interpolation-filters="sRGB">
<feFlood flood-opacity="0" result="BackgroundImageFix"/>
<feColorMatrix in="SourceAlpha" type="matrix" values="0 0 0 0 0 0 0 0 0 0 0 0 0 0 0 0 0 0 127 0" result="hardAlpha"/>
<feOffset dx="2" dy="2"/>
<feGaussianBlur stdDeviation="0.4"/>
<feComposite in2="hardAlpha" operator="out"/>
<feColorMatrix type="matrix" values="0 0 0 0 0 0 0 0 0 0 0 0 0 0 0 0 0 0 0.25 0"/>
<feBlend mode="normal" in2="BackgroundImageFix" result="effect1_dropShadow_1564_6189"/>
<feBlend mode="normal" in="SourceGraphic" in2="effect1_dropShadow_1564_6189" result="shape"/>
</filter>
<filter id="filter3_i_1564_6189" x="79.9336" y="154.852" width="39.7939" height="20.4514" filterUnits="userSpaceOnUse" color-interpolation-filters="sRGB">
<feFlood flood-opacity="0" result="BackgroundImageFix"/>
<feBlend mode="normal" in="SourceGraphic" in2="BackgroundImageFix" result="shape"/>
<feColorMatrix in="SourceAlpha" type="matrix" values="0 0 0 0 0 0 0 0 0 0 0 0 0 0 0 0 0 0 127 0" result="hardAlpha"/>
<feOffset dy="-0.8"/>
<feGaussianBlur stdDeviation="1"/>
<feComposite in2="hardAlpha" operator="arithmetic" k2="-1" k3="1"/>
<feColorMatrix type="matrix" values="0 0 0 0 0 0 0 0 0 0 0 0 0 0 0 0 0 0 0.25 0"/>
<feBlend mode="normal" in2="shape" result="effect1_innerShadow_1564_6189"/>
</filter>
</defs>
</svg>
