<svg width="247" height="194" viewBox="0 0 247 194" fill="none" xmlns="http://www.w3.org/2000/svg">
<g filter="url(#filter0_d_1567_6248)">
<path d="M24.3091 96.7537C24.3091 96.7537 8.70905 86.8537 6.08405 74.7037C3.45905 62.5537 4.05905 48.3037 4.05905 48.3037M226.659 96.7537C226.659 96.7537 236.559 88.1287 239.634 76.5037C242.709 64.8787 242.634 54.3787 242.634 54.3787M87.909 166.804L80.709 189.229H64.059M161.634 166.804L168.084 189.229H186.909" stroke="black" stroke-width="6.3" stroke-linecap="round"/>
</g>
<g filter="url(#filter1_i_1567_6248)">
<path d="M219.984 141.692C219.984 153.94 214.659 169.204 125.334 168.304C36.0088 167.404 30.3838 153.94 30.3838 141.692C30.3838 129.444 43.2088 116.374 122.559 116.029C201.909 115.683 219.984 129.444 219.984 141.692Z" fill="#FF9900"/>
</g>
<path d="M31.1343 141.898C61.3927 150.196 83.0074 152.413 116.184 153.27M31.1478 142.68C61.3713 150.95 83.0261 153.164 116.164 154.02C132.944 154.453 155.507 152.518 173.848 150.48C183.024 149.46 191.154 148.414 196.989 147.622C199.907 147.226 202.252 146.894 203.867 146.661C204.675 146.544 205.301 146.452 205.725 146.389C205.936 146.358 206.098 146.334 206.206 146.318L206.329 146.299L206.361 146.294L206.368 146.293L206.37 146.293C206.371 146.293 206.371 146.293 206.259 145.551C206.146 144.81 206.146 144.81 206.146 144.81L206.144 144.81L206.136 144.811L206.106 144.816L205.984 144.834C205.876 144.85 205.716 144.874 205.505 144.906C205.083 144.968 204.459 145.06 203.653 145.176C202.041 145.409 199.701 145.74 196.788 146.136C190.961 146.926 182.844 147.971 173.682 148.989C155.348 151.027 132.873 152.951 116.203 152.52C82.997 151.663 61.4252 149.443 31.1436 141.123C31.2388 138.394 32.042 135.658 34.2055 133.041C36.5342 130.226 40.4849 127.495 46.9746 125.101C59.9696 120.307 82.9021 116.952 122.562 116.779C162.213 116.606 186.468 119.961 200.785 124.848C215.114 129.739 219.234 136.055 219.234 141.692C219.234 144.702 218.904 147.79 217.114 150.756C215.325 153.72 212.016 156.66 205.866 159.237C193.523 164.406 169.998 168.004 125.341 167.554C80.6806 167.104 57.0692 163.509 44.6395 158.557C38.4422 156.087 35.1003 153.309 33.2897 150.486C31.6795 147.975 31.2276 145.348 31.1478 142.68Z" stroke="#B15500" stroke-width="1.5"/>
<g filter="url(#filter2_i_1567_6248)">
<path d="M26.0342 131.029C26.1092 127.654 37.6592 125.179 37.6592 125.179H209.934C214.583 126.237 217.251 126.154 221.559 131.029C220.659 134.029 215.709 134.554 213.984 136.804L215.709 141.229C215.709 141.229 212.109 146.704 209.934 146.704C207.759 146.704 197.289 143.629 195.909 143.629C194.529 143.629 190.084 145.679 188.034 146.704C188.034 146.704 184.209 151.504 179.484 154.579C174.759 157.654 164.784 157.354 156.609 156.304C148.434 155.254 143.259 151.504 143.259 151.504C143.259 151.504 139.434 148.654 136.134 148.129C132.834 147.604 117.309 151.504 117.309 151.504L99.1592 156.304C99.1592 156.304 90.9842 158.479 83.4092 156.304C75.8342 154.129 77.2592 152.179 72.5342 146.704C67.8092 141.229 52.6592 136.804 52.6592 136.804C52.6592 136.804 50.0342 141.754 39.6842 141.229C29.3342 140.704 26.0342 131.029 26.0342 131.029Z" fill="#67E73A"/>
</g>
<path d="M26.0342 131.029C26.1092 127.654 37.6592 125.179 37.6592 125.179H209.934C214.583 126.237 217.251 126.154 221.559 131.029C220.659 134.029 215.709 134.554 213.984 136.804L215.709 141.229C215.709 141.229 212.109 146.704 209.934 146.704C207.759 146.704 197.289 143.629 195.909 143.629C194.529 143.629 190.084 145.679 188.034 146.704C188.034 146.704 184.209 151.504 179.484 154.579C174.759 157.654 164.784 157.354 156.609 156.304C148.434 155.254 143.259 151.504 143.259 151.504C143.259 151.504 139.434 148.654 136.134 148.129C132.834 147.604 117.309 151.504 117.309 151.504L99.1592 156.304C99.1592 156.304 90.9842 158.479 83.4092 156.304C75.8342 154.129 77.2592 152.179 72.5342 146.704C67.8092 141.229 52.6592 136.804 52.6592 136.804C52.6592 136.804 50.0342 141.754 39.6842 141.229C29.3342 140.704 26.0342 131.029 26.0342 131.029Z" stroke="#2B870B" stroke-width="0.3"/>
<g filter="url(#filter3_i_1567_6248)">
<path d="M39.6955 69.4006C61.6419 50.9405 177.892 51.6053 207.818 69.4006C237.744 87.1959 228.3 125.577 207.818 136.734C187.336 147.89 60.9761 150.877 39.6955 136.734C18.4148 122.591 17.7491 87.8608 39.6955 69.4006Z" fill="#B15500"/>
</g>
<g filter="url(#filter4_i_1567_6248)">
<path d="M41.5594 60.9785L182.859 36.5285C182.859 36.5285 219.684 79.7285 214.584 89.5535C211.959 91.5785 191.055 89.7131 158.709 89.5535C128.513 89.4046 83.8857 94.4019 76.209 102.079C71.8572 106.43 61.6593 120.711 60.3843 98.5535C56.6341 89.5535 52.8841 84.5285 40.2842 82.2035C33.3654 73.6092 41.5594 60.9785 41.5594 60.9785Z" fill="#FFC700"/>
</g>
<g filter="url(#filter5_d_1567_6248)">
<path d="M102.909 147.828C104.859 148.129 125.484 149.553 125.484 149.553C106.036 154.822 95.8405 157.532 91.5836 157.578C82.6428 157.342 77.7088 157.288 73.8086 148.428C73.8086 148.428 74.0336 144.828 76.7336 141.903C79.4336 138.979 91.5836 141.903 91.5836 141.903C91.5836 141.903 100.959 147.528 102.909 147.828Z" fill="#2B870B"/>
<path d="M124.583 149.641L124.585 149.641C115.282 152.161 108.148 154.077 102.802 155.379C97.2892 156.721 93.6935 157.405 91.5847 157.428C91.516 157.427 91.4475 157.425 91.3793 157.423C87.0004 157.307 83.6264 157.218 80.8622 156.098C78.0778 154.97 75.8971 152.786 73.961 148.402L73.9612 148.399C73.9634 148.374 73.9671 148.335 73.9726 148.284C73.9838 148.182 74.0028 148.033 74.0339 147.844C74.0963 147.467 74.2073 146.932 74.4018 146.307C74.791 145.056 75.5131 143.447 76.8438 142.005C77.4778 141.318 78.692 140.956 80.2065 140.819C81.711 140.683 83.4717 140.773 85.1549 140.956C86.837 141.138 88.4358 141.411 89.6145 141.639C90.2037 141.753 90.6876 141.856 91.024 141.93C91.1922 141.967 91.3235 141.997 91.4127 142.017L91.5142 142.041L91.5264 142.044L91.5335 142.048L91.6125 142.095C91.6817 142.137 91.7835 142.197 91.9137 142.275C92.1741 142.429 92.5482 142.65 93.0032 142.916C93.9131 143.449 95.1468 144.162 96.4418 144.884C97.7364 145.607 99.0936 146.339 100.25 146.91C100.828 147.196 101.358 147.442 101.805 147.626C102.249 147.809 102.623 147.936 102.886 147.977C103.869 148.128 109.522 148.56 114.916 148.953C117.617 149.15 120.256 149.338 122.22 149.476C123.202 149.545 124.015 149.602 124.583 149.641Z" stroke="#206409" stroke-width="0.3"/>
</g>
<path d="M82.2059 145.319C82.2285 145.197 82.1477 145.08 82.0255 145.057C81.9033 145.034 81.786 145.115 81.7634 145.237L82.2059 145.319ZM90.9847 157.428C91.115 157.245 91.115 157.245 91.115 157.245C91.1149 157.245 91.1149 157.245 91.1149 157.245C91.1148 157.245 91.1147 157.245 91.1145 157.245C91.1142 157.244 91.1136 157.244 91.113 157.243C91.1116 157.242 91.1095 157.241 91.1068 157.239C91.1013 157.235 91.0931 157.229 91.0823 157.222C91.0606 157.206 91.0283 157.183 90.986 157.153C90.9013 157.093 90.7763 157.003 90.6153 156.888C90.2933 156.657 89.8272 156.322 89.2509 155.905C88.0984 155.071 86.5055 153.91 84.7441 152.598L84.4753 152.959C86.2388 154.272 87.8334 155.435 88.9871 156.27C89.564 156.687 90.0307 157.023 90.3532 157.254C90.5145 157.369 90.6397 157.459 90.7247 157.519C90.7671 157.55 90.7995 157.573 90.8213 157.588C90.8322 157.596 90.8405 157.602 90.846 157.606C90.8487 157.608 90.8508 157.609 90.8522 157.61C90.8529 157.611 90.8535 157.611 90.8538 157.611C90.854 157.611 90.8541 157.612 90.8542 157.612C90.8543 157.612 90.8543 157.612 90.8543 157.612C90.8543 157.612 90.8543 157.612 90.9847 157.428ZM84.7441 152.598C83.0471 151.334 82.409 149.526 82.1981 148.013C82.0928 147.257 82.0951 146.581 82.1237 146.094C82.1381 145.851 82.1589 145.655 82.1761 145.521C82.1846 145.455 82.1923 145.403 82.1977 145.369C82.2004 145.352 82.2025 145.339 82.204 145.33C82.2047 145.326 82.2052 145.323 82.2055 145.321C82.2057 145.32 82.2058 145.32 82.2059 145.319C82.2059 145.319 82.206 145.319 82.206 145.319C82.206 145.319 82.206 145.319 82.206 145.319C82.2059 145.319 82.2059 145.319 81.9847 145.278C81.7634 145.237 81.7634 145.238 81.7634 145.238C81.7634 145.238 81.7633 145.238 81.7633 145.238C81.7633 145.238 81.7632 145.239 81.7631 145.239C81.763 145.24 81.7628 145.241 81.7625 145.242C81.762 145.245 81.7613 145.249 81.7604 145.254C81.7587 145.265 81.7562 145.279 81.7532 145.299C81.7471 145.337 81.7389 145.393 81.7297 145.464C81.7114 145.607 81.6895 145.813 81.6745 146.068C81.6446 146.577 81.6421 147.284 81.7525 148.075C81.9728 149.656 82.6472 151.597 84.4753 152.959L84.7441 152.598Z" fill="#206409"/>
<g filter="url(#filter6_d_1567_6248)">
<path d="M164.634 154.278C162.609 155.328 151.209 155.103 151.209 155.103C160.596 157.222 171.384 157.653 176.259 156.153C181.134 154.653 182.993 152.388 186.159 148.953C186.159 148.953 182.409 149.253 181.659 148.953C180.909 148.653 179.784 147.903 177.984 147.603C176.184 147.303 172.959 147.003 170.784 148.953C168.609 150.903 166.659 153.228 164.634 154.278Z" fill="#2B870B"/>
<path d="M164.634 154.278C162.609 155.328 151.209 155.103 151.209 155.103C160.596 157.222 171.384 157.653 176.259 156.153C181.134 154.653 182.993 152.388 186.159 148.953C186.159 148.953 182.409 149.253 181.659 148.953C180.909 148.653 179.784 147.903 177.984 147.603C176.184 147.303 172.959 147.003 170.784 148.953C168.609 150.903 166.659 153.228 164.634 154.278Z" stroke="#206409" stroke-width="0.3"/>
</g>
<path d="M117.67 106.003C117.741 99.0449 111.63 90.8637 109.434 86.2529H131.398H153.362C153.362 86.2529 161.458 93.422 163.57 100.802C165.682 108.182 168.063 119.411 162.009 128.478C155.954 137.545 147.308 140.865 136.607 140.021C125.907 139.178 121.753 137.842 115.769 130.181C109.786 122.52 117.6 112.961 117.67 106.003Z" fill="#E31616"/>
<path d="M131.398 86.2529H153.362C153.362 86.2529 161.458 93.422 163.57 100.802C165.682 108.182 168.063 119.411 162.009 128.478C155.954 137.545 147.308 140.865 136.607 140.021C125.907 139.178 121.753 137.842 115.769 130.181C109.786 122.52 117.6 112.961 117.67 106.003C117.741 99.0449 111.63 90.8637 109.434 86.2529H131.398ZM131.398 86.2529C131.398 86.2529 140.761 98.2717 140.761 106.003C140.761 113.735 138.719 117.881 138.719 117.881" stroke="#911010" stroke-width="1.35"/>
<g filter="url(#filter7_i_1567_6248)">
<path d="M219.984 60.3782C217.359 83.5533 177.54 89.2532 125.184 89.2532C72.8272 89.2532 33.6838 83.5534 30.3838 60.3782C30.3838 44.431 45.8338 0.453339 125.184 0.00335944C204.534 -0.44662 219.984 44.431 219.984 60.3782Z" fill="#FF9900"/>
</g>
<path d="M219.234 60.3359C217.958 71.3871 207.816 78.473 191.047 82.7799C174.317 87.0768 151.353 88.5032 125.184 88.5032C99.0145 88.5032 76.2202 87.0768 59.575 82.7802C42.9046 78.477 32.7386 71.3921 31.1339 60.325C31.1511 52.5354 34.9482 37.7917 48.5431 24.924C62.154 12.0411 85.654 0.977538 125.188 0.753347C164.717 0.529183 188.213 11.5923 201.822 24.5843C215.423 37.5691 219.22 52.5453 219.234 60.3359Z" stroke="#B15500" stroke-width="1.5"/>
<ellipse cx="93.591" cy="55.8719" rx="7.40648" ry="14.9188" fill="black"/>
<ellipse cx="162.788" cy="55.8719" rx="7.40648" ry="14.9188" fill="black"/>
<g filter="url(#filter8_d_1567_6248)">
<ellipse cx="82.2269" cy="16.398" rx="3.75" ry="1.5" transform="rotate(-30.4858 82.2269 16.398)" fill="#FBE8A4"/>
</g>
<g filter="url(#filter9_d_1567_6248)">
<ellipse cx="150.327" cy="12.3487" rx="3.75" ry="1.5" transform="rotate(-37.5414 150.327 12.3487)" fill="#FBE8A4"/>
</g>
<g filter="url(#filter10_d_1567_6248)">
<ellipse cx="150.236" cy="24.7401" rx="3.75" ry="1.5" transform="rotate(-69.814 150.236 24.7401)" fill="#FBE8A4"/>
</g>
<g filter="url(#filter11_d_1567_6248)">
<ellipse cx="113.277" cy="11.7483" rx="3.75" ry="1.5" transform="rotate(20.8145 113.277 11.7483)" fill="#FBE8A4"/>
</g>
<g filter="url(#filter12_d_1567_6248)">
<ellipse cx="133.12" cy="19.1679" rx="3.75" ry="1.5" transform="rotate(50.4505 133.12 19.1679)" fill="#FBE8A4"/>
</g>
<g filter="url(#filter13_d_1567_6248)">
<ellipse cx="168.303" cy="20.3398" rx="3.75" ry="1.5" transform="rotate(-121.05 168.303 20.3398)" fill="#FBE8A4"/>
</g>
<g filter="url(#filter14_d_1567_6248)">
<ellipse cx="97.6964" cy="21.9211" rx="3.75" ry="1.5" transform="rotate(-54.1468 97.6964 21.9211)" fill="#FBE8A4"/>
</g>
<path d="M38.125 107.325L46.9 114.225M65.125 125.475H72.85M88.675 111.525L92.95 118.125M190.225 110.4L192.1 100.35M202.525 118.125L210.25 114.225M176.275 122.4L181.675 128.925M99.1 102.3L107.575 107.325M176.275 95.3252L170.125 100.35M212.575 98.0252L217.975 102.3M46.9 96.5252H54.85M97.375 135.975L107.575 133.275" stroke="#CF731E" stroke-width="6.3" stroke-linecap="round"/>
<defs>
<filter id="filter0_d_1567_6248" x="0.249609" y="45.1533" width="246.135" height="148.426" filterUnits="userSpaceOnUse" color-interpolation-filters="sRGB">
<feFlood flood-opacity="0" result="BackgroundImageFix"/>
<feColorMatrix in="SourceAlpha" type="matrix" values="0 0 0 0 0 0 0 0 0 0 0 0 0 0 0 0 0 0 127 0" result="hardAlpha"/>
<feOffset dy="0.6"/>
<feGaussianBlur stdDeviation="0.3"/>
<feComposite in2="hardAlpha" operator="out"/>
<feColorMatrix type="matrix" values="0 0 0 0 0 0 0 0 0 0 0 0 0 0 0 0 0 0 0.25 0"/>
<feBlend mode="normal" in2="BackgroundImageFix" result="effect1_dropShadow_1567_6248"/>
<feBlend mode="normal" in="SourceGraphic" in2="effect1_dropShadow_1567_6248" result="shape"/>
</filter>
<filter id="filter1_i_1567_6248" x="30.3838" y="113.022" width="189.6" height="55.3193" filterUnits="userSpaceOnUse" color-interpolation-filters="sRGB">
<feFlood flood-opacity="0" result="BackgroundImageFix"/>
<feBlend mode="normal" in="SourceGraphic" in2="BackgroundImageFix" result="shape"/>
<feColorMatrix in="SourceAlpha" type="matrix" values="0 0 0 0 0 0 0 0 0 0 0 0 0 0 0 0 0 0 127 0" result="hardAlpha"/>
<feOffset dy="-7.5"/>
<feGaussianBlur stdDeviation="1.5"/>
<feComposite in2="hardAlpha" operator="arithmetic" k2="-1" k3="1"/>
<feColorMatrix type="matrix" values="0 0 0 0 1 0 0 0 0 1 0 0 0 0 1 0 0 0 0.2 0"/>
<feBlend mode="normal" in2="shape" result="effect1_innerShadow_1567_6248"/>
</filter>
<filter id="filter2_i_1567_6248" x="25.8838" y="122.028" width="195.843" height="35.3916" filterUnits="userSpaceOnUse" color-interpolation-filters="sRGB">
<feFlood flood-opacity="0" result="BackgroundImageFix"/>
<feBlend mode="normal" in="SourceGraphic" in2="BackgroundImageFix" result="shape"/>
<feColorMatrix in="SourceAlpha" type="matrix" values="0 0 0 0 0 0 0 0 0 0 0 0 0 0 0 0 0 0 127 0" result="hardAlpha"/>
<feOffset dy="-3"/>
<feGaussianBlur stdDeviation="3.75"/>
<feComposite in2="hardAlpha" operator="arithmetic" k2="-1" k3="1"/>
<feColorMatrix type="matrix" values="0 0 0 0 0 0 0 0 0 0 0 0 0 0 0 0 0 0 0.25 0"/>
<feBlend mode="normal" in2="shape" result="effect1_innerShadow_1567_6248"/>
</filter>
<filter id="filter3_i_1567_6248" x="23.4844" y="52.8037" width="210.9" height="93.4502" filterUnits="userSpaceOnUse" color-interpolation-filters="sRGB">
<feFlood flood-opacity="0" result="BackgroundImageFix"/>
<feBlend mode="normal" in="SourceGraphic" in2="BackgroundImageFix" result="shape"/>
<feColorMatrix in="SourceAlpha" type="matrix" values="0 0 0 0 0 0 0 0 0 0 0 0 0 0 0 0 0 0 127 0" result="hardAlpha"/>
<feOffset dx="7.5" dy="-3"/>
<feGaussianBlur stdDeviation="3.75"/>
<feComposite in2="hardAlpha" operator="arithmetic" k2="-1" k3="1"/>
<feColorMatrix type="matrix" values="0 0 0 0 0 0 0 0 0 0 0 0 0 0 0 0 0 0 0.25 0"/>
<feBlend mode="normal" in2="shape" result="effect1_innerShadow_1567_6248"/>
</filter>
<filter id="filter4_i_1567_6248" x="37.5078" y="35.0283" width="179.061" height="75.5986" filterUnits="userSpaceOnUse" color-interpolation-filters="sRGB">
<feFlood flood-opacity="0" result="BackgroundImageFix"/>
<feBlend mode="normal" in="SourceGraphic" in2="BackgroundImageFix" result="shape"/>
<feColorMatrix in="SourceAlpha" type="matrix" values="0 0 0 0 0 0 0 0 0 0 0 0 0 0 0 0 0 0 127 0" result="hardAlpha"/>
<feOffset dx="1.5" dy="-1.5"/>
<feGaussianBlur stdDeviation="3.75"/>
<feComposite in2="hardAlpha" operator="arithmetic" k2="-1" k3="1"/>
<feColorMatrix type="matrix" values="0 0 0 0 1 0 0 0 0 1 0 0 0 0 1 0 0 0 0.4 0"/>
<feBlend mode="normal" in2="shape" result="effect1_innerShadow_1567_6248"/>
</filter>
<filter id="filter5_d_1567_6248" x="70.8086" y="139.104" width="57.6748" height="22.9746" filterUnits="userSpaceOnUse" color-interpolation-filters="sRGB">
<feFlood flood-opacity="0" result="BackgroundImageFix"/>
<feColorMatrix in="SourceAlpha" type="matrix" values="0 0 0 0 0 0 0 0 0 0 0 0 0 0 0 0 0 0 127 0" result="hardAlpha"/>
<feOffset dy="1.5"/>
<feGaussianBlur stdDeviation="1.5"/>
<feComposite in2="hardAlpha" operator="out"/>
<feColorMatrix type="matrix" values="0 0 0 0 0 0 0 0 0 0 0 0 0 0 0 0 0 0 0.25 0"/>
<feBlend mode="normal" in2="BackgroundImageFix" result="effect1_dropShadow_1567_6248"/>
<feBlend mode="normal" in="SourceGraphic" in2="effect1_dropShadow_1567_6248" result="shape"/>
</filter>
<filter id="filter6_d_1567_6248" x="148.176" y="144.833" width="41.3535" height="15.958" filterUnits="userSpaceOnUse" color-interpolation-filters="sRGB">
<feFlood flood-opacity="0" result="BackgroundImageFix"/>
<feColorMatrix in="SourceAlpha" type="matrix" values="0 0 0 0 0 0 0 0 0 0 0 0 0 0 0 0 0 0 127 0" result="hardAlpha"/>
<feOffset dy="0.6"/>
<feGaussianBlur stdDeviation="1.5"/>
<feComposite in2="hardAlpha" operator="out"/>
<feColorMatrix type="matrix" values="0 0 0 0 0 0 0 0 0 0 0 0 0 0 0 0 0 0 0.25 0"/>
<feBlend mode="normal" in2="BackgroundImageFix" result="effect1_dropShadow_1567_6248"/>
<feBlend mode="normal" in="SourceGraphic" in2="effect1_dropShadow_1567_6248" result="shape"/>
</filter>
<filter id="filter7_i_1567_6248" x="30.3838" y="-3" width="189.6" height="92.2529" filterUnits="userSpaceOnUse" color-interpolation-filters="sRGB">
<feFlood flood-opacity="0" result="BackgroundImageFix"/>
<feBlend mode="normal" in="SourceGraphic" in2="BackgroundImageFix" result="shape"/>
<feColorMatrix in="SourceAlpha" type="matrix" values="0 0 0 0 0 0 0 0 0 0 0 0 0 0 0 0 0 0 127 0" result="hardAlpha"/>
<feOffset dy="-7.5"/>
<feGaussianBlur stdDeviation="1.5"/>
<feComposite in2="hardAlpha" operator="arithmetic" k2="-1" k3="1"/>
<feColorMatrix type="matrix" values="0 0 0 0 1 0 0 0 0 1 0 0 0 0 1 0 0 0 0.2 0"/>
<feBlend mode="normal" in2="shape" result="effect1_innerShadow_1567_6248"/>
</filter>
<filter id="filter8_d_1567_6248" x="75.9063" y="11.6977" width="12.6416" height="10.6006" filterUnits="userSpaceOnUse" color-interpolation-filters="sRGB">
<feFlood flood-opacity="0" result="BackgroundImageFix"/>
<feColorMatrix in="SourceAlpha" type="matrix" values="0 0 0 0 0 0 0 0 0 0 0 0 0 0 0 0 0 0 127 0" result="hardAlpha"/>
<feOffset dy="0.6"/>
<feGaussianBlur stdDeviation="1.5"/>
<feComposite in2="hardAlpha" operator="out"/>
<feColorMatrix type="matrix" values="0 0 0 0 0 0 0 0 0 0 0 0 0 0 0 0 0 0 0.25 0"/>
<feBlend mode="normal" in2="BackgroundImageFix" result="effect1_dropShadow_1567_6248"/>
<feBlend mode="normal" in="SourceGraphic" in2="effect1_dropShadow_1567_6248" result="shape"/>
</filter>
<filter id="filter9_d_1567_6248" x="144.215" y="7.37246" width="12.2236" height="11.1523" filterUnits="userSpaceOnUse" color-interpolation-filters="sRGB">
<feFlood flood-opacity="0" result="BackgroundImageFix"/>
<feColorMatrix in="SourceAlpha" type="matrix" values="0 0 0 0 0 0 0 0 0 0 0 0 0 0 0 0 0 0 127 0" result="hardAlpha"/>
<feOffset dy="0.6"/>
<feGaussianBlur stdDeviation="1.5"/>
<feComposite in2="hardAlpha" operator="out"/>
<feColorMatrix type="matrix" values="0 0 0 0 0 0 0 0 0 0 0 0 0 0 0 0 0 0 0.25 0"/>
<feBlend mode="normal" in2="BackgroundImageFix" result="effect1_dropShadow_1567_6248"/>
<feBlend mode="normal" in="SourceGraphic" in2="effect1_dropShadow_1567_6248" result="shape"/>
</filter>
<filter id="filter10_d_1567_6248" x="145.324" y="18.7826" width="9.82422" height="13.1152" filterUnits="userSpaceOnUse" color-interpolation-filters="sRGB">
<feFlood flood-opacity="0" result="BackgroundImageFix"/>
<feColorMatrix in="SourceAlpha" type="matrix" values="0 0 0 0 0 0 0 0 0 0 0 0 0 0 0 0 0 0 127 0" result="hardAlpha"/>
<feOffset dy="0.6"/>
<feGaussianBlur stdDeviation="1.5"/>
<feComposite in2="hardAlpha" operator="out"/>
<feColorMatrix type="matrix" values="0 0 0 0 0 0 0 0 0 0 0 0 0 0 0 0 0 0 0.25 0"/>
<feBlend mode="normal" in2="BackgroundImageFix" result="effect1_dropShadow_1567_6248"/>
<feBlend mode="normal" in="SourceGraphic" in2="effect1_dropShadow_1567_6248" result="shape"/>
</filter>
<filter id="filter11_d_1567_6248" x="106.73" y="7.41445" width="13.0928" height="9.86816" filterUnits="userSpaceOnUse" color-interpolation-filters="sRGB">
<feFlood flood-opacity="0" result="BackgroundImageFix"/>
<feColorMatrix in="SourceAlpha" type="matrix" values="0 0 0 0 0 0 0 0 0 0 0 0 0 0 0 0 0 0 127 0" result="hardAlpha"/>
<feOffset dy="0.6"/>
<feGaussianBlur stdDeviation="1.5"/>
<feComposite in2="hardAlpha" operator="out"/>
<feColorMatrix type="matrix" values="0 0 0 0 0 0 0 0 0 0 0 0 0 0 0 0 0 0 0.25 0"/>
<feBlend mode="normal" in2="BackgroundImageFix" result="effect1_dropShadow_1567_6248"/>
<feBlend mode="normal" in="SourceGraphic" in2="effect1_dropShadow_1567_6248" result="shape"/>
</filter>
<filter id="filter12_d_1567_6248" x="127.466" y="13.7221" width="11.3076" height="12.0918" filterUnits="userSpaceOnUse" color-interpolation-filters="sRGB">
<feFlood flood-opacity="0" result="BackgroundImageFix"/>
<feColorMatrix in="SourceAlpha" type="matrix" values="0 0 0 0 0 0 0 0 0 0 0 0 0 0 0 0 0 0 127 0" result="hardAlpha"/>
<feOffset dy="0.6"/>
<feGaussianBlur stdDeviation="1.5"/>
<feComposite in2="hardAlpha" operator="out"/>
<feColorMatrix type="matrix" values="0 0 0 0 0 0 0 0 0 0 0 0 0 0 0 0 0 0 0.25 0"/>
<feBlend mode="normal" in2="BackgroundImageFix" result="effect1_dropShadow_1567_6248"/>
<feBlend mode="normal" in="SourceGraphic" in2="effect1_dropShadow_1567_6248" result="shape"/>
</filter>
<filter id="filter13_d_1567_6248" x="162.98" y="14.6342" width="10.6445" height="12.6113" filterUnits="userSpaceOnUse" color-interpolation-filters="sRGB">
<feFlood flood-opacity="0" result="BackgroundImageFix"/>
<feColorMatrix in="SourceAlpha" type="matrix" values="0 0 0 0 0 0 0 0 0 0 0 0 0 0 0 0 0 0 127 0" result="hardAlpha"/>
<feOffset dy="0.6"/>
<feGaussianBlur stdDeviation="1.5"/>
<feComposite in2="hardAlpha" operator="out"/>
<feColorMatrix type="matrix" values="0 0 0 0 0 0 0 0 0 0 0 0 0 0 0 0 0 0 0.25 0"/>
<feBlend mode="normal" in2="BackgroundImageFix" result="effect1_dropShadow_1567_6248"/>
<feBlend mode="normal" in="SourceGraphic" in2="effect1_dropShadow_1567_6248" result="shape"/>
</filter>
<filter id="filter14_d_1567_6248" x="92.1855" y="16.3568" width="11.0215" height="12.3291" filterUnits="userSpaceOnUse" color-interpolation-filters="sRGB">
<feFlood flood-opacity="0" result="BackgroundImageFix"/>
<feColorMatrix in="SourceAlpha" type="matrix" values="0 0 0 0 0 0 0 0 0 0 0 0 0 0 0 0 0 0 127 0" result="hardAlpha"/>
<feOffset dy="0.6"/>
<feGaussianBlur stdDeviation="1.5"/>
<feComposite in2="hardAlpha" operator="out"/>
<feColorMatrix type="matrix" values="0 0 0 0 0 0 0 0 0 0 0 0 0 0 0 0 0 0 0.25 0"/>
<feBlend mode="normal" in2="BackgroundImageFix" result="effect1_dropShadow_1567_6248"/>
<feBlend mode="normal" in="SourceGraphic" in2="effect1_dropShadow_1567_6248" result="shape"/>
</filter>
</defs>
</svg>
