<svg width="1435" height="282" viewBox="0 0 1435 282" fill="none" xmlns="http://www.w3.org/2000/svg">
<g filter="url(#filter0_d_1573_6400)">
<path d="M24.3091 184.926C24.3091 184.926 8.70905 175.026 6.08405 162.876C3.45905 150.726 4.05905 136.476 4.05905 136.476M226.659 184.926C226.659 184.926 236.559 176.301 239.634 164.676C242.709 153.051 242.634 142.551 242.634 142.551M87.909 254.976L80.709 277.401H64.059M161.634 254.976L168.084 277.401H186.909" stroke="black" stroke-width="6.3" stroke-linecap="round"/>
</g>
<g filter="url(#filter1_i_1573_6400)">
<path d="M219.985 229.864C219.985 242.112 214.66 257.376 125.335 256.476C36.0098 255.576 30.3848 242.112 30.3848 229.864C30.3848 217.616 43.2098 204.546 122.56 204.201C201.91 203.855 219.985 217.616 219.985 229.864Z" fill="#FF9900"/>
</g>
<path d="M31.1353 230.07C61.3937 238.368 83.0084 240.585 116.185 241.442M31.1488 230.852C61.3722 239.122 83.0271 241.336 116.165 242.192C132.945 242.625 155.508 240.69 173.849 238.652C183.025 237.632 191.155 236.586 196.99 235.794C199.908 235.398 202.253 235.066 203.868 234.833C204.676 234.716 205.302 234.624 205.726 234.561C205.937 234.53 206.099 234.506 206.207 234.49L206.33 234.471L206.361 234.466L206.369 234.465L206.371 234.465C206.372 234.465 206.372 234.465 206.26 233.723C206.147 232.982 206.147 232.982 206.147 232.982L206.145 232.982L206.137 232.983L206.107 232.988L205.985 233.006C205.877 233.022 205.717 233.046 205.506 233.077C205.084 233.14 204.46 233.232 203.654 233.348C202.042 233.581 199.702 233.912 196.789 234.308C190.962 235.098 182.845 236.143 173.683 237.161C155.349 239.199 132.874 241.123 116.204 240.692C82.998 239.834 61.4262 237.614 31.1446 229.295C31.2398 226.566 32.043 223.829 34.2065 221.213C36.5352 218.398 40.4859 215.666 46.9756 213.272C59.9705 208.479 82.903 205.123 122.563 204.951C162.214 204.778 186.469 208.133 200.786 213.019C215.115 217.91 219.235 224.227 219.235 229.864C219.235 232.874 218.905 235.962 217.115 238.928C215.326 241.892 212.017 244.832 205.867 247.409C193.524 252.578 169.999 256.176 125.342 255.726C80.6815 255.276 57.0701 251.681 44.6405 246.729C38.4431 244.259 35.1013 241.481 33.2907 238.658C31.6804 236.147 31.2285 233.52 31.1488 230.852Z" stroke="#B15500" stroke-width="1.5"/>
<g filter="url(#filter2_i_1573_6400)">
<path d="M26.0332 219.201C26.1082 215.826 37.6582 213.351 37.6582 213.351H209.933C214.582 214.408 217.25 214.326 221.558 219.201C220.658 222.201 215.708 222.726 213.983 224.976L215.708 229.401C215.708 229.401 212.108 234.876 209.933 234.876C207.758 234.876 197.288 231.801 195.908 231.801C194.528 231.801 190.083 233.851 188.033 234.876C188.033 234.876 184.208 239.676 179.483 242.751C174.758 245.826 164.783 245.526 156.608 244.476C148.433 243.426 143.258 239.676 143.258 239.676C143.258 239.676 139.433 236.826 136.133 236.301C132.833 235.776 117.308 239.676 117.308 239.676L99.1582 244.476C99.1582 244.476 90.9832 246.651 83.4082 244.476C75.8332 242.301 77.2582 240.351 72.5332 234.876C67.8082 229.401 52.6582 224.976 52.6582 224.976C52.6582 224.976 50.0332 229.926 39.6832 229.401C29.3332 228.876 26.0332 219.201 26.0332 219.201Z" fill="#67E73A"/>
</g>
<path d="M26.0332 219.201C26.1082 215.826 37.6582 213.351 37.6582 213.351H209.933C214.582 214.408 217.25 214.326 221.558 219.201C220.658 222.201 215.708 222.726 213.983 224.976L215.708 229.401C215.708 229.401 212.108 234.876 209.933 234.876C207.758 234.876 197.288 231.801 195.908 231.801C194.528 231.801 190.083 233.851 188.033 234.876C188.033 234.876 184.208 239.676 179.483 242.751C174.758 245.826 164.783 245.526 156.608 244.476C148.433 243.426 143.258 239.676 143.258 239.676C143.258 239.676 139.433 236.826 136.133 236.301C132.833 235.776 117.308 239.676 117.308 239.676L99.1582 244.476C99.1582 244.476 90.9832 246.651 83.4082 244.476C75.8332 242.301 77.2582 240.351 72.5332 234.876C67.8082 229.401 52.6582 224.976 52.6582 224.976C52.6582 224.976 50.0332 229.926 39.6832 229.401C29.3332 228.876 26.0332 219.201 26.0332 219.201Z" stroke="#2B870B" stroke-width="0.3"/>
<g filter="url(#filter3_i_1573_6400)">
<path d="M39.6955 157.573C61.6419 139.112 177.892 139.777 207.818 157.573C237.744 175.368 228.3 213.749 207.818 224.905C187.336 236.062 60.9761 239.048 39.6955 224.905C18.4148 210.762 17.7491 176.033 39.6955 157.573Z" fill="#B15500"/>
</g>
<g filter="url(#filter4_i_1573_6400)">
<path d="M41.5584 149.15L182.858 124.7C182.858 124.7 219.683 167.9 214.583 177.725C211.958 179.75 191.054 177.885 158.708 177.725C128.512 177.576 83.8847 182.574 76.208 190.25C71.8562 194.602 61.6583 208.883 60.3833 186.725C56.6331 177.725 52.8831 172.7 40.2832 170.375C33.3644 161.781 41.5584 149.15 41.5584 149.15Z" fill="#FFC700"/>
</g>
<g filter="url(#filter5_d_1573_6400)">
<path d="M102.909 236C104.859 236.301 125.484 237.725 125.484 237.725C106.036 242.994 95.8405 245.704 91.5836 245.75C82.6428 245.514 77.7088 245.46 73.8086 236.6C73.8086 236.6 74.0336 233 76.7336 230.075C79.4336 227.15 91.5836 230.075 91.5836 230.075C91.5836 230.075 100.959 235.7 102.909 236Z" fill="#2B870B"/>
<path d="M124.583 237.813L124.585 237.813C115.282 240.333 108.148 242.249 102.802 243.551C97.2892 244.893 93.6935 245.577 91.5847 245.6C91.516 245.598 91.4475 245.597 91.3793 245.595C87.0004 245.479 83.6264 245.39 80.8622 244.27C78.0778 243.141 75.8971 240.957 73.961 236.574L73.9612 236.571C73.9634 236.545 73.9671 236.507 73.9726 236.456C73.9838 236.354 74.0028 236.205 74.0339 236.016C74.0963 235.639 74.2073 235.104 74.4018 234.479C74.791 233.228 75.5131 231.619 76.8438 230.177C77.4778 229.49 78.692 229.128 80.2065 228.991C81.711 228.855 83.4717 228.945 85.1549 229.128C86.837 229.31 88.4358 229.583 89.6145 229.811C90.2037 229.925 90.6876 230.028 91.024 230.102C91.1922 230.139 91.3235 230.169 91.4127 230.189L91.5142 230.213L91.5264 230.216L91.5335 230.22L91.6125 230.267C91.6817 230.309 91.7835 230.369 91.9137 230.447C92.1741 230.601 92.5482 230.822 93.0032 231.088C93.9131 231.621 95.1468 232.334 96.4418 233.056C97.7364 233.778 99.0936 234.511 100.25 235.082C100.828 235.368 101.358 235.614 101.805 235.798C102.249 235.981 102.623 236.108 102.886 236.149C103.869 236.3 109.522 236.732 114.916 237.125C117.617 237.322 120.256 237.509 122.22 237.648C123.202 237.717 124.015 237.774 124.583 237.813Z" stroke="#206409" stroke-width="0.3"/>
</g>
<path d="M82.205 233.491C82.2275 233.369 82.1467 233.251 82.0245 233.229C81.9023 233.206 81.785 233.287 81.7624 233.409L82.205 233.491ZM90.9837 245.6C91.114 245.417 91.114 245.417 91.114 245.417C91.114 245.417 91.1139 245.417 91.1139 245.417C91.1138 245.417 91.1137 245.417 91.1135 245.416C91.1132 245.416 91.1127 245.416 91.112 245.415C91.1106 245.414 91.1085 245.413 91.1058 245.411C91.1003 245.407 91.0922 245.401 91.0813 245.394C91.0596 245.378 91.0274 245.355 90.985 245.325C90.9003 245.264 90.7753 245.175 90.6143 245.06C90.2923 244.829 89.8262 244.494 89.25 244.077C88.0974 243.243 86.5046 242.081 84.7431 240.77L84.4743 241.131C86.2378 242.444 87.8324 243.607 88.9862 244.442C89.5631 244.859 90.0297 245.195 90.3523 245.426C90.5135 245.541 90.6388 245.631 90.7237 245.691C90.7662 245.722 90.7985 245.745 90.8203 245.76C90.8312 245.768 90.8395 245.774 90.845 245.778C90.8478 245.78 90.8499 245.781 90.8513 245.782C90.852 245.783 90.8525 245.783 90.8528 245.783C90.853 245.783 90.8531 245.783 90.8532 245.784C90.8533 245.784 90.8533 245.784 90.8533 245.784C90.8534 245.784 90.8534 245.784 90.9837 245.6ZM84.7431 240.77C83.0462 239.506 82.408 237.697 82.1972 236.185C82.0919 235.429 82.0941 234.753 82.1228 234.266C82.1371 234.023 82.1579 233.827 82.1751 233.693C82.1837 233.626 82.1913 233.575 82.1967 233.541C82.1994 233.523 82.2016 233.511 82.203 233.502C82.2037 233.498 82.2042 233.495 82.2046 233.493C82.2047 233.492 82.2049 233.492 82.2049 233.491C82.205 233.491 82.205 233.491 82.205 233.491C82.205 233.491 82.205 233.491 82.205 233.491C82.205 233.491 82.205 233.491 81.9837 233.45C81.7624 233.409 81.7624 233.409 81.7624 233.41C81.7624 233.41 81.7624 233.41 81.7623 233.41C81.7623 233.41 81.7622 233.411 81.7621 233.411C81.762 233.412 81.7618 233.413 81.7615 233.414C81.761 233.417 81.7603 233.421 81.7595 233.426C81.7577 233.437 81.7552 233.451 81.7522 233.471C81.7461 233.509 81.7379 233.565 81.7287 233.636C81.7104 233.779 81.6885 233.985 81.6735 234.24C81.6436 234.749 81.6411 235.455 81.7515 236.247C81.9719 237.828 82.6462 239.769 84.4743 241.131L84.7431 240.77Z" fill="#206409"/>
<g filter="url(#filter6_d_1573_6400)">
<path d="M164.634 242.45C162.609 243.5 151.209 243.275 151.209 243.275C160.596 245.394 171.384 245.825 176.259 244.325C181.134 242.825 182.993 240.56 186.159 237.125C186.159 237.125 182.409 237.425 181.659 237.125C180.909 236.825 179.784 236.075 177.984 235.775C176.184 235.475 172.959 235.175 170.784 237.125C168.609 239.075 166.659 241.4 164.634 242.45Z" fill="#2B870B"/>
<path d="M164.634 242.45C162.609 243.5 151.209 243.275 151.209 243.275C160.596 245.394 171.384 245.825 176.259 244.325C181.134 242.825 182.993 240.56 186.159 237.125C186.159 237.125 182.409 237.425 181.659 237.125C180.909 236.825 179.784 236.075 177.984 235.775C176.184 235.475 172.959 235.175 170.784 237.125C168.609 239.075 166.659 241.4 164.634 242.45Z" stroke="#206409" stroke-width="0.3"/>
</g>
<path d="M117.67 194.175C117.741 187.217 111.63 179.036 109.434 174.425H131.398H153.362C153.362 174.425 161.458 181.594 163.57 188.974C165.682 196.354 168.063 207.583 162.009 216.65C155.954 225.717 147.308 229.037 136.607 228.193C125.907 227.35 121.753 226.014 115.769 218.353C109.786 210.692 117.6 201.133 117.67 194.175Z" fill="#E31616"/>
<path d="M131.398 174.425H153.362C153.362 174.425 161.458 181.594 163.57 188.974C165.682 196.354 168.063 207.583 162.009 216.65C155.954 225.717 147.308 229.037 136.607 228.193C125.907 227.35 121.753 226.014 115.769 218.353C109.786 210.692 117.6 201.133 117.67 194.175C117.741 187.217 111.63 179.036 109.434 174.425H131.398ZM131.398 174.425C131.398 174.425 140.761 186.444 140.761 194.175C140.761 201.906 138.719 206.053 138.719 206.053" stroke="#911010" stroke-width="1.35"/>
<g filter="url(#filter7_i_1573_6400)">
<path d="M219.985 148.55C217.36 171.725 177.541 177.425 125.185 177.425C72.8282 177.425 33.6848 171.725 30.3848 148.55C30.3848 132.603 45.8348 88.6252 125.185 88.1752C204.535 87.7253 219.985 132.603 219.985 148.55Z" fill="#FF9900"/>
</g>
<path d="M219.235 148.508C217.959 159.559 207.817 166.645 191.048 170.952C174.318 175.249 151.354 176.675 125.185 176.675C99.0155 176.675 76.2212 175.249 59.576 170.952C42.9056 166.649 32.7396 159.564 31.1348 148.497C31.152 140.707 34.9492 125.964 48.5441 113.096C62.155 100.213 85.655 89.1494 125.189 88.9252C164.718 88.7011 188.214 99.7641 201.823 112.756C215.424 125.741 219.221 140.717 219.235 148.508Z" stroke="#B15500" stroke-width="1.5"/>
<ellipse cx="93.5901" cy="144.044" rx="7.40648" ry="14.9188" fill="black"/>
<ellipse cx="162.787" cy="144.044" rx="7.40648" ry="14.9188" fill="black"/>
<g filter="url(#filter8_d_1573_6400)">
<ellipse cx="82.2269" cy="104.57" rx="3.75" ry="1.5" transform="rotate(-30.4858 82.2269 104.57)" fill="#FBE8A4"/>
</g>
<g filter="url(#filter9_d_1573_6400)">
<ellipse cx="150.327" cy="100.521" rx="3.75" ry="1.5" transform="rotate(-37.5414 150.327 100.521)" fill="#FBE8A4"/>
</g>
<g filter="url(#filter10_d_1573_6400)">
<ellipse cx="150.235" cy="112.912" rx="3.75" ry="1.5" transform="rotate(-69.814 150.235 112.912)" fill="#FBE8A4"/>
</g>
<g filter="url(#filter11_d_1573_6400)">
<ellipse cx="113.277" cy="99.9202" rx="3.75" ry="1.5" transform="rotate(20.8145 113.277 99.9202)" fill="#FBE8A4"/>
</g>
<g filter="url(#filter12_d_1573_6400)">
<ellipse cx="133.12" cy="107.34" rx="3.75" ry="1.5" transform="rotate(50.4505 133.12 107.34)" fill="#FBE8A4"/>
</g>
<g filter="url(#filter13_d_1573_6400)">
<ellipse cx="168.304" cy="108.512" rx="3.75" ry="1.5" transform="rotate(-121.05 168.304 108.512)" fill="#FBE8A4"/>
</g>
<g filter="url(#filter14_d_1573_6400)">
<ellipse cx="97.6954" cy="110.093" rx="3.75" ry="1.5" transform="rotate(-54.1468 97.6954 110.093)" fill="#FBE8A4"/>
</g>
<path d="M38.125 195.497L46.9 202.397M65.125 213.647H72.85M88.675 199.697L92.95 206.297M190.225 198.572L192.1 188.522M202.525 206.297L210.25 202.397M176.275 210.572L181.675 217.097M99.1 190.472L107.575 195.497M176.275 183.497L170.125 188.522M212.575 186.197L217.975 190.472M46.9 184.697H54.85M97.375 224.147L107.575 221.447" stroke="#CF731E" stroke-width="6.3" stroke-linecap="round"/>
<path d="M301.767 234.626L297.367 226.905C297.094 226.425 296.483 226.258 296.003 226.531C295.523 226.804 295.356 227.415 295.629 227.895L300.039 235.634C299.893 235.725 299.755 235.812 299.625 235.894C299.494 235.977 299.37 236.056 299.253 236.127C298.797 236.407 298.363 236.645 297.764 236.857C296.992 237.131 296.47 237.327 295.871 237.572L293.904 232.281L292.994 229.834L292.725 229.113L292.653 228.919L292.635 228.868L292.63 228.856L292.629 228.852L292.628 228.852L292.628 228.851L291.716 229.191L292.628 228.851C292.436 228.334 291.86 228.07 291.342 228.263C290.825 228.455 290.561 229.031 290.754 229.548L291.667 229.209L290.754 229.549L290.754 229.549L290.754 229.549L290.754 229.55L290.755 229.553L290.76 229.566L290.779 229.616L290.851 229.81L291.119 230.531L292.029 232.978L293.954 238.154C293.249 238.238 292.497 238.225 291.877 238.107C291.089 237.958 288.751 237.112 287.162 233.331C286.069 230.731 279.749 212.986 276.448 202.986C276.308 202.563 276.307 201.722 276.571 200.395C276.825 199.118 277.288 197.55 277.909 195.781C279.149 192.245 280.979 188.009 282.877 183.88C284.602 180.128 286.373 176.485 287.796 173.558C287.938 173.267 288.077 172.982 288.211 172.705C288.951 171.182 289.578 169.886 290.02 168.929C290.195 168.549 290.345 168.214 290.463 167.936C291.062 169.242 291.782 171.335 292.495 173.636C293.256 176.091 293.99 178.718 294.534 180.735C294.805 181.742 295.029 182.595 295.185 183.196C295.24 183.408 295.286 183.588 295.324 183.733C295.281 183.801 295.234 183.879 295.181 183.964C294.947 184.346 294.617 184.896 294.226 185.568C293.446 186.912 292.425 188.755 291.463 190.744C290.504 192.726 289.589 194.885 289.039 196.855C288.764 197.84 288.572 198.805 288.521 199.693C288.469 200.574 288.55 201.447 288.883 202.203C289.724 204.115 291.294 207.561 292.923 210.94C294.541 214.296 296.252 217.657 297.371 219.351C297.955 220.236 298.521 221.078 299.05 221.863L299.17 222.04C299.654 222.758 300.104 223.426 300.507 224.036C301.398 225.385 302.005 226.374 302.262 226.984C303.956 231.016 303.092 232.98 302.724 233.562C302.452 233.993 302.294 234.198 302.092 234.378C302.004 234.456 301.901 234.536 301.767 234.626Z" fill="#C6966B" stroke="#A06F43" stroke-width="2" stroke-linecap="round" stroke-linejoin="round"/>
<path d="M448.534 234.542L452.934 226.821C453.207 226.341 453.818 226.174 454.298 226.447C454.777 226.72 454.945 227.331 454.671 227.811L450.262 235.55C450.408 235.641 450.546 235.728 450.676 235.81C450.807 235.893 450.931 235.972 451.048 236.043C451.503 236.323 451.938 236.561 452.537 236.773C453.309 237.047 453.831 237.243 454.429 237.488L456.397 232.197L457.307 229.75L457.575 229.029L457.648 228.835L457.666 228.784L457.671 228.772L457.672 228.768L457.673 228.768L457.673 228.767L458.585 229.107L457.673 228.767C457.865 228.25 458.441 227.986 458.958 228.179C459.476 228.371 459.74 228.947 459.547 229.464L458.634 229.125L459.547 229.465L459.547 229.465L459.547 229.465L459.547 229.466L459.546 229.469L459.541 229.482L459.522 229.532L459.45 229.726L459.182 230.447L458.272 232.894L456.347 238.07C457.051 238.154 457.803 238.141 458.423 238.023C459.212 237.874 461.549 237.028 463.138 233.247C464.232 230.647 470.551 212.902 473.853 202.902C473.993 202.479 473.994 201.638 473.73 200.311C473.476 199.034 473.013 197.466 472.392 195.697C471.152 192.161 469.322 187.925 467.424 183.796C465.699 180.044 463.927 176.401 462.504 173.474C462.363 173.183 462.224 172.898 462.09 172.621C461.349 171.098 460.723 169.802 460.281 168.845C460.105 168.465 459.955 168.13 459.838 167.852C459.239 169.158 458.519 171.251 457.806 173.552C457.044 176.007 456.311 178.634 455.767 180.651C455.496 181.658 455.272 182.511 455.116 183.112C455.061 183.324 455.014 183.504 454.977 183.649C455.02 183.717 455.067 183.795 455.12 183.88C455.353 184.262 455.684 184.812 456.074 185.484C456.854 186.828 457.876 188.671 458.838 190.66C459.797 192.642 460.712 194.801 461.262 196.771C461.537 197.756 461.728 198.721 461.78 199.609C461.832 200.49 461.751 201.363 461.418 202.119C460.576 204.031 459.007 207.477 457.378 210.856C455.76 214.212 454.048 217.573 452.93 219.267C452.346 220.152 451.779 220.994 451.25 221.779L451.131 221.956C450.646 222.674 450.197 223.342 449.793 223.952C448.903 225.301 448.296 226.29 448.039 226.9C446.344 230.932 447.209 232.896 447.577 233.478C447.849 233.909 448.007 234.114 448.209 234.294C448.297 234.372 448.4 234.452 448.534 234.542Z" fill="#C6966B" stroke="#A06F43" stroke-width="2" stroke-linecap="round" stroke-linejoin="round"/>
<path d="M344.776 266L347.176 233.7L357.876 236.4V277.3H332.976C332.976 277.3 322.476 277.3 326.876 269.2C332.976 261.9 344.776 266 344.776 266Z" fill="#C6966B" stroke="#A06F43" stroke-width="2" stroke-linecap="round"/>
<path d="M403.476 266.1L401.076 233.8L390.376 236.5V277.4H415.276C415.276 277.4 425.776 277.4 421.376 269.3C415.276 262 403.476 266.1 403.476 266.1Z" fill="#C6966B" stroke="#A06F43" stroke-width="2" stroke-linecap="round"/>
<circle cx="374.098" cy="158.4" r="86.5" fill="#C6966B" stroke="#A06F43" stroke-width="2"/>
<ellipse cx="337.94" cy="141.492" rx="7.74055" ry="15.5917" fill="black"/>
<ellipse cx="410.258" cy="141.492" rx="7.74055" ry="15.5917" fill="black"/>
<path d="M359.998 166.809C365.264 170.207 368.813 170.487 375.811 169.168C384.409 166.474 388.398 160.5 388.398 160.5" stroke="black" stroke-width="2.2" stroke-linecap="round"/>
<g filter="url(#filter15_d_1573_6400)">
<path d="M314.171 86.7359C314.671 85.5716 315.84 84.8413 317.103 84.9041L324.319 85.2632C325.932 85.3434 327.198 86.6766 327.198 88.2939V93.5681C327.198 94.467 326.8 95.3196 326.112 95.8962L320.025 100.994C319.384 101.531 318.55 101.779 317.72 101.679L312.266 101.02C310.259 100.778 309.047 98.67 309.846 96.8087L314.171 86.7359Z" fill="#563211"/>
</g>
<g filter="url(#filter16_d_1573_6400)">
<path d="M304.199 182.322C306.499 180.022 306.936 179.86 308.199 179.922C309.799 179.922 310.754 180.57 311.899 180.222C313.044 179.875 313.7 179.795 314.899 179.922C316.512 180.003 318.399 182.698 318.399 184.316V189.59C318.399 190.489 318.001 191.341 317.313 191.918L311.227 197.016C310.585 197.553 309.751 197.8 308.922 197.7L303.468 197.042C301.46 196.8 300.199 194.122 300.199 191.918C300.199 189.713 301.899 184.622 304.199 182.322Z" fill="#563211"/>
</g>
<g filter="url(#filter17_d_1573_6400)">
<path d="M379.1 67.1774C380.361 66.5287 381.858 66.5421 383.107 67.2132L391.11 71.5123C393.086 72.5734 393.929 74.9756 393.054 77.049L390.621 82.8123C390.449 83.2196 390.217 83.5981 389.932 83.9348L383.12 91.972C381.801 93.5277 379.584 93.95 377.791 92.987L369.686 88.6329C368.266 87.8699 367.384 86.3767 367.399 84.7573L367.478 75.7789C367.492 74.1595 368.4 72.6822 369.833 71.9448L379.1 67.1774Z" fill="#B15500"/>
</g>
<g filter="url(#filter18_d_1573_6400)">
<path d="M381.132 228.788C382.674 228.396 384.504 228.404 386.033 228.81L395.82 231.409C398.237 232.05 399.268 233.502 398.198 234.756L395.223 238.239C395.012 238.486 394.729 238.714 394.38 238.918L386.047 243.776C384.435 244.717 381.723 244.972 379.53 244.39L369.617 241.758C367.88 241.297 366.802 240.394 366.819 239.415C366.107 237.452 366.167 236.255 366.916 233.988C366.934 233.009 368.044 232.116 369.797 231.67L381.132 228.788Z" fill="#B15500"/>
</g>
<g filter="url(#filter19_d_1573_6400)">
<path d="M338.926 199.798C339.932 200.16 340.693 200.992 340.966 202.026L342.709 208.649C343.14 210.284 342.249 211.983 340.656 212.566L336.228 214.187C335.915 214.301 335.587 214.368 335.255 214.384L327.322 214.758C325.787 214.831 324.414 213.825 324.023 212.341L322.257 205.634C321.948 204.459 322.318 203.205 323.218 202.381L328.209 197.81C329.109 196.986 330.39 196.727 331.534 197.139L338.926 199.798Z" fill="#B15500"/>
</g>
<g filter="url(#filter20_d_1573_6400)">
<path d="M425.882 107.934C427.351 107.228 429.098 107.392 430.406 108.359L432.475 109.888C432.724 110.072 432.952 110.282 433.156 110.514L437.739 115.737C438.87 117.025 439.119 118.85 438.375 120.387L437.082 123.057C436.231 124.816 434.281 125.788 432.337 125.424L426.065 124.25C425.284 124.104 424.56 123.751 423.97 123.229L422.246 121.706C421.266 120.841 420.737 119.585 420.805 118.291L421.102 112.689C421.184 111.132 422.118 109.741 423.542 109.057L425.882 107.934Z" fill="#563211"/>
</g>
<g filter="url(#filter21_d_1573_6400)">
<path d="M293.012 132.422C295.21 132.061 297.438 132.947 298.782 134.717L300.908 137.517C301.164 137.854 301.383 138.217 301.561 138.599L305.567 147.21C306.555 149.334 306.181 151.823 304.615 153.553L301.894 156.558C300.102 158.538 297.171 159.065 294.761 157.841L286.986 153.891C286.018 153.4 285.204 152.659 284.63 151.748L282.954 149.089C282.001 147.578 281.789 145.727 282.375 144.056L284.916 136.823C285.622 134.811 287.382 133.346 289.511 132.996L293.012 132.422Z" fill="#563211"/>
</g>
<g filter="url(#filter22_d_1573_6400)">
<path d="M397.465 201.056C398.355 203.289 397.889 205.813 396.259 207.594L393.679 210.412C393.369 210.752 392.644 211.324 392.644 211.324L384.143 217.329C384.143 217.329 379.243 218.938 377 217.655C374.758 216.372 373.498 213.6 373.498 213.6C373.498 213.6 371.07 210.218 370.098 208.204C368.511 204.916 372.66 199.214 372.66 199.214C372.66 199.214 373.604 197.086 374.47 196.292L376.996 193.978C378.432 192.661 379.787 190.907 382.185 190.113C385.813 188.911 389.58 190.348 391.819 191.833C394.059 193.318 395.187 195.337 396.049 197.5L397.465 201.056Z" fill="#563211"/>
</g>
<g filter="url(#filter23_d_1573_6400)">
<path d="M428.64 206.363C430.062 207.105 430.963 208.579 430.971 210.179L430.986 212.711C430.987 213.016 430.956 213.319 430.894 213.617L429.478 220.307C429.129 221.958 427.838 223.23 426.188 223.549L423.322 224.104C421.434 224.47 419.518 223.506 418.659 221.759L415.888 216.123C415.543 215.422 415.395 214.643 415.458 213.87L415.642 211.615C415.747 210.332 416.424 209.175 417.485 208.465L422.075 205.398C423.351 204.544 424.998 204.461 426.376 205.18L428.64 206.363Z" fill="#563211"/>
</g>
<g filter="url(#filter24_d_1573_6400)">
<path d="M328.666 167.069C329.554 165.49 331.499 164.861 333.137 165.623L342.191 169.836C344.521 170.92 344.907 174.086 342.907 175.704L337.187 180.331C335.932 181.346 334.145 181.357 332.878 180.357L327.124 175.82C325.778 174.758 325.405 172.868 326.247 171.371L328.666 167.069Z" fill="#B15500"/>
</g>
<g filter="url(#filter25_d_1573_6400)">
<path d="M452.255 147.787C455.213 147.787 456.439 149.926 456.439 149.926C456.439 149.926 459.862 155.423 459.862 159.307C459.862 163.19 458.439 163.963 456.219 163.963C453.998 163.963 450.598 163.963 448.903 163.19C447.208 162.417 447.098 162.3 445.837 160.161C444.576 158.022 444.977 154.8 444.977 152.885C444.977 150.97 447.503 149.118 447.503 149.118C447.503 149.118 449.298 147.787 452.255 147.787Z" fill="#B15500"/>
</g>
<g filter="url(#filter26_d_1573_6400)">
<path d="M426.886 168.076C428.276 165.598 431.321 164.61 433.884 165.806C436.698 168.076 436.398 173.1 437.798 173.5C439.198 173.9 442.298 175.129 442.998 180.2C444.298 185.4 440.224 188.893 440.224 188.893C438.259 190.486 435.463 190.504 433.478 188.934L424.473 181.813C422.366 180.146 421.782 177.179 423.1 174.829L426.886 168.076Z" fill="#B15500"/>
</g>
<path d="M601.464 266L603.864 233.7L614.564 236.4V277.3H589.664C589.664 277.3 579.164 277.3 583.564 269.2C589.664 261.9 601.464 266 601.464 266Z" fill="white" stroke="black" stroke-width="2" stroke-linecap="round"/>
<path d="M660.163 266.1L657.763 233.8L647.063 236.5V277.4H671.963C671.963 277.4 682.463 277.4 678.063 269.3C671.963 262 660.163 266.1 660.163 266.1Z" fill="white" stroke="black" stroke-width="2" stroke-linecap="round"/>
<rect x="525.664" y="248.735" width="72.2" height="11.4875" transform="rotate(-42.24 525.664 248.735)" fill="white"/>
<rect x="527.077" y="248.803" width="70.2" height="9.48749" transform="rotate(-42.24 527.077 248.803)" stroke="black" stroke-opacity="0.5" stroke-width="2"/>
<path d="M587.182 45.4308C591.46 54.288 593.957 58.0594 600.063 62.547C594.876 70.5965 563.096 91.4052 556.33 92.3128C553.813 86.0014 551.646 82.9833 546.775 78.2742C546.775 78.2742 544.125 76.7913 540.086 77.4862C531.772 78.1562 525.764 75.7304 521.14 65.3201C518.308 58.2103 522.282 49.716 531.373 44.797C531.373 44.797 529.564 33.7025 538.421 25.6205C552.616 15.137 561.649 24.1899 561.649 24.1899C561.649 24.1899 561.891 20.3273 568.912 16.7811C579.871 11.7875 588.42 19.5266 588.42 19.5266C592.488 23.1799 595.253 27.5714 594.586 33.407C593.018 39.6402 591.775 41.9168 587.182 45.4308Z" fill="white"/>
<path d="M600.063 62.547C593.957 58.0594 591.46 54.288 587.182 45.4308M600.063 62.547C594.876 70.5965 563.096 91.4052 556.33 92.3128C553.813 86.0014 551.646 82.9833 546.775 78.2742C546.775 78.2742 544.125 76.7913 540.086 77.4862C531.772 78.1562 525.764 75.7304 521.14 65.3201C518.308 58.2103 522.282 49.716 531.373 44.797C531.373 44.797 529.564 33.7025 538.421 25.6205C552.616 15.137 561.649 24.1899 561.649 24.1899C561.649 24.1899 561.891 20.3273 568.912 16.7811C579.871 11.7875 588.42 19.5266 588.42 19.5266C592.488 23.1799 595.253 27.5714 594.586 33.407C593.018 39.6403 591.775 41.9168 587.182 45.4308M600.063 62.547C583.329 66.4531 573.773 74.5354 563.403 84.6232M587.182 45.4308C572.653 46.9487 565.497 52.0953 553.504 64.6557" stroke="black" stroke-width="2"/>
<circle cx="630.964" cy="149.3" r="89.7" fill="#E31616"/>
<circle cx="630.964" cy="149.3" r="88.7" stroke="black" stroke-opacity="0.5" stroke-width="2"/>
<circle cx="630.863" cy="148.8" r="60" fill="#FAB3B3"/>
<path d="M648.061 235.3C644.861 237.3 623.76 237.3 621.661 236.5C621.583 236.455 634.154 231.33 635.163 230.5C649.163 222.3 655.963 212.3 658.163 201.7L666.863 167.1L690.761 147.3C692.061 166.6 681.056 210.581 648.061 235.3Z" fill="#FAB3B3"/>
<path d="M629.965 125.201C656.865 123.401 667.421 141.601 669.365 148.5C676.565 169.401 663.165 201.901 653.065 214.2L627.165 209.646L597.265 203.4C596.965 199 606.632 204.142 610.765 203.663C638.998 200.389 649.995 172.312 641.665 153.201C641.665 153.201 636.865 167.1 626.165 170.5C622.565 171.6 606.065 171.8 604.665 153.201C604.665 130.601 625.965 125.501 629.965 125.201Z" fill="#E31616"/>
<ellipse cx="594.604" cy="147.391" rx="7.74055" ry="15.5917" fill="black"/>
<ellipse cx="679.522" cy="147.391" rx="7.74055" ry="15.5917" fill="black"/>
<path d="M654.564 161C654.564 161 653.164 174.5 648.064 174.5C642.964 174.5 637.564 166.4 637.564 166.4C637.564 166.4 634.264 174.5 628.064 174.5C621.864 174.5 620.164 161 620.164 161" stroke="black" stroke-width="3" stroke-linecap="round"/>
<path d="M880.439 176.65C901.775 176.124 920.771 177.33 935.693 178.921C955.822 181.067 969.994 198.304 970.493 218.541C970.566 221.475 970.637 224.384 970.71 227.317C971.21 247.604 957.873 265.659 937.907 269.281C922.163 272.137 902.567 274.829 882.871 275.315C863.864 275.783 845.646 274.175 830.996 272.174C811.318 269.487 797.674 252.371 797.185 232.516L796.919 221.705C796.433 201.991 809.099 184.47 828.569 181.345C842.293 179.143 859.892 177.156 880.439 176.65Z" fill="white" stroke="black" stroke-opacity="0.5" stroke-width="2"/>
<path d="M839.254 128.95C812.354 141.45 804.854 149.35 792.954 158.85C781.054 168.35 738.454 230.15 740.754 243.15C743.054 256.15 759.554 253.85 765.354 248.35C771.154 242.85 792.954 222.05 801.654 216.25C810.354 210.45 825.354 207.35 839.254 207.35C853.154 207.35 900.272 204.313 938.554 198.35C938.554 198.35 965.954 192.55 972.154 180.45C978.354 168.35 972.754 154.35 957.954 141.65C943.154 128.95 910.454 121.85 899.754 120.75C889.054 119.65 866.154 116.45 839.254 128.95Z" fill="#E31616" stroke="#911010" stroke-width="2"/>
<path d="M919.053 125.35C912.134 123.465 905.617 121.953 894.953 121.05C894.953 121.05 918.901 173.907 923.962 177.973C929.022 182.039 933.902 180.864 936.342 176.166C938.782 171.467 919.053 125.35 919.053 125.35Z" fill="#FAB3B3"/>
<path d="M886.855 179.85C887.855 175.55 868.755 121.25 868.755 121.25C859.497 122.339 855.568 123.505 846.555 126.85C846.555 126.85 868.055 185.05 874.055 187.25C880.055 189.45 885.855 184.15 886.855 179.85Z" fill="#FAB3B3"/>
<path d="M837.254 188.05C836.454 181.05 816.654 141.85 816.654 141.85C809.106 146.606 805.427 149.735 798.654 155.25C798.654 155.25 823.254 195.65 827.954 197.75C834.954 198.65 837.254 195.05 837.254 188.05Z" fill="#FAB3B3"/>
<ellipse cx="856.494" cy="210.242" rx="7.74055" ry="15.5917" fill="black"/>
<ellipse cx="928.813" cy="210.242" rx="7.74055" ry="15.5917" fill="black"/>
<path d="M906.354 234.559C901.088 237.957 897.539 238.237 890.541 236.918C881.943 234.224 877.954 228.25 877.954 228.25" stroke="black" stroke-width="2.2" stroke-linecap="round"/>
<path d="M1023.09 257.191C1017.55 247.401 1007.15 148.501 1007.15 148.501C1061.56 166.488 1090.97 164.797 1136.55 148.301C1136.55 148.301 1122.95 240.673 1114.05 257.191C1105.14 273.709 1028.36 272.337 1023.09 257.191Z" fill="#FEC9A2"/>
<g filter="url(#filter27_d_1573_6400)">
<path d="M1136.65 147.3C1136.65 160.058 1107.63 170.4 1071.85 170.4C1036.06 170.4 1007.05 160.058 1007.05 147.3C1007.05 134.542 1036.06 124.2 1071.85 124.2C1107.63 124.2 1136.65 134.542 1136.65 147.3Z" fill="#FEC9A2"/>
</g>
<ellipse cx="1035.59" cy="173.592" rx="7.74055" ry="15.5917" fill="black"/>
<ellipse cx="1107.9" cy="173.592" rx="7.74055" ry="15.5917" fill="black"/>
<path d="M1085.35 197.4C1085.35 197.4 1083.65 206 1072.35 206.5C1061.05 207 1057.25 197.4 1057.25 197.4M1085.35 197.4C1085.35 197.4 1082.95 195.7 1082.35 192.7M1085.35 197.4C1085.35 197.4 1087.55 199.3 1091.05 199.3M1057.25 197.4C1057.25 197.4 1056.15 200.4 1050.25 200.4M1057.25 197.4C1057.25 197.4 1058.85 195.1 1058.85 192.7" stroke="black" stroke-width="2.2" stroke-linecap="round"/>
<g filter="url(#filter28_i_1573_6400)">
<circle cx="1028.45" cy="244.601" r="5" fill="black"/>
<circle cx="1052.65" cy="256.4" r="5" fill="black"/>
<circle cx="1051.35" cy="243.701" r="5.9" fill="black"/>
<circle cx="1040.05" cy="251.201" r="6.6" fill="black"/>
<circle cx="1038.45" cy="236" r="6.6" fill="black"/>
<circle cx="1080.05" cy="231" r="5" fill="black"/>
<circle cx="1106.45" cy="254.601" r="5" fill="black"/>
<circle cx="1106.95" cy="242.1" r="5.9" fill="black"/>
<circle cx="1092.25" cy="253" r="6.6" fill="black"/>
<circle cx="1093.05" cy="237.201" r="6.6" fill="black"/>
<circle cx="1052.85" cy="229.4" r="5" fill="black"/>
<circle cx="1077.65" cy="256.2" r="5" fill="black"/>
<circle cx="1080.15" cy="243.701" r="5.9" fill="black"/>
<circle cx="1065.25" cy="251.201" r="6.6" fill="black"/>
<circle cx="1067.25" cy="236" r="6.6" fill="black"/>
</g>
<path d="M994.646 108.601C994.646 108.601 1009.87 243.114 1016.24 261.428C1022.61 279.742 1108.23 284.353 1119.01 264.38C1129.79 244.407 1149.05 111.553 1149.05 111.553M994.646 108.601C995.346 100.601 1009.05 91.9321 1026.45 87.5007C1053.15 80.7007 1086.15 80.3006 1118.85 87.7006C1141.45 94.4006 1149.85 102.801 1149.05 111.553M994.646 108.601C996.159 121.701 1010.45 126.801 1020.55 130.001C1054.44 140.418 1096.95 138.101 1123.25 130.201C1132.16 126.415 1143.65 124.501 1149.05 111.553" stroke="black" stroke-opacity="0.25" stroke-width="2"/>
<path d="M1109.28 38.4004C1116.49 43.791 1120.73 44.9054 1128.6 43.5768L1100.89 146.994C1100.89 146.994 1100.25 150.814 1089.51 150.814C1084.05 150.814 1081.25 147.8 1080.34 146.391L1109.28 38.4004Z" fill="#911010"/>
<path d="M1127.99 43.1878C1127.92 43.4668 1127.7 43.768 1127.19 44.0445C1126.69 44.3219 1125.97 44.5372 1125.06 44.6551C1123.23 44.8903 1120.79 44.719 1118.18 44.0573C1115.56 43.3957 1113.33 42.3848 1111.84 41.3107C1111.09 40.7724 1110.56 40.2401 1110.25 39.7566C1109.94 39.2744 1109.89 38.9022 1109.96 38.6233C1110.03 38.3443 1110.25 38.0431 1110.76 37.7665C1111.26 37.4892 1111.98 37.2739 1112.89 37.156C1114.72 36.9208 1117.16 37.0921 1119.77 37.7537C1122.39 38.4154 1124.62 39.4263 1126.11 40.5003C1126.85 41.0387 1127.39 41.571 1127.7 42.0545C1128.01 42.5367 1128.06 42.9089 1127.99 43.1878Z" fill="black" stroke="#911010" stroke-width="1.4"/>
<path fill-rule="evenodd" clip-rule="evenodd" d="M1083.04 135.686C1090.47 135.288 1097.65 134.513 1104.35 133.426L1103.79 135.541C1097.08 136.596 1089.91 137.343 1082.5 137.717L1083.04 135.686Z" fill="black" fill-opacity="0.25"/>
<path d="M1378.7 162.388C1378.4 159.888 1377.5 155.288 1381.2 151.288C1384.9 147.288 1398.5 133.088 1402.8 131.888C1407.1 130.688 1416.2 131.388 1418.6 134.788C1420.3 138.588 1432 179.488 1430.7 184.288C1429.4 189.088 1417 200.588 1410.8 203.088C1404.6 205.588 1393.4 201.488 1387.3 197.588C1381.2 193.688 1378.7 162.388 1378.7 162.388Z" fill="#AD7543" fill-opacity="0.8"/>
<path d="M1378.7 162.388C1378.4 159.888 1377.5 155.288 1381.2 151.288C1384.9 147.288 1398.5 133.088 1402.8 131.888C1407.1 130.688 1416.2 131.388 1418.6 134.788M1378.7 162.388C1379 164.888 1383.6 166.888 1391.6 163.488C1399.6 160.088 1401.03 155.686 1407.9 149.888C1414.77 144.09 1419.65 137.788 1418.6 134.788M1378.7 162.388C1378.7 162.388 1381.2 193.688 1387.3 197.588C1393.4 201.488 1404.6 205.588 1410.8 203.088C1417 200.588 1429.4 189.088 1430.7 184.288C1432 179.488 1420.3 138.588 1418.6 134.788" stroke="#AD7543" stroke-width="3" stroke-linecap="round"/>
<path d="M1251.15 255.991L1272.29 231.454L1262.82 225.797L1233.9 254.718L1251.51 272.325C1251.51 272.325 1258.93 279.75 1261.55 270.911C1262.39 261.436 1251.15 255.991 1251.15 255.991Z" fill="white" stroke="black" stroke-opacity="0.5" stroke-width="2" stroke-linecap="round"/>
<path d="M1321.51 257.4L1310.83 226.822L1301.2 232.199L1311.78 271.706L1335.83 265.261C1335.83 265.261 1345.98 262.543 1339.63 255.858C1331.85 250.386 1321.51 257.4 1321.51 257.4Z" fill="white" stroke="black" stroke-opacity="0.5" stroke-width="2" stroke-linecap="round"/>
<path d="M1207.2 36.0889C1223.8 30.4889 1356.8 31.7885 1367.2 36.0889C1380.45 114.193 1379.33 157.985 1367.2 236.089C1353.02 244.219 1217.14 243.39 1207.2 236.089C1196.89 164.389 1195.37 121.634 1204.27 56.0889C1205.15 49.6579 1206.12 43.0075 1207.2 36.0889Z" fill="#FFC700"/>
<path d="M1204.8 57.5889H1227.5M1370 57.5889H1345.1M1227.5 57.5889L1232.6 33.5889M1227.5 57.5889H1264.2M1264.2 57.5889L1265.8 32.5889M1264.2 57.5889H1305.2M1305.2 57.5889L1301.7 32.5889M1305.2 57.5889H1345.1M1345.1 57.5889L1337.4 33.2889" stroke="#C6966B" stroke-opacity="0.6" stroke-width="2"/>
<path d="M1204.9 216.688H1227.6M1370.1 216.688H1345.2M1227.6 216.688L1232.3 239.488M1227.6 216.688H1264.3M1264.3 216.688L1265.9 241.688M1264.3 216.688H1305.3M1305.3 216.688L1301.8 241.688M1305.3 216.688H1345.2M1345.2 216.688L1341.75 228.438L1338.3 240.188" stroke="#C6966B" stroke-opacity="0.6" stroke-width="2"/>
<g filter="url(#filter29_d_1573_6400)">
<path d="M1314.7 159.407C1321.86 160.699 1326.81 163.048 1329.7 166.628C1332.58 170.195 1333.47 175.065 1332.29 181.551C1331.78 184.391 1330.52 188.687 1328.83 192.698C1327.99 194.703 1327.04 196.628 1326.03 198.261C1325.01 199.898 1323.95 201.217 1322.89 202.033C1320.06 204.202 1317.5 205.441 1314.67 205.966C1311.83 206.494 1308.68 206.31 1304.66 205.585C1301.09 204.942 1299.02 204.555 1297.34 203.722C1295.68 202.899 1294.38 201.626 1292.42 199.123C1290.4 196.55 1289.08 194.337 1288.4 191.964C1287.72 189.595 1287.67 187.032 1288.26 183.747C1288.84 180.522 1290.78 177.357 1293.29 174.557C1295.79 171.761 1298.85 169.358 1301.63 167.658C1303.04 166.798 1304.14 165.753 1305.1 164.705C1305.53 164.249 1305.92 163.789 1306.31 163.345C1306.36 163.279 1306.42 163.214 1306.48 163.15C1306.91 162.643 1307.34 162.161 1307.77 161.715C1308.64 160.824 1309.53 160.103 1310.61 159.675C1311.69 159.248 1312.99 159.099 1314.7 159.407Z" fill="#C6966B" stroke="#AD7543" stroke-width="0.8"/>
<path d="M1317.98 186.717C1314.37 187.189 1313.28 187.466 1311.01 189.335C1308.73 191.203 1308.21 193.667 1307.96 195.508M1313.2 166.48C1313.2 166.48 1315.75 168.764 1318.38 167.416C1321.02 166.068 1320.68 164.183 1320.68 164.183M1305.95 168.134C1307.63 170.482 1307.76 171.709 1306.87 173.771" stroke="#AD7543" stroke-opacity="0.6" stroke-linecap="round"/>
</g>
<g filter="url(#filter30_di_1573_6400)">
<path d="M1267.35 178.97C1269.87 170.562 1275.99 167.441 1278.78 176.387C1282.14 191.173 1302.61 194.975 1300.81 198.358C1297.89 203.997 1286.2 203.388 1278.78 201.088C1271.37 198.788 1263.56 188.754 1267.35 178.97Z" fill="#FBE8A4"/>
<path d="M1267.53 179.042L1267.54 179.035L1267.54 179.028C1268.16 176.943 1269.01 175.192 1269.97 173.879C1270.92 172.563 1271.98 171.7 1273.02 171.361C1274.05 171.026 1275.09 171.197 1276.04 171.988C1277.01 172.787 1277.9 174.226 1278.59 176.439C1280.29 183.912 1286.31 188.594 1291.63 191.819C1292.96 192.627 1294.25 193.345 1295.42 193.993C1295.49 194.03 1295.55 194.066 1295.62 194.102C1296.71 194.707 1297.69 195.248 1298.5 195.747C1299.36 196.278 1300 196.748 1300.37 197.179C1300.56 197.394 1300.66 197.587 1300.71 197.762C1300.75 197.931 1300.73 198.095 1300.64 198.264L1300.64 198.264L1300.64 198.266C1299.23 200.984 1295.68 202.236 1291.47 202.5C1287.28 202.764 1282.53 202.041 1278.84 200.897C1275.19 199.764 1271.42 196.716 1269.04 192.733C1266.65 188.754 1265.67 183.864 1267.53 179.042Z" stroke="#AD7543" stroke-opacity="0.6" stroke-width="0.4"/>
</g>
<g filter="url(#filter31_d_1573_6400)">
<g filter="url(#filter32_i_1573_6400)">
<path d="M1287.06 196.437C1290.87 204.347 1288.46 210.777 1280.36 206.058C1267.91 197.401 1250.23 208.404 1249.27 204.691C1247.63 198.556 1254.47 191.391 1264.56 188.688C1274.65 185.985 1285.02 191.966 1287.06 196.437Z" fill="#FBE8A4"/>
</g>
<path d="M1286.88 196.52L1286.88 196.52L1286.88 196.524C1287.82 198.486 1288.38 200.349 1288.56 201.963C1288.74 203.581 1288.54 204.931 1288 205.885C1287.46 206.827 1286.59 207.399 1285.35 207.458C1284.1 207.518 1282.47 207.056 1280.46 205.889C1274.17 201.516 1266.57 202.119 1260.47 203.324C1258.94 203.626 1257.5 203.967 1256.2 204.278C1256.12 204.296 1256.05 204.313 1255.98 204.331C1254.76 204.621 1253.68 204.882 1252.74 205.057C1251.75 205.244 1250.96 205.33 1250.4 205.262C1250.11 205.229 1249.9 205.159 1249.76 205.058C1249.61 204.96 1249.51 204.827 1249.47 204.642L1249.47 204.642L1249.47 204.639C1248.67 201.665 1249.92 198.409 1252.66 195.54C1255.4 192.675 1259.6 190.224 1264.61 188.881C1269.61 187.543 1274.67 188.353 1278.75 190.057C1280.79 190.908 1282.58 191.981 1283.98 193.116C1285.38 194.252 1286.39 195.441 1286.88 196.52Z" stroke="#AD7543" stroke-opacity="0.6" stroke-width="0.4"/>
<path d="M1250.1 204.676C1266.75 196.623 1275.25 197.235 1285.65 207.158" stroke="#AD7543" stroke-opacity="0.6" stroke-width="0.4" stroke-linecap="round"/>
</g>
<ellipse cx="1251.24" cy="76.08" rx="7.74055" ry="15.5917" fill="black"/>
<ellipse cx="1323.56" cy="76.08" rx="7.74055" ry="15.5917" fill="black"/>
<path d="M1301.7 88.5985C1296.43 91.9958 1292.88 92.2759 1285.88 90.9566C1277.29 88.2634 1273.3 82.2891 1273.3 82.2891" stroke="black" stroke-width="2.2" stroke-linecap="round"/>
<path d="M1407.3 202.589C1399.61 190.055 1396.21 181.894 1392.2 164.789" stroke="#AD7543" stroke-width="3" stroke-linecap="round"/>
<path d="M1402.6 132.989C1410.27 132.438 1415 133.289 1417.1 135.289C1417.78 136.189 1415.9 139.689 1413.3 142.589C1411.8 144.589 1404.7 150.789 1404.7 150.789C1401.2 153.989 1396.9 159.789 1391.9 161.689C1388.2 163.589 1381.8 164.889 1380.2 162.389C1379.9 160.089 1379.6 157.689 1380.5 155.089C1381.01 154.019 1381.4 153.089 1383.23 151.289C1386.3 147.989 1390.67 143.84 1391.1 143.207C1396.1 138.389 1401.34 133.955 1402.6 132.989Z" fill="black" fill-opacity="0.25"/>
<path d="M1427.45 122.194C1424.97 123.627 1408.12 132.137 1398.62 136.664C1393.37 139.163 1361.88 126.882 1360.61 127.052C1355.18 126.792 1376.75 118.361 1376.75 118.361C1376.75 118.361 1391.16 125.169 1395.34 122.665C1398.9 120.527 1408.19 114.734 1411.15 112.194C1414.35 109.445 1416.92 107.049 1418.26 106.277C1422.28 103.955 1424.68 104.501 1425.65 104.955C1426.62 105.408 1426.95 105.668 1427.81 106.87C1428.67 108.072 1429.35 108.614 1430.01 109.918C1430.55 110.987 1430.85 111.528 1431.45 112.558C1431.91 113.588 1432.16 114.988 1432.09 116.113C1432.02 117.238 1431.3 119.971 1427.45 122.194Z" fill="white"/>
<path d="M1426.4 106.677L1419.29 112.009C1418.85 112.341 1418.76 112.967 1419.09 113.409C1419.43 113.851 1420.05 113.94 1420.49 113.609L1427.62 108.264C1427.73 108.398 1427.83 108.523 1427.93 108.643C1428.03 108.762 1428.12 108.875 1428.21 108.982C1428.54 109.399 1428.83 109.8 1429.12 110.368C1429.49 111.099 1429.75 111.593 1430.06 112.156L1425.06 114.772L1422.75 115.981L1422.07 116.337L1421.88 116.433L1421.84 116.458L1421.82 116.465L1421.82 116.466L1421.82 116.467L1421.82 116.467L1422.27 117.329L1421.82 116.467C1421.33 116.723 1421.14 117.327 1421.4 117.816C1421.65 118.306 1422.26 118.495 1422.75 118.239L1422.29 117.376L1422.75 118.239L1422.75 118.239L1422.75 118.239L1422.75 118.239L1422.75 118.237L1422.76 118.231L1422.81 118.206L1422.99 118.11L1423.68 117.753L1425.99 116.544L1430.88 113.985C1431.05 114.674 1431.14 115.421 1431.1 116.051C1431.05 116.853 1430.5 119.278 1426.95 121.328C1424.51 122.738 1407.69 131.232 1398.19 135.761C1397.78 135.953 1396.95 136.059 1395.6 135.964C1394.3 135.873 1392.69 135.609 1390.85 135.215C1387.19 134.428 1382.76 133.143 1378.42 131.778C1374.49 130.537 1370.65 129.236 1367.57 128.191C1367.26 128.087 1366.96 127.985 1366.67 127.886C1365.07 127.343 1363.7 126.884 1362.7 126.565C1362.3 126.439 1361.95 126.332 1361.66 126.25C1362.88 125.492 1364.86 124.515 1367.06 123.519C1369.4 122.457 1371.91 121.4 1373.84 120.607C1374.81 120.212 1375.63 119.882 1376.2 119.652C1376.41 119.571 1376.58 119.503 1376.72 119.448C1376.79 119.481 1376.87 119.519 1376.97 119.56C1377.37 119.744 1377.96 120.003 1378.68 120.306C1380.11 120.912 1382.06 121.694 1384.16 122.4C1386.25 123.102 1388.5 123.739 1390.52 124.038C1391.54 124.187 1392.52 124.257 1393.41 124.197C1394.29 124.137 1395.14 123.947 1395.85 123.523C1397.64 122.448 1400.86 120.459 1404.01 118.42C1407.14 116.394 1410.26 114.274 1411.8 112.953C1412.6 112.262 1413.37 111.594 1414.08 110.971L1414.24 110.83C1414.89 110.26 1415.5 109.73 1416.05 109.253C1417.28 108.2 1418.19 107.474 1418.76 107.143C1422.55 104.957 1424.6 105.568 1425.23 105.86C1425.69 106.076 1425.91 106.207 1426.12 106.385C1426.2 106.462 1426.3 106.555 1426.4 106.677Z" stroke="black" stroke-opacity="0.5" stroke-width="2" stroke-linecap="round" stroke-linejoin="round"/>
<path d="M1396.86 159.409C1397.09 160.204 1397.92 160.661 1398.72 160.428C1399.51 160.196 1399.97 159.363 1399.74 158.568L1396.86 159.409ZM1392.71 115.853L1392.26 117.286L1392.26 117.286L1392.71 115.853ZM1396.24 120.711L1397.07 121.965L1399.58 120.319L1398.75 119.065L1396.24 120.711ZM1398.3 158.989C1399.74 158.568 1399.74 158.568 1399.74 158.568C1399.74 158.567 1399.74 158.567 1399.74 158.566C1399.74 158.565 1399.74 158.563 1399.74 158.56C1399.73 158.555 1399.73 158.547 1399.73 158.537C1399.72 158.515 1399.71 158.483 1399.7 158.441C1399.68 158.356 1399.64 158.229 1399.59 158.064C1399.5 157.734 1399.36 157.248 1399.19 156.631C1398.84 155.396 1398.35 153.634 1397.79 151.526C1396.67 147.308 1395.25 141.718 1394.08 136.21C1392.9 130.679 1391.98 125.318 1391.83 121.521C1391.75 119.581 1391.88 118.256 1392.14 117.538C1392.27 117.191 1392.36 117.174 1392.29 117.218C1392.16 117.297 1392.09 117.232 1392.26 117.286L1393.15 114.421C1392.36 114.175 1391.49 114.185 1390.71 114.668C1389.99 115.116 1389.57 115.832 1389.33 116.501C1388.84 117.814 1388.75 119.653 1388.83 121.645C1389 125.712 1389.96 131.283 1391.14 136.836C1392.33 142.411 1393.76 148.054 1394.89 152.298C1395.46 154.421 1395.95 156.197 1396.3 157.443C1396.47 158.066 1396.61 158.556 1396.71 158.892C1396.76 159.059 1396.79 159.188 1396.82 159.275C1396.83 159.319 1396.84 159.352 1396.85 159.375C1396.85 159.386 1396.85 159.394 1396.86 159.4C1396.86 159.403 1396.86 159.405 1396.86 159.407C1396.86 159.407 1396.86 159.408 1396.86 159.408C1396.86 159.409 1396.86 159.409 1398.3 158.989ZM1392.26 117.286C1393.24 117.589 1394.22 118.376 1395.03 119.218C1395.41 119.623 1395.72 120.005 1395.94 120.285C1396.04 120.425 1396.12 120.537 1396.18 120.612C1396.2 120.649 1396.22 120.677 1396.23 120.694C1396.24 120.703 1396.24 120.709 1396.24 120.712C1396.25 120.713 1396.25 120.714 1396.25 120.714C1396.25 120.714 1396.25 120.713 1396.25 120.713C1396.25 120.713 1396.25 120.713 1396.25 120.712C1396.25 120.712 1396.24 120.712 1396.24 120.712C1396.24 120.712 1396.24 120.711 1397.5 119.888C1398.75 119.065 1398.75 119.065 1398.75 119.065C1398.75 119.065 1398.75 119.064 1398.75 119.064C1398.75 119.064 1398.75 119.063 1398.75 119.062C1398.75 119.061 1398.75 119.06 1398.75 119.058C1398.75 119.055 1398.74 119.051 1398.74 119.047C1398.73 119.038 1398.73 119.025 1398.72 119.01C1398.7 118.98 1398.67 118.938 1398.63 118.886C1398.56 118.783 1398.45 118.639 1398.32 118.465C1398.06 118.12 1397.68 117.65 1397.2 117.15C1396.28 116.183 1394.87 114.952 1393.15 114.421L1392.26 117.286Z" fill="#AD7543"/>
<path d="M1383.6 147.189C1383.66 148.015 1384.37 148.64 1385.2 148.585C1386.02 148.529 1386.65 147.814 1386.59 146.987L1383.6 147.189ZM1389.4 115.789L1389.4 114.289L1389.39 114.289L1389.37 114.289L1389.4 115.789ZM1390.41 121.717L1390.24 123.207L1393.22 123.549L1393.39 122.059L1390.41 121.717ZM1385.1 147.088C1386.59 146.987 1386.59 146.987 1386.59 146.987C1386.59 146.987 1386.59 146.987 1386.59 146.987C1386.59 146.986 1386.59 146.985 1386.59 146.983C1386.59 146.979 1386.59 146.974 1386.59 146.967C1386.59 146.953 1386.59 146.931 1386.59 146.903C1386.58 146.845 1386.58 146.76 1386.57 146.647C1386.56 146.422 1386.54 146.091 1386.52 145.668C1386.47 144.823 1386.42 143.614 1386.37 142.162C1386.27 139.255 1386.21 135.389 1386.35 131.529C1386.48 127.648 1386.82 123.86 1387.48 121.071C1387.82 119.665 1388.22 118.628 1388.64 117.974C1389.06 117.324 1389.33 117.29 1389.42 117.289L1389.37 114.289C1387.87 114.313 1386.81 115.276 1386.11 116.351C1385.42 117.422 1384.93 118.839 1384.57 120.373C1383.83 123.461 1383.49 127.492 1383.35 131.423C1383.21 135.376 1383.27 139.316 1383.37 142.261C1383.42 143.736 1383.48 144.965 1383.52 145.826C1383.54 146.257 1383.56 146.596 1383.58 146.828C1383.59 146.944 1383.59 147.034 1383.59 147.094C1383.6 147.125 1383.6 147.148 1383.6 147.164C1383.6 147.172 1383.6 147.178 1383.6 147.182C1383.6 147.184 1383.6 147.186 1383.6 147.187C1383.6 147.187 1383.6 147.188 1383.6 147.188C1383.6 147.189 1383.6 147.189 1385.1 147.088ZM1389.4 117.289C1389.62 117.289 1389.74 117.35 1389.89 117.579C1390.1 117.88 1390.26 118.386 1390.36 119.058C1390.46 119.703 1390.47 120.372 1390.46 120.894C1390.45 121.151 1390.44 121.364 1390.43 121.51C1390.42 121.583 1390.41 121.639 1390.41 121.674C1390.41 121.692 1390.41 121.705 1390.41 121.712C1390.41 121.716 1390.41 121.718 1390.41 121.719C1390.41 121.719 1390.41 121.719 1390.41 121.719C1390.41 121.719 1390.41 121.719 1390.41 121.718C1390.41 121.718 1390.41 121.718 1390.41 121.718C1390.41 121.717 1390.41 121.717 1391.9 121.888C1393.39 122.059 1393.39 122.059 1393.39 122.058C1393.39 122.058 1393.39 122.058 1393.39 122.057C1393.39 122.057 1393.39 122.056 1393.39 122.055C1393.39 122.053 1393.39 122.051 1393.39 122.049C1393.39 122.044 1393.39 122.037 1393.39 122.029C1393.39 122.013 1393.39 121.992 1393.4 121.965C1393.4 121.911 1393.41 121.836 1393.42 121.742C1393.43 121.554 1393.45 121.291 1393.46 120.976C1393.47 120.355 1393.46 119.498 1393.33 118.62C1393.21 117.767 1392.95 116.748 1392.38 115.905C1391.77 114.99 1390.78 114.289 1389.4 114.289L1389.4 117.289Z" fill="#AD7543"/>
<path d="M1408.14 146.431L1408.79 147.787L1411.5 146.5L1410.85 145.145L1408.14 146.431ZM1402.54 134.631L1408.14 146.431L1410.85 145.145L1405.25 133.345L1402.54 134.631Z" fill="#AD7543"/>
<path d="M1200 94.0889H1375C1376.68 117.084 1377.05 130.146 1376.2 153.889L1198.8 155.089C1198.09 130.672 1198.33 117.306 1200 94.0889Z" fill="#E31616"/>
<path d="M1194.71 184.623C1193.59 181.982 1183.4 165.086 1180.1 155.089C1178.28 149.572 1198.27 118.987 1198.26 117.704C1199.2 112.344 1204.86 134.805 1204.86 134.805C1204.86 134.805 1192.74 150.634 1194.71 155.089C1196.38 158.893 1204.52 166.449 1206.67 169.705C1208.99 173.226 1211.05 176.078 1211.65 177.501C1213.45 181.782 1212.6 184.098 1212.03 185.001C1211.46 185.905 1211.16 186.205 1209.86 186.905C1208.56 187.605 1207.94 188.216 1206.56 188.705C1205.44 189.105 1204.86 189.33 1203.76 189.805C1202.68 190.13 1201.26 190.205 1200.16 189.994C1199.05 189.784 1196.43 188.723 1194.71 184.623Z" fill="white"/>
<path d="M1210.23 185.531L1205.83 177.809C1205.56 177.33 1204.95 177.162 1204.47 177.436C1203.99 177.709 1203.82 178.32 1204.09 178.8L1208.5 186.539C1208.36 186.629 1208.22 186.716 1208.09 186.799C1207.96 186.882 1207.83 186.96 1207.72 187.032C1207.26 187.312 1206.83 187.55 1206.23 187.762C1205.46 188.036 1204.93 188.231 1204.34 188.477L1202.37 183.185L1201.46 180.739L1201.19 180.017L1201.12 179.823L1201.1 179.773L1201.09 179.76L1201.09 179.757L1201.09 179.756L1201.09 179.756L1200.18 180.095L1201.09 179.756C1200.9 179.238 1200.32 178.975 1199.81 179.167C1199.29 179.36 1199.03 179.935 1199.22 180.453L1200.13 180.113L1199.22 180.453L1199.22 180.453L1199.22 180.454L1199.22 180.457L1199.22 180.47L1199.24 180.52L1199.32 180.715L1199.58 181.436L1200.49 183.883L1202.42 189.059C1201.71 189.142 1200.96 189.13 1200.34 189.012C1199.55 188.862 1197.22 188.016 1195.63 184.236C1195.32 183.513 1194.44 181.897 1193.29 179.817C1193.14 179.534 1192.98 179.24 1192.81 178.937C1191.73 176.983 1190.44 174.649 1189.11 172.143C1186 166.335 1182.67 159.682 1181.05 154.775C1180.99 154.611 1180.96 154.321 1181 153.861C1181.04 153.413 1181.15 152.862 1181.32 152.214C1181.68 150.916 1182.29 149.316 1183.09 147.504C1184.68 143.886 1186.99 139.539 1189.37 135.298C1191.47 131.566 1193.61 127.935 1195.35 124.978C1195.59 124.579 1195.81 124.192 1196.03 123.818C1196.96 122.253 1197.73 120.922 1198.28 119.941C1198.54 119.487 1198.75 119.096 1198.9 118.787C1199.51 120.089 1200.24 122.208 1200.96 124.54C1201.72 126.996 1202.45 129.623 1203 131.639C1203.27 132.647 1203.49 133.5 1203.65 134.101C1203.7 134.288 1203.74 134.451 1203.78 134.586C1203.71 134.676 1203.63 134.78 1203.54 134.898C1203.21 135.344 1202.74 135.985 1202.19 136.768C1201.07 138.332 1199.61 140.469 1198.2 142.751C1196.79 145.026 1195.43 147.477 1194.54 149.662C1194.09 150.754 1193.75 151.814 1193.59 152.773C1193.44 153.714 1193.43 154.676 1193.79 155.492C1194.26 156.569 1195.16 157.839 1196.2 159.143C1197.25 160.463 1198.51 161.885 1199.77 163.274C1200.26 163.814 1200.75 164.347 1201.22 164.868C1201.98 165.697 1202.71 166.496 1203.38 167.247C1204.48 168.476 1205.34 169.509 1205.84 170.255C1206.42 171.14 1206.99 171.982 1207.52 172.767L1207.64 172.945C1208.12 173.664 1208.57 174.33 1208.97 174.941C1209.86 176.289 1210.47 177.279 1210.73 177.889C1212.42 181.92 1211.56 183.885 1211.19 184.467C1210.92 184.897 1210.76 185.102 1210.56 185.283C1210.47 185.361 1210.37 185.441 1210.23 185.531Z" stroke="black" stroke-opacity="0.5" stroke-width="2" stroke-linecap="round" stroke-linejoin="round"/>
<path d="M1250.97 130.741C1250.97 131.744 1250.72 132.832 1250.22 134.007C1249.73 135.167 1248.96 136.313 1247.9 137.444C1246.84 138.562 1245.48 139.471 1243.84 140.173C1242.19 140.875 1240.27 141.226 1238.08 141.226C1236.42 141.226 1234.91 141.068 1233.54 140.753C1232.18 140.438 1230.95 139.951 1229.83 139.292C1228.73 138.619 1227.71 137.738 1226.78 136.649C1225.95 135.661 1225.24 134.558 1224.65 133.341C1224.06 132.109 1223.62 130.799 1223.32 129.409C1223.03 128.02 1222.89 126.545 1222.89 124.983C1222.89 122.448 1223.25 120.178 1223.98 118.173C1224.73 116.168 1225.79 114.456 1227.16 113.038C1228.54 111.606 1230.15 110.517 1232 109.772C1233.85 109.028 1235.82 108.655 1237.91 108.655C1240.46 108.655 1242.73 109.164 1244.72 110.181C1246.71 111.198 1248.23 112.458 1249.29 113.962C1250.35 115.451 1250.88 116.862 1250.88 118.194C1250.88 118.925 1250.63 119.569 1250.11 120.128C1249.59 120.687 1248.97 120.966 1248.24 120.966C1247.42 120.966 1246.81 120.772 1246.39 120.386C1245.99 119.999 1245.54 119.333 1245.04 118.388C1244.21 116.826 1243.23 115.659 1242.1 114.886C1240.98 114.112 1239.6 113.726 1237.95 113.726C1235.33 113.726 1233.24 114.721 1231.68 116.712C1230.13 118.703 1229.36 121.532 1229.36 125.198C1229.36 127.647 1229.7 129.688 1230.39 131.321C1231.07 132.94 1232.05 134.15 1233.31 134.952C1234.57 135.754 1236.04 136.155 1237.73 136.155C1239.57 136.155 1241.11 135.704 1242.38 134.802C1243.65 133.885 1244.61 132.546 1245.25 130.784C1245.53 129.953 1245.86 129.28 1246.26 128.765C1246.66 128.235 1247.31 127.97 1248.2 127.97C1248.96 127.97 1249.61 128.235 1250.15 128.765C1250.7 129.295 1250.97 129.953 1250.97 130.741Z" fill="white"/>
<path d="M1263.13 112.522V121.546H1276.9V112.522C1276.9 111.233 1277.19 110.267 1277.76 109.622C1278.35 108.978 1279.11 108.655 1280.06 108.655C1281.02 108.655 1281.79 108.978 1282.38 109.622C1282.98 110.252 1283.28 111.219 1283.28 112.522V137.337C1283.28 138.64 1282.98 139.614 1282.38 140.259C1281.78 140.903 1281 141.226 1280.06 141.226C1279.1 141.226 1278.33 140.903 1277.76 140.259C1277.19 139.6 1276.9 138.626 1276.9 137.337V126.745H1263.13V137.337C1263.13 138.64 1262.83 139.614 1262.23 140.259C1261.63 140.903 1260.85 141.226 1259.91 141.226C1258.95 141.226 1258.18 140.903 1257.61 140.259C1257.03 139.6 1256.75 138.626 1256.75 137.337V112.522C1256.75 111.233 1257.03 110.267 1257.59 109.622C1258.16 108.978 1258.93 108.655 1259.91 108.655C1260.87 108.655 1261.64 108.978 1262.23 109.622C1262.83 110.252 1263.13 111.219 1263.13 112.522Z" fill="white"/>
<path d="M1290.39 137.337V112.522C1290.39 111.233 1290.69 110.267 1291.27 109.622C1291.86 108.978 1292.62 108.655 1293.55 108.655C1294.51 108.655 1295.28 108.978 1295.87 109.622C1296.47 110.252 1296.77 111.219 1296.77 112.522V137.337C1296.77 138.64 1296.47 139.614 1295.87 140.259C1295.28 140.903 1294.51 141.226 1293.55 141.226C1292.63 141.226 1291.88 140.903 1291.27 140.259C1290.69 139.6 1290.39 138.626 1290.39 137.337Z" fill="white"/>
<path d="M1316.15 128.421H1310.31V137.337C1310.31 138.612 1310.01 139.578 1309.41 140.237C1308.8 140.896 1308.05 141.226 1307.13 141.226C1306.17 141.226 1305.4 140.903 1304.81 140.259C1304.22 139.6 1303.93 138.64 1303.93 137.38V113.103C1303.93 111.699 1304.25 110.696 1304.89 110.095C1305.54 109.493 1306.56 109.192 1307.97 109.192H1316.15C1318.57 109.192 1320.43 109.379 1321.74 109.751C1323.03 110.109 1324.14 110.703 1325.07 111.534C1326.01 112.365 1326.73 113.382 1327.22 114.585C1327.7 115.788 1327.95 117.142 1327.95 118.646C1327.95 121.854 1326.96 124.289 1324.98 125.95C1323.01 127.597 1320.06 128.421 1316.15 128.421ZM1314.61 113.983H1310.31V123.608H1314.61C1316.11 123.608 1317.36 123.451 1318.37 123.136C1319.38 122.821 1320.16 122.305 1320.69 121.589C1321.22 120.873 1321.48 119.935 1321.48 118.774C1321.48 117.385 1321.07 116.254 1320.26 115.38C1319.34 114.449 1317.46 113.983 1314.61 113.983Z" fill="white"/>
<path d="M1357.21 131.235C1357.21 133.14 1356.71 134.852 1355.73 136.37C1354.75 137.888 1353.32 139.077 1351.43 139.937C1349.54 140.796 1347.3 141.226 1344.71 141.226C1341.6 141.226 1339.03 140.638 1337.01 139.464C1335.58 138.619 1334.41 137.494 1333.51 136.091C1332.62 134.673 1332.18 133.298 1332.18 131.966C1332.18 131.192 1332.44 130.534 1332.97 129.989C1333.52 129.431 1334.21 129.151 1335.04 129.151C1335.71 129.151 1336.28 129.366 1336.73 129.796C1337.21 130.226 1337.61 130.863 1337.94 131.708C1338.34 132.711 1338.77 133.549 1339.23 134.222C1339.7 134.895 1340.36 135.453 1341.2 135.897C1342.05 136.327 1343.16 136.542 1344.53 136.542C1346.42 136.542 1347.96 136.105 1349.13 135.231C1350.32 134.343 1350.91 133.241 1350.91 131.923C1350.91 130.877 1350.59 130.032 1349.95 129.388C1349.32 128.729 1348.49 128.228 1347.48 127.884C1346.47 127.54 1345.13 127.175 1343.44 126.788C1341.17 126.258 1339.28 125.642 1337.74 124.94C1336.23 124.224 1335.02 123.257 1334.11 122.04C1333.23 120.808 1332.78 119.283 1332.78 117.464C1332.78 115.731 1333.25 114.191 1334.2 112.845C1335.14 111.498 1336.51 110.467 1338.3 109.751C1340.09 109.021 1342.2 108.655 1344.62 108.655C1346.55 108.655 1348.22 108.899 1349.63 109.386C1351.04 109.858 1352.22 110.496 1353.15 111.298C1354.08 112.086 1354.76 112.916 1355.19 113.79C1355.62 114.664 1355.83 115.516 1355.83 116.347C1355.83 117.106 1355.56 117.793 1355.02 118.409C1354.49 119.011 1353.82 119.312 1353.02 119.312C1352.29 119.312 1351.73 119.132 1351.34 118.774C1350.97 118.402 1350.56 117.8 1350.12 116.97C1349.55 115.781 1348.86 114.857 1348.06 114.198C1347.25 113.525 1345.97 113.188 1344.19 113.188C1342.54 113.188 1341.21 113.554 1340.19 114.284C1339.19 115 1338.69 115.867 1338.69 116.884C1338.69 117.514 1338.86 118.058 1339.21 118.517C1339.55 118.975 1340.02 119.369 1340.62 119.698C1341.22 120.028 1341.83 120.285 1342.45 120.472C1343.07 120.658 1344.08 120.93 1345.5 121.288C1347.28 121.703 1348.88 122.162 1350.31 122.663C1351.76 123.164 1352.98 123.773 1353.99 124.489C1355 125.205 1355.79 126.115 1356.35 127.218C1356.92 128.306 1357.21 129.646 1357.21 131.235Z" fill="white"/>
<defs>
<filter id="filter0_d_1573_6400" x="0.249609" y="133.325" width="246.134" height="148.426" filterUnits="userSpaceOnUse" color-interpolation-filters="sRGB">
<feFlood flood-opacity="0" result="BackgroundImageFix"/>
<feColorMatrix in="SourceAlpha" type="matrix" values="0 0 0 0 0 0 0 0 0 0 0 0 0 0 0 0 0 0 127 0" result="hardAlpha"/>
<feOffset dy="0.6"/>
<feGaussianBlur stdDeviation="0.3"/>
<feComposite in2="hardAlpha" operator="out"/>
<feColorMatrix type="matrix" values="0 0 0 0 0 0 0 0 0 0 0 0 0 0 0 0 0 0 0.25 0"/>
<feBlend mode="normal" in2="BackgroundImageFix" result="effect1_dropShadow_1573_6400"/>
<feBlend mode="normal" in="SourceGraphic" in2="effect1_dropShadow_1573_6400" result="shape"/>
</filter>
<filter id="filter1_i_1573_6400" x="30.3848" y="201.194" width="189.6" height="55.3193" filterUnits="userSpaceOnUse" color-interpolation-filters="sRGB">
<feFlood flood-opacity="0" result="BackgroundImageFix"/>
<feBlend mode="normal" in="SourceGraphic" in2="BackgroundImageFix" result="shape"/>
<feColorMatrix in="SourceAlpha" type="matrix" values="0 0 0 0 0 0 0 0 0 0 0 0 0 0 0 0 0 0 127 0" result="hardAlpha"/>
<feOffset dy="-7.5"/>
<feGaussianBlur stdDeviation="1.5"/>
<feComposite in2="hardAlpha" operator="arithmetic" k2="-1" k3="1"/>
<feColorMatrix type="matrix" values="0 0 0 0 1 0 0 0 0 1 0 0 0 0 1 0 0 0 0.2 0"/>
<feBlend mode="normal" in2="shape" result="effect1_innerShadow_1573_6400"/>
</filter>
<filter id="filter2_i_1573_6400" x="25.8828" y="210.2" width="195.844" height="35.3916" filterUnits="userSpaceOnUse" color-interpolation-filters="sRGB">
<feFlood flood-opacity="0" result="BackgroundImageFix"/>
<feBlend mode="normal" in="SourceGraphic" in2="BackgroundImageFix" result="shape"/>
<feColorMatrix in="SourceAlpha" type="matrix" values="0 0 0 0 0 0 0 0 0 0 0 0 0 0 0 0 0 0 127 0" result="hardAlpha"/>
<feOffset dy="-3"/>
<feGaussianBlur stdDeviation="3.75"/>
<feComposite in2="hardAlpha" operator="arithmetic" k2="-1" k3="1"/>
<feColorMatrix type="matrix" values="0 0 0 0 0 0 0 0 0 0 0 0 0 0 0 0 0 0 0.25 0"/>
<feBlend mode="normal" in2="shape" result="effect1_innerShadow_1573_6400"/>
</filter>
<filter id="filter3_i_1573_6400" x="23.4844" y="140.976" width="210.9" height="93.4502" filterUnits="userSpaceOnUse" color-interpolation-filters="sRGB">
<feFlood flood-opacity="0" result="BackgroundImageFix"/>
<feBlend mode="normal" in="SourceGraphic" in2="BackgroundImageFix" result="shape"/>
<feColorMatrix in="SourceAlpha" type="matrix" values="0 0 0 0 0 0 0 0 0 0 0 0 0 0 0 0 0 0 127 0" result="hardAlpha"/>
<feOffset dx="7.5" dy="-3"/>
<feGaussianBlur stdDeviation="3.75"/>
<feComposite in2="hardAlpha" operator="arithmetic" k2="-1" k3="1"/>
<feColorMatrix type="matrix" values="0 0 0 0 0 0 0 0 0 0 0 0 0 0 0 0 0 0 0.25 0"/>
<feBlend mode="normal" in2="shape" result="effect1_innerShadow_1573_6400"/>
</filter>
<filter id="filter4_i_1573_6400" x="37.5078" y="123.2" width="179.061" height="75.5986" filterUnits="userSpaceOnUse" color-interpolation-filters="sRGB">
<feFlood flood-opacity="0" result="BackgroundImageFix"/>
<feBlend mode="normal" in="SourceGraphic" in2="BackgroundImageFix" result="shape"/>
<feColorMatrix in="SourceAlpha" type="matrix" values="0 0 0 0 0 0 0 0 0 0 0 0 0 0 0 0 0 0 127 0" result="hardAlpha"/>
<feOffset dx="1.5" dy="-1.5"/>
<feGaussianBlur stdDeviation="3.75"/>
<feComposite in2="hardAlpha" operator="arithmetic" k2="-1" k3="1"/>
<feColorMatrix type="matrix" values="0 0 0 0 1 0 0 0 0 1 0 0 0 0 1 0 0 0 0.4 0"/>
<feBlend mode="normal" in2="shape" result="effect1_innerShadow_1573_6400"/>
</filter>
<filter id="filter5_d_1573_6400" x="70.8086" y="227.275" width="57.6758" height="22.9746" filterUnits="userSpaceOnUse" color-interpolation-filters="sRGB">
<feFlood flood-opacity="0" result="BackgroundImageFix"/>
<feColorMatrix in="SourceAlpha" type="matrix" values="0 0 0 0 0 0 0 0 0 0 0 0 0 0 0 0 0 0 127 0" result="hardAlpha"/>
<feOffset dy="1.5"/>
<feGaussianBlur stdDeviation="1.5"/>
<feComposite in2="hardAlpha" operator="out"/>
<feColorMatrix type="matrix" values="0 0 0 0 0 0 0 0 0 0 0 0 0 0 0 0 0 0 0.25 0"/>
<feBlend mode="normal" in2="BackgroundImageFix" result="effect1_dropShadow_1573_6400"/>
<feBlend mode="normal" in="SourceGraphic" in2="effect1_dropShadow_1573_6400" result="shape"/>
</filter>
<filter id="filter6_d_1573_6400" x="148.176" y="233.005" width="41.3535" height="15.958" filterUnits="userSpaceOnUse" color-interpolation-filters="sRGB">
<feFlood flood-opacity="0" result="BackgroundImageFix"/>
<feColorMatrix in="SourceAlpha" type="matrix" values="0 0 0 0 0 0 0 0 0 0 0 0 0 0 0 0 0 0 127 0" result="hardAlpha"/>
<feOffset dy="0.6"/>
<feGaussianBlur stdDeviation="1.5"/>
<feComposite in2="hardAlpha" operator="out"/>
<feColorMatrix type="matrix" values="0 0 0 0 0 0 0 0 0 0 0 0 0 0 0 0 0 0 0.25 0"/>
<feBlend mode="normal" in2="BackgroundImageFix" result="effect1_dropShadow_1573_6400"/>
<feBlend mode="normal" in="SourceGraphic" in2="effect1_dropShadow_1573_6400" result="shape"/>
</filter>
<filter id="filter7_i_1573_6400" x="30.3848" y="85.1719" width="189.6" height="92.2529" filterUnits="userSpaceOnUse" color-interpolation-filters="sRGB">
<feFlood flood-opacity="0" result="BackgroundImageFix"/>
<feBlend mode="normal" in="SourceGraphic" in2="BackgroundImageFix" result="shape"/>
<feColorMatrix in="SourceAlpha" type="matrix" values="0 0 0 0 0 0 0 0 0 0 0 0 0 0 0 0 0 0 127 0" result="hardAlpha"/>
<feOffset dy="-7.5"/>
<feGaussianBlur stdDeviation="1.5"/>
<feComposite in2="hardAlpha" operator="arithmetic" k2="-1" k3="1"/>
<feColorMatrix type="matrix" values="0 0 0 0 1 0 0 0 0 1 0 0 0 0 1 0 0 0 0.2 0"/>
<feBlend mode="normal" in2="shape" result="effect1_innerShadow_1573_6400"/>
</filter>
<filter id="filter8_d_1573_6400" x="75.9063" y="99.8695" width="12.6406" height="10.6006" filterUnits="userSpaceOnUse" color-interpolation-filters="sRGB">
<feFlood flood-opacity="0" result="BackgroundImageFix"/>
<feColorMatrix in="SourceAlpha" type="matrix" values="0 0 0 0 0 0 0 0 0 0 0 0 0 0 0 0 0 0 127 0" result="hardAlpha"/>
<feOffset dy="0.6"/>
<feGaussianBlur stdDeviation="1.5"/>
<feComposite in2="hardAlpha" operator="out"/>
<feColorMatrix type="matrix" values="0 0 0 0 0 0 0 0 0 0 0 0 0 0 0 0 0 0 0.25 0"/>
<feBlend mode="normal" in2="BackgroundImageFix" result="effect1_dropShadow_1573_6400"/>
<feBlend mode="normal" in="SourceGraphic" in2="effect1_dropShadow_1573_6400" result="shape"/>
</filter>
<filter id="filter9_d_1573_6400" x="144.215" y="95.5443" width="12.2227" height="11.1523" filterUnits="userSpaceOnUse" color-interpolation-filters="sRGB">
<feFlood flood-opacity="0" result="BackgroundImageFix"/>
<feColorMatrix in="SourceAlpha" type="matrix" values="0 0 0 0 0 0 0 0 0 0 0 0 0 0 0 0 0 0 127 0" result="hardAlpha"/>
<feOffset dy="0.6"/>
<feGaussianBlur stdDeviation="1.5"/>
<feComposite in2="hardAlpha" operator="out"/>
<feColorMatrix type="matrix" values="0 0 0 0 0 0 0 0 0 0 0 0 0 0 0 0 0 0 0.25 0"/>
<feBlend mode="normal" in2="BackgroundImageFix" result="effect1_dropShadow_1573_6400"/>
<feBlend mode="normal" in="SourceGraphic" in2="effect1_dropShadow_1573_6400" result="shape"/>
</filter>
<filter id="filter10_d_1573_6400" x="145.322" y="106.954" width="9.82422" height="13.1152" filterUnits="userSpaceOnUse" color-interpolation-filters="sRGB">
<feFlood flood-opacity="0" result="BackgroundImageFix"/>
<feColorMatrix in="SourceAlpha" type="matrix" values="0 0 0 0 0 0 0 0 0 0 0 0 0 0 0 0 0 0 127 0" result="hardAlpha"/>
<feOffset dy="0.6"/>
<feGaussianBlur stdDeviation="1.5"/>
<feComposite in2="hardAlpha" operator="out"/>
<feColorMatrix type="matrix" values="0 0 0 0 0 0 0 0 0 0 0 0 0 0 0 0 0 0 0.25 0"/>
<feBlend mode="normal" in2="BackgroundImageFix" result="effect1_dropShadow_1573_6400"/>
<feBlend mode="normal" in="SourceGraphic" in2="effect1_dropShadow_1573_6400" result="shape"/>
</filter>
<filter id="filter11_d_1573_6400" x="106.73" y="95.5863" width="13.0918" height="9.86816" filterUnits="userSpaceOnUse" color-interpolation-filters="sRGB">
<feFlood flood-opacity="0" result="BackgroundImageFix"/>
<feColorMatrix in="SourceAlpha" type="matrix" values="0 0 0 0 0 0 0 0 0 0 0 0 0 0 0 0 0 0 127 0" result="hardAlpha"/>
<feOffset dy="0.6"/>
<feGaussianBlur stdDeviation="1.5"/>
<feComposite in2="hardAlpha" operator="out"/>
<feColorMatrix type="matrix" values="0 0 0 0 0 0 0 0 0 0 0 0 0 0 0 0 0 0 0.25 0"/>
<feBlend mode="normal" in2="BackgroundImageFix" result="effect1_dropShadow_1573_6400"/>
<feBlend mode="normal" in="SourceGraphic" in2="effect1_dropShadow_1573_6400" result="shape"/>
</filter>
<filter id="filter12_d_1573_6400" x="127.467" y="101.894" width="11.3066" height="12.0918" filterUnits="userSpaceOnUse" color-interpolation-filters="sRGB">
<feFlood flood-opacity="0" result="BackgroundImageFix"/>
<feColorMatrix in="SourceAlpha" type="matrix" values="0 0 0 0 0 0 0 0 0 0 0 0 0 0 0 0 0 0 127 0" result="hardAlpha"/>
<feOffset dy="0.6"/>
<feGaussianBlur stdDeviation="1.5"/>
<feComposite in2="hardAlpha" operator="out"/>
<feColorMatrix type="matrix" values="0 0 0 0 0 0 0 0 0 0 0 0 0 0 0 0 0 0 0.25 0"/>
<feBlend mode="normal" in2="BackgroundImageFix" result="effect1_dropShadow_1573_6400"/>
<feBlend mode="normal" in="SourceGraphic" in2="effect1_dropShadow_1573_6400" result="shape"/>
</filter>
<filter id="filter13_d_1573_6400" x="162.982" y="102.806" width="10.6445" height="12.6113" filterUnits="userSpaceOnUse" color-interpolation-filters="sRGB">
<feFlood flood-opacity="0" result="BackgroundImageFix"/>
<feColorMatrix in="SourceAlpha" type="matrix" values="0 0 0 0 0 0 0 0 0 0 0 0 0 0 0 0 0 0 127 0" result="hardAlpha"/>
<feOffset dy="0.6"/>
<feGaussianBlur stdDeviation="1.5"/>
<feComposite in2="hardAlpha" operator="out"/>
<feColorMatrix type="matrix" values="0 0 0 0 0 0 0 0 0 0 0 0 0 0 0 0 0 0 0.25 0"/>
<feBlend mode="normal" in2="BackgroundImageFix" result="effect1_dropShadow_1573_6400"/>
<feBlend mode="normal" in="SourceGraphic" in2="effect1_dropShadow_1573_6400" result="shape"/>
</filter>
<filter id="filter14_d_1573_6400" x="92.1836" y="104.529" width="11.0234" height="12.3291" filterUnits="userSpaceOnUse" color-interpolation-filters="sRGB">
<feFlood flood-opacity="0" result="BackgroundImageFix"/>
<feColorMatrix in="SourceAlpha" type="matrix" values="0 0 0 0 0 0 0 0 0 0 0 0 0 0 0 0 0 0 127 0" result="hardAlpha"/>
<feOffset dy="0.6"/>
<feGaussianBlur stdDeviation="1.5"/>
<feComposite in2="hardAlpha" operator="out"/>
<feColorMatrix type="matrix" values="0 0 0 0 0 0 0 0 0 0 0 0 0 0 0 0 0 0 0.25 0"/>
<feBlend mode="normal" in2="BackgroundImageFix" result="effect1_dropShadow_1573_6400"/>
<feBlend mode="normal" in="SourceGraphic" in2="effect1_dropShadow_1573_6400" result="shape"/>
</filter>
<filter id="filter15_d_1573_6400" x="309.598" y="84.9004" width="20.3996" height="19.5998" filterUnits="userSpaceOnUse" color-interpolation-filters="sRGB">
<feFlood flood-opacity="0" result="BackgroundImageFix"/>
<feColorMatrix in="SourceAlpha" type="matrix" values="0 0 0 0 0 0 0 0 0 0 0 0 0 0 0 0 0 0 127 0" result="hardAlpha"/>
<feOffset dx="2" dy="2"/>
<feGaussianBlur stdDeviation="0.4"/>
<feComposite in2="hardAlpha" operator="out"/>
<feColorMatrix type="matrix" values="0 0 0 0 0 0 0 0 0 0 0 0 0 0 0 0 0 0 0.25 0"/>
<feBlend mode="normal" in2="BackgroundImageFix" result="effect1_dropShadow_1573_6400"/>
<feBlend mode="normal" in="SourceGraphic" in2="effect1_dropShadow_1573_6400" result="shape"/>
</filter>
<filter id="filter16_d_1573_6400" x="300.199" y="179.865" width="20.9992" height="20.6564" filterUnits="userSpaceOnUse" color-interpolation-filters="sRGB">
<feFlood flood-opacity="0" result="BackgroundImageFix"/>
<feColorMatrix in="SourceAlpha" type="matrix" values="0 0 0 0 0 0 0 0 0 0 0 0 0 0 0 0 0 0 127 0" result="hardAlpha"/>
<feOffset dx="2" dy="2"/>
<feGaussianBlur stdDeviation="0.4"/>
<feComposite in2="hardAlpha" operator="out"/>
<feColorMatrix type="matrix" values="0 0 0 0 0 0 0 0 0 0 0 0 0 0 0 0 0 0 0.25 0"/>
<feBlend mode="normal" in2="BackgroundImageFix" result="effect1_dropShadow_1573_6400"/>
<feBlend mode="normal" in="SourceGraphic" in2="effect1_dropShadow_1573_6400" result="shape"/>
</filter>
<filter id="filter17_d_1573_6400" x="367.398" y="66.7002" width="28.8" height="29.5998" filterUnits="userSpaceOnUse" color-interpolation-filters="sRGB">
<feFlood flood-opacity="0" result="BackgroundImageFix"/>
<feColorMatrix in="SourceAlpha" type="matrix" values="0 0 0 0 0 0 0 0 0 0 0 0 0 0 0 0 0 0 127 0" result="hardAlpha"/>
<feOffset dx="2" dy="2"/>
<feGaussianBlur stdDeviation="0.4"/>
<feComposite in2="hardAlpha" operator="out"/>
<feColorMatrix type="matrix" values="0 0 0 0 0 0 0 0 0 0 0 0 0 0 0 0 0 0 0.25 0"/>
<feBlend mode="normal" in2="BackgroundImageFix" result="effect1_dropShadow_1573_6400"/>
<feBlend mode="normal" in="SourceGraphic" in2="effect1_dropShadow_1573_6400" result="shape"/>
</filter>
<filter id="filter18_d_1573_6400" x="366.318" y="228.5" width="35.1008" height="19.0002" filterUnits="userSpaceOnUse" color-interpolation-filters="sRGB">
<feFlood flood-opacity="0" result="BackgroundImageFix"/>
<feColorMatrix in="SourceAlpha" type="matrix" values="0 0 0 0 0 0 0 0 0 0 0 0 0 0 0 0 0 0 127 0" result="hardAlpha"/>
<feOffset dx="2" dy="2"/>
<feGaussianBlur stdDeviation="0.4"/>
<feComposite in2="hardAlpha" operator="out"/>
<feColorMatrix type="matrix" values="0 0 0 0 0 0 0 0 0 0 0 0 0 0 0 0 0 0 0.25 0"/>
<feBlend mode="normal" in2="BackgroundImageFix" result="effect1_dropShadow_1573_6400"/>
<feBlend mode="normal" in="SourceGraphic" in2="effect1_dropShadow_1573_6400" result="shape"/>
</filter>
<filter id="filter19_d_1573_6400" x="322.15" y="196.946" width="23.466" height="20.6154" filterUnits="userSpaceOnUse" color-interpolation-filters="sRGB">
<feFlood flood-opacity="0" result="BackgroundImageFix"/>
<feColorMatrix in="SourceAlpha" type="matrix" values="0 0 0 0 0 0 0 0 0 0 0 0 0 0 0 0 0 0 127 0" result="hardAlpha"/>
<feOffset dx="2" dy="2"/>
<feGaussianBlur stdDeviation="0.4"/>
<feComposite in2="hardAlpha" operator="out"/>
<feColorMatrix type="matrix" values="0 0 0 0 0 0 0 0 0 0 0 0 0 0 0 0 0 0 0.25 0"/>
<feBlend mode="normal" in2="BackgroundImageFix" result="effect1_dropShadow_1573_6400"/>
<feBlend mode="normal" in="SourceGraphic" in2="effect1_dropShadow_1573_6400" result="shape"/>
</filter>
<filter id="filter20_d_1573_6400" x="420.799" y="107.5" width="20.8" height="20.8" filterUnits="userSpaceOnUse" color-interpolation-filters="sRGB">
<feFlood flood-opacity="0" result="BackgroundImageFix"/>
<feColorMatrix in="SourceAlpha" type="matrix" values="0 0 0 0 0 0 0 0 0 0 0 0 0 0 0 0 0 0 127 0" result="hardAlpha"/>
<feOffset dx="2" dy="2"/>
<feGaussianBlur stdDeviation="0.4"/>
<feComposite in2="hardAlpha" operator="out"/>
<feColorMatrix type="matrix" values="0 0 0 0 0 0 0 0 0 0 0 0 0 0 0 0 0 0 0.25 0"/>
<feBlend mode="normal" in2="BackgroundImageFix" result="effect1_dropShadow_1573_6400"/>
<feBlend mode="normal" in="SourceGraphic" in2="effect1_dropShadow_1573_6400" result="shape"/>
</filter>
<filter id="filter21_d_1573_6400" x="282.049" y="132.342" width="26.8645" height="28.9543" filterUnits="userSpaceOnUse" color-interpolation-filters="sRGB">
<feFlood flood-opacity="0" result="BackgroundImageFix"/>
<feColorMatrix in="SourceAlpha" type="matrix" values="0 0 0 0 0 0 0 0 0 0 0 0 0 0 0 0 0 0 127 0" result="hardAlpha"/>
<feOffset dx="2" dy="2"/>
<feGaussianBlur stdDeviation="0.4"/>
<feComposite in2="hardAlpha" operator="out"/>
<feColorMatrix type="matrix" values="0 0 0 0 0 0 0 0 0 0 0 0 0 0 0 0 0 0 0.25 0"/>
<feBlend mode="normal" in2="BackgroundImageFix" result="effect1_dropShadow_1573_6400"/>
<feBlend mode="normal" in="SourceGraphic" in2="effect1_dropShadow_1573_6400" result="shape"/>
</filter>
<filter id="filter22_d_1573_6400" x="369.736" y="189.665" width="30.9738" height="31.2863" filterUnits="userSpaceOnUse" color-interpolation-filters="sRGB">
<feFlood flood-opacity="0" result="BackgroundImageFix"/>
<feColorMatrix in="SourceAlpha" type="matrix" values="0 0 0 0 0 0 0 0 0 0 0 0 0 0 0 0 0 0 127 0" result="hardAlpha"/>
<feOffset dx="2" dy="2"/>
<feGaussianBlur stdDeviation="0.4"/>
<feComposite in2="hardAlpha" operator="out"/>
<feColorMatrix type="matrix" values="0 0 0 0 0 0 0 0 0 0 0 0 0 0 0 0 0 0 0.25 0"/>
<feBlend mode="normal" in2="BackgroundImageFix" result="effect1_dropShadow_1573_6400"/>
<feBlend mode="normal" in="SourceGraphic" in2="effect1_dropShadow_1573_6400" result="shape"/>
</filter>
<filter id="filter23_d_1573_6400" x="415.443" y="204.694" width="18.343" height="22.2863" filterUnits="userSpaceOnUse" color-interpolation-filters="sRGB">
<feFlood flood-opacity="0" result="BackgroundImageFix"/>
<feColorMatrix in="SourceAlpha" type="matrix" values="0 0 0 0 0 0 0 0 0 0 0 0 0 0 0 0 0 0 127 0" result="hardAlpha"/>
<feOffset dx="2" dy="2"/>
<feGaussianBlur stdDeviation="0.4"/>
<feComposite in2="hardAlpha" operator="out"/>
<feColorMatrix type="matrix" values="0 0 0 0 0 0 0 0 0 0 0 0 0 0 0 0 0 0 0.25 0"/>
<feBlend mode="normal" in2="BackgroundImageFix" result="effect1_dropShadow_1573_6400"/>
<feBlend mode="normal" in="SourceGraphic" in2="effect1_dropShadow_1573_6400" result="shape"/>
</filter>
<filter id="filter24_d_1573_6400" x="325.799" y="165.3" width="21.2004" height="18.5998" filterUnits="userSpaceOnUse" color-interpolation-filters="sRGB">
<feFlood flood-opacity="0" result="BackgroundImageFix"/>
<feColorMatrix in="SourceAlpha" type="matrix" values="0 0 0 0 0 0 0 0 0 0 0 0 0 0 0 0 0 0 127 0" result="hardAlpha"/>
<feOffset dx="2" dy="2"/>
<feGaussianBlur stdDeviation="0.4"/>
<feComposite in2="hardAlpha" operator="out"/>
<feColorMatrix type="matrix" values="0 0 0 0 0 0 0 0 0 0 0 0 0 0 0 0 0 0 0.25 0"/>
<feBlend mode="normal" in2="BackgroundImageFix" result="effect1_dropShadow_1573_6400"/>
<feBlend mode="normal" in="SourceGraphic" in2="effect1_dropShadow_1573_6400" result="shape"/>
</filter>
<filter id="filter25_d_1573_6400" x="444.916" y="147.787" width="17.7453" height="18.9758" filterUnits="userSpaceOnUse" color-interpolation-filters="sRGB">
<feFlood flood-opacity="0" result="BackgroundImageFix"/>
<feColorMatrix in="SourceAlpha" type="matrix" values="0 0 0 0 0 0 0 0 0 0 0 0 0 0 0 0 0 0 127 0" result="hardAlpha"/>
<feOffset dx="2" dy="2"/>
<feGaussianBlur stdDeviation="0.4"/>
<feComposite in2="hardAlpha" operator="out"/>
<feColorMatrix type="matrix" values="0 0 0 0 0 0 0 0 0 0 0 0 0 0 0 0 0 0 0.25 0"/>
<feBlend mode="normal" in2="BackgroundImageFix" result="effect1_dropShadow_1573_6400"/>
<feBlend mode="normal" in="SourceGraphic" in2="effect1_dropShadow_1573_6400" result="shape"/>
</filter>
<filter id="filter26_d_1573_6400" x="422.398" y="165.3" width="23.6555" height="27.5998" filterUnits="userSpaceOnUse" color-interpolation-filters="sRGB">
<feFlood flood-opacity="0" result="BackgroundImageFix"/>
<feColorMatrix in="SourceAlpha" type="matrix" values="0 0 0 0 0 0 0 0 0 0 0 0 0 0 0 0 0 0 127 0" result="hardAlpha"/>
<feOffset dx="2" dy="2"/>
<feGaussianBlur stdDeviation="0.4"/>
<feComposite in2="hardAlpha" operator="out"/>
<feColorMatrix type="matrix" values="0 0 0 0 0 0 0 0 0 0 0 0 0 0 0 0 0 0 0.25 0"/>
<feBlend mode="normal" in2="BackgroundImageFix" result="effect1_dropShadow_1573_6400"/>
<feBlend mode="normal" in="SourceGraphic" in2="effect1_dropShadow_1573_6400" result="shape"/>
</filter>
<filter id="filter27_d_1573_6400" x="1003.05" y="122.2" width="137.6" height="54.2002" filterUnits="userSpaceOnUse" color-interpolation-filters="sRGB">
<feFlood flood-opacity="0" result="BackgroundImageFix"/>
<feColorMatrix in="SourceAlpha" type="matrix" values="0 0 0 0 0 0 0 0 0 0 0 0 0 0 0 0 0 0 127 0" result="hardAlpha"/>
<feOffset dy="2"/>
<feGaussianBlur stdDeviation="2"/>
<feComposite in2="hardAlpha" operator="out"/>
<feColorMatrix type="matrix" values="0 0 0 0 1 0 0 0 0 1 0 0 0 0 1 0 0 0 0.25 0"/>
<feBlend mode="normal" in2="BackgroundImageFix" result="effect1_dropShadow_1573_6400"/>
<feBlend mode="normal" in="SourceGraphic" in2="effect1_dropShadow_1573_6400" result="shape"/>
</filter>
<filter id="filter28_i_1573_6400" x="1023.45" y="224.4" width="90.4004" height="38" filterUnits="userSpaceOnUse" color-interpolation-filters="sRGB">
<feFlood flood-opacity="0" result="BackgroundImageFix"/>
<feBlend mode="normal" in="SourceGraphic" in2="BackgroundImageFix" result="shape"/>
<feColorMatrix in="SourceAlpha" type="matrix" values="0 0 0 0 0 0 0 0 0 0 0 0 0 0 0 0 0 0 127 0" result="hardAlpha"/>
<feOffset dx="1" dy="1"/>
<feGaussianBlur stdDeviation="1"/>
<feComposite in2="hardAlpha" operator="arithmetic" k2="-1" k3="1"/>
<feColorMatrix type="matrix" values="0 0 0 0 1 0 0 0 0 1 0 0 0 0 1 0 0 0 0.5 0"/>
<feBlend mode="normal" in2="shape" result="effect1_innerShadow_1573_6400"/>
</filter>
<filter id="filter29_d_1573_6400" x="1287.45" y="158.844" width="48.5441" height="50.6252" filterUnits="userSpaceOnUse" color-interpolation-filters="sRGB">
<feFlood flood-opacity="0" result="BackgroundImageFix"/>
<feColorMatrix in="SourceAlpha" type="matrix" values="0 0 0 0 0 0 0 0 0 0 0 0 0 0 0 0 0 0 127 0" result="hardAlpha"/>
<feOffset dx="2" dy="2"/>
<feGaussianBlur stdDeviation="0.4"/>
<feComposite in2="hardAlpha" operator="out"/>
<feColorMatrix type="matrix" values="0 0 0 0 0 0 0 0 0 0 0 0 0 0 0 0 0 0 0.25 0"/>
<feBlend mode="normal" in2="BackgroundImageFix" result="effect1_dropShadow_1573_6400"/>
<feBlend mode="normal" in="SourceGraphic" in2="effect1_dropShadow_1573_6400" result="shape"/>
</filter>
<filter id="filter30_di_1573_6400" x="1266.36" y="170.199" width="37.3684" height="35.3559" filterUnits="userSpaceOnUse" color-interpolation-filters="sRGB">
<feFlood flood-opacity="0" result="BackgroundImageFix"/>
<feColorMatrix in="SourceAlpha" type="matrix" values="0 0 0 0 0 0 0 0 0 0 0 0 0 0 0 0 0 0 127 0" result="hardAlpha"/>
<feOffset dx="2" dy="2"/>
<feGaussianBlur stdDeviation="0.4"/>
<feComposite in2="hardAlpha" operator="out"/>
<feColorMatrix type="matrix" values="0 0 0 0 0 0 0 0 0 0 0 0 0 0 0 0 0 0 0.25 0"/>
<feBlend mode="normal" in2="BackgroundImageFix" result="effect1_dropShadow_1573_6400"/>
<feBlend mode="normal" in="SourceGraphic" in2="effect1_dropShadow_1573_6400" result="shape"/>
<feColorMatrix in="SourceAlpha" type="matrix" values="0 0 0 0 0 0 0 0 0 0 0 0 0 0 0 0 0 0 127 0" result="hardAlpha"/>
<feOffset dy="-0.8"/>
<feGaussianBlur stdDeviation="1"/>
<feComposite in2="hardAlpha" operator="arithmetic" k2="-1" k3="1"/>
<feColorMatrix type="matrix" values="0 0 0 0 0 0 0 0 0 0 0 0 0 0 0 0 0 0 0.25 0"/>
<feBlend mode="normal" in2="shape" result="effect2_innerShadow_1573_6400"/>
</filter>
<filter id="filter31_d_1573_6400" x="1249.03" y="188.012" width="42.5949" height="22.4514" filterUnits="userSpaceOnUse" color-interpolation-filters="sRGB">
<feFlood flood-opacity="0" result="BackgroundImageFix"/>
<feColorMatrix in="SourceAlpha" type="matrix" values="0 0 0 0 0 0 0 0 0 0 0 0 0 0 0 0 0 0 127 0" result="hardAlpha"/>
<feOffset dx="2" dy="2"/>
<feGaussianBlur stdDeviation="0.4"/>
<feComposite in2="hardAlpha" operator="out"/>
<feColorMatrix type="matrix" values="0 0 0 0 0 0 0 0 0 0 0 0 0 0 0 0 0 0 0.25 0"/>
<feBlend mode="normal" in2="BackgroundImageFix" result="effect1_dropShadow_1573_6400"/>
<feBlend mode="normal" in="SourceGraphic" in2="effect1_dropShadow_1573_6400" result="shape"/>
</filter>
<filter id="filter32_i_1573_6400" x="1249.03" y="187.212" width="39.7949" height="20.4514" filterUnits="userSpaceOnUse" color-interpolation-filters="sRGB">
<feFlood flood-opacity="0" result="BackgroundImageFix"/>
<feBlend mode="normal" in="SourceGraphic" in2="BackgroundImageFix" result="shape"/>
<feColorMatrix in="SourceAlpha" type="matrix" values="0 0 0 0 0 0 0 0 0 0 0 0 0 0 0 0 0 0 127 0" result="hardAlpha"/>
<feOffset dy="-0.8"/>
<feGaussianBlur stdDeviation="1"/>
<feComposite in2="hardAlpha" operator="arithmetic" k2="-1" k3="1"/>
<feColorMatrix type="matrix" values="0 0 0 0 0 0 0 0 0 0 0 0 0 0 0 0 0 0 0.25 0"/>
<feBlend mode="normal" in2="shape" result="effect1_innerShadow_1573_6400"/>
</filter>
</defs>
</svg>
