<svg width="1435" height="282" viewBox="0 0 1435 282" fill="none" xmlns="http://www.w3.org/2000/svg">
<g filter="url(#filter0_d_1690_6328)">
<path d="M24.3091 184.926C24.3091 184.926 8.70905 175.026 6.08405 162.876C3.45905 150.726 4.05905 136.476 4.05905 136.476M226.659 184.926C226.659 184.926 236.559 176.301 239.634 164.676C242.709 153.051 242.634 142.551 242.634 142.551M87.909 254.976L80.709 277.401H64.059M161.634 254.976L168.084 277.401H186.909" stroke="black" stroke-width="6.3" stroke-linecap="round"/>
</g>
<g filter="url(#filter1_i_1690_6328)">
<path d="M219.985 229.864C219.985 242.112 214.66 257.376 125.335 256.476C36.0098 255.576 30.3848 242.112 30.3848 229.864C30.3848 217.616 43.2098 204.546 122.56 204.201C201.91 203.855 219.985 217.616 219.985 229.864Z" fill="#FF9900"/>
</g>
<path d="M31.1353 230.07C61.3937 238.368 83.0084 240.585 116.185 241.442M31.1488 230.852C61.3722 239.122 83.0271 241.336 116.165 242.192C132.945 242.625 155.508 240.69 173.849 238.652C183.025 237.632 191.155 236.586 196.99 235.794C199.908 235.398 202.253 235.066 203.868 234.833C204.676 234.716 205.302 234.624 205.726 234.561C205.937 234.53 206.099 234.506 206.207 234.49L206.33 234.471L206.361 234.466L206.369 234.465L206.371 234.465C206.372 234.465 206.372 234.465 206.26 233.723C206.147 232.982 206.147 232.982 206.147 232.982L206.145 232.982L206.137 232.983L206.107 232.988L205.985 233.006C205.877 233.022 205.717 233.046 205.506 233.077C205.084 233.14 204.46 233.232 203.654 233.348C202.042 233.581 199.702 233.912 196.789 234.308C190.962 235.098 182.845 236.143 173.683 237.161C155.349 239.199 132.874 241.123 116.204 240.692C82.998 239.834 61.4262 237.614 31.1446 229.295C31.2398 226.566 32.043 223.829 34.2065 221.213C36.5352 218.398 40.4859 215.666 46.9756 213.272C59.9705 208.479 82.903 205.123 122.563 204.951C162.214 204.778 186.469 208.133 200.786 213.019C215.115 217.91 219.235 224.227 219.235 229.864C219.235 232.874 218.905 235.962 217.115 238.928C215.326 241.892 212.017 244.832 205.867 247.409C193.524 252.578 169.999 256.176 125.342 255.726C80.6815 255.276 57.0701 251.681 44.6405 246.729C38.4431 244.259 35.1013 241.481 33.2907 238.658C31.6804 236.147 31.2285 233.52 31.1488 230.852Z" stroke="#B15500" stroke-width="1.5"/>
<g filter="url(#filter2_i_1690_6328)">
<path d="M26.0332 219.201C26.1082 215.826 37.6582 213.351 37.6582 213.351H209.933C214.582 214.408 217.25 214.326 221.558 219.201C220.658 222.201 215.708 222.726 213.983 224.976L215.708 229.401C215.708 229.401 212.108 234.876 209.933 234.876C207.758 234.876 197.288 231.801 195.908 231.801C194.528 231.801 190.083 233.851 188.033 234.876C188.033 234.876 184.208 239.676 179.483 242.751C174.758 245.826 164.783 245.526 156.608 244.476C148.433 243.426 143.258 239.676 143.258 239.676C143.258 239.676 139.433 236.826 136.133 236.301C132.833 235.776 117.308 239.676 117.308 239.676L99.1582 244.476C99.1582 244.476 90.9832 246.651 83.4082 244.476C75.8332 242.301 77.2582 240.351 72.5332 234.876C67.8082 229.401 52.6582 224.976 52.6582 224.976C52.6582 224.976 50.0332 229.926 39.6832 229.401C29.3332 228.876 26.0332 219.201 26.0332 219.201Z" fill="#67E73A"/>
</g>
<path d="M26.0332 219.201C26.1082 215.826 37.6582 213.351 37.6582 213.351H209.933C214.582 214.408 217.25 214.326 221.558 219.201C220.658 222.201 215.708 222.726 213.983 224.976L215.708 229.401C215.708 229.401 212.108 234.876 209.933 234.876C207.758 234.876 197.288 231.801 195.908 231.801C194.528 231.801 190.083 233.851 188.033 234.876C188.033 234.876 184.208 239.676 179.483 242.751C174.758 245.826 164.783 245.526 156.608 244.476C148.433 243.426 143.258 239.676 143.258 239.676C143.258 239.676 139.433 236.826 136.133 236.301C132.833 235.776 117.308 239.676 117.308 239.676L99.1582 244.476C99.1582 244.476 90.9832 246.651 83.4082 244.476C75.8332 242.301 77.2582 240.351 72.5332 234.876C67.8082 229.401 52.6582 224.976 52.6582 224.976C52.6582 224.976 50.0332 229.926 39.6832 229.401C29.3332 228.876 26.0332 219.201 26.0332 219.201Z" stroke="#2B870B" stroke-width="0.3"/>
<g filter="url(#filter3_i_1690_6328)">
<path d="M39.6955 157.573C61.6419 139.112 177.892 139.777 207.818 157.573C237.744 175.368 228.3 213.749 207.818 224.905C187.336 236.062 60.9761 239.048 39.6955 224.905C18.4148 210.762 17.7491 176.033 39.6955 157.573Z" fill="#B15500"/>
</g>
<g filter="url(#filter4_i_1690_6328)">
<path d="M41.5584 149.15L182.858 124.7C182.858 124.7 219.683 167.9 214.583 177.725C211.958 179.75 191.054 177.885 158.708 177.725C128.512 177.576 83.8847 182.574 76.208 190.25C71.8562 194.602 61.6583 208.883 60.3833 186.725C56.6331 177.725 52.8831 172.7 40.2832 170.375C33.3644 161.781 41.5584 149.15 41.5584 149.15Z" fill="#FFC700"/>
</g>
<g filter="url(#filter5_d_1690_6328)">
<path d="M102.909 236C104.859 236.301 125.484 237.725 125.484 237.725C106.036 242.994 95.8405 245.704 91.5836 245.75C82.6428 245.514 77.7088 245.46 73.8086 236.6C73.8086 236.6 74.0336 233 76.7336 230.075C79.4336 227.15 91.5836 230.075 91.5836 230.075C91.5836 230.075 100.959 235.7 102.909 236Z" fill="#2B870B"/>
<path d="M124.583 237.813L124.585 237.813C115.282 240.333 108.148 242.249 102.802 243.551C97.2892 244.893 93.6935 245.577 91.5847 245.6C91.516 245.598 91.4475 245.597 91.3793 245.595C87.0004 245.479 83.6264 245.39 80.8622 244.27C78.0778 243.141 75.8971 240.957 73.961 236.574L73.9612 236.571C73.9634 236.545 73.9671 236.507 73.9726 236.456C73.9838 236.354 74.0028 236.205 74.0339 236.016C74.0963 235.639 74.2073 235.104 74.4018 234.479C74.791 233.228 75.5131 231.619 76.8438 230.177C77.4778 229.49 78.692 229.128 80.2065 228.991C81.711 228.855 83.4717 228.945 85.1549 229.128C86.837 229.31 88.4358 229.583 89.6145 229.811C90.2037 229.925 90.6876 230.028 91.024 230.102C91.1922 230.139 91.3235 230.169 91.4127 230.189L91.5142 230.213L91.5264 230.216L91.5335 230.22L91.6125 230.267C91.6817 230.309 91.7835 230.369 91.9137 230.447C92.1741 230.601 92.5482 230.822 93.0032 231.088C93.9131 231.621 95.1468 232.334 96.4418 233.056C97.7364 233.778 99.0936 234.511 100.25 235.082C100.828 235.368 101.358 235.614 101.805 235.798C102.249 235.981 102.623 236.108 102.886 236.149C103.869 236.3 109.522 236.732 114.916 237.125C117.617 237.322 120.256 237.509 122.22 237.648C123.202 237.717 124.015 237.774 124.583 237.813Z" stroke="#206409" stroke-width="0.3"/>
</g>
<path d="M82.205 233.491C82.2275 233.369 82.1467 233.251 82.0245 233.229C81.9023 233.206 81.785 233.287 81.7624 233.409L82.205 233.491ZM90.9837 245.6C91.114 245.417 91.114 245.417 91.114 245.417C91.114 245.417 91.1139 245.417 91.1139 245.417C91.1138 245.417 91.1137 245.417 91.1135 245.416C91.1132 245.416 91.1127 245.416 91.112 245.415C91.1106 245.414 91.1085 245.413 91.1058 245.411C91.1003 245.407 91.0922 245.401 91.0813 245.394C91.0596 245.378 91.0274 245.355 90.985 245.325C90.9003 245.264 90.7753 245.175 90.6143 245.06C90.2923 244.829 89.8262 244.494 89.25 244.077C88.0974 243.243 86.5046 242.081 84.7431 240.77L84.4743 241.131C86.2378 242.444 87.8324 243.607 88.9862 244.442C89.5631 244.859 90.0297 245.195 90.3523 245.426C90.5135 245.541 90.6388 245.631 90.7237 245.691C90.7662 245.722 90.7985 245.745 90.8203 245.76C90.8312 245.768 90.8395 245.774 90.845 245.778C90.8478 245.78 90.8499 245.781 90.8513 245.782C90.852 245.783 90.8525 245.783 90.8528 245.783C90.853 245.783 90.8531 245.783 90.8532 245.784C90.8533 245.784 90.8533 245.784 90.8533 245.784C90.8534 245.784 90.8534 245.784 90.9837 245.6ZM84.7431 240.77C83.0462 239.506 82.408 237.697 82.1972 236.185C82.0919 235.429 82.0941 234.753 82.1228 234.266C82.1371 234.023 82.1579 233.827 82.1751 233.693C82.1837 233.626 82.1913 233.575 82.1967 233.541C82.1994 233.523 82.2016 233.511 82.203 233.502C82.2037 233.498 82.2042 233.495 82.2046 233.493C82.2047 233.492 82.2049 233.492 82.2049 233.491C82.205 233.491 82.205 233.491 82.205 233.491C82.205 233.491 82.205 233.491 82.205 233.491C82.205 233.491 82.205 233.491 81.9837 233.45C81.7624 233.409 81.7624 233.409 81.7624 233.41C81.7624 233.41 81.7624 233.41 81.7623 233.41C81.7623 233.41 81.7622 233.411 81.7621 233.411C81.762 233.412 81.7618 233.413 81.7615 233.414C81.761 233.417 81.7603 233.421 81.7595 233.426C81.7577 233.437 81.7552 233.451 81.7522 233.471C81.7461 233.509 81.7379 233.565 81.7287 233.636C81.7104 233.779 81.6885 233.985 81.6735 234.24C81.6436 234.749 81.6411 235.455 81.7515 236.247C81.9719 237.828 82.6462 239.769 84.4743 241.131L84.7431 240.77Z" fill="#206409"/>
<g filter="url(#filter6_d_1690_6328)">
<path d="M164.634 242.45C162.609 243.5 151.209 243.275 151.209 243.275C160.596 245.394 171.384 245.825 176.259 244.325C181.134 242.825 182.993 240.56 186.159 237.125C186.159 237.125 182.409 237.425 181.659 237.125C180.909 236.825 179.784 236.075 177.984 235.775C176.184 235.475 172.959 235.175 170.784 237.125C168.609 239.075 166.659 241.4 164.634 242.45Z" fill="#2B870B"/>
<path d="M164.634 242.45C162.609 243.5 151.209 243.275 151.209 243.275C160.596 245.394 171.384 245.825 176.259 244.325C181.134 242.825 182.993 240.56 186.159 237.125C186.159 237.125 182.409 237.425 181.659 237.125C180.909 236.825 179.784 236.075 177.984 235.775C176.184 235.475 172.959 235.175 170.784 237.125C168.609 239.075 166.659 241.4 164.634 242.45Z" stroke="#206409" stroke-width="0.3"/>
</g>
<path d="M117.67 194.175C117.741 187.217 111.63 179.036 109.434 174.425H131.398H153.362C153.362 174.425 161.458 181.594 163.57 188.974C165.682 196.354 168.063 207.583 162.009 216.65C155.954 225.717 147.308 229.037 136.607 228.193C125.907 227.35 121.753 226.014 115.769 218.353C109.786 210.692 117.6 201.133 117.67 194.175Z" fill="#E31616"/>
<path d="M131.398 174.425H153.362C153.362 174.425 161.458 181.594 163.57 188.974C165.682 196.354 168.063 207.583 162.009 216.65C155.954 225.717 147.308 229.037 136.607 228.193C125.907 227.35 121.753 226.014 115.769 218.353C109.786 210.692 117.6 201.133 117.67 194.175C117.741 187.217 111.63 179.036 109.434 174.425H131.398ZM131.398 174.425C131.398 174.425 140.761 186.444 140.761 194.175C140.761 201.906 138.719 206.053 138.719 206.053" stroke="#911010" stroke-width="1.35"/>
<g filter="url(#filter7_i_1690_6328)">
<path d="M219.985 148.55C217.36 171.725 177.541 177.425 125.185 177.425C72.8282 177.425 33.6848 171.725 30.3848 148.55C30.3848 132.603 45.8348 88.6252 125.185 88.1752C204.535 87.7253 219.985 132.603 219.985 148.55Z" fill="#FF9900"/>
</g>
<path d="M219.235 148.508C217.959 159.559 207.817 166.645 191.048 170.952C174.318 175.249 151.354 176.675 125.185 176.675C99.0155 176.675 76.2212 175.249 59.576 170.952C42.9056 166.649 32.7396 159.564 31.1348 148.497C31.152 140.707 34.9492 125.964 48.5441 113.096C62.155 100.213 85.655 89.1494 125.189 88.9252C164.718 88.7011 188.214 99.7641 201.823 112.756C215.424 125.741 219.221 140.717 219.235 148.508Z" stroke="#B15500" stroke-width="1.5"/>
<ellipse cx="93.5901" cy="144.044" rx="7.40648" ry="14.9188" fill="black"/>
<ellipse cx="162.787" cy="144.044" rx="7.40648" ry="14.9188" fill="black"/>
<g filter="url(#filter8_d_1690_6328)">
<ellipse cx="82.2269" cy="104.57" rx="3.75" ry="1.5" transform="rotate(-30.4858 82.2269 104.57)" fill="#FBE8A4"/>
</g>
<g filter="url(#filter9_d_1690_6328)">
<ellipse cx="150.327" cy="100.521" rx="3.75" ry="1.5" transform="rotate(-37.5414 150.327 100.521)" fill="#FBE8A4"/>
</g>
<g filter="url(#filter10_d_1690_6328)">
<ellipse cx="150.235" cy="112.912" rx="3.75" ry="1.5" transform="rotate(-69.814 150.235 112.912)" fill="#FBE8A4"/>
</g>
<g filter="url(#filter11_d_1690_6328)">
<ellipse cx="113.277" cy="99.9202" rx="3.75" ry="1.5" transform="rotate(20.8145 113.277 99.9202)" fill="#FBE8A4"/>
</g>
<g filter="url(#filter12_d_1690_6328)">
<ellipse cx="133.12" cy="107.34" rx="3.75" ry="1.5" transform="rotate(50.4505 133.12 107.34)" fill="#FBE8A4"/>
</g>
<g filter="url(#filter13_d_1690_6328)">
<ellipse cx="168.304" cy="108.512" rx="3.75" ry="1.5" transform="rotate(-121.05 168.304 108.512)" fill="#FBE8A4"/>
</g>
<g filter="url(#filter14_d_1690_6328)">
<ellipse cx="97.6954" cy="110.093" rx="3.75" ry="1.5" transform="rotate(-54.1468 97.6954 110.093)" fill="#FBE8A4"/>
</g>
<path d="M38.125 195.497L46.9 202.397M65.125 213.647H72.85M88.675 199.697L92.95 206.297M190.225 198.572L192.1 188.522M202.525 206.297L210.25 202.397M176.275 210.572L181.675 217.097M99.1 190.472L107.575 195.497M176.275 183.497L170.125 188.522M212.575 186.197L217.975 190.472M46.9 184.697H54.85M97.375 224.147L107.575 221.447" stroke="#CF731E" stroke-width="6.3" stroke-linecap="round"/>
<path d="M576.434 266L578.834 233.7L589.534 236.4V277.3H564.634C564.634 277.3 554.134 277.3 558.534 269.2C564.634 261.9 576.434 266 576.434 266Z" fill="white" stroke="black" stroke-width="2" stroke-linecap="round"/>
<path d="M635.134 266.1L632.734 233.8L622.034 236.5V277.4H646.934C646.934 277.4 657.434 277.4 653.034 269.3C646.934 262 635.134 266.1 635.134 266.1Z" fill="white" stroke="black" stroke-width="2" stroke-linecap="round"/>
<rect x="500.635" y="248.735" width="72.2" height="11.4875" transform="rotate(-42.24 500.635 248.735)" fill="white"/>
<rect x="502.047" y="248.803" width="70.2" height="9.48749" transform="rotate(-42.24 502.047 248.803)" stroke="black" stroke-opacity="0.5" stroke-width="2"/>
<path d="M562.153 45.4308C566.431 54.288 568.928 58.0594 575.033 62.547C569.847 70.5965 538.067 91.4052 531.301 92.3128C528.783 86.0014 526.617 82.9833 521.746 78.2742C521.746 78.2742 519.096 76.7913 515.057 77.4862C506.743 78.1562 500.735 75.7304 496.11 65.3201C493.279 58.2103 497.253 49.716 506.344 44.797C506.344 44.797 504.535 33.7025 513.391 25.6205C527.586 15.137 536.62 24.1899 536.62 24.1899C536.62 24.1899 536.862 20.3273 543.883 16.7811C554.841 11.7875 563.39 19.5266 563.39 19.5266C567.459 23.1799 570.224 27.5714 569.556 33.407C567.988 39.6402 566.746 41.9168 562.153 45.4308Z" fill="white"/>
<path d="M575.033 62.547C568.928 58.0594 566.431 54.288 562.153 45.4308M575.033 62.547C569.847 70.5965 538.067 91.4052 531.301 92.3128C528.783 86.0014 526.617 82.9833 521.746 78.2742C521.746 78.2742 519.096 76.7913 515.057 77.4862C506.743 78.1562 500.735 75.7304 496.11 65.3201C493.279 58.2103 497.253 49.716 506.344 44.797C506.344 44.797 504.535 33.7025 513.391 25.6205C527.586 15.137 536.62 24.1899 536.62 24.1899C536.62 24.1899 536.862 20.3273 543.883 16.7811C554.841 11.7875 563.39 19.5266 563.39 19.5266C567.459 23.1799 570.224 27.5714 569.556 33.407C567.988 39.6403 566.746 41.9168 562.153 45.4308M575.033 62.547C558.3 66.4531 548.743 74.5354 538.373 84.6232M562.153 45.4308C547.624 46.9487 540.468 52.0953 528.475 64.6557" stroke="black" stroke-width="2"/>
<circle cx="605.934" cy="149.3" r="89.7" fill="#E31616"/>
<circle cx="605.934" cy="149.3" r="88.7" stroke="black" stroke-opacity="0.5" stroke-width="2"/>
<circle cx="605.834" cy="148.8" r="60" fill="#FAB3B3"/>
<path d="M623.031 235.3C619.831 237.3 598.731 237.3 596.631 236.5C596.554 236.455 609.125 231.33 610.134 230.5C624.134 222.3 630.934 212.3 633.134 201.7L641.834 167.1L665.731 147.3C667.031 166.6 656.027 210.581 623.031 235.3Z" fill="#FAB3B3"/>
<path d="M604.935 125.201C631.835 123.401 642.392 141.601 644.335 148.5C651.535 169.401 638.135 201.901 628.035 214.2L602.135 209.646L572.235 203.4C571.935 199 581.602 204.142 585.735 203.663C613.969 200.389 624.966 172.312 616.635 153.201C616.635 153.201 611.835 167.1 601.135 170.5C597.535 171.6 581.035 171.8 579.635 153.201C579.635 130.601 600.935 125.501 604.935 125.201Z" fill="#E31616"/>
<ellipse cx="569.575" cy="147.391" rx="7.74055" ry="15.5917" fill="black"/>
<ellipse cx="654.494" cy="147.391" rx="7.74055" ry="15.5917" fill="black"/>
<path d="M629.535 161C629.535 161 628.135 174.5 623.035 174.5C617.935 174.5 612.535 166.4 612.535 166.4C612.535 166.4 609.235 174.5 603.035 174.5C596.835 174.5 595.135 161 595.135 161" stroke="black" stroke-width="3" stroke-linecap="round"/>
<path d="M1009.08 257.19C1003.53 247.4 993.135 148.5 993.135 148.5C1047.55 166.487 1076.96 164.796 1122.53 148.3C1122.53 148.3 1108.94 240.672 1100.03 257.19C1091.13 273.708 1014.35 272.336 1009.08 257.19Z" fill="#FEC9A2"/>
<g filter="url(#filter15_d_1690_6328)">
<path d="M1122.64 147.299C1122.64 160.057 1093.62 170.399 1057.84 170.399C1022.05 170.399 993.035 160.057 993.035 147.299C993.035 134.541 1022.05 124.199 1057.84 124.199C1093.62 124.199 1122.64 134.541 1122.64 147.299Z" fill="#FEC9A2"/>
</g>
<ellipse cx="1021.57" cy="173.592" rx="7.74055" ry="15.5917" fill="black"/>
<ellipse cx="1093.89" cy="173.592" rx="7.74055" ry="15.5917" fill="black"/>
<path d="M1071.34 197.399C1071.34 197.399 1069.64 205.999 1058.34 206.499C1047.04 206.999 1043.24 197.399 1043.24 197.399M1071.34 197.399C1071.34 197.399 1068.94 195.699 1068.34 192.699M1071.34 197.399C1071.34 197.399 1073.54 199.299 1077.04 199.299M1043.24 197.399C1043.24 197.399 1042.14 200.399 1036.24 200.399M1043.24 197.399C1043.24 197.399 1044.84 195.099 1044.84 192.699" stroke="black" stroke-width="2.2" stroke-linecap="round"/>
<g filter="url(#filter16_i_1690_6328)">
<circle cx="1014.44" cy="244.6" r="5" fill="black"/>
<circle cx="1038.63" cy="256.399" r="5" fill="black"/>
<circle cx="1037.34" cy="243.7" r="5.9" fill="black"/>
<circle cx="1026.04" cy="251.2" r="6.6" fill="black"/>
<circle cx="1024.44" cy="235.999" r="6.6" fill="black"/>
<circle cx="1066.04" cy="231" r="5" fill="black"/>
<circle cx="1092.44" cy="254.6" r="5" fill="black"/>
<circle cx="1092.94" cy="242.099" r="5.9" fill="black"/>
<circle cx="1078.23" cy="252.999" r="6.6" fill="black"/>
<circle cx="1079.04" cy="237.2" r="6.6" fill="black"/>
<circle cx="1038.84" cy="229.399" r="5" fill="black"/>
<circle cx="1063.63" cy="256.199" r="5" fill="black"/>
<circle cx="1066.14" cy="243.7" r="5.9" fill="black"/>
<circle cx="1051.23" cy="251.2" r="6.6" fill="black"/>
<circle cx="1053.23" cy="235.999" r="6.6" fill="black"/>
</g>
<path d="M980.635 108.6C980.635 108.6 995.858 243.113 1002.23 261.427C1008.6 279.741 1094.22 284.353 1105 264.379C1115.78 244.406 1135.03 111.552 1135.03 111.552M980.635 108.6C981.335 100.6 995.035 91.9311 1012.43 87.4997C1039.13 80.6997 1072.13 80.2996 1104.83 87.6996C1127.43 94.3996 1135.83 102.8 1135.03 111.552M980.635 108.6C982.148 121.7 996.435 126.8 1006.53 130C1040.43 140.417 1082.93 138.1 1109.23 130.2C1118.15 126.414 1129.63 124.5 1135.03 111.552" stroke="black" stroke-opacity="0.25" stroke-width="2"/>
<path d="M1095.27 38.3994C1102.48 43.79 1106.72 44.9044 1114.58 43.5758L1086.87 146.993C1086.87 146.993 1086.24 150.813 1075.5 150.813C1070.04 150.813 1067.24 147.799 1066.33 146.39L1095.27 38.3994Z" fill="#911010"/>
<path d="M1113.98 43.1869C1113.91 43.4658 1113.68 43.767 1113.18 44.0436C1112.68 44.3209 1111.96 44.5362 1111.04 44.6541C1109.22 44.8893 1106.78 44.718 1104.16 44.0564C1101.55 43.3947 1099.32 42.3838 1097.83 41.3098C1097.08 40.7715 1096.55 40.2391 1096.24 39.7557C1095.93 39.2734 1095.87 38.9012 1095.95 38.6223C1096.02 38.3433 1096.24 38.0422 1096.74 37.7656C1097.25 37.4882 1097.97 37.2729 1098.88 37.155C1100.7 36.9198 1103.15 37.0911 1105.76 37.7528C1108.37 38.4144 1110.6 39.4253 1112.09 40.4994C1112.84 41.0377 1113.37 41.57 1113.68 42.0535C1114 42.5357 1114.05 42.9079 1113.98 43.1869Z" fill="black" stroke="#911010" stroke-width="1.4"/>
<path fill-rule="evenodd" clip-rule="evenodd" d="M1069.03 135.685C1076.46 135.287 1083.64 134.512 1090.34 133.425L1089.77 135.54C1083.06 136.595 1075.89 137.342 1068.49 137.716L1069.03 135.685Z" fill="black" fill-opacity="0.25"/>
<defs>
<filter id="filter0_d_1690_6328" x="0.249609" y="133.325" width="246.134" height="148.426" filterUnits="userSpaceOnUse" color-interpolation-filters="sRGB">
<feFlood flood-opacity="0" result="BackgroundImageFix"/>
<feColorMatrix in="SourceAlpha" type="matrix" values="0 0 0 0 0 0 0 0 0 0 0 0 0 0 0 0 0 0 127 0" result="hardAlpha"/>
<feOffset dy="0.6"/>
<feGaussianBlur stdDeviation="0.3"/>
<feComposite in2="hardAlpha" operator="out"/>
<feColorMatrix type="matrix" values="0 0 0 0 0 0 0 0 0 0 0 0 0 0 0 0 0 0 0.25 0"/>
<feBlend mode="normal" in2="BackgroundImageFix" result="effect1_dropShadow_1690_6328"/>
<feBlend mode="normal" in="SourceGraphic" in2="effect1_dropShadow_1690_6328" result="shape"/>
</filter>
<filter id="filter1_i_1690_6328" x="30.3848" y="201.194" width="189.6" height="55.3193" filterUnits="userSpaceOnUse" color-interpolation-filters="sRGB">
<feFlood flood-opacity="0" result="BackgroundImageFix"/>
<feBlend mode="normal" in="SourceGraphic" in2="BackgroundImageFix" result="shape"/>
<feColorMatrix in="SourceAlpha" type="matrix" values="0 0 0 0 0 0 0 0 0 0 0 0 0 0 0 0 0 0 127 0" result="hardAlpha"/>
<feOffset dy="-7.5"/>
<feGaussianBlur stdDeviation="1.5"/>
<feComposite in2="hardAlpha" operator="arithmetic" k2="-1" k3="1"/>
<feColorMatrix type="matrix" values="0 0 0 0 1 0 0 0 0 1 0 0 0 0 1 0 0 0 0.2 0"/>
<feBlend mode="normal" in2="shape" result="effect1_innerShadow_1690_6328"/>
</filter>
<filter id="filter2_i_1690_6328" x="25.8828" y="210.2" width="195.844" height="35.3916" filterUnits="userSpaceOnUse" color-interpolation-filters="sRGB">
<feFlood flood-opacity="0" result="BackgroundImageFix"/>
<feBlend mode="normal" in="SourceGraphic" in2="BackgroundImageFix" result="shape"/>
<feColorMatrix in="SourceAlpha" type="matrix" values="0 0 0 0 0 0 0 0 0 0 0 0 0 0 0 0 0 0 127 0" result="hardAlpha"/>
<feOffset dy="-3"/>
<feGaussianBlur stdDeviation="3.75"/>
<feComposite in2="hardAlpha" operator="arithmetic" k2="-1" k3="1"/>
<feColorMatrix type="matrix" values="0 0 0 0 0 0 0 0 0 0 0 0 0 0 0 0 0 0 0.25 0"/>
<feBlend mode="normal" in2="shape" result="effect1_innerShadow_1690_6328"/>
</filter>
<filter id="filter3_i_1690_6328" x="23.4844" y="140.976" width="210.9" height="93.4502" filterUnits="userSpaceOnUse" color-interpolation-filters="sRGB">
<feFlood flood-opacity="0" result="BackgroundImageFix"/>
<feBlend mode="normal" in="SourceGraphic" in2="BackgroundImageFix" result="shape"/>
<feColorMatrix in="SourceAlpha" type="matrix" values="0 0 0 0 0 0 0 0 0 0 0 0 0 0 0 0 0 0 127 0" result="hardAlpha"/>
<feOffset dx="7.5" dy="-3"/>
<feGaussianBlur stdDeviation="3.75"/>
<feComposite in2="hardAlpha" operator="arithmetic" k2="-1" k3="1"/>
<feColorMatrix type="matrix" values="0 0 0 0 0 0 0 0 0 0 0 0 0 0 0 0 0 0 0.25 0"/>
<feBlend mode="normal" in2="shape" result="effect1_innerShadow_1690_6328"/>
</filter>
<filter id="filter4_i_1690_6328" x="37.5078" y="123.2" width="179.061" height="75.5986" filterUnits="userSpaceOnUse" color-interpolation-filters="sRGB">
<feFlood flood-opacity="0" result="BackgroundImageFix"/>
<feBlend mode="normal" in="SourceGraphic" in2="BackgroundImageFix" result="shape"/>
<feColorMatrix in="SourceAlpha" type="matrix" values="0 0 0 0 0 0 0 0 0 0 0 0 0 0 0 0 0 0 127 0" result="hardAlpha"/>
<feOffset dx="1.5" dy="-1.5"/>
<feGaussianBlur stdDeviation="3.75"/>
<feComposite in2="hardAlpha" operator="arithmetic" k2="-1" k3="1"/>
<feColorMatrix type="matrix" values="0 0 0 0 1 0 0 0 0 1 0 0 0 0 1 0 0 0 0.4 0"/>
<feBlend mode="normal" in2="shape" result="effect1_innerShadow_1690_6328"/>
</filter>
<filter id="filter5_d_1690_6328" x="70.8086" y="227.275" width="57.6758" height="22.9746" filterUnits="userSpaceOnUse" color-interpolation-filters="sRGB">
<feFlood flood-opacity="0" result="BackgroundImageFix"/>
<feColorMatrix in="SourceAlpha" type="matrix" values="0 0 0 0 0 0 0 0 0 0 0 0 0 0 0 0 0 0 127 0" result="hardAlpha"/>
<feOffset dy="1.5"/>
<feGaussianBlur stdDeviation="1.5"/>
<feComposite in2="hardAlpha" operator="out"/>
<feColorMatrix type="matrix" values="0 0 0 0 0 0 0 0 0 0 0 0 0 0 0 0 0 0 0.25 0"/>
<feBlend mode="normal" in2="BackgroundImageFix" result="effect1_dropShadow_1690_6328"/>
<feBlend mode="normal" in="SourceGraphic" in2="effect1_dropShadow_1690_6328" result="shape"/>
</filter>
<filter id="filter6_d_1690_6328" x="148.176" y="233.005" width="41.3535" height="15.958" filterUnits="userSpaceOnUse" color-interpolation-filters="sRGB">
<feFlood flood-opacity="0" result="BackgroundImageFix"/>
<feColorMatrix in="SourceAlpha" type="matrix" values="0 0 0 0 0 0 0 0 0 0 0 0 0 0 0 0 0 0 127 0" result="hardAlpha"/>
<feOffset dy="0.6"/>
<feGaussianBlur stdDeviation="1.5"/>
<feComposite in2="hardAlpha" operator="out"/>
<feColorMatrix type="matrix" values="0 0 0 0 0 0 0 0 0 0 0 0 0 0 0 0 0 0 0.25 0"/>
<feBlend mode="normal" in2="BackgroundImageFix" result="effect1_dropShadow_1690_6328"/>
<feBlend mode="normal" in="SourceGraphic" in2="effect1_dropShadow_1690_6328" result="shape"/>
</filter>
<filter id="filter7_i_1690_6328" x="30.3848" y="85.1719" width="189.6" height="92.2529" filterUnits="userSpaceOnUse" color-interpolation-filters="sRGB">
<feFlood flood-opacity="0" result="BackgroundImageFix"/>
<feBlend mode="normal" in="SourceGraphic" in2="BackgroundImageFix" result="shape"/>
<feColorMatrix in="SourceAlpha" type="matrix" values="0 0 0 0 0 0 0 0 0 0 0 0 0 0 0 0 0 0 127 0" result="hardAlpha"/>
<feOffset dy="-7.5"/>
<feGaussianBlur stdDeviation="1.5"/>
<feComposite in2="hardAlpha" operator="arithmetic" k2="-1" k3="1"/>
<feColorMatrix type="matrix" values="0 0 0 0 1 0 0 0 0 1 0 0 0 0 1 0 0 0 0.2 0"/>
<feBlend mode="normal" in2="shape" result="effect1_innerShadow_1690_6328"/>
</filter>
<filter id="filter8_d_1690_6328" x="75.9063" y="99.8695" width="12.6406" height="10.6006" filterUnits="userSpaceOnUse" color-interpolation-filters="sRGB">
<feFlood flood-opacity="0" result="BackgroundImageFix"/>
<feColorMatrix in="SourceAlpha" type="matrix" values="0 0 0 0 0 0 0 0 0 0 0 0 0 0 0 0 0 0 127 0" result="hardAlpha"/>
<feOffset dy="0.6"/>
<feGaussianBlur stdDeviation="1.5"/>
<feComposite in2="hardAlpha" operator="out"/>
<feColorMatrix type="matrix" values="0 0 0 0 0 0 0 0 0 0 0 0 0 0 0 0 0 0 0.25 0"/>
<feBlend mode="normal" in2="BackgroundImageFix" result="effect1_dropShadow_1690_6328"/>
<feBlend mode="normal" in="SourceGraphic" in2="effect1_dropShadow_1690_6328" result="shape"/>
</filter>
<filter id="filter9_d_1690_6328" x="144.215" y="95.5443" width="12.2227" height="11.1523" filterUnits="userSpaceOnUse" color-interpolation-filters="sRGB">
<feFlood flood-opacity="0" result="BackgroundImageFix"/>
<feColorMatrix in="SourceAlpha" type="matrix" values="0 0 0 0 0 0 0 0 0 0 0 0 0 0 0 0 0 0 127 0" result="hardAlpha"/>
<feOffset dy="0.6"/>
<feGaussianBlur stdDeviation="1.5"/>
<feComposite in2="hardAlpha" operator="out"/>
<feColorMatrix type="matrix" values="0 0 0 0 0 0 0 0 0 0 0 0 0 0 0 0 0 0 0.25 0"/>
<feBlend mode="normal" in2="BackgroundImageFix" result="effect1_dropShadow_1690_6328"/>
<feBlend mode="normal" in="SourceGraphic" in2="effect1_dropShadow_1690_6328" result="shape"/>
</filter>
<filter id="filter10_d_1690_6328" x="145.322" y="106.954" width="9.82422" height="13.1152" filterUnits="userSpaceOnUse" color-interpolation-filters="sRGB">
<feFlood flood-opacity="0" result="BackgroundImageFix"/>
<feColorMatrix in="SourceAlpha" type="matrix" values="0 0 0 0 0 0 0 0 0 0 0 0 0 0 0 0 0 0 127 0" result="hardAlpha"/>
<feOffset dy="0.6"/>
<feGaussianBlur stdDeviation="1.5"/>
<feComposite in2="hardAlpha" operator="out"/>
<feColorMatrix type="matrix" values="0 0 0 0 0 0 0 0 0 0 0 0 0 0 0 0 0 0 0.25 0"/>
<feBlend mode="normal" in2="BackgroundImageFix" result="effect1_dropShadow_1690_6328"/>
<feBlend mode="normal" in="SourceGraphic" in2="effect1_dropShadow_1690_6328" result="shape"/>
</filter>
<filter id="filter11_d_1690_6328" x="106.73" y="95.5863" width="13.0918" height="9.86816" filterUnits="userSpaceOnUse" color-interpolation-filters="sRGB">
<feFlood flood-opacity="0" result="BackgroundImageFix"/>
<feColorMatrix in="SourceAlpha" type="matrix" values="0 0 0 0 0 0 0 0 0 0 0 0 0 0 0 0 0 0 127 0" result="hardAlpha"/>
<feOffset dy="0.6"/>
<feGaussianBlur stdDeviation="1.5"/>
<feComposite in2="hardAlpha" operator="out"/>
<feColorMatrix type="matrix" values="0 0 0 0 0 0 0 0 0 0 0 0 0 0 0 0 0 0 0.25 0"/>
<feBlend mode="normal" in2="BackgroundImageFix" result="effect1_dropShadow_1690_6328"/>
<feBlend mode="normal" in="SourceGraphic" in2="effect1_dropShadow_1690_6328" result="shape"/>
</filter>
<filter id="filter12_d_1690_6328" x="127.467" y="101.894" width="11.3066" height="12.0918" filterUnits="userSpaceOnUse" color-interpolation-filters="sRGB">
<feFlood flood-opacity="0" result="BackgroundImageFix"/>
<feColorMatrix in="SourceAlpha" type="matrix" values="0 0 0 0 0 0 0 0 0 0 0 0 0 0 0 0 0 0 127 0" result="hardAlpha"/>
<feOffset dy="0.6"/>
<feGaussianBlur stdDeviation="1.5"/>
<feComposite in2="hardAlpha" operator="out"/>
<feColorMatrix type="matrix" values="0 0 0 0 0 0 0 0 0 0 0 0 0 0 0 0 0 0 0.25 0"/>
<feBlend mode="normal" in2="BackgroundImageFix" result="effect1_dropShadow_1690_6328"/>
<feBlend mode="normal" in="SourceGraphic" in2="effect1_dropShadow_1690_6328" result="shape"/>
</filter>
<filter id="filter13_d_1690_6328" x="162.982" y="102.806" width="10.6445" height="12.6113" filterUnits="userSpaceOnUse" color-interpolation-filters="sRGB">
<feFlood flood-opacity="0" result="BackgroundImageFix"/>
<feColorMatrix in="SourceAlpha" type="matrix" values="0 0 0 0 0 0 0 0 0 0 0 0 0 0 0 0 0 0 127 0" result="hardAlpha"/>
<feOffset dy="0.6"/>
<feGaussianBlur stdDeviation="1.5"/>
<feComposite in2="hardAlpha" operator="out"/>
<feColorMatrix type="matrix" values="0 0 0 0 0 0 0 0 0 0 0 0 0 0 0 0 0 0 0.25 0"/>
<feBlend mode="normal" in2="BackgroundImageFix" result="effect1_dropShadow_1690_6328"/>
<feBlend mode="normal" in="SourceGraphic" in2="effect1_dropShadow_1690_6328" result="shape"/>
</filter>
<filter id="filter14_d_1690_6328" x="92.1836" y="104.529" width="11.0234" height="12.3291" filterUnits="userSpaceOnUse" color-interpolation-filters="sRGB">
<feFlood flood-opacity="0" result="BackgroundImageFix"/>
<feColorMatrix in="SourceAlpha" type="matrix" values="0 0 0 0 0 0 0 0 0 0 0 0 0 0 0 0 0 0 127 0" result="hardAlpha"/>
<feOffset dy="0.6"/>
<feGaussianBlur stdDeviation="1.5"/>
<feComposite in2="hardAlpha" operator="out"/>
<feColorMatrix type="matrix" values="0 0 0 0 0 0 0 0 0 0 0 0 0 0 0 0 0 0 0.25 0"/>
<feBlend mode="normal" in2="BackgroundImageFix" result="effect1_dropShadow_1690_6328"/>
<feBlend mode="normal" in="SourceGraphic" in2="effect1_dropShadow_1690_6328" result="shape"/>
</filter>
<filter id="filter15_d_1690_6328" x="989.035" y="122.199" width="137.6" height="54.2002" filterUnits="userSpaceOnUse" color-interpolation-filters="sRGB">
<feFlood flood-opacity="0" result="BackgroundImageFix"/>
<feColorMatrix in="SourceAlpha" type="matrix" values="0 0 0 0 0 0 0 0 0 0 0 0 0 0 0 0 0 0 127 0" result="hardAlpha"/>
<feOffset dy="2"/>
<feGaussianBlur stdDeviation="2"/>
<feComposite in2="hardAlpha" operator="out"/>
<feColorMatrix type="matrix" values="0 0 0 0 1 0 0 0 0 1 0 0 0 0 1 0 0 0 0.25 0"/>
<feBlend mode="normal" in2="BackgroundImageFix" result="effect1_dropShadow_1690_6328"/>
<feBlend mode="normal" in="SourceGraphic" in2="effect1_dropShadow_1690_6328" result="shape"/>
</filter>
<filter id="filter16_i_1690_6328" x="1009.44" y="224.399" width="90.4004" height="38" filterUnits="userSpaceOnUse" color-interpolation-filters="sRGB">
<feFlood flood-opacity="0" result="BackgroundImageFix"/>
<feBlend mode="normal" in="SourceGraphic" in2="BackgroundImageFix" result="shape"/>
<feColorMatrix in="SourceAlpha" type="matrix" values="0 0 0 0 0 0 0 0 0 0 0 0 0 0 0 0 0 0 127 0" result="hardAlpha"/>
<feOffset dx="1" dy="1"/>
<feGaussianBlur stdDeviation="1"/>
<feComposite in2="hardAlpha" operator="arithmetic" k2="-1" k3="1"/>
<feColorMatrix type="matrix" values="0 0 0 0 1 0 0 0 0 1 0 0 0 0 1 0 0 0 0.5 0"/>
<feBlend mode="normal" in2="shape" result="effect1_innerShadow_1690_6328"/>
</filter>
</defs>
</svg>
