<svg width="1431" height="279" viewBox="0 0 1431 279" fill="none" xmlns="http://www.w3.org/2000/svg">
<path d="M297.222 234.987L292.822 227.265C292.549 226.785 291.938 226.618 291.458 226.891C290.978 227.165 290.811 227.775 291.084 228.255L295.494 235.995C295.348 236.085 295.21 236.172 295.08 236.255C294.949 236.338 294.825 236.416 294.708 236.488C294.252 236.768 293.818 237.005 293.219 237.218C292.447 237.492 291.925 237.687 291.326 237.932L289.359 232.641L288.449 230.195L288.18 229.473L288.108 229.279L288.09 229.229L288.085 229.216L288.084 229.213L288.083 229.212L288.083 229.212L287.171 229.551L288.083 229.212C287.891 228.694 287.315 228.43 286.797 228.623C286.28 228.815 286.016 229.391 286.209 229.909L287.122 229.569L286.209 229.909L286.209 229.909L286.209 229.909L286.209 229.91L286.21 229.913L286.215 229.926L286.234 229.976L286.306 230.17L286.574 230.892L287.484 233.338L289.409 238.515C288.704 238.598 287.953 238.585 287.332 238.468C286.544 238.318 284.206 237.472 282.617 233.692C281.524 231.091 275.204 213.346 271.903 203.347C271.763 202.924 271.762 202.082 272.026 200.755C272.28 199.478 272.743 197.91 273.364 196.141C274.604 192.606 276.434 188.37 278.332 184.24C280.057 180.488 281.828 176.845 283.251 173.919C283.393 173.627 283.532 173.342 283.666 173.066C284.406 171.542 285.033 170.246 285.475 169.29C285.65 168.909 285.801 168.574 285.918 168.296C286.517 169.603 287.237 171.695 287.95 173.996C288.711 176.452 289.445 179.079 289.989 181.095C290.26 182.102 290.484 182.956 290.64 183.557C290.695 183.768 290.742 183.948 290.779 184.093C290.736 184.162 290.689 184.239 290.636 184.325C290.403 184.707 290.072 185.256 289.681 185.929C288.902 187.272 287.88 189.115 286.918 191.104C285.959 193.086 285.044 195.246 284.494 197.215C284.219 198.2 284.028 199.165 283.976 200.054C283.924 200.934 284.005 201.807 284.338 202.563C285.179 204.475 286.749 207.922 288.378 211.3C289.996 214.656 291.707 218.018 292.826 219.711C293.41 220.596 293.977 221.438 294.506 222.223L294.625 222.4C295.109 223.119 295.559 223.786 295.963 224.397C296.853 225.745 297.46 226.734 297.717 227.345C299.411 231.376 298.547 233.34 298.179 233.923C297.907 234.353 297.749 234.558 297.547 234.738C297.459 234.816 297.356 234.896 297.222 234.987Z" fill="#C6966B" stroke="#A06F43" stroke-width="2" stroke-linecap="round" stroke-linejoin="round"/>
<path d="M443.989 234.903L448.389 227.181C448.662 226.701 449.273 226.534 449.753 226.807C450.233 227.081 450.4 227.691 450.127 228.171L445.717 235.911C445.863 236.001 446.001 236.088 446.131 236.171C446.262 236.254 446.386 236.332 446.503 236.404C446.958 236.684 447.393 236.921 447.992 237.134C448.764 237.408 449.286 237.603 449.885 237.848L451.852 232.557L452.762 230.111L453.03 229.389L453.103 229.195L453.121 229.145L453.126 229.132L453.127 229.129L453.128 229.128L453.128 229.128L454.04 229.467L453.128 229.128C453.32 228.61 453.896 228.346 454.414 228.539C454.931 228.731 455.195 229.307 455.002 229.825L454.089 229.485L455.002 229.825L455.002 229.825L455.002 229.825L455.002 229.826L455.001 229.829L454.996 229.842L454.977 229.892L454.905 230.086L454.637 230.808L453.727 233.254L451.802 238.431C452.507 238.514 453.258 238.501 453.879 238.384C454.667 238.234 457.004 237.388 458.594 233.608C459.687 231.007 466.006 213.262 469.308 203.263C469.448 202.84 469.449 201.998 469.185 200.671C468.931 199.394 468.468 197.826 467.847 196.057C466.607 192.522 464.777 188.286 462.879 184.156C461.154 180.404 459.382 176.761 457.959 173.835C457.818 173.543 457.679 173.258 457.545 172.982C456.805 171.458 456.178 170.162 455.736 169.206C455.561 168.825 455.41 168.49 455.293 168.212C454.694 169.519 453.974 171.611 453.261 173.912C452.5 176.368 451.766 178.995 451.222 181.011C450.951 182.018 450.727 182.872 450.571 183.473C450.516 183.684 450.469 183.864 450.432 184.009C450.475 184.078 450.522 184.155 450.575 184.241C450.808 184.623 451.139 185.172 451.53 185.845C452.309 187.188 453.331 189.031 454.293 191.02C455.252 193.002 456.167 195.162 456.717 197.131C456.992 198.116 457.183 199.081 457.235 199.97C457.287 200.85 457.206 201.723 456.873 202.479C456.031 204.391 454.462 207.838 452.833 211.216C451.215 214.572 449.503 217.934 448.385 219.627C447.801 220.512 447.234 221.354 446.705 222.139L446.586 222.316C446.102 223.035 445.652 223.702 445.248 224.313C444.358 225.661 443.751 226.65 443.494 227.261C441.8 231.292 442.664 233.256 443.032 233.839C443.304 234.269 443.462 234.474 443.664 234.654C443.752 234.732 443.855 234.812 443.989 234.903Z" fill="#C6966B" stroke="#A06F43" stroke-width="2" stroke-linecap="round" stroke-linejoin="round"/>
<path d="M340.231 266.361L342.631 234.061L353.331 236.761V277.661H328.431C328.431 277.661 317.931 277.661 322.331 269.561C328.431 262.261 340.231 266.361 340.231 266.361Z" fill="#C6966B" stroke="#A06F43" stroke-width="2" stroke-linecap="round"/>
<path d="M398.931 266.46L396.531 234.16L385.831 236.86V277.76H410.731C410.731 277.76 421.231 277.76 416.831 269.66C410.731 262.36 398.931 266.46 398.931 266.46Z" fill="#C6966B" stroke="#A06F43" stroke-width="2" stroke-linecap="round"/>
<circle cx="369.553" cy="158.761" r="86.5" fill="#C6966B" stroke="#A06F43" stroke-width="2"/>
<ellipse cx="333.393" cy="141.852" rx="7.74055" ry="15.5917" fill="black"/>
<ellipse cx="405.711" cy="141.852" rx="7.74055" ry="15.5917" fill="black"/>
<path d="M355.453 167.17C360.719 170.567 364.268 170.847 371.266 169.528C379.864 166.835 383.853 160.86 383.853 160.86" stroke="black" stroke-width="2.2" stroke-linecap="round"/>
<g filter="url(#filter0_d_1690_6198)">
<path d="M309.626 87.0962C310.126 85.932 311.295 85.2016 312.558 85.2645L319.774 85.6236C321.387 85.7038 322.653 87.0369 322.653 88.6543V93.9285C322.653 94.8273 322.255 95.68 321.567 96.2565L315.48 101.354C314.839 101.891 314.005 102.139 313.175 102.039L307.721 101.381C305.714 101.138 304.502 99.0303 305.301 97.1691L309.626 87.0962Z" fill="#563211"/>
</g>
<g filter="url(#filter1_d_1690_6198)">
<path d="M299.652 182.683C301.952 180.383 302.389 180.22 303.652 180.283C305.252 180.283 306.207 180.93 307.352 180.583C308.497 180.235 309.153 180.155 310.352 180.283C311.965 180.363 313.852 183.059 313.852 184.676V189.95C313.852 190.849 313.455 191.702 312.766 192.278L306.68 197.376C306.038 197.913 305.204 198.161 304.375 198.061L298.921 197.402C296.913 197.16 295.652 194.483 295.652 192.278C295.652 190.074 297.352 184.982 299.652 182.683Z" fill="#563211"/>
</g>
<g filter="url(#filter2_d_1690_6198)">
<path d="M374.556 67.5377C375.816 66.8891 377.313 66.9024 378.563 67.5735L386.565 71.8727C388.541 72.9338 389.384 75.3359 388.509 77.4093L386.076 83.1727C385.904 83.5799 385.673 83.9584 385.387 84.2951L378.575 92.3324C377.256 93.888 375.039 94.3104 373.246 93.3473L365.141 88.9933C363.721 88.2303 362.839 86.737 362.854 85.1176L362.933 76.1393C362.947 74.5199 363.855 73.0426 365.288 72.3051L374.556 67.5377Z" fill="#B15500"/>
</g>
<g filter="url(#filter3_d_1690_6198)">
<path d="M376.587 229.149C378.129 228.757 379.959 228.765 381.488 229.17L391.276 231.769C393.692 232.411 394.723 233.863 393.653 235.116L390.678 238.6C390.467 238.846 390.184 239.075 389.835 239.278L381.503 244.137C379.89 245.077 377.178 245.332 374.985 244.75L365.072 242.118C363.335 241.657 362.257 240.754 362.275 239.775C361.562 237.812 361.622 236.616 362.372 234.348C362.389 233.369 363.499 232.476 365.252 232.031L376.587 229.149Z" fill="#B15500"/>
</g>
<g filter="url(#filter4_d_1690_6198)">
<path d="M334.381 200.159C335.387 200.521 336.148 201.353 336.421 202.387L338.164 209.009C338.595 210.644 337.704 212.343 336.111 212.926L331.683 214.547C331.37 214.662 331.042 214.728 330.71 214.744L322.777 215.118C321.242 215.191 319.869 214.185 319.478 212.702L317.712 205.995C317.403 204.819 317.773 203.566 318.674 202.741L323.664 198.171C324.565 197.346 325.846 197.088 326.989 197.499L334.381 200.159Z" fill="#B15500"/>
</g>
<g filter="url(#filter5_d_1690_6198)">
<path d="M421.337 108.294C422.806 107.589 424.553 107.753 425.861 108.719L427.93 110.248C428.179 110.433 428.407 110.642 428.611 110.874L433.194 116.097C434.325 117.386 434.574 119.211 433.83 120.748L432.537 123.417C431.686 125.176 429.736 126.149 427.792 125.785L421.52 124.61C420.739 124.464 420.015 124.111 419.425 123.589L417.701 122.067C416.721 121.201 416.192 119.946 416.26 118.651L416.557 113.049C416.639 111.492 417.573 110.101 418.997 109.418L421.337 108.294Z" fill="#563211"/>
</g>
<g filter="url(#filter6_d_1690_6198)">
<path d="M288.467 132.782C290.665 132.421 292.893 133.307 294.237 135.077L296.363 137.877C296.619 138.214 296.838 138.577 297.017 138.96L301.022 147.57C302.01 149.694 301.636 152.184 300.07 153.914L297.349 156.918C295.557 158.899 292.627 159.425 290.216 158.201L282.441 154.252C281.473 153.761 280.659 153.02 280.085 152.108L278.409 149.45C277.456 147.938 277.244 146.088 277.83 144.416L280.371 137.183C281.077 135.172 282.837 133.707 284.966 133.357L288.467 132.782Z" fill="#563211"/>
</g>
<g filter="url(#filter7_d_1690_6198)">
<path d="M392.92 201.416C393.81 203.649 393.344 206.174 391.714 207.955L389.135 210.773C388.824 211.112 388.099 211.685 388.099 211.685L379.598 217.689C379.598 217.689 374.698 219.298 372.455 218.016C370.213 216.733 368.953 213.961 368.953 213.961C368.953 213.961 366.525 210.578 365.553 208.565C363.966 205.277 368.115 199.575 368.115 199.575C368.115 199.575 369.059 197.446 369.925 196.653L372.451 194.338C373.887 193.022 375.242 191.267 377.64 190.473C381.268 189.272 385.035 190.709 387.274 192.193C389.514 193.678 390.642 195.698 391.504 197.861L392.92 201.416Z" fill="#563211"/>
</g>
<g filter="url(#filter8_d_1690_6198)">
<path d="M424.095 206.723C425.517 207.465 426.418 208.939 426.426 210.539L426.441 213.071C426.442 213.376 426.412 213.68 426.349 213.977L424.933 220.668C424.584 222.318 423.293 223.59 421.643 223.91L418.777 224.464C416.889 224.83 414.973 223.867 414.114 222.12L411.343 216.483C410.998 215.782 410.85 215.004 410.913 214.23L411.097 211.975C411.202 210.692 411.879 209.535 412.94 208.825L417.53 205.758C418.806 204.905 420.453 204.822 421.831 205.541L424.095 206.723Z" fill="#563211"/>
</g>
<g filter="url(#filter9_d_1690_6198)">
<path d="M324.121 167.429C325.009 165.85 326.954 165.221 328.592 165.983L337.646 170.196C339.976 171.28 340.362 174.447 338.362 176.065L332.642 180.691C331.387 181.706 329.6 181.718 328.333 180.718L322.579 176.181C321.233 175.119 320.86 173.228 321.702 171.731L324.121 167.429Z" fill="#B15500"/>
</g>
<g filter="url(#filter10_d_1690_6198)">
<path d="M447.711 148.147C450.668 148.147 451.894 150.286 451.894 150.286C451.894 150.286 455.317 155.784 455.317 159.667C455.317 163.55 453.894 164.323 451.674 164.323C449.453 164.323 446.053 164.323 444.358 163.55C442.663 162.777 442.553 162.661 441.292 160.522C440.031 158.383 440.432 155.16 440.432 153.245C440.432 151.33 442.958 149.479 442.958 149.479C442.958 149.479 444.753 148.147 447.711 148.147Z" fill="#B15500"/>
</g>
<g filter="url(#filter11_d_1690_6198)">
<path d="M422.342 168.436C423.731 165.958 426.776 164.971 429.339 166.167C432.154 168.436 431.854 173.46 433.254 173.86C434.654 174.26 437.754 175.489 438.454 180.56C439.754 185.76 435.679 189.253 435.679 189.253C433.714 190.847 430.918 190.864 428.933 189.295L419.928 182.173C417.821 180.507 417.237 177.539 418.555 175.189L422.342 168.436Z" fill="#B15500"/>
</g>
<path d="M846.896 177.01C868.232 176.484 887.228 177.69 902.15 179.281C922.279 181.427 936.451 198.664 936.95 218.901C937.023 221.836 937.094 224.744 937.167 227.678C937.667 247.964 924.33 266.019 904.364 269.641C888.62 272.497 869.024 275.19 849.328 275.675C830.321 276.144 812.103 274.535 797.453 272.535C777.775 269.847 764.131 252.731 763.642 232.876L763.376 222.065C762.89 202.351 775.556 184.83 795.026 181.705C808.75 179.503 826.349 177.516 846.896 177.01Z" fill="white" stroke="black" stroke-opacity="0.5" stroke-width="2"/>
<path d="M805.711 129.31C778.811 141.81 771.311 149.71 759.411 159.21C747.511 168.71 704.911 230.51 707.211 243.51C709.511 256.51 726.011 254.21 731.811 248.71C737.611 243.21 759.411 222.41 768.111 216.61C776.811 210.81 791.811 207.71 805.711 207.71C819.611 207.71 866.729 204.673 905.011 198.71C905.011 198.71 932.411 192.91 938.611 180.81C944.811 168.71 939.211 154.71 924.411 142.01C909.611 129.31 876.911 122.21 866.211 121.11C855.511 120.01 832.611 116.81 805.711 129.31Z" fill="#E31616" stroke="#911010" stroke-width="2"/>
<path d="M885.51 125.71C878.591 123.826 872.074 122.314 861.41 121.41C861.41 121.41 885.358 174.267 890.419 178.333C895.479 182.399 900.359 181.224 902.799 176.526C905.239 171.828 885.51 125.71 885.51 125.71Z" fill="#FAB3B3"/>
<path d="M853.312 180.21C854.312 175.91 835.212 121.61 835.212 121.61C825.954 122.699 822.025 123.865 813.012 127.21C813.012 127.21 834.512 185.41 840.512 187.61C846.512 189.81 852.312 184.51 853.312 180.21Z" fill="#FAB3B3"/>
<path d="M803.711 188.41C802.911 181.41 783.111 142.21 783.111 142.21C775.563 146.967 771.884 150.095 765.111 155.61C765.111 155.61 789.711 196.01 794.411 198.11C801.411 199.01 803.711 195.41 803.711 188.41Z" fill="#FAB3B3"/>
<ellipse cx="822.951" cy="210.602" rx="7.74055" ry="15.5917" fill="black"/>
<ellipse cx="895.27" cy="210.602" rx="7.74055" ry="15.5917" fill="black"/>
<path d="M872.811 234.92C867.545 238.317 863.996 238.597 856.998 237.278C848.4 234.585 844.411 228.61 844.411 228.61" stroke="black" stroke-width="2.2" stroke-linecap="round"/>
<path d="M1374.7 162.749C1374.4 160.249 1373.5 155.649 1377.2 151.649C1380.9 147.649 1394.5 133.449 1398.8 132.249C1403.1 131.049 1412.2 131.749 1414.6 135.149C1416.3 138.949 1428 179.849 1426.7 184.649C1425.4 189.449 1413 200.949 1406.8 203.449C1400.6 205.949 1389.4 201.849 1383.3 197.949C1377.2 194.049 1374.7 162.749 1374.7 162.749Z" fill="#AD7543" fill-opacity="0.8"/>
<path d="M1374.7 162.749C1374.4 160.249 1373.5 155.649 1377.2 151.649C1380.9 147.649 1394.5 133.449 1398.8 132.249C1403.1 131.049 1412.2 131.749 1414.6 135.149M1374.7 162.749C1375 165.249 1379.6 167.249 1387.6 163.849C1395.6 160.449 1397.03 156.046 1403.9 150.249C1410.78 144.451 1415.66 138.149 1414.6 135.149M1374.7 162.749C1374.7 162.749 1377.2 194.049 1383.3 197.949C1389.4 201.849 1400.6 205.949 1406.8 203.449C1413 200.949 1425.4 189.449 1426.7 184.649C1428 179.849 1416.3 138.949 1414.6 135.149" stroke="#AD7543" stroke-width="3" stroke-linecap="round"/>
<path d="M1247.16 256.351L1268.3 231.815L1258.82 226.158L1229.9 255.078L1247.51 272.685C1247.51 272.685 1254.94 280.11 1257.55 271.271C1258.4 261.796 1247.16 256.351 1247.16 256.351Z" fill="white" stroke="black" stroke-opacity="0.5" stroke-width="2" stroke-linecap="round"/>
<path d="M1317.52 257.76L1306.84 227.181L1297.2 232.559L1307.79 272.065L1331.84 265.62C1331.84 265.62 1341.98 262.903 1335.64 256.218C1327.85 250.745 1317.52 257.76 1317.52 257.76Z" fill="white" stroke="black" stroke-opacity="0.5" stroke-width="2" stroke-linecap="round"/>
<path d="M1203.2 36.4492C1219.8 30.8492 1352.8 32.1488 1363.2 36.4492C1376.46 114.554 1375.33 158.345 1363.2 236.449C1349.03 244.58 1213.15 243.75 1203.2 236.449C1192.89 164.749 1191.37 121.994 1200.28 56.4492C1201.15 50.0182 1202.13 43.3679 1203.2 36.4492Z" fill="#FFC700"/>
<path d="M1200.8 57.9492H1223.5M1366 57.9492H1341.1M1223.5 57.9492L1228.6 33.9492M1223.5 57.9492H1260.2M1260.2 57.9492L1261.8 32.9492M1260.2 57.9492H1301.2M1301.2 57.9492L1297.7 32.9492M1301.2 57.9492H1341.1M1341.1 57.9492L1333.4 33.6492" stroke="#C6966B" stroke-opacity="0.6" stroke-width="2"/>
<path d="M1200.9 217.049H1223.6M1366.1 217.049H1341.2M1223.6 217.049L1228.3 239.849M1223.6 217.049H1260.3M1260.3 217.049L1261.9 242.049M1260.3 217.049H1301.3M1301.3 217.049L1297.8 242.049M1301.3 217.049H1341.2M1341.2 217.049L1337.75 228.799L1334.3 240.549" stroke="#C6966B" stroke-opacity="0.6" stroke-width="2"/>
<g filter="url(#filter12_d_1690_6198)">
<path d="M1310.71 159.768C1317.86 161.059 1322.82 163.408 1325.71 166.989C1328.58 170.556 1329.47 175.425 1328.3 181.912C1327.79 184.752 1326.53 189.047 1324.84 193.059C1323.99 195.063 1323.04 196.989 1322.03 198.621C1321.02 200.259 1319.96 201.577 1318.9 202.393C1316.07 204.563 1313.51 205.801 1310.68 206.327C1307.83 206.854 1304.68 206.671 1300.66 205.945C1297.1 205.302 1295.03 204.915 1293.35 204.082C1291.69 203.259 1290.39 201.987 1288.42 199.483C1286.41 196.911 1285.08 194.697 1284.4 192.324C1283.72 189.955 1283.68 187.392 1284.27 184.107C1284.85 180.882 1286.78 177.717 1289.29 174.917C1291.8 172.121 1294.86 169.719 1297.64 168.018C1299.04 167.158 1300.14 166.113 1301.11 165.065C1301.53 164.609 1301.93 164.149 1302.31 163.705C1302.37 163.64 1302.43 163.575 1302.48 163.51C1302.92 163.004 1303.34 162.521 1303.78 162.075C1304.64 161.185 1305.53 160.464 1306.62 160.035C1307.7 159.609 1309 159.459 1310.71 159.768Z" fill="#C6966B" stroke="#AD7543" stroke-width="0.8"/>
<path d="M1313.98 187.078C1310.38 187.55 1309.29 187.826 1307.01 189.695C1304.74 191.564 1304.22 194.028 1303.96 195.868M1309.2 166.84C1309.2 166.84 1311.75 169.124 1314.39 167.776C1317.03 166.429 1316.68 164.543 1316.68 164.543M1301.95 168.494C1303.64 170.842 1303.76 172.069 1302.87 174.131" stroke="#AD7543" stroke-opacity="0.6" stroke-linecap="round"/>
</g>
<g filter="url(#filter13_di_1690_6198)">
<path d="M1263.35 179.331C1265.87 170.922 1271.99 167.801 1274.79 176.748C1278.14 191.533 1298.62 195.335 1296.82 198.718C1293.9 204.357 1282.2 203.749 1274.79 201.449C1267.38 199.149 1259.56 189.115 1263.35 179.331Z" fill="#FBE8A4"/>
<path d="M1263.54 179.403L1263.54 179.396L1263.54 179.388C1264.17 177.303 1265.02 175.553 1265.97 174.239C1266.93 172.923 1267.99 172.06 1269.03 171.721C1270.06 171.387 1271.09 171.557 1272.05 172.349C1273.01 173.147 1273.9 174.586 1274.6 176.8C1276.29 184.273 1282.31 188.955 1287.63 192.18C1288.97 192.987 1290.26 193.705 1291.43 194.353C1291.49 194.39 1291.56 194.426 1291.63 194.463C1292.72 195.067 1293.7 195.609 1294.5 196.107C1295.36 196.638 1296 197.108 1296.38 197.54C1296.56 197.754 1296.67 197.948 1296.71 198.123C1296.75 198.292 1296.73 198.455 1296.64 198.624L1296.64 198.624L1296.64 198.626C1295.23 201.344 1291.68 202.596 1287.48 202.861C1283.29 203.124 1278.54 202.402 1274.85 201.258C1271.2 200.124 1267.43 197.076 1265.04 193.094C1262.66 189.115 1261.67 184.225 1263.54 179.403Z" stroke="#AD7543" stroke-opacity="0.6" stroke-width="0.4"/>
</g>
<g filter="url(#filter14_d_1690_6198)">
<g filter="url(#filter15_i_1690_6198)">
<path d="M1283.07 196.799C1286.87 204.709 1284.46 211.138 1276.36 206.419C1263.92 197.763 1246.23 208.765 1245.28 205.053C1243.64 198.917 1250.48 191.752 1260.57 189.049C1270.66 186.346 1281.02 192.328 1283.07 196.799Z" fill="#FBE8A4"/>
</g>
<path d="M1282.88 196.882L1282.88 196.882L1282.89 196.885C1283.83 198.847 1284.39 200.71 1284.57 202.325C1284.75 203.942 1284.55 205.293 1284.01 206.246C1283.47 207.188 1282.59 207.76 1281.35 207.819C1280.1 207.88 1278.47 207.418 1276.47 206.251C1270.18 201.878 1262.57 202.48 1256.47 203.686C1254.94 203.988 1253.51 204.328 1252.2 204.639C1252.13 204.657 1252.06 204.674 1251.98 204.692C1250.77 204.983 1249.68 205.243 1248.75 205.418C1247.76 205.605 1246.97 205.691 1246.4 205.623C1246.12 205.59 1245.91 205.52 1245.76 205.419C1245.62 205.321 1245.52 205.188 1245.47 205.003L1245.47 205.003L1245.47 205.001C1244.68 202.026 1245.93 198.77 1248.67 195.902C1251.41 193.036 1255.61 190.586 1260.62 189.242C1265.61 187.905 1270.68 188.715 1274.76 190.418C1276.8 191.27 1278.58 192.343 1279.98 193.477C1281.39 194.613 1282.39 195.802 1282.88 196.882Z" stroke="#AD7543" stroke-opacity="0.6" stroke-width="0.4"/>
<path d="M1246.1 205.037C1262.76 196.984 1271.25 197.596 1281.66 207.52" stroke="#AD7543" stroke-opacity="0.6" stroke-width="0.4" stroke-linecap="round"/>
</g>
<ellipse cx="1247.24" cy="76.4403" rx="7.74055" ry="15.5917" fill="black"/>
<ellipse cx="1319.56" cy="76.4403" rx="7.74055" ry="15.5917" fill="black"/>
<path d="M1297.7 88.9579C1292.44 92.3552 1288.89 92.6352 1281.89 91.316C1273.29 88.6228 1269.3 82.6484 1269.3 82.6484" stroke="black" stroke-width="2.2" stroke-linecap="round"/>
<path d="M1403.3 202.948C1395.62 190.415 1392.21 182.254 1388.2 165.148" stroke="#AD7543" stroke-width="3" stroke-linecap="round"/>
<path d="M1398.6 133.349C1406.28 132.798 1411 133.649 1413.1 135.649C1413.78 136.549 1411.9 140.049 1409.3 142.949C1407.8 144.949 1400.7 151.149 1400.7 151.149C1397.2 154.349 1392.9 160.149 1387.9 162.049C1384.2 163.949 1377.8 165.249 1376.2 162.749C1375.9 160.449 1375.6 158.049 1376.5 155.449C1377.01 154.379 1377.4 153.449 1379.23 151.649C1382.3 148.349 1386.67 144.201 1387.1 143.567C1392.1 138.749 1397.35 134.315 1398.6 133.349Z" fill="black" fill-opacity="0.25"/>
<path d="M1423.45 122.555C1420.97 123.988 1404.13 132.498 1394.62 137.026C1389.38 139.524 1357.89 127.243 1356.62 127.413C1351.18 127.153 1372.76 118.722 1372.76 118.722C1372.76 118.722 1387.17 125.53 1391.34 123.026C1394.91 120.889 1404.19 115.095 1407.15 112.555C1410.36 109.807 1412.93 107.411 1414.27 106.638C1418.29 104.317 1420.69 104.863 1421.66 105.316C1422.63 105.769 1422.96 106.029 1423.82 107.231C1424.68 108.433 1425.36 108.976 1426.02 110.279C1426.56 111.348 1426.85 111.889 1427.46 112.92C1427.92 113.949 1428.17 115.35 1428.1 116.475C1428.03 117.599 1427.31 120.332 1423.45 122.555Z" fill="white"/>
<path d="M1422.41 107.038L1415.3 112.37C1414.86 112.702 1414.77 113.329 1415.1 113.77C1415.43 114.212 1416.06 114.302 1416.5 113.97L1423.63 108.626C1423.73 108.759 1423.84 108.885 1423.94 109.004C1424.03 109.124 1424.13 109.236 1424.21 109.343C1424.55 109.76 1424.84 110.162 1425.12 110.729C1425.49 111.461 1425.75 111.954 1426.07 112.517L1421.07 115.133L1418.75 116.342L1418.07 116.699L1417.89 116.795L1417.84 116.82L1417.83 116.826L1417.83 116.827L1417.83 116.828L1417.83 116.828L1418.28 117.69L1417.83 116.828C1417.34 117.084 1417.15 117.688 1417.4 118.178C1417.66 118.667 1418.26 118.856 1418.75 118.6L1418.3 117.737L1418.75 118.6L1418.75 118.6L1418.75 118.6L1418.75 118.6L1418.76 118.598L1418.77 118.592L1418.82 118.567L1419 118.471L1419.68 118.115L1421.99 116.905L1426.89 114.347C1427.06 115.035 1427.14 115.783 1427.1 116.413C1427.05 117.214 1426.51 119.639 1422.95 121.689C1420.51 123.1 1403.7 131.594 1394.19 136.123C1393.79 136.314 1392.96 136.421 1391.61 136.326C1390.31 136.234 1388.69 135.97 1386.86 135.576C1383.2 134.789 1378.77 133.505 1374.43 132.139C1370.49 130.898 1366.66 129.597 1363.57 128.552C1363.27 128.448 1362.97 128.347 1362.68 128.248C1361.07 127.704 1359.71 127.245 1358.7 126.927C1358.3 126.8 1357.95 126.693 1357.66 126.611C1358.88 125.853 1360.87 124.877 1363.06 123.881C1365.4 122.818 1367.92 121.761 1369.85 120.969C1370.81 120.573 1371.63 120.244 1372.21 120.014C1372.41 119.933 1372.59 119.864 1372.72 119.809C1372.8 119.843 1372.88 119.88 1372.97 119.921C1373.38 120.105 1373.97 120.365 1374.68 120.668C1376.11 121.273 1378.07 122.056 1380.16 122.761C1382.25 123.464 1384.51 124.101 1386.53 124.399C1387.54 124.549 1388.52 124.618 1389.41 124.558C1390.29 124.499 1391.15 124.309 1391.86 123.884C1393.65 122.809 1396.87 120.821 1400.02 118.781C1403.14 116.755 1406.26 114.635 1407.81 113.314C1408.61 112.623 1409.37 111.956 1410.09 111.332L1410.25 111.192C1410.9 110.621 1411.51 110.091 1412.06 109.614C1413.29 108.562 1414.19 107.835 1414.77 107.504C1418.55 105.318 1420.61 105.929 1421.23 106.221C1421.69 106.437 1421.92 106.568 1422.12 106.747C1422.21 106.824 1422.3 106.916 1422.41 107.038Z" stroke="black" stroke-opacity="0.5" stroke-width="2" stroke-linecap="round" stroke-linejoin="round"/>
<path d="M1392.86 159.769C1393.1 160.565 1393.93 161.021 1394.72 160.789C1395.52 160.556 1395.98 159.724 1395.74 158.928L1392.86 159.769ZM1388.71 116.213L1388.27 117.646L1388.27 117.646L1388.71 116.213ZM1392.25 121.072L1393.07 122.326L1395.58 120.68L1394.76 119.426L1392.25 121.072ZM1394.3 159.349C1395.74 158.928 1395.74 158.928 1395.74 158.928C1395.74 158.928 1395.74 158.927 1395.74 158.927C1395.74 158.925 1395.74 158.923 1395.74 158.921C1395.74 158.916 1395.74 158.908 1395.73 158.897C1395.73 158.876 1395.72 158.844 1395.71 158.801C1395.68 158.716 1395.65 158.59 1395.6 158.424C1395.5 158.094 1395.37 157.609 1395.19 156.991C1394.84 155.757 1394.36 153.994 1393.8 151.886C1392.67 147.668 1391.26 142.078 1390.08 136.571C1388.91 131.04 1387.99 125.678 1387.83 121.881C1387.75 119.941 1387.88 118.616 1388.15 117.898C1388.28 117.551 1388.37 117.534 1388.3 117.579C1388.17 117.658 1388.1 117.593 1388.27 117.646L1389.16 114.781C1388.37 114.535 1387.5 114.545 1386.72 115.028C1385.99 115.476 1385.58 116.192 1385.33 116.861C1384.85 118.175 1384.75 120.014 1384.84 122.005C1385 126.072 1385.97 131.644 1387.15 137.196C1388.34 142.771 1389.77 148.414 1390.9 152.658C1391.46 154.781 1391.95 156.557 1392.3 157.803C1392.48 158.426 1392.62 158.917 1392.71 159.252C1392.76 159.42 1392.8 159.548 1392.83 159.636C1392.84 159.679 1392.85 159.712 1392.85 159.735C1392.86 159.746 1392.86 159.755 1392.86 159.76C1392.86 159.763 1392.86 159.765 1392.86 159.767C1392.86 159.768 1392.86 159.768 1392.86 159.769C1392.86 159.769 1392.86 159.769 1394.3 159.349ZM1388.27 117.646C1389.25 117.95 1390.23 118.736 1391.03 119.579C1391.42 119.983 1391.73 120.365 1391.94 120.646C1392.05 120.785 1392.13 120.898 1392.18 120.972C1392.21 121.01 1392.23 121.038 1392.24 121.055C1392.24 121.063 1392.25 121.069 1392.25 121.072C1392.25 121.073 1392.25 121.074 1392.25 121.074C1392.25 121.074 1392.25 121.074 1392.25 121.073C1392.25 121.073 1392.25 121.073 1392.25 121.073C1392.25 121.073 1392.25 121.072 1392.25 121.072C1392.25 121.072 1392.25 121.072 1393.5 120.249C1394.76 119.426 1394.76 119.425 1394.76 119.425C1394.76 119.425 1394.76 119.425 1394.76 119.424C1394.76 119.424 1394.76 119.423 1394.76 119.423C1394.76 119.422 1394.75 119.42 1394.75 119.419C1394.75 119.416 1394.75 119.412 1394.75 119.407C1394.74 119.398 1394.73 119.386 1394.72 119.37C1394.7 119.34 1394.67 119.299 1394.64 119.247C1394.56 119.143 1394.46 118.999 1394.33 118.826C1394.06 118.48 1393.68 118.01 1393.2 117.51C1392.28 116.544 1390.87 115.313 1389.16 114.781L1388.27 117.646Z" fill="#AD7543"/>
<path d="M1379.61 147.55C1379.66 148.377 1380.38 149.002 1381.2 148.946C1382.03 148.89 1382.66 148.175 1382.6 147.349L1379.61 147.55ZM1385.4 116.15L1385.4 114.65L1385.39 114.65L1385.38 114.651L1385.4 116.15ZM1386.41 122.078L1386.24 123.569L1389.22 123.911L1389.39 122.42L1386.41 122.078ZM1381.1 147.449C1382.6 147.349 1382.6 147.349 1382.6 147.349C1382.6 147.348 1382.6 147.348 1382.6 147.348C1382.6 147.347 1382.6 147.346 1382.6 147.344C1382.6 147.341 1382.6 147.336 1382.6 147.328C1382.6 147.314 1382.6 147.293 1382.59 147.264C1382.59 147.207 1382.59 147.121 1382.58 147.008C1382.56 146.784 1382.55 146.452 1382.52 146.03C1382.48 145.185 1382.42 143.975 1382.37 142.523C1382.28 139.616 1382.22 135.75 1382.35 131.89C1382.49 128.009 1382.82 124.221 1383.49 121.432C1383.83 120.027 1384.22 118.99 1384.64 118.336C1385.06 117.685 1385.34 117.652 1385.43 117.65L1385.38 114.651C1383.87 114.674 1382.81 115.638 1382.12 116.712C1381.43 117.783 1380.94 119.201 1380.57 120.734C1379.83 123.823 1379.49 127.853 1379.35 131.785C1379.21 135.737 1379.28 139.677 1379.38 142.623C1379.42 144.097 1379.48 145.326 1379.53 146.187C1379.55 146.618 1379.57 146.957 1379.58 147.19C1379.59 147.306 1379.6 147.395 1379.6 147.456C1379.6 147.486 1379.6 147.509 1379.6 147.525C1379.61 147.533 1379.61 147.539 1379.61 147.543C1379.61 147.545 1379.61 147.547 1379.61 147.548C1379.61 147.549 1379.61 147.549 1379.61 147.549C1379.61 147.55 1379.61 147.55 1381.1 147.449ZM1385.4 117.65C1385.62 117.65 1385.75 117.711 1385.9 117.94C1386.1 118.241 1386.27 118.747 1386.37 119.419C1386.46 120.065 1386.48 120.733 1386.46 121.255C1386.46 121.513 1386.44 121.726 1386.43 121.872C1386.43 121.945 1386.42 122 1386.42 122.036C1386.42 122.053 1386.41 122.066 1386.41 122.073C1386.41 122.077 1386.41 122.079 1386.41 122.08C1386.41 122.081 1386.41 122.081 1386.41 122.08C1386.41 122.08 1386.41 122.08 1386.41 122.08C1386.41 122.079 1386.41 122.079 1386.41 122.079C1386.41 122.079 1386.41 122.078 1387.9 122.249C1389.39 122.42 1389.39 122.42 1389.39 122.42C1389.39 122.419 1389.39 122.419 1389.39 122.419C1389.39 122.418 1389.39 122.417 1389.39 122.416C1389.39 122.415 1389.39 122.412 1389.39 122.41C1389.4 122.405 1389.4 122.398 1389.4 122.39C1389.4 122.375 1389.4 122.353 1389.4 122.326C1389.41 122.272 1389.42 122.197 1389.42 122.103C1389.44 121.915 1389.45 121.652 1389.46 121.337C1389.48 120.716 1389.47 119.86 1389.34 118.981C1389.21 118.128 1388.95 117.109 1388.39 116.267C1387.77 115.352 1386.78 114.65 1385.4 114.65L1385.4 117.65Z" fill="#AD7543"/>
<path d="M1404.15 146.792L1404.79 148.147L1407.5 146.861L1406.86 145.506L1404.15 146.792ZM1398.55 134.992L1404.15 146.792L1406.86 145.506L1401.26 133.706L1398.55 134.992Z" fill="#AD7543"/>
<path d="M1196 94.4492H1371C1372.69 117.445 1373.06 130.507 1372.2 154.249L1194.8 155.449C1194.1 131.032 1194.34 117.667 1196 94.4492Z" fill="#E31616"/>
<path d="M1190.71 184.984C1189.6 182.342 1179.41 165.446 1176.11 155.449C1174.28 149.932 1194.28 119.348 1194.27 118.065C1195.21 112.704 1200.87 135.165 1200.87 135.165C1200.87 135.165 1188.75 150.994 1190.71 155.449C1192.39 159.253 1200.53 166.809 1202.68 170.065C1205 173.587 1207.06 176.438 1207.65 177.862C1209.45 182.142 1208.61 184.459 1208.04 185.362C1207.47 186.265 1207.17 186.565 1205.87 187.265C1204.57 187.965 1203.94 188.577 1202.57 189.065C1201.44 189.465 1200.87 189.69 1199.77 190.165C1198.69 190.49 1197.27 190.565 1196.16 190.355C1195.05 190.145 1192.43 189.083 1190.71 184.984Z" fill="white"/>
<path d="M1206.24 185.891L1201.84 178.17C1201.56 177.69 1200.95 177.523 1200.47 177.796C1199.99 178.069 1199.83 178.68 1200.1 179.16L1204.51 186.899C1204.36 186.989 1204.23 187.077 1204.1 187.159C1203.96 187.242 1203.84 187.32 1203.72 187.392C1203.27 187.672 1202.83 187.91 1202.23 188.122C1201.46 188.396 1200.94 188.592 1200.34 188.837L1198.37 183.546L1197.46 181.099L1197.2 180.378L1197.12 180.184L1197.11 180.133L1197.1 180.121L1197.1 180.117L1197.1 180.117L1197.1 180.116L1196.19 180.455L1197.1 180.116C1196.91 179.599 1196.33 179.335 1195.81 179.528C1195.3 179.72 1195.03 180.296 1195.22 180.813L1196.14 180.474L1195.22 180.814L1195.22 180.814L1195.22 180.815L1195.23 180.818L1195.23 180.831L1195.25 180.881L1195.32 181.075L1195.59 181.796L1196.5 184.243L1198.42 189.419C1197.72 189.503 1196.97 189.49 1196.35 189.372C1195.56 189.223 1193.22 188.376 1191.63 184.596C1191.33 183.873 1190.45 182.258 1189.3 180.178C1189.14 179.894 1188.98 179.6 1188.82 179.297C1187.74 177.344 1186.45 175.01 1185.11 172.503C1182.01 166.695 1178.67 160.042 1177.06 155.136C1177 154.972 1176.97 154.681 1177.01 154.222C1177.04 153.773 1177.15 153.223 1177.33 152.574C1177.68 151.277 1178.29 149.676 1179.09 147.865C1180.69 144.246 1183 139.899 1185.38 135.659C1187.48 131.926 1189.61 128.296 1191.36 125.339C1191.59 124.939 1191.82 124.552 1192.04 124.179C1192.96 122.613 1193.74 121.282 1194.29 120.301C1194.54 119.847 1194.75 119.457 1194.91 119.147C1195.51 120.449 1196.24 122.568 1196.97 124.901C1197.73 127.356 1198.46 129.983 1199 132C1199.28 133.007 1199.5 133.86 1199.66 134.461C1199.7 134.648 1199.75 134.811 1199.78 134.946C1199.71 135.036 1199.64 135.14 1199.55 135.258C1199.22 135.704 1198.75 136.345 1198.19 137.128C1197.08 138.693 1195.61 140.83 1194.2 143.111C1192.8 145.386 1191.44 147.837 1190.54 150.023C1190.1 151.115 1189.76 152.174 1189.6 153.134C1189.44 154.074 1189.44 155.036 1189.8 155.852C1190.27 156.929 1191.16 158.2 1192.2 159.503C1193.26 160.824 1194.52 162.246 1195.77 163.634C1196.26 164.175 1196.75 164.707 1197.23 165.228C1197.99 166.058 1198.72 166.857 1199.39 167.608C1200.48 168.836 1201.35 169.87 1201.84 170.616C1202.43 171.501 1202.99 172.343 1203.52 173.128L1203.64 173.306C1204.13 174.024 1204.57 174.691 1204.98 175.301C1205.87 176.65 1206.48 177.639 1206.73 178.249C1208.43 182.281 1207.56 184.245 1207.19 184.827C1206.92 185.258 1206.76 185.463 1206.56 185.643C1206.47 185.721 1206.37 185.801 1206.24 185.891Z" stroke="black" stroke-opacity="0.5" stroke-width="2" stroke-linecap="round" stroke-linejoin="round"/>
<path d="M1246.97 131.102C1246.97 132.104 1246.72 133.193 1246.22 134.367C1245.74 135.527 1244.96 136.673 1243.9 137.805C1242.84 138.922 1241.49 139.831 1239.84 140.533C1238.19 141.235 1236.28 141.586 1234.08 141.586C1232.42 141.586 1230.91 141.428 1229.55 141.113C1228.19 140.798 1226.95 140.311 1225.83 139.652C1224.73 138.979 1223.71 138.098 1222.78 137.01C1221.95 136.021 1221.24 134.919 1220.66 133.701C1220.07 132.469 1219.63 131.159 1219.32 129.77C1219.04 128.38 1218.89 126.905 1218.89 125.344C1218.89 122.809 1219.26 120.538 1219.99 118.533C1220.74 116.528 1221.79 114.816 1223.17 113.398C1224.54 111.966 1226.16 110.878 1228 110.133C1229.85 109.388 1231.82 109.016 1233.91 109.016C1236.46 109.016 1238.73 109.524 1240.72 110.541C1242.71 111.558 1244.24 112.818 1245.3 114.322C1246.36 115.812 1246.89 117.223 1246.89 118.555C1246.89 119.285 1246.63 119.93 1246.12 120.488C1245.6 121.047 1244.98 121.326 1244.25 121.326C1243.43 121.326 1242.81 121.133 1242.4 120.746C1242 120.359 1241.55 119.693 1241.04 118.748C1240.21 117.187 1239.23 116.02 1238.1 115.246C1236.98 114.473 1235.6 114.086 1233.96 114.086C1231.33 114.086 1229.24 115.081 1227.68 117.072C1226.13 119.063 1225.36 121.892 1225.36 125.559C1225.36 128.008 1225.71 130.049 1226.39 131.682C1227.08 133.3 1228.05 134.51 1229.31 135.313C1230.57 136.115 1232.05 136.516 1233.74 136.516C1235.57 136.516 1237.12 136.064 1238.38 135.162C1239.66 134.245 1240.62 132.906 1241.26 131.145C1241.53 130.314 1241.87 129.641 1242.27 129.125C1242.67 128.595 1243.32 128.33 1244.2 128.33C1244.96 128.33 1245.61 128.595 1246.16 129.125C1246.7 129.655 1246.97 130.314 1246.97 131.102Z" fill="white"/>
<path d="M1259.13 112.883V121.906H1272.91V112.883C1272.91 111.594 1273.19 110.627 1273.77 109.982C1274.35 109.338 1275.12 109.016 1276.06 109.016C1277.02 109.016 1277.8 109.338 1278.38 109.982C1278.99 110.613 1279.29 111.579 1279.29 112.883V137.697C1279.29 139.001 1278.99 139.975 1278.38 140.619C1277.78 141.264 1277.01 141.586 1276.06 141.586C1275.1 141.586 1274.34 141.264 1273.77 140.619C1273.19 139.96 1272.91 138.986 1272.91 137.697V127.105H1259.13V137.697C1259.13 139.001 1258.83 139.975 1258.23 140.619C1257.63 141.264 1256.86 141.586 1255.91 141.586C1254.95 141.586 1254.19 141.264 1253.61 140.619C1253.04 139.96 1252.75 138.986 1252.75 137.697V112.883C1252.75 111.594 1253.03 110.627 1253.59 109.982C1254.16 109.338 1254.94 109.016 1255.91 109.016C1256.87 109.016 1257.65 109.338 1258.23 109.982C1258.83 110.613 1259.13 111.579 1259.13 112.883Z" fill="white"/>
<path d="M1286.4 137.697V112.883C1286.4 111.594 1286.69 110.627 1287.28 109.982C1287.87 109.338 1288.63 109.016 1289.56 109.016C1290.52 109.016 1291.29 109.338 1291.88 109.982C1292.48 110.613 1292.78 111.579 1292.78 112.883V137.697C1292.78 139.001 1292.48 139.975 1291.88 140.619C1291.29 141.264 1290.52 141.586 1289.56 141.586C1288.64 141.586 1287.88 141.264 1287.28 140.619C1286.69 139.96 1286.4 138.986 1286.4 137.697Z" fill="white"/>
<path d="M1312.16 128.781H1306.31V137.697C1306.31 138.972 1306.01 139.939 1305.41 140.598C1304.81 141.257 1304.05 141.586 1303.13 141.586C1302.18 141.586 1301.4 141.264 1300.81 140.619C1300.23 139.96 1299.93 139.001 1299.93 137.74V113.463C1299.93 112.059 1300.26 111.057 1300.9 110.455C1301.54 109.854 1302.57 109.553 1303.97 109.553H1312.16C1314.58 109.553 1316.44 109.739 1317.74 110.111C1319.03 110.469 1320.14 111.064 1321.07 111.895C1322.02 112.725 1322.74 113.742 1323.22 114.945C1323.71 116.148 1323.95 117.502 1323.95 119.006C1323.95 122.214 1322.96 124.649 1320.99 126.311C1319.01 127.958 1316.07 128.781 1312.16 128.781ZM1310.61 114.344H1306.31V123.969H1310.61C1312.12 123.969 1313.37 123.811 1314.37 123.496C1315.39 123.181 1316.16 122.665 1316.69 121.949C1317.22 121.233 1317.49 120.295 1317.49 119.135C1317.49 117.745 1317.08 116.614 1316.26 115.74C1315.35 114.809 1313.46 114.344 1310.61 114.344Z" fill="white"/>
<path d="M1353.21 131.596C1353.21 133.501 1352.72 135.212 1351.73 136.73C1350.76 138.249 1349.33 139.438 1347.44 140.297C1345.54 141.156 1343.3 141.586 1340.71 141.586C1337.6 141.586 1335.04 140.999 1333.02 139.824C1331.59 138.979 1330.42 137.855 1329.52 136.451C1328.63 135.033 1328.19 133.658 1328.19 132.326C1328.19 131.553 1328.45 130.894 1328.98 130.35C1329.52 129.791 1330.21 129.512 1331.04 129.512C1331.72 129.512 1332.28 129.727 1332.74 130.156C1333.21 130.586 1333.61 131.223 1333.94 132.068C1334.34 133.071 1334.77 133.909 1335.23 134.582C1335.71 135.255 1336.36 135.814 1337.21 136.258C1338.05 136.688 1339.16 136.902 1340.54 136.902C1342.43 136.902 1343.96 136.465 1345.14 135.592C1346.33 134.704 1346.92 133.601 1346.92 132.283C1346.92 131.238 1346.6 130.393 1345.95 129.748C1345.32 129.089 1344.5 128.588 1343.48 128.244C1342.48 127.9 1341.13 127.535 1339.44 127.148C1337.18 126.618 1335.28 126.003 1333.75 125.301C1332.23 124.585 1331.02 123.618 1330.12 122.4C1329.23 121.169 1328.79 119.643 1328.79 117.824C1328.79 116.091 1329.26 114.551 1330.21 113.205C1331.15 111.859 1332.52 110.827 1334.31 110.111C1336.1 109.381 1338.2 109.016 1340.63 109.016C1342.56 109.016 1344.23 109.259 1345.63 109.746C1347.05 110.219 1348.22 110.856 1349.15 111.658C1350.09 112.446 1350.77 113.277 1351.2 114.15C1351.63 115.024 1351.84 115.876 1351.84 116.707C1351.84 117.466 1351.57 118.154 1351.02 118.77C1350.49 119.371 1349.83 119.672 1349.03 119.672C1348.29 119.672 1347.74 119.493 1347.35 119.135C1346.98 118.762 1346.57 118.161 1346.13 117.33C1345.55 116.141 1344.86 115.217 1344.06 114.559C1343.26 113.885 1341.97 113.549 1340.2 113.549C1338.55 113.549 1337.22 113.914 1336.2 114.645C1335.2 115.361 1334.7 116.227 1334.7 117.244C1334.7 117.874 1334.87 118.419 1335.21 118.877C1335.55 119.335 1336.03 119.729 1336.63 120.059C1337.23 120.388 1337.84 120.646 1338.46 120.832C1339.07 121.018 1340.09 121.29 1341.51 121.648C1343.28 122.064 1344.89 122.522 1346.32 123.023C1347.76 123.525 1348.99 124.133 1349.99 124.85C1351.01 125.566 1351.8 126.475 1352.36 127.578C1352.93 128.667 1353.21 130.006 1353.21 131.596Z" fill="white"/>
<defs>
<filter id="filter0_d_1690_6198" x="305.053" y="85.2607" width="20.3996" height="19.5998" filterUnits="userSpaceOnUse" color-interpolation-filters="sRGB">
<feFlood flood-opacity="0" result="BackgroundImageFix"/>
<feColorMatrix in="SourceAlpha" type="matrix" values="0 0 0 0 0 0 0 0 0 0 0 0 0 0 0 0 0 0 127 0" result="hardAlpha"/>
<feOffset dx="2" dy="2"/>
<feGaussianBlur stdDeviation="0.4"/>
<feComposite in2="hardAlpha" operator="out"/>
<feColorMatrix type="matrix" values="0 0 0 0 0 0 0 0 0 0 0 0 0 0 0 0 0 0 0.25 0"/>
<feBlend mode="normal" in2="BackgroundImageFix" result="effect1_dropShadow_1690_6198"/>
<feBlend mode="normal" in="SourceGraphic" in2="effect1_dropShadow_1690_6198" result="shape"/>
</filter>
<filter id="filter1_d_1690_6198" x="295.652" y="180.226" width="20.9992" height="20.6564" filterUnits="userSpaceOnUse" color-interpolation-filters="sRGB">
<feFlood flood-opacity="0" result="BackgroundImageFix"/>
<feColorMatrix in="SourceAlpha" type="matrix" values="0 0 0 0 0 0 0 0 0 0 0 0 0 0 0 0 0 0 127 0" result="hardAlpha"/>
<feOffset dx="2" dy="2"/>
<feGaussianBlur stdDeviation="0.4"/>
<feComposite in2="hardAlpha" operator="out"/>
<feColorMatrix type="matrix" values="0 0 0 0 0 0 0 0 0 0 0 0 0 0 0 0 0 0 0.25 0"/>
<feBlend mode="normal" in2="BackgroundImageFix" result="effect1_dropShadow_1690_6198"/>
<feBlend mode="normal" in="SourceGraphic" in2="effect1_dropShadow_1690_6198" result="shape"/>
</filter>
<filter id="filter2_d_1690_6198" x="362.854" y="67.0605" width="28.8" height="29.5998" filterUnits="userSpaceOnUse" color-interpolation-filters="sRGB">
<feFlood flood-opacity="0" result="BackgroundImageFix"/>
<feColorMatrix in="SourceAlpha" type="matrix" values="0 0 0 0 0 0 0 0 0 0 0 0 0 0 0 0 0 0 127 0" result="hardAlpha"/>
<feOffset dx="2" dy="2"/>
<feGaussianBlur stdDeviation="0.4"/>
<feComposite in2="hardAlpha" operator="out"/>
<feColorMatrix type="matrix" values="0 0 0 0 0 0 0 0 0 0 0 0 0 0 0 0 0 0 0.25 0"/>
<feBlend mode="normal" in2="BackgroundImageFix" result="effect1_dropShadow_1690_6198"/>
<feBlend mode="normal" in="SourceGraphic" in2="effect1_dropShadow_1690_6198" result="shape"/>
</filter>
<filter id="filter3_d_1690_6198" x="361.773" y="228.86" width="35.1008" height="19.0002" filterUnits="userSpaceOnUse" color-interpolation-filters="sRGB">
<feFlood flood-opacity="0" result="BackgroundImageFix"/>
<feColorMatrix in="SourceAlpha" type="matrix" values="0 0 0 0 0 0 0 0 0 0 0 0 0 0 0 0 0 0 127 0" result="hardAlpha"/>
<feOffset dx="2" dy="2"/>
<feGaussianBlur stdDeviation="0.4"/>
<feComposite in2="hardAlpha" operator="out"/>
<feColorMatrix type="matrix" values="0 0 0 0 0 0 0 0 0 0 0 0 0 0 0 0 0 0 0.25 0"/>
<feBlend mode="normal" in2="BackgroundImageFix" result="effect1_dropShadow_1690_6198"/>
<feBlend mode="normal" in="SourceGraphic" in2="effect1_dropShadow_1690_6198" result="shape"/>
</filter>
<filter id="filter4_d_1690_6198" x="317.605" y="197.307" width="23.466" height="20.6154" filterUnits="userSpaceOnUse" color-interpolation-filters="sRGB">
<feFlood flood-opacity="0" result="BackgroundImageFix"/>
<feColorMatrix in="SourceAlpha" type="matrix" values="0 0 0 0 0 0 0 0 0 0 0 0 0 0 0 0 0 0 127 0" result="hardAlpha"/>
<feOffset dx="2" dy="2"/>
<feGaussianBlur stdDeviation="0.4"/>
<feComposite in2="hardAlpha" operator="out"/>
<feColorMatrix type="matrix" values="0 0 0 0 0 0 0 0 0 0 0 0 0 0 0 0 0 0 0.25 0"/>
<feBlend mode="normal" in2="BackgroundImageFix" result="effect1_dropShadow_1690_6198"/>
<feBlend mode="normal" in="SourceGraphic" in2="effect1_dropShadow_1690_6198" result="shape"/>
</filter>
<filter id="filter5_d_1690_6198" x="416.254" y="107.86" width="20.8" height="20.8" filterUnits="userSpaceOnUse" color-interpolation-filters="sRGB">
<feFlood flood-opacity="0" result="BackgroundImageFix"/>
<feColorMatrix in="SourceAlpha" type="matrix" values="0 0 0 0 0 0 0 0 0 0 0 0 0 0 0 0 0 0 127 0" result="hardAlpha"/>
<feOffset dx="2" dy="2"/>
<feGaussianBlur stdDeviation="0.4"/>
<feComposite in2="hardAlpha" operator="out"/>
<feColorMatrix type="matrix" values="0 0 0 0 0 0 0 0 0 0 0 0 0 0 0 0 0 0 0.25 0"/>
<feBlend mode="normal" in2="BackgroundImageFix" result="effect1_dropShadow_1690_6198"/>
<feBlend mode="normal" in="SourceGraphic" in2="effect1_dropShadow_1690_6198" result="shape"/>
</filter>
<filter id="filter6_d_1690_6198" x="277.504" y="132.702" width="26.8645" height="28.9543" filterUnits="userSpaceOnUse" color-interpolation-filters="sRGB">
<feFlood flood-opacity="0" result="BackgroundImageFix"/>
<feColorMatrix in="SourceAlpha" type="matrix" values="0 0 0 0 0 0 0 0 0 0 0 0 0 0 0 0 0 0 127 0" result="hardAlpha"/>
<feOffset dx="2" dy="2"/>
<feGaussianBlur stdDeviation="0.4"/>
<feComposite in2="hardAlpha" operator="out"/>
<feColorMatrix type="matrix" values="0 0 0 0 0 0 0 0 0 0 0 0 0 0 0 0 0 0 0.25 0"/>
<feBlend mode="normal" in2="BackgroundImageFix" result="effect1_dropShadow_1690_6198"/>
<feBlend mode="normal" in="SourceGraphic" in2="effect1_dropShadow_1690_6198" result="shape"/>
</filter>
<filter id="filter7_d_1690_6198" x="365.191" y="190.025" width="30.9738" height="31.2863" filterUnits="userSpaceOnUse" color-interpolation-filters="sRGB">
<feFlood flood-opacity="0" result="BackgroundImageFix"/>
<feColorMatrix in="SourceAlpha" type="matrix" values="0 0 0 0 0 0 0 0 0 0 0 0 0 0 0 0 0 0 127 0" result="hardAlpha"/>
<feOffset dx="2" dy="2"/>
<feGaussianBlur stdDeviation="0.4"/>
<feComposite in2="hardAlpha" operator="out"/>
<feColorMatrix type="matrix" values="0 0 0 0 0 0 0 0 0 0 0 0 0 0 0 0 0 0 0.25 0"/>
<feBlend mode="normal" in2="BackgroundImageFix" result="effect1_dropShadow_1690_6198"/>
<feBlend mode="normal" in="SourceGraphic" in2="effect1_dropShadow_1690_6198" result="shape"/>
</filter>
<filter id="filter8_d_1690_6198" x="410.898" y="205.055" width="18.343" height="22.2863" filterUnits="userSpaceOnUse" color-interpolation-filters="sRGB">
<feFlood flood-opacity="0" result="BackgroundImageFix"/>
<feColorMatrix in="SourceAlpha" type="matrix" values="0 0 0 0 0 0 0 0 0 0 0 0 0 0 0 0 0 0 127 0" result="hardAlpha"/>
<feOffset dx="2" dy="2"/>
<feGaussianBlur stdDeviation="0.4"/>
<feComposite in2="hardAlpha" operator="out"/>
<feColorMatrix type="matrix" values="0 0 0 0 0 0 0 0 0 0 0 0 0 0 0 0 0 0 0.25 0"/>
<feBlend mode="normal" in2="BackgroundImageFix" result="effect1_dropShadow_1690_6198"/>
<feBlend mode="normal" in="SourceGraphic" in2="effect1_dropShadow_1690_6198" result="shape"/>
</filter>
<filter id="filter9_d_1690_6198" x="321.254" y="165.66" width="21.2004" height="18.5998" filterUnits="userSpaceOnUse" color-interpolation-filters="sRGB">
<feFlood flood-opacity="0" result="BackgroundImageFix"/>
<feColorMatrix in="SourceAlpha" type="matrix" values="0 0 0 0 0 0 0 0 0 0 0 0 0 0 0 0 0 0 127 0" result="hardAlpha"/>
<feOffset dx="2" dy="2"/>
<feGaussianBlur stdDeviation="0.4"/>
<feComposite in2="hardAlpha" operator="out"/>
<feColorMatrix type="matrix" values="0 0 0 0 0 0 0 0 0 0 0 0 0 0 0 0 0 0 0.25 0"/>
<feBlend mode="normal" in2="BackgroundImageFix" result="effect1_dropShadow_1690_6198"/>
<feBlend mode="normal" in="SourceGraphic" in2="effect1_dropShadow_1690_6198" result="shape"/>
</filter>
<filter id="filter10_d_1690_6198" x="440.371" y="148.147" width="17.7453" height="18.9758" filterUnits="userSpaceOnUse" color-interpolation-filters="sRGB">
<feFlood flood-opacity="0" result="BackgroundImageFix"/>
<feColorMatrix in="SourceAlpha" type="matrix" values="0 0 0 0 0 0 0 0 0 0 0 0 0 0 0 0 0 0 127 0" result="hardAlpha"/>
<feOffset dx="2" dy="2"/>
<feGaussianBlur stdDeviation="0.4"/>
<feComposite in2="hardAlpha" operator="out"/>
<feColorMatrix type="matrix" values="0 0 0 0 0 0 0 0 0 0 0 0 0 0 0 0 0 0 0.25 0"/>
<feBlend mode="normal" in2="BackgroundImageFix" result="effect1_dropShadow_1690_6198"/>
<feBlend mode="normal" in="SourceGraphic" in2="effect1_dropShadow_1690_6198" result="shape"/>
</filter>
<filter id="filter11_d_1690_6198" x="417.854" y="165.66" width="23.6555" height="27.5998" filterUnits="userSpaceOnUse" color-interpolation-filters="sRGB">
<feFlood flood-opacity="0" result="BackgroundImageFix"/>
<feColorMatrix in="SourceAlpha" type="matrix" values="0 0 0 0 0 0 0 0 0 0 0 0 0 0 0 0 0 0 127 0" result="hardAlpha"/>
<feOffset dx="2" dy="2"/>
<feGaussianBlur stdDeviation="0.4"/>
<feComposite in2="hardAlpha" operator="out"/>
<feColorMatrix type="matrix" values="0 0 0 0 0 0 0 0 0 0 0 0 0 0 0 0 0 0 0.25 0"/>
<feBlend mode="normal" in2="BackgroundImageFix" result="effect1_dropShadow_1690_6198"/>
<feBlend mode="normal" in="SourceGraphic" in2="effect1_dropShadow_1690_6198" result="shape"/>
</filter>
<filter id="filter12_d_1690_6198" x="1283.46" y="159.204" width="48.5441" height="50.6252" filterUnits="userSpaceOnUse" color-interpolation-filters="sRGB">
<feFlood flood-opacity="0" result="BackgroundImageFix"/>
<feColorMatrix in="SourceAlpha" type="matrix" values="0 0 0 0 0 0 0 0 0 0 0 0 0 0 0 0 0 0 127 0" result="hardAlpha"/>
<feOffset dx="2" dy="2"/>
<feGaussianBlur stdDeviation="0.4"/>
<feComposite in2="hardAlpha" operator="out"/>
<feColorMatrix type="matrix" values="0 0 0 0 0 0 0 0 0 0 0 0 0 0 0 0 0 0 0.25 0"/>
<feBlend mode="normal" in2="BackgroundImageFix" result="effect1_dropShadow_1690_6198"/>
<feBlend mode="normal" in="SourceGraphic" in2="effect1_dropShadow_1690_6198" result="shape"/>
</filter>
<filter id="filter13_di_1690_6198" x="1262.36" y="170.559" width="37.3684" height="35.3559" filterUnits="userSpaceOnUse" color-interpolation-filters="sRGB">
<feFlood flood-opacity="0" result="BackgroundImageFix"/>
<feColorMatrix in="SourceAlpha" type="matrix" values="0 0 0 0 0 0 0 0 0 0 0 0 0 0 0 0 0 0 127 0" result="hardAlpha"/>
<feOffset dx="2" dy="2"/>
<feGaussianBlur stdDeviation="0.4"/>
<feComposite in2="hardAlpha" operator="out"/>
<feColorMatrix type="matrix" values="0 0 0 0 0 0 0 0 0 0 0 0 0 0 0 0 0 0 0.25 0"/>
<feBlend mode="normal" in2="BackgroundImageFix" result="effect1_dropShadow_1690_6198"/>
<feBlend mode="normal" in="SourceGraphic" in2="effect1_dropShadow_1690_6198" result="shape"/>
<feColorMatrix in="SourceAlpha" type="matrix" values="0 0 0 0 0 0 0 0 0 0 0 0 0 0 0 0 0 0 127 0" result="hardAlpha"/>
<feOffset dy="-0.8"/>
<feGaussianBlur stdDeviation="1"/>
<feComposite in2="hardAlpha" operator="arithmetic" k2="-1" k3="1"/>
<feColorMatrix type="matrix" values="0 0 0 0 0 0 0 0 0 0 0 0 0 0 0 0 0 0 0.25 0"/>
<feBlend mode="normal" in2="shape" result="effect2_innerShadow_1690_6198"/>
</filter>
<filter id="filter14_d_1690_6198" x="1245.04" y="188.373" width="42.5949" height="22.4514" filterUnits="userSpaceOnUse" color-interpolation-filters="sRGB">
<feFlood flood-opacity="0" result="BackgroundImageFix"/>
<feColorMatrix in="SourceAlpha" type="matrix" values="0 0 0 0 0 0 0 0 0 0 0 0 0 0 0 0 0 0 127 0" result="hardAlpha"/>
<feOffset dx="2" dy="2"/>
<feGaussianBlur stdDeviation="0.4"/>
<feComposite in2="hardAlpha" operator="out"/>
<feColorMatrix type="matrix" values="0 0 0 0 0 0 0 0 0 0 0 0 0 0 0 0 0 0 0.25 0"/>
<feBlend mode="normal" in2="BackgroundImageFix" result="effect1_dropShadow_1690_6198"/>
<feBlend mode="normal" in="SourceGraphic" in2="effect1_dropShadow_1690_6198" result="shape"/>
</filter>
<filter id="filter15_i_1690_6198" x="1245.04" y="187.573" width="39.7949" height="20.4514" filterUnits="userSpaceOnUse" color-interpolation-filters="sRGB">
<feFlood flood-opacity="0" result="BackgroundImageFix"/>
<feBlend mode="normal" in="SourceGraphic" in2="BackgroundImageFix" result="shape"/>
<feColorMatrix in="SourceAlpha" type="matrix" values="0 0 0 0 0 0 0 0 0 0 0 0 0 0 0 0 0 0 127 0" result="hardAlpha"/>
<feOffset dy="-0.8"/>
<feGaussianBlur stdDeviation="1"/>
<feComposite in2="hardAlpha" operator="arithmetic" k2="-1" k3="1"/>
<feColorMatrix type="matrix" values="0 0 0 0 0 0 0 0 0 0 0 0 0 0 0 0 0 0 0.25 0"/>
<feBlend mode="normal" in2="shape" result="effect1_innerShadow_1690_6198"/>
</filter>
</defs>
</svg>
