<svg width="181" height="39" viewBox="0 0 181 39" fill="none" xmlns="http://www.w3.org/2000/svg">
<g filter="url(#filter0_d_1352_12775)">
<path d="M19.049 5.31038C15.9735 8.88632 7.12615 15.5598 4.60144 15.2515C2.07673 14.9432 1.75112 13.077 2.13391 11.7471C2.51671 10.4172 13.6788 3.3421 16.653 1.55565C19.6272 -0.230794 20.3007 0.762328 21.0159 1.55565C21.7311 2.34898 35.3184 10.4948 36.3217 11.3537C37.325 12.2126 35.7624 15.1084 33.6038 15.18C31.4453 15.2515 22.3033 8.9936 19.049 5.31038ZM11.1458 16.6819C13.172 16.1556 26.9165 16.6819 26.9165 16.6819V19.7572H11.1458C11.1458 19.7572 9.99397 18.3405 11.1458 16.6819ZM17.2437 8.90585C17.96 8.0481 20.1102 7.84948 20.8189 8.90585C21.5277 9.96223 20.3722 13.5708 20.3722 13.5708H17.641C17.641 13.5708 16.5275 9.76361 17.2437 8.90585ZM4.78025 30.9498C5.52519 30.4492 18.5843 29.3636 19.6272 29.662C20.6701 29.9604 21.6596 32.5488 20.3007 33.1911C18.9417 33.8334 8.081 36.0776 5.82291 35.2767C3.56482 34.4758 4.0353 31.4505 4.78025 30.9498ZM20.3007 23.7622C22.8397 28.1248 34.9628 29.5552 35.6422 31.522C36.3217 33.4887 34.4246 35.2234 33.0317 35.2767C25.0927 33.9536 19.8358 30.628 16.653 24.7635L20.3007 23.7622ZM30.8502 23.047C30.8502 23.047 33.9949 23.369 33.9615 25.6217C33.9281 27.8744 27.739 29.3407 25.0927 30.485L22.5179 28.1606C25.1642 26.909 28.7046 24.7277 30.8502 23.047ZM11.1458 11.4968C18.3705 11.126 22.1267 11.0947 29.459 11.4968C29.7125 16.8441 29.7018 19.8092 29.459 25.0495C29.459 25.0495 12.4768 26.1686 11.1458 25.0495C9.81476 23.9305 10.4106 22.3266 11.1458 21.7239C11.8809 21.1212 24.8907 22.3971 25.4503 21.7239C26.0098 21.0508 25.9831 15.18 25.4503 14.8224C24.9174 14.4648 16.732 14.9754 11.1458 14.8224V11.4968ZM8.49942 11.4968C12.2186 5.49812 12.755 11.4968 12.755 11.4968C13.0726 12.6571 12.755 31.4505 12.755 31.4505L8.49942 31.9153C8.49942 31.9153 6.6174 16.1095 8.49942 11.4968Z" fill="#FFC700"/>
</g>
<g filter="url(#filter1_d_1352_12775)">
<path d="M99.1781 31.0861C97.2193 30.069 97.2193 6.33298 99.1781 5.05063C101.137 3.76828 114.986 3.96712 116.581 5.05063C118.177 6.13414 117.325 10.9449 116.581 10.6283C115.838 10.3118 105.342 9.75181 104.447 10.746C103.553 11.7402 103.194 15.6185 104.447 15.997C105.7 16.3755 114.815 14.9733 115.781 16.2953C116.748 17.6173 116.509 19.9218 115.384 20.5704C114.258 21.2189 105.382 20.1658 104.447 20.8144C103.513 21.4629 103.532 24.6788 104.884 25.3909C106.237 26.1029 115.384 25.442 116.529 25.3909C117.675 25.3397 117.774 30.069 116.529 31.0861C115.284 32.1032 101.137 32.1032 99.1781 31.0861ZM126.851 31.0861C125.823 32.2026 122.681 32.6997 120.454 31.0861C118.227 29.4725 126.916 8.73932 126.916 8.73932C126.916 8.73932 128.44 4.66307 132.749 4.66307C137.057 4.66307 138.449 8.73932 138.449 8.73932C138.449 8.73932 146.669 29.5719 144.116 31.0861C141.564 32.6003 139.037 31.6064 138.445 31.0861C137.057 30.6652 132.749 12.8688 132.749 12.8688C132.749 12.8688 127.879 29.9696 126.851 31.0861ZM125.226 21.2202C130.881 20.8067 133.991 20.8238 139.543 21.2202L139.344 26.7345C133.692 27.3678 130.775 27.3988 125.226 26.7345V21.2202ZM144.812 10.6283C143.487 9.99678 143.023 6.50594 144.581 5.05063C146.139 3.59532 165.69 4.21926 167.21 5.05063C168.73 5.882 168.134 9.79794 167.21 10.6283C166.287 11.4587 159.18 10.4127 158.83 10.746C158.481 11.0793 160.473 29.618 159.129 31.0861C157.785 32.5542 154.798 32.4368 153.064 31.0217C151.33 29.6065 153.119 11.0793 152.766 10.746C152.412 10.4127 146.137 11.2599 144.812 10.6283ZM178.11 5.05063C179.411 6.60536 177.984 21.9953 176.826 22.9499C175.667 23.9045 173.549 23.7057 172.451 22.9499C171.353 22.1942 169.432 6.47852 170.991 5.05063C172.55 3.62273 176.809 3.4959 178.11 5.05063ZM174.55 31.4924C173.567 31.4924 172.724 31.1505 172.02 30.4632C171.326 29.7687 170.982 28.9256 170.991 27.934C170.982 26.9675 171.326 26.1405 172.02 25.4544C172.724 24.768 173.567 24.4247 174.55 24.4247C175.482 24.4247 176.304 24.768 177.016 25.4544C177.738 26.1405 178.101 26.9675 178.11 27.934C178.101 28.5945 177.927 29.1959 177.589 29.7383C177.258 30.2717 176.826 30.7013 176.291 31.0217C175.758 31.3367 175.178 31.4924 174.55 31.4924Z" fill="#FFC700"/>
</g>
<g filter="url(#filter2_d_1352_12775)">
<path d="M56.8513 13.3669C56.3557 12.9122 56.3044 12.4777 56.0553 12.1202C55.8063 11.7537 55.4947 11.4455 55.1212 11.1952C54.7563 10.936 54.3293 10.7439 53.84 10.6188C53.3596 10.4847 52.83 10.4177 52.2519 10.4177C51.0062 10.4177 49.943 10.7171 49.0621 11.3158C48.1903 11.9147 47.523 12.777 47.0604 13.9031C46.6066 15.0291 46.3798 16.3875 46.3798 17.9782C46.3798 19.5867 46.5978 20.963 47.0337 22.107C47.4696 23.2508 48.119 24.1266 48.9821 24.7343C49.8452 25.3421 50.9173 25.6459 52.1985 25.6459C53.3284 25.6459 54.267 25.4806 55.0144 25.1499C55.7706 24.8192 56.3356 24.35 56.7092 23.7423C57.0829 23.1347 57.2697 22.4197 57.2697 21.5976L58.551 21.7316C58.551 21.7316 53.1985 22.2837 52.3052 21.7316C51.4119 21.1795 51.2156 17.525 52.3052 16.4232C53.3949 15.3214 63.0664 15.3214 63.8438 16.4232C64.6213 17.525 64.4231 20.2301 64.4231 20.2301C64.4231 22.7325 63.8936 24.8729 62.8349 26.6512C61.7851 28.4216 60.3348 29.7787 58.4841 30.7262C56.6425 31.6642 54.5295 32.1342 52.1451 32.1342C49.4847 32.1342 47.1493 31.5661 45.1387 30.4317C43.1279 29.2974 41.5575 27.6798 40.4277 25.5789C39.3066 23.4788 38.7461 20.981 38.7461 18.0854C38.7461 15.8154 39.0886 13.8047 39.7738 12.0532C40.4677 10.3015 41.4285 8.82249 42.6562 7.61604C43.8842 6.40072 45.3033 5.48456 46.9136 4.86793C48.524 4.24244 50.2499 3.92969 52.0918 3.92969C53.711 3.92969 55.2146 4.16203 56.6025 4.62672C57.9994 5.08253 59.2316 5.73483 60.2993 6.5838C61.3758 7.4239 62.2432 8.42027 62.9016 9.57311C63.56 10.726 64.0526 11.7943 63.4264 13.3669C62.8002 14.9394 57.6863 14.1328 56.8513 13.3669ZM94.3605 18.0318C94.3605 21.0882 93.769 23.6664 92.5856 25.7666C91.4023 27.8573 89.8053 29.4446 87.7945 30.5261C85.7837 31.5982 83.5418 32.1342 81.0684 32.1342C78.5772 32.1342 76.3262 31.5925 74.3154 30.511C72.3137 29.422 70.721 27.8308 69.5377 25.7398C68.3633 23.6396 67.7761 21.0702 67.7761 18.0318C67.7761 14.9755 68.3633 12.4016 69.5377 10.3105C70.721 8.21039 72.3137 6.624 74.3154 5.55175C76.3262 4.47025 78.5772 3.92969 81.0684 3.92969C83.5418 3.92969 85.7837 4.47025 87.7945 5.55175C89.8053 6.624 91.4023 8.21039 92.5856 10.3105C93.769 12.4016 94.3605 14.9755 94.3605 18.0318ZM86.7268 18.0318C86.7268 16.3875 86.5089 15.0023 86.0729 13.8763C85.6458 12.7412 85.0097 11.8833 84.1645 11.3024C83.3282 10.7126 82.2962 10.4177 81.0684 10.4177C79.8406 10.4177 78.804 10.7126 77.9588 11.3024C77.1226 11.8833 76.4863 12.7412 76.0504 13.8763C75.6233 15.0023 75.4098 16.3875 75.4098 18.0318C75.4098 19.6762 75.6233 21.0659 76.0504 22.2008C76.4863 23.3269 77.1226 24.1847 77.9588 24.7745C78.804 25.3555 79.8406 25.6459 81.0684 25.6459C82.2962 25.6459 83.3282 25.3555 84.1645 24.7745C85.0097 24.1847 85.6458 23.3269 86.0729 22.2008C86.5089 21.0659 86.7268 19.6762 86.7268 18.0318Z" fill="#E31616"/>
</g>
<defs>
<filter id="filter0_d_1352_12775" x="0.49999" y="0.554688" width="37.6328" height="37.8926" filterUnits="userSpaceOnUse" color-interpolation-filters="sRGB">
<feFlood flood-opacity="0" result="BackgroundImageFix"/>
<feColorMatrix in="SourceAlpha" type="matrix" values="0 0 0 0 0 0 0 0 0 0 0 0 0 0 0 0 0 0 127 0" result="hardAlpha"/>
<feOffset dy="1.50001"/>
<feGaussianBlur stdDeviation="0.750005"/>
<feComposite in2="hardAlpha" operator="out"/>
<feColorMatrix type="matrix" values="0 0 0 0 0 0 0 0 0 0 0 0 0 0 0 0 0 0 0.25 0"/>
<feBlend mode="normal" in2="BackgroundImageFix" result="effect1_dropShadow_1352_12775"/>
<feBlend mode="normal" in="SourceGraphic" in2="effect1_dropShadow_1352_12775" result="shape"/>
</filter>
<filter id="filter1_d_1352_12775" x="96.209" y="3.93164" width="83.918" height="31.2051" filterUnits="userSpaceOnUse" color-interpolation-filters="sRGB">
<feFlood flood-opacity="0" result="BackgroundImageFix"/>
<feColorMatrix in="SourceAlpha" type="matrix" values="0 0 0 0 0 0 0 0 0 0 0 0 0 0 0 0 0 0 127 0" result="hardAlpha"/>
<feOffset dy="1.50001"/>
<feGaussianBlur stdDeviation="0.750005"/>
<feComposite in2="hardAlpha" operator="out"/>
<feColorMatrix type="matrix" values="0 0 0 0 0 0 0 0 0 0 0 0 0 0 0 0 0 0 0.25 0"/>
<feBlend mode="normal" in2="BackgroundImageFix" result="effect1_dropShadow_1352_12775"/>
<feBlend mode="normal" in="SourceGraphic" in2="effect1_dropShadow_1352_12775" result="shape"/>
</filter>
<filter id="filter2_d_1352_12775" x="37.2461" y="3.92969" width="58.6143" height="31.2051" filterUnits="userSpaceOnUse" color-interpolation-filters="sRGB">
<feFlood flood-opacity="0" result="BackgroundImageFix"/>
<feColorMatrix in="SourceAlpha" type="matrix" values="0 0 0 0 0 0 0 0 0 0 0 0 0 0 0 0 0 0 127 0" result="hardAlpha"/>
<feOffset dy="1.50001"/>
<feGaussianBlur stdDeviation="0.750005"/>
<feComposite in2="hardAlpha" operator="out"/>
<feColorMatrix type="matrix" values="0 0 0 0 0 0 0 0 0 0 0 0 0 0 0 0 0 0 0.25 0"/>
<feBlend mode="normal" in2="BackgroundImageFix" result="effect1_dropShadow_1352_12775"/>
<feBlend mode="normal" in="SourceGraphic" in2="effect1_dropShadow_1352_12775" result="shape"/>
</filter>
</defs>
</svg>
