<svg width="50" height="46" viewBox="0 0 50 46" fill="none" xmlns="http://www.w3.org/2000/svg">
<path d="M45.8438 26.933L49.9473 8.87778C50.2436 7.57416 49.2527 6.33278 47.9158 6.33278H13.8201L13.0245 2.44311C12.8262 1.4736 11.9731 0.777344 10.9834 0.777344H2.08333C0.932726 0.777344 0 1.71005 0 2.86063V4.24949C0 5.40008 0.932726 6.33278 2.08333 6.33278H8.14957L14.2475 36.1442C12.7886 36.9832 11.8056 38.5562 11.8056 40.3599C11.8056 43.0445 13.9819 45.2209 16.6667 45.2209C19.3514 45.2209 21.5278 43.0445 21.5278 40.3599C21.5278 38.9993 20.9681 37.7701 20.0674 36.8877H38.2659C37.3652 37.7701 36.8056 38.9993 36.8056 40.3599C36.8056 43.0445 38.982 45.2209 41.6667 45.2209C44.3514 45.2209 46.5278 43.0445 46.5278 40.3599C46.5278 38.4352 45.409 36.7721 43.7866 35.9845L44.2655 33.8773C44.5617 32.5736 43.5708 31.3323 42.234 31.3323H18.9338L18.3656 28.5545H43.8123C44.785 28.5545 45.6282 27.8815 45.8438 26.933Z" fill="#911010"/>
</svg>
